<svg width="768" height="707" viewBox="0 0 768 707" fill="none" xmlns="http://www.w3.org/2000/svg">
<mask id="mask0_17676_235108" style="mask-type:alpha" maskUnits="userSpaceOnUse" x="0" y="-61" width="768" height="768">
<rect width="768" height="768" transform="translate(0 -61)" fill="url(#paint0_radial_17676_235108)"/>
</mask>
<g mask="url(#mask0_17676_235108)">
<g clip-path="url(#clip0_17676_235108)">
<g clip-path="url(#clip1_17676_235108)">
<line x1="0.5" y1="-61" x2="0.5" y2="707" stroke="#EAECF0"/>
<line x1="48.5" y1="-61" x2="48.5" y2="707" stroke="#EAECF0"/>
<line x1="96.5" y1="-61" x2="96.5" y2="707" stroke="#EAECF0"/>
<line x1="144.5" y1="-61" x2="144.5" y2="707" stroke="#EAECF0"/>
<line x1="192.5" y1="-61" x2="192.5" y2="707" stroke="#EAECF0"/>
<line x1="240.5" y1="-61" x2="240.5" y2="707" stroke="#EAECF0"/>
<line x1="288.5" y1="-61" x2="288.5" y2="707" stroke="#EAECF0"/>
<line x1="336.5" y1="-61" x2="336.5" y2="707" stroke="#EAECF0"/>
<line x1="384.5" y1="-61" x2="384.5" y2="707" stroke="#EAECF0"/>
<line x1="432.5" y1="-61" x2="432.5" y2="707" stroke="#EAECF0"/>
<line x1="480.5" y1="-61" x2="480.5" y2="707" stroke="#EAECF0"/>
<line x1="528.5" y1="-61" x2="528.5" y2="707" stroke="#EAECF0"/>
<line x1="576.5" y1="-61" x2="576.5" y2="707" stroke="#EAECF0"/>
<line x1="624.5" y1="-61" x2="624.5" y2="707" stroke="#EAECF0"/>
<line x1="672.5" y1="-61" x2="672.5" y2="707" stroke="#EAECF0"/>
<line x1="720.5" y1="-61" x2="720.5" y2="707" stroke="#EAECF0"/>
</g>
<rect x="0.5" y="-60.5" width="767" height="767" stroke="#EAECF0"/>
<g clip-path="url(#clip2_17676_235108)">
<line y1="34.5" x2="768" y2="34.5" stroke="#EAECF0"/>
<line y1="82.5" x2="768" y2="82.5" stroke="#EAECF0"/>
<line y1="130.5" x2="768" y2="130.5" stroke="#EAECF0"/>
<line y1="178.5" x2="768" y2="178.5" stroke="#EAECF0"/>
<line y1="226.5" x2="768" y2="226.5" stroke="#EAECF0"/>
<line y1="274.5" x2="768" y2="274.5" stroke="#EAECF0"/>
<line y1="322.5" x2="768" y2="322.5" stroke="#EAECF0"/>
<line y1="370.5" x2="768" y2="370.5" stroke="#EAECF0"/>
<line y1="418.5" x2="768" y2="418.5" stroke="#EAECF0"/>
<line y1="466.5" x2="768" y2="466.5" stroke="#EAECF0"/>
<line y1="514.5" x2="768" y2="514.5" stroke="#EAECF0"/>
<line y1="562.5" x2="768" y2="562.5" stroke="#EAECF0"/>
<line y1="610.5" x2="768" y2="610.5" stroke="#EAECF0"/>
<line y1="658.5" x2="768" y2="658.5" stroke="#EAECF0"/>
<line y1="706.5" x2="768" y2="706.5" stroke="#EAECF0"/>
</g>
<rect x="0.5" y="-60.5" width="767" height="767" stroke="#EAECF0"/>
</g>
</g>
<defs>
<radialGradient id="paint0_radial_17676_235108" cx="0" cy="0" r="1" gradientUnits="userSpaceOnUse" gradientTransform="translate(384 384) rotate(90) scale(384 384)">
<stop/>
<stop offset="1" stop-opacity="0"/>
</radialGradient>
<clipPath id="clip0_17676_235108">
<rect width="768" height="768" fill="white" transform="translate(0 -61)"/>
</clipPath>
<clipPath id="clip1_17676_235108">
<rect y="-61" width="768" height="768" fill="white"/>
</clipPath>
<clipPath id="clip2_17676_235108">
<rect y="-61" width="768" height="768" fill="white"/>
</clipPath>
</defs>
</svg>
