<svg width="178" height="32" viewBox="0 0 178 32" fill="none" xmlns="http://www.w3.org/2000/svg">
<path d="M96.57 23.9331V24.5421H97.1616V23.9331H96.57ZM97.7532 23.9331V24.5421H98.3796V23.9331H97.7532ZM98.3796 25.1163H97.7532V26.7113H97.1616V25.1163H96.57V25.3947H95.9668V22.1931H97.1616V21.3463H97.7532V22.1931H98.9828V25.3889H98.3796V25.1163ZM98.3796 23.3821V22.7673H97.7532V23.3821H98.3796ZM97.1616 23.3821V22.7673H96.57V23.3821H97.1616ZM94.5806 24.5131C94.4008 24.6987 94.2036 24.8901 93.9948 25.0757L93.8034 24.4377C94.482 23.8345 94.946 23.2429 95.1954 22.6687H93.931V22.0887H94.6676C94.5922 21.8741 94.5052 21.6653 94.4124 21.4681L94.9808 21.3057C95.091 21.5899 95.178 21.8509 95.2418 22.0887H95.8044V22.5991C95.671 22.9993 95.4622 23.3995 95.178 23.7997V23.8345C95.4448 23.9969 95.6942 24.1825 95.9204 24.3913L95.6014 24.8901C95.4564 24.7335 95.3172 24.5943 95.178 24.4783V26.7229H94.5806V24.5131Z" fill="#1C8B7F"/>
<path d="M86.6926 23.7127C86.5302 23.9099 86.362 24.0955 86.1822 24.2753L85.9792 23.6257C86.565 22.9819 87 22.2221 87.2842 21.3463L87.8584 21.6131C87.7192 22.0423 87.5278 22.4599 87.2958 22.8543V26.7345H86.6926V23.7127ZM87.8236 22.0365H88.9256L89.0822 21.3463L89.6738 21.4043C89.6274 21.6247 89.5752 21.8335 89.5288 22.0365H91.176V22.6165H89.378C89.3316 22.7905 89.2852 22.9587 89.2388 23.1153H91.4138V23.6895H89.0474C88.972 23.8925 88.8966 24.0839 88.827 24.2579H91.1064V24.7799C90.8802 25.1395 90.5322 25.4991 90.0682 25.8587C90.3002 25.9805 90.5206 26.1081 90.7352 26.2473L90.3988 26.7693C89.6912 26.2995 88.9604 25.9283 88.218 25.6615L88.537 25.1859C88.885 25.3135 89.2214 25.4469 89.5404 25.5977C89.9232 25.3425 90.2248 25.0815 90.4568 24.8147H88.0382C88.189 24.4551 88.3282 24.0781 88.4616 23.6895H87.5684V23.1153H88.6414C88.6878 22.9471 88.7342 22.7789 88.7806 22.6165H87.8236V22.0365Z" fill="#1C8B7F"/>
<path d="M82.969 25.2613H81.0724C81.2928 25.4411 81.461 25.5977 81.5828 25.7369L81.171 26.0269C81.0202 25.8529 80.823 25.6557 80.5794 25.4411L80.8636 25.2613H78.7988V24.8321H82.389V24.6117H79.0598V24.2115H82.389V23.9911H78.8684V23.5619H79.4832V23.3299H78.5088V22.9123H79.4832V22.6977H78.7234V22.2801H79.4832V22.0713H78.619V21.6537H79.4832V21.3869H80.0748V21.6537H80.8462V22.0713H80.0748V22.2801H80.7592V22.6977H80.0748V22.9123H80.8404V23.3299H80.0748V23.5619H81.8496V23.3299H81.0086V22.9123H81.8496V22.6977H81.1304V22.2801H81.8496V22.0713H81.0376V21.6537H81.8496V21.3869H82.4412V21.6537H83.2996V22.0713H82.4412V22.2801H83.1778V22.6977H82.4412V22.9123H83.3808V23.3299H82.4412V23.5619H82.969V25.2613ZM78.8046 25.4527L79.3266 25.5687C79.2106 25.9805 79.0482 26.3343 78.8394 26.6359L78.358 26.3343C78.5668 26.0559 78.7118 25.7659 78.8046 25.4527ZM81.7568 26.6185H80.1966C79.8022 26.6185 79.605 26.4387 79.605 26.0791V25.4353H80.1908V25.9515C80.1908 26.0559 80.243 26.1081 80.3532 26.1081H81.6408C81.7336 26.1081 81.7974 26.0849 81.838 26.0385C81.8902 25.9863 81.925 25.8355 81.9424 25.5861L82.4934 25.7601C82.447 26.1777 82.3658 26.4271 82.2556 26.5083C82.1396 26.5779 81.9772 26.6185 81.7568 26.6185ZM82.9284 25.3425C83.2474 25.6789 83.491 25.9805 83.665 26.2415L83.2242 26.5489C83.0444 26.2647 82.8008 25.9515 82.4992 25.6093L82.9284 25.3425Z" fill="#1C8B7F"/>
<path d="M71.3748 22.2453C71.2704 22.3961 71.1544 22.5237 71.0384 22.6397H71.7924C71.8156 22.5121 71.833 22.3845 71.8446 22.2453H71.3748ZM71.6184 23.1907H70.5802V22.6397H70.8354L70.5512 22.2859C70.818 22.0539 71.05 21.7233 71.253 21.2941L71.7982 21.4159C71.7576 21.5203 71.717 21.6247 71.6706 21.7175H73.2308V22.2453H72.413C72.4014 22.3845 72.3898 22.5121 72.3724 22.6397H73.3932V23.1907H72.2506L72.2332 23.2429C72.6624 23.4633 73.022 23.6779 73.3178 23.8983L72.9756 24.2405H75.2028V26.7403H74.588V26.5257H71.9084V26.7403H71.2994V24.3797C71.1602 24.4609 71.0152 24.5421 70.8644 24.6175L70.4584 24.1245C71.05 23.8635 71.4386 23.5503 71.6184 23.1907ZM71.9084 25.9921H74.588V25.6557H71.9084V25.9921ZM71.9084 25.1337H74.588V24.7741H71.9084V25.1337ZM71.5024 24.2405H72.79C72.5812 24.0549 72.3318 23.8751 72.036 23.6895C71.9026 23.8867 71.7228 24.0723 71.5024 24.2405ZM73.5498 21.7349H75.6262V23.9563H73.5498V21.7349ZM75.0346 23.4285V22.2685H74.1414V23.4285H75.0346Z" fill="#1C8B7F"/>
<path d="M61.7004 23.7359C61.6192 23.8461 61.538 23.9447 61.4568 24.0375L61.0972 23.5793C61.538 23.0225 61.8396 22.2801 61.9962 21.3463L62.5878 21.4507C62.5414 21.7059 62.4834 21.9437 62.4254 22.1757H64.003V22.7615H63.6318C63.5854 23.6837 63.3708 24.4725 62.9822 25.1279C63.336 25.6035 63.7478 25.9689 64.2234 26.2299L63.8754 26.7461C63.394 26.4735 62.9822 26.1023 62.6342 25.6267C62.2862 26.0559 61.8512 26.4155 61.3408 26.7055L61.0102 26.1835C60.9348 26.4967 60.6796 26.6533 60.2504 26.6533C60.1692 26.6533 60.0358 26.6417 59.8386 26.6185L59.6994 26.1023C59.8734 26.1139 60.0242 26.1255 60.1576 26.1255C60.3374 26.1255 60.4418 26.0327 60.4766 25.8587C60.4998 25.6847 60.5172 25.0583 60.5288 23.9911H59.9662C59.885 25.1975 59.6414 26.1081 59.2354 26.7229L58.7598 26.3053C59.2006 25.6615 59.421 24.6233 59.4326 23.1907V22.7499H58.8932V22.1641H59.9082C59.8096 21.9205 59.6994 21.6885 59.5776 21.4623L60.1634 21.2999C60.3084 21.6131 60.4244 21.9031 60.5172 22.1641H61.3466V22.7499H59.9952V23.1907C59.9952 23.2719 59.9894 23.3531 59.9894 23.4343H61.0972C61.0972 24.8959 61.0682 25.8007 61.0218 26.1371C61.5496 25.8645 61.973 25.5165 62.292 25.0989C62.06 24.6929 61.8628 24.2405 61.7004 23.7359ZM62.2282 22.7615C62.1702 22.9065 62.1064 23.0399 62.0484 23.1617C62.205 23.6895 62.3964 24.1535 62.6226 24.5595C62.8778 24.0433 63.0286 23.4459 63.0634 22.7615H62.2282Z" fill="#1C8B7F"/>
<path d="M51.4343 21.6479H56.0279V22.2337H55.1173V23.5677H56.3179V24.1535H55.1173V26.6417H54.5083V24.1535H53.0061C52.9481 24.7219 52.8321 25.2033 52.6639 25.5919C52.4377 26.0791 52.0665 26.4561 51.5503 26.7171L51.2197 26.2009C51.6895 25.9283 52.0027 25.5861 52.1651 25.1801C52.2695 24.8901 52.3449 24.5479 52.3913 24.1535H51.1385V23.5677H52.4319C52.4319 23.5329 52.4377 23.5039 52.4377 23.4691V22.2337H51.4343V21.6479ZM53.0525 22.2337V23.4691C53.0525 23.5039 53.0467 23.5329 53.0467 23.5677H54.5083V22.2337H53.0525Z" fill="#1C8B7F"/>
<path d="M43.7841 21.4391C44.1901 21.7349 44.5381 22.0307 44.8223 22.3207L44.4105 22.7267C44.1669 22.4483 43.8247 22.1525 43.3781 21.8277L43.7841 21.4391ZM43.6797 22.8601C44.0625 23.1443 44.3815 23.4285 44.6425 23.7069L44.2365 24.1187C44.0161 23.8519 43.6913 23.5619 43.2737 23.2487L43.6797 22.8601ZM44.1901 24.4493L44.7121 24.6581C44.4685 25.3889 44.1901 26.0733 43.8885 26.7113L43.3259 26.4619C43.6623 25.8007 43.9465 25.1337 44.1901 24.4493ZM45.8257 22.4773H46.6087C46.6551 22.3381 46.6957 22.2047 46.7247 22.0713H45.5415V23.5213C45.5183 24.8553 45.2979 25.9225 44.8745 26.7345L44.4163 26.3285C44.7643 25.6557 44.9441 24.7161 44.9615 23.5213V21.5377H48.5285V22.0713H47.2931C47.2583 22.2105 47.2235 22.3439 47.1771 22.4773H48.2443V24.6291H47.3337V26.1313C47.3337 26.5141 47.1539 26.7055 46.7943 26.7055H46.3071L46.1795 26.1603C46.3187 26.1835 46.4579 26.1951 46.5971 26.1951C46.7015 26.1951 46.7595 26.1255 46.7595 25.9863V24.6291H45.8257V22.4773ZM47.7165 24.1535V23.7707H46.3535V24.1535H47.7165ZM46.3535 23.3357H47.7165V22.9413H46.3535V23.3357ZM45.8953 24.9597L46.4289 25.0757C46.2897 25.5977 46.0983 26.0443 45.8431 26.4271L45.3559 26.1197C45.6111 25.7601 45.7909 25.3715 45.8953 24.9597ZM48.0645 24.9249C48.2791 25.3193 48.4647 25.7427 48.6271 26.1951L48.1167 26.4213C47.9485 25.9225 47.7629 25.4817 47.5657 25.0989L48.0645 24.9249Z" fill="#1C8B7F"/>
<path d="M35.8903 21.6479H40.4839V22.2337H39.5733V23.5677H40.7739V24.1535H39.5733V26.6417H38.9643V24.1535H37.4621C37.4041 24.7219 37.2881 25.2033 37.1199 25.5919C36.8937 26.0791 36.5225 26.4561 36.0063 26.7171L35.6757 26.2009C36.1455 25.9283 36.4587 25.5861 36.6211 25.1801C36.7255 24.8901 36.8009 24.5479 36.8473 24.1535H35.5945V23.5677H36.8879C36.8879 23.5329 36.8937 23.5039 36.8937 23.4691V22.2337H35.8903V21.6479ZM37.5085 22.2337V23.4691C37.5085 23.5039 37.5027 23.5329 37.5027 23.5677H38.9643V22.2337H37.5085Z" fill="#1C8B7F"/>
<path d="M22.1656 15.7595C22.1656 16.0799 22.1562 16.4008 22.1682 16.7208C22.1807 17.048 22.1179 17.3622 22.0443 17.6768C21.9851 17.9291 21.9441 18.1871 21.8612 18.4314C21.756 18.7407 21.6357 19.0477 21.4877 19.3383C21.2867 19.7332 21.0487 20.1067 20.7652 20.4525C20.5264 20.7436 20.2634 21.0074 19.988 21.2623C19.6332 21.5899 19.2388 21.8591 18.8212 22.0976C18.3688 22.356 17.8826 22.5348 17.3883 22.6885C17.1757 22.7549 16.9435 22.7572 16.7282 22.8173C16.5321 22.8721 16.3311 22.8369 16.1413 22.8757C15.5423 22.9974 14.9393 22.9087 14.3389 22.9314C14.1883 22.9372 14.0341 22.8681 13.8835 22.8753C13.5532 22.8904 13.235 22.8187 12.9199 22.7527C12.4965 22.664 12.0887 22.5138 11.6911 22.3369C11.0935 22.0708 10.5506 21.7201 10.0666 21.2837C9.81526 21.0569 9.58797 20.8024 9.35799 20.5533C8.95733 20.1192 8.66273 19.6138 8.42251 19.0794C8.25939 18.7166 8.11543 18.3462 8.041 17.9487C7.99599 17.7089 7.95543 17.4674 7.90418 17.2311C7.86273 17.0404 7.85471 16.8563 7.85337 16.6696C7.84802 15.993 7.8507 15.3165 7.85203 14.6399C7.85203 14.5281 7.8293 14.4118 7.90774 14.311C7.9229 14.2919 7.92111 14.2558 7.92022 14.2281C7.9073 13.9496 8.01025 13.6933 8.07042 13.4286C8.16891 12.9958 8.3307 12.584 8.53036 12.1927C8.73671 11.7885 8.98585 11.4079 9.27376 11.05C9.51978 10.7447 9.79744 10.4746 10.0809 10.2103C10.3906 9.92151 10.7427 9.68842 11.1113 9.47583C11.3979 9.31048 11.6889 9.15761 11.9973 9.04485C12.3837 8.90401 12.7768 8.79125 13.1842 8.70836C13.9303 8.55683 14.679 8.60585 15.4273 8.59248C15.5485 8.59025 15.6697 8.59337 15.7905 8.59204C16.1301 8.58758 16.4631 8.63259 16.7929 8.71237C16.8882 8.73555 16.9863 8.75159 17.0839 8.7605C17.4092 8.79037 17.7038 8.92496 18.0047 9.03237C18.6389 9.25922 19.2169 9.59928 19.7366 10.02C20.1823 10.3806 20.5936 10.7866 20.919 11.2666C21.0732 11.4939 21.2417 11.7132 21.3754 11.9516C21.543 12.2502 21.6789 12.5648 21.7983 12.888C21.9031 13.1719 21.9565 13.4669 22.0377 13.7557C22.211 14.3721 22.1589 15.0036 22.1647 15.6311C22.1647 15.6739 22.1656 15.7167 22.1656 15.7595ZM18.9709 15.5835C18.9428 15.3388 19.0182 15.025 18.9174 14.7184C18.8782 14.5998 18.8894 14.4635 18.8435 14.3485C18.6794 13.9393 18.5159 13.5302 18.2485 13.1701C17.9975 12.8323 17.7092 12.5354 17.3723 12.2885C16.9547 11.9823 16.4791 11.7947 15.9817 11.6615C15.8538 11.6271 15.721 11.5879 15.5913 11.5906C15.0364 11.6013 14.4802 11.5326 13.9289 11.7029C13.5996 11.805 13.2751 11.9155 12.9814 12.0844C12.5063 12.3572 12.1056 12.7208 11.7821 13.1732C11.3101 13.8333 11.0511 14.5566 11.0458 15.3691C11.0445 15.5897 11.0511 15.8108 11.0445 16.0314C11.036 16.3162 11.0806 16.601 11.163 16.863C11.3163 17.3488 11.524 17.8145 11.8489 18.2223C12.0619 18.4898 12.2959 18.7371 12.5656 18.9386C12.9141 19.1988 13.2943 19.403 13.7203 19.5362C14.1281 19.6637 14.5373 19.7283 14.9575 19.7448C15.1256 19.7515 15.2949 19.7074 15.4634 19.7082C15.8739 19.7096 16.2509 19.5728 16.6222 19.427C17.0665 19.2532 17.4578 18.9845 17.7992 18.6547C18.0519 18.4109 18.2837 18.143 18.4455 17.8257C18.5373 17.6456 18.6193 17.4611 18.7093 17.2802C18.8853 16.9276 18.9522 16.5497 18.9691 16.1615C18.9767 15.9908 18.9709 15.8188 18.9709 15.5835Z" fill="#1C8B7F"/>
<path d="M2.02295 21.4789C2.21237 21.4789 2.38841 21.4709 2.56267 21.4838C2.61259 21.4879 2.67588 21.5431 2.70217 21.5917C2.82251 21.8137 2.92546 22.045 3.04624 22.2669C3.17682 22.5071 3.32033 22.7402 3.45805 22.9764C3.53916 23.1155 3.6127 23.2599 3.70273 23.3931C3.88279 23.6597 4.05883 23.9302 4.26028 24.1802C4.59721 24.5983 4.92836 25.0257 5.30674 25.4041C5.74039 25.8377 6.2146 26.233 6.68702 26.6261C7.38318 27.206 8.15554 27.6735 8.96579 28.075C9.40479 28.293 9.8527 28.4967 10.3109 28.6696C10.7004 28.8167 11.11 28.9125 11.5115 29.0279C11.7731 29.1028 12.0343 29.1794 12.2991 29.2414C12.4689 29.2811 12.6449 29.2922 12.8174 29.3216C12.9961 29.3519 13.1739 29.3885 13.3518 29.4228C13.3794 29.4281 13.4061 29.4415 13.4338 29.4433C13.6735 29.4607 13.9133 29.4865 14.1535 29.4896C14.6736 29.4968 15.1942 29.4972 15.7143 29.4896C16.0116 29.4856 16.3093 29.4718 16.6048 29.4415C16.812 29.4201 17.0153 29.3599 17.2212 29.3225C17.4418 29.2824 17.666 29.2597 17.8843 29.2111C18.429 29.0899 18.962 28.9312 19.4906 28.7471C19.9483 28.5876 20.3998 28.4169 20.8343 28.2065C21.2448 28.0073 21.6455 27.7849 22.0394 27.5549C22.3492 27.374 22.6482 27.1725 22.9424 26.9666C23.1617 26.8133 23.3743 26.6471 23.5757 26.471C23.947 26.1461 24.3204 25.8221 24.6699 25.4749C25.1017 25.0466 25.4904 24.58 25.8589 24.0933C26.1366 23.7274 26.3786 23.341 26.6282 22.9586C26.7646 22.7491 26.8742 22.5218 26.9919 22.3008C27.1331 22.0347 27.2704 21.7664 27.4175 21.4838C27.6247 21.4772 27.8409 21.4558 28.0878 21.5035C28.033 21.6282 27.9929 21.7308 27.9438 21.8284C27.7999 22.1176 27.6599 22.4091 27.504 22.6921C27.327 23.0125 27.1452 23.3316 26.9464 23.6383C26.7516 23.9387 26.5391 24.2288 26.322 24.514C26.1005 24.8051 25.8768 25.0961 25.6312 25.3666C25.3464 25.6799 25.0442 25.979 24.7358 26.2696C24.4172 26.57 24.0905 26.8632 23.7504 27.1391C23.483 27.3562 23.1884 27.5398 22.9085 27.7417C22.3929 28.1134 21.8309 28.4084 21.2684 28.6972C20.8593 28.9071 20.4221 29.0654 19.9906 29.228C19.5869 29.3804 19.1759 29.5146 18.7641 29.6439C18.572 29.704 18.3697 29.7325 18.1723 29.7767C17.9146 29.8346 17.6593 29.9028 17.3999 29.95C17.2203 29.983 17.0326 29.9745 16.8535 30.0098C16.4796 30.0837 16.0936 30.0378 15.7219 30.1301C15.6747 30.1417 15.6225 30.1336 15.5726 30.1336C15.2303 30.1336 14.888 30.1417 14.5462 30.1314C14.236 30.1221 13.9227 30.1163 13.6178 30.0655C13.3183 30.0155 13.0188 29.9875 12.718 29.9567C12.4916 29.9335 12.2701 29.8604 12.0464 29.8101C11.9572 29.79 11.8663 29.7758 11.778 29.7526C11.4821 29.6742 11.1831 29.6055 10.8929 29.5097C10.4896 29.3764 10.0916 29.2267 9.69448 29.076C9.40033 28.9642 9.10529 28.8505 8.82095 28.7164C8.55443 28.5903 8.29994 28.4396 8.04368 28.293C7.53515 28.002 7.03866 27.6913 6.57426 27.3321C6.30596 27.1248 6.03677 26.9185 5.77114 26.7077C5.67755 26.6333 5.59242 26.5481 5.50641 26.4648C5.26217 26.229 5.00635 26.004 4.77905 25.753C4.34808 25.2771 3.90373 24.8113 3.54986 24.2703C3.32301 23.9235 3.06986 23.5937 2.85682 23.2394C2.63666 22.873 2.4468 22.4875 2.25114 22.1069C2.16869 21.946 2.10318 21.7762 2.03365 21.6091C2.02117 21.5797 2.02786 21.5431 2.02295 21.4789Z" fill="#1C8B7F"/>
<path d="M2.32201 9.8141C2.3327 9.58011 2.45437 9.43571 2.53861 9.27839C2.81359 8.76318 3.11354 8.26134 3.4585 7.79159C3.9434 7.13154 4.45593 6.49198 5.05671 5.92998C5.36156 5.64474 5.65348 5.34346 5.97749 5.0814C6.48735 4.66914 7.01504 4.27783 7.57616 3.93465C8.10429 3.61154 8.6449 3.30981 9.2127 3.06602C9.71944 2.84853 10.2445 2.67337 10.7628 2.48351C10.9651 2.40908 11.1692 2.33599 11.3769 2.27894C11.5659 2.22725 11.7607 2.19738 11.9532 2.1595C12.2335 2.10424 12.5134 2.04407 12.7955 1.99861C13.0184 1.96296 13.2479 1.96429 13.4681 1.91883C13.8335 1.84351 14.2043 1.89165 14.5671 1.84619C14.7775 1.81989 14.991 1.7673 15.1947 1.8034C15.561 1.86803 15.9287 1.83594 16.2937 1.86803C16.6489 1.89922 16.9992 1.99103 17.3549 2.01956C17.7983 2.05521 18.2146 2.20897 18.6505 2.27583C18.9165 2.31683 19.1764 2.41577 19.4309 2.51114C19.9274 2.69789 20.4234 2.8873 20.9101 3.099C21.8121 3.4912 22.6509 3.99705 23.4411 4.57956C23.9064 4.92229 24.3458 5.298 24.7661 5.69688C25.3121 6.21566 25.8121 6.77231 26.2788 7.36329C26.6206 7.79605 26.9183 8.25599 27.2049 8.72396C27.3809 9.01142 27.536 9.31181 27.6947 9.60997C27.721 9.65944 27.7165 9.72541 27.7308 9.81098C27.5249 9.81098 27.3484 9.81677 27.1724 9.8083C27.0913 9.80429 27.0427 9.74724 27.0035 9.66791C26.7539 9.1634 26.4633 8.68295 26.1268 8.23059C25.9204 7.95293 25.7355 7.65744 25.5104 7.39627C25.1869 7.02056 24.8423 6.66223 24.4943 6.30836C24.2558 6.06591 24.0036 5.83549 23.7437 5.61621C23.4585 5.37555 23.1621 5.14691 22.8604 4.92719C22.6277 4.75783 22.3875 4.59649 22.1366 4.4561C21.6584 4.18736 21.1762 3.92574 20.6859 3.68017C20.1034 3.38869 19.4875 3.17521 18.8644 2.98981C18.5101 2.88463 18.1446 2.81688 17.7832 2.73577C17.5051 2.67337 17.2274 2.6034 16.9457 2.56062C16.7082 2.52452 16.4631 2.53878 16.2255 2.50223C15.6408 2.4122 15.0534 2.43137 14.4669 2.44385C14.117 2.45142 13.7685 2.50802 13.4195 2.54323C13.2091 2.56463 12.9988 2.58468 12.7893 2.61231C12.6725 2.62747 12.5567 2.65332 12.4417 2.68095C12.0352 2.77945 11.6252 2.86725 11.2241 2.98446C10.8568 3.09142 10.4967 3.22602 10.137 3.35794C9.4966 3.59237 8.88735 3.89499 8.29682 4.2346C7.58061 4.64641 6.90006 5.10992 6.27833 5.65543C5.94941 5.94423 5.61604 6.23081 5.31343 6.54636C4.85838 7.02101 4.43632 7.52507 4.04903 8.059C3.67109 8.58045 3.33682 9.1273 3.03109 9.69242C2.98696 9.77398 2.93304 9.82167 2.83053 9.81633C2.66875 9.80786 2.50563 9.8141 2.32201 9.8141Z" fill="#1C8B7F"/>
<path d="M0.41805 21.4883C0.512981 21.704 0.600334 21.9086 0.692591 22.1114C0.849471 22.4554 0.993872 22.8066 1.17259 23.1391C1.40836 23.5768 1.66552 24.0037 1.92669 24.4276C2.24891 24.9504 2.62685 25.4339 3.01638 25.9086C3.5102 26.5107 4.04591 27.0678 4.63019 27.5848C5.06028 27.9654 5.50061 28.3322 5.96813 28.6629C6.53593 29.0649 7.11265 29.4562 7.74774 29.7517C8.21125 29.9674 8.66585 30.2036 9.13382 30.4091C9.62006 30.623 10.1219 30.8013 10.6362 30.935C11.0133 31.033 11.3823 31.1569 11.7723 31.2158C12.1007 31.2652 12.4274 31.3432 12.7568 31.4021C13.1418 31.4707 13.5331 31.4587 13.9147 31.513C14.5604 31.6053 15.204 31.5425 15.848 31.5603C15.9996 31.5643 16.152 31.5197 16.3044 31.5032C16.4586 31.4867 16.6137 31.4774 16.7684 31.4654C16.8107 31.4622 16.8539 31.4645 16.8958 31.4578C17.1378 31.4194 17.3794 31.3802 17.6205 31.3397C17.744 31.3187 17.8665 31.2902 17.9904 31.2719C18.5653 31.1881 19.1238 31.0348 19.6755 30.8592C20.4149 30.6239 21.1441 30.3614 21.8331 29.9991C22.1812 29.8159 22.5382 29.6474 22.8778 29.45C23.2258 29.2481 23.5601 29.0226 23.8962 28.8006C24.5482 28.3705 25.1396 27.8633 25.7119 27.3348C25.9757 27.091 26.2115 26.8164 26.4602 26.5562C26.5092 26.5049 26.5622 26.4577 26.6108 26.406C27.1822 25.7954 27.6858 25.1318 28.1377 24.4289C28.4644 23.9208 28.7684 23.3998 29.0202 22.8494C29.1512 22.5637 29.2911 22.2816 29.4235 21.9968C29.4734 21.8894 29.5269 21.7807 29.5568 21.6666C29.6 21.5026 29.7034 21.4584 29.8554 21.4763C29.9111 21.483 29.9677 21.4856 30.0528 21.4923C30.0386 21.5904 30.0448 21.6862 30.0105 21.7642C29.7988 22.2415 29.5813 22.7157 29.3598 23.1886C29.1454 23.6463 28.8784 24.0746 28.6173 24.5069C28.3142 25.0079 27.9679 25.4776 27.6096 25.9362C27.0993 26.5896 26.531 27.1957 25.9106 27.7475C25.4578 28.1499 24.9979 28.5479 24.5121 28.9085C24.0606 29.2436 23.5828 29.5494 23.0939 29.8279C22.5399 30.1435 21.9717 30.4407 21.3883 30.6965C20.8976 30.9118 20.3967 31.1142 19.8734 31.2496C19.631 31.3125 19.3948 31.3989 19.1541 31.468C18.9665 31.522 18.777 31.571 18.5858 31.612C18.3135 31.6704 18.0403 31.7252 17.7653 31.7711C17.5643 31.8045 17.3602 31.8179 17.1583 31.8469C16.9034 31.8838 16.6494 31.9289 16.3949 31.9676C16.3458 31.9752 16.2955 31.9708 16.2456 31.9721C15.8618 31.9819 15.4777 32.0006 15.0939 31.9997C14.6318 31.9988 14.1696 31.9814 13.7074 31.9712C13.4743 31.846 13.2114 31.9427 12.9627 31.8589C12.7073 31.7729 12.4212 31.7818 12.1497 31.7394C11.9024 31.7011 11.6555 31.6566 11.4113 31.6022C11.2281 31.5612 11.0498 31.4983 10.8684 31.4489C10.687 31.3994 10.4998 31.3682 10.3238 31.3045C9.8576 31.1364 9.38696 30.9845 8.92702 30.7955C8.439 30.5945 7.96123 30.3757 7.49727 30.1283C7.00078 29.8636 6.519 29.573 6.05103 29.2574C5.19175 28.6776 4.39309 28.0282 3.67465 27.2817C3.33593 26.9296 2.98384 26.5878 2.67543 26.2099C2.29705 25.7459 1.94407 25.2601 1.60802 24.7645C1.33705 24.3643 1.09727 23.9413 0.862841 23.5179C0.560669 22.9724 0.308412 22.402 0.0797772 21.8221C0.0423398 21.7272 0.0311978 21.622 0 21.4883H0.41805Z" fill="#1C8B7F"/>
<path d="M29.764 9.79449C29.715 9.80206 29.674 9.81187 29.633 9.81365C29.3602 9.82435 29.3687 9.82034 29.2617 9.5712C29.1548 9.32117 29.0335 9.07694 28.9087 8.83493C28.7773 8.57956 28.6449 8.32329 28.4934 8.0795C28.275 7.72875 28.041 7.38736 27.8084 7.04596C27.6497 6.81332 27.4924 6.578 27.3136 6.3605C27.0222 6.00574 26.724 5.65588 26.4102 5.32117C26.1152 5.00608 25.8095 4.69855 25.4864 4.41243C25.1218 4.08931 24.7385 3.7858 24.3521 3.48897C24.045 3.25365 23.7286 3.02814 23.401 2.82223C23.0748 2.61633 22.7231 2.45098 22.3951 2.24775C21.9628 1.97989 21.497 1.78335 21.0322 1.58725C20.6338 1.41922 20.2228 1.27839 19.8133 1.13889C19.3974 0.997162 18.9749 0.876828 18.5426 0.792148C18.2841 0.741786 18.0323 0.657552 17.7738 0.610309C17.4966 0.559502 17.2158 0.515824 16.935 0.502008C16.5834 0.484627 16.238 0.383903 15.8828 0.428471C15.3983 0.312594 14.9054 0.366967 14.4192 0.386131C14.1464 0.396827 13.8647 0.390588 13.5978 0.440058C13.2845 0.498443 12.9676 0.495323 12.6569 0.550142C12.3962 0.596493 12.1404 0.668248 11.8819 0.724849C11.6911 0.766298 11.4964 0.792148 11.3074 0.839836C10.8555 0.953931 10.4022 1.06268 9.96902 1.24229C9.7239 1.3439 9.46228 1.40452 9.21671 1.50569C8.86061 1.65232 8.50941 1.81142 8.16223 1.979C7.48969 2.30346 6.83944 2.67293 6.2302 3.10257C5.69404 3.4805 5.18195 3.89499 4.67877 4.3166C4.34362 4.59738 4.03521 4.91204 3.72992 5.2258C3.50886 5.45354 3.3083 5.70178 3.10596 5.94691C2.8488 6.258 2.58808 6.56685 2.34964 6.89176C2.14641 7.16853 1.96858 7.46446 1.7854 7.75549C1.65081 7.96897 1.51443 8.1829 1.39721 8.40619C1.17928 8.82156 0.972033 9.24273 0.767911 9.66524C0.73493 9.73343 0.713092 9.80296 0.631532 9.80697C0.533036 9.81232 0.425181 9.8239 0.337827 9.79003C0.257159 9.75883 0.264735 9.65098 0.29727 9.58012C0.434095 9.28151 0.570028 8.98201 0.723343 8.69187C1.01036 8.14992 1.30897 7.61376 1.65616 7.10836C1.92267 6.72017 2.21014 6.34624 2.49538 5.97142C2.92858 5.40229 3.42106 4.88485 3.94518 4.40129C4.40735 3.97477 4.8878 3.56563 5.38251 3.177C5.98819 2.70101 6.63532 2.28162 7.319 1.92418C7.72769 1.71025 8.13816 1.49766 8.55933 1.30959C9.02462 1.1019 9.49838 0.912928 9.9873 0.764516C10.1674 0.709697 10.3407 0.633039 10.5212 0.579112C10.6955 0.527413 10.8755 0.494432 11.0516 0.449418C11.2802 0.391033 11.5075 0.327747 11.7357 0.269362C11.7763 0.259112 11.8208 0.264905 11.8623 0.257329C12.1573 0.204293 12.4524 0.149919 12.7474 0.0959919C12.7684 0.0919807 12.7893 0.0893069 12.8103 0.0875242C13.091 0.0661315 13.3714 0.0322597 13.6526 0.0269115C14.4713 0.0113126 15.29 0.00462732 16.1092 0.000170496C16.3294 -0.00116655 16.5509 0.00507245 16.7697 0.0291393C16.9832 0.0527605 17.1931 0.108025 17.4057 0.141897C17.6758 0.184683 17.9476 0.217664 18.2182 0.259112C18.3416 0.278277 18.4646 0.30368 18.5863 0.333095C18.8849 0.406187 19.1835 0.480171 19.4803 0.559948C19.6145 0.596048 19.746 0.643736 19.8765 0.691424C20.2964 0.844739 20.7211 0.986466 21.1329 1.15894C21.6178 1.36218 22.1036 1.56942 22.5658 1.81766C23.1742 2.14435 23.7607 2.51025 24.3249 2.91181C25.0184 3.40563 25.6646 3.95426 26.2765 4.54346C26.5292 4.78635 26.7659 5.04619 27.0008 5.30736C27.3671 5.71427 27.7081 6.13945 28.0299 6.57978C28.2915 6.93722 28.5206 7.31828 28.7652 7.68819C29.0982 8.19092 29.3504 8.73733 29.6165 9.27571C29.6784 9.4014 29.727 9.53376 29.7738 9.66613C29.7863 9.70134 29.7685 9.7468 29.764 9.79449Z" fill="#1C8B7F"/>
<path d="M11.4456 27.2666C11.3578 27.2104 11.2945 27.1699 11.2343 27.1311C11.5534 26.147 11.8685 25.1763 12.1916 24.1807C12.2879 24.2056 12.3704 24.227 12.4479 24.2471C12.4836 24.4739 12.3632 24.637 12.3093 24.8149C12.1502 25.3399 11.9808 25.8613 11.8142 26.3841C11.7339 26.6355 11.6546 26.8873 11.5664 27.136C11.5499 27.1828 11.4946 27.2153 11.4456 27.2666Z" fill="#1C8B7F"/>
<path d="M18.7779 27.1547C18.7405 27.1774 18.7048 27.1988 18.6696 27.2202C18.5805 27.2746 18.5266 27.2496 18.4949 27.1507C18.4232 26.9256 18.3465 26.7023 18.273 26.4777C18.1161 26.0004 17.961 25.5222 17.8028 25.0453C17.7292 24.8229 17.6504 24.6023 17.5742 24.3808C17.5447 24.2948 17.5813 24.248 17.7083 24.2083C17.809 24.1771 17.8719 24.211 17.9022 24.3086C18.0158 24.6745 18.1264 25.0417 18.2453 25.4059C18.4196 25.9407 18.6014 26.4728 18.7766 27.0072C18.7909 27.0513 18.7779 27.1043 18.7779 27.1547Z" fill="#1C8B7F"/>
<path d="M11.1871 23.7854C11.1487 23.8874 11.1167 24.0033 11.0632 24.108C10.7735 24.6758 10.4771 25.2405 10.1852 25.8074C10.0671 26.0369 9.95521 26.2696 9.83799 26.5058C9.75599 26.5446 9.66017 26.5428 9.61738 26.459C9.58752 26.4006 9.59287 26.303 9.62095 26.2397C9.72657 26.0031 9.84557 25.7722 9.96323 25.5409C10.1749 25.1242 10.3893 24.7084 10.6023 24.2921C10.695 24.1111 10.7869 23.9293 10.8813 23.7493C10.9415 23.6343 11.0159 23.6405 11.1871 23.7854Z" fill="#1C8B7F"/>
<path d="M20.2763 22.9577C20.5433 23.3152 20.8062 23.6619 21.063 24.0126C21.3772 24.4418 21.6869 24.8742 21.9975 25.3056C22.0644 25.3987 22.0519 25.4723 21.9637 25.5351C21.858 25.61 21.8318 25.6069 21.7453 25.4892C21.4614 25.1019 21.1811 24.7124 20.8972 24.3255C20.6266 23.9565 20.3534 23.5893 20.0807 23.2211C19.9929 23.1026 20.0365 22.9845 20.1836 22.955C20.217 22.9484 20.2536 22.9568 20.2763 22.9577Z" fill="#1C8B7F"/>
<path d="M22.055 6.55438C22.0158 6.62524 21.994 6.67783 21.9614 6.72284C21.7417 7.02457 21.5189 7.32407 21.2987 7.6249C21.0567 7.9556 20.8169 8.28808 20.5758 8.61922C20.5014 8.72173 20.4274 8.82468 20.3494 8.92451C20.2768 9.01811 20.2019 9.02791 20.1141 8.9624C20.0201 8.89243 20.0214 8.859 20.1065 8.73867C20.3303 8.42401 20.5482 8.10491 20.7746 7.79204C21.0906 7.35571 21.4119 6.92295 21.7315 6.48886C21.7832 6.41844 21.8558 6.38234 21.9347 6.42335C21.9842 6.4492 22.0158 6.50892 22.055 6.55304V6.55438Z" fill="#1C8B7F"/>
<path d="M18.8644 23.7595C18.9058 23.7328 18.9281 23.7149 18.9526 23.7029C19.0814 23.641 19.1019 23.6454 19.1661 23.7702C19.2981 24.0269 19.426 24.2854 19.5574 24.5426C19.8168 25.0484 20.078 25.5534 20.3378 26.0592C20.3975 26.1755 20.4546 26.2928 20.5161 26.4167C20.4608 26.4519 20.4283 26.4791 20.3909 26.4956C20.271 26.549 20.2277 26.5348 20.1694 26.422C20.0726 26.2348 19.9791 26.0467 19.8828 25.8591C19.6943 25.4905 19.5044 25.1228 19.3159 24.7547C19.1791 24.4877 19.0413 24.2212 18.9099 23.952C18.8809 23.8932 18.8782 23.821 18.8644 23.7595Z" fill="#1C8B7F"/>
<path d="M7.97638 6.56775C8.09983 6.36318 8.20769 6.35337 8.34317 6.53521C8.52056 6.77276 8.68813 7.01744 8.86329 7.25677C9.05448 7.51794 9.25281 7.77421 9.44223 8.03672C9.61025 8.26981 9.77248 8.50736 9.93248 8.7458C10.0069 8.85633 9.99487 8.95571 9.91421 9.0034C9.8273 9.05466 9.77827 9.03549 9.69136 8.9156C9.30674 8.38479 8.92301 7.85354 8.53705 7.32362C8.35164 7.06869 8.16134 6.81688 7.97638 6.56775Z" fill="#1C8B7F"/>
<path d="M20.5237 5.50569C20.4443 5.6746 20.3775 5.82613 20.3035 5.97365C20.0744 6.43048 19.844 6.88686 19.6109 7.3419C19.471 7.61555 19.3288 7.8883 19.1804 8.15794C19.1532 8.20697 19.0962 8.26268 19.0458 8.27114C18.9112 8.29343 18.8403 8.1829 18.9001 8.05231C18.9638 7.91282 19.0338 7.77555 19.1037 7.63917C19.3809 7.09677 19.6586 6.55527 19.9372 6.01376C20.0045 5.88318 20.0722 5.75304 20.1462 5.62602C20.254 5.44106 20.2567 5.4424 20.5237 5.50569Z" fill="#1C8B7F"/>
<path d="M10.0479 23.0843C9.42752 23.9128 8.84011 24.769 8.20546 25.5975C8.12212 25.5565 8.06061 25.5257 7.98395 25.4879C7.99019 25.4469 7.98395 25.3925 8.00624 25.3559C8.07666 25.2418 8.15554 25.1322 8.23577 25.0243C8.48713 24.6852 8.74028 24.3474 8.99298 24.0095C9.13248 23.8228 9.2751 23.6383 9.41281 23.4506C9.49526 23.3383 9.57192 23.222 9.64858 23.1057C9.77604 22.9127 9.85181 22.9038 10.0479 23.0843Z" fill="#1C8B7F"/>
<path d="M13.5109 24.5466C13.5621 24.5426 13.6107 24.5345 13.6588 24.535C13.8264 24.5372 13.8429 24.5644 13.7858 24.7222C13.7716 24.7614 13.7618 24.8028 13.7569 24.8443C13.7212 25.1447 13.707 25.4491 13.6463 25.7441C13.5942 25.9973 13.5675 26.2535 13.5153 26.504C13.4636 26.7523 13.4253 26.9983 13.407 27.2501C13.3981 27.374 13.358 27.4957 13.3281 27.6374H13.0848C13.0616 27.4725 13.058 27.3098 13.0955 27.14C13.1392 26.9421 13.1503 26.7371 13.1842 26.537C13.2154 26.352 13.2599 26.1693 13.2952 25.9848C13.3201 25.8538 13.3442 25.7218 13.3602 25.5895C13.3816 25.4143 13.3887 25.2378 13.4133 25.0631C13.4364 24.8982 13.4743 24.7364 13.5109 24.5466Z" fill="#1C8B7F"/>
<path d="M11.5414 4.75159C11.6212 5.02702 11.6813 5.25566 11.7544 5.48073C11.8449 5.75839 11.9501 6.0307 12.0414 6.30791C12.1747 6.71215 12.3008 7.11817 12.4301 7.52329C12.4738 7.66012 12.4564 7.72251 12.365 7.75326C12.2612 7.78847 12.1845 7.74925 12.1426 7.62223C12.0143 7.23182 11.8953 6.83827 11.7656 6.4483C11.5949 5.93398 11.4179 5.4219 11.2428 4.90892C11.2201 4.84162 11.2397 4.78903 11.3034 4.77432C11.3814 4.75605 11.4638 4.75783 11.5414 4.75159Z" fill="#1C8B7F"/>
<path d="M9.61203 5.48207C9.67933 5.47226 9.74752 5.46246 9.82106 5.45176C10.1081 6.01956 10.3902 6.58112 10.6759 7.14045C10.8065 7.39582 10.9464 7.6463 11.0797 7.90034C11.1599 8.05365 11.1577 8.05499 11.1274 8.26134H10.9001C10.6331 7.72563 10.3679 7.18591 10.096 6.64931C9.96011 6.38101 9.81036 6.11984 9.66819 5.85421C9.60758 5.74101 9.55677 5.62513 9.61203 5.48207Z" fill="#1C8B7F"/>
<path d="M6.78507 24.4209C6.56802 24.2809 6.55866 24.2186 6.70886 24.0684C7.29404 23.4841 7.87877 22.8998 8.46395 22.3159C8.53883 22.2411 8.6137 22.1662 8.69125 22.094C8.75588 22.0343 8.85482 22.0418 8.91632 22.1042C8.98852 22.1773 8.96802 22.2397 8.90295 22.3048C8.67387 22.5352 8.44702 22.7683 8.21749 22.9987C7.92334 23.2942 7.6283 23.5879 7.33237 23.8816C7.15276 24.0599 6.97181 24.2373 6.78507 24.4209Z" fill="#1C8B7F"/>
<path d="M18.5128 4.75605C18.5778 4.7507 18.6059 4.74446 18.6335 4.74669C18.7708 4.75694 18.8181 4.81399 18.7784 4.93699C18.6353 5.38134 18.4887 5.82435 18.343 6.2678C18.2084 6.67738 18.0733 7.08652 17.9405 7.49655C17.9169 7.5692 17.9022 7.64496 17.8794 7.73454C17.8509 7.74167 17.8113 7.7595 17.772 7.75995C17.637 7.76128 17.5853 7.70959 17.6116 7.57856C17.6419 7.42836 17.686 7.27995 17.7328 7.13377C17.8277 6.83739 17.9267 6.54279 18.0265 6.24819C18.1446 5.89967 18.2672 5.55293 18.3835 5.20351C18.4316 5.05867 18.4686 4.90981 18.5128 4.75605Z" fill="#1C8B7F"/>
<path d="M21.2706 9.95538C21.0687 9.81142 21.0554 9.76507 21.1962 9.61399C21.399 9.39649 21.6134 9.19059 21.8224 8.97933C22.1357 8.66379 22.4477 8.34691 22.7623 8.03271C22.8925 7.90257 23.0271 7.77733 23.1599 7.65076C23.2294 7.58435 23.3012 7.56251 23.3863 7.62981C23.4732 7.698 23.4861 7.74123 23.4121 7.82145C23.3065 7.93599 23.1942 8.04429 23.0837 8.15393C22.7521 8.48329 22.4196 8.81176 22.088 9.14067C21.8175 9.40897 21.5483 9.67861 21.2706 9.95538Z" fill="#1C8B7F"/>
<path d="M16.2505 24.5417H16.5326C16.5763 24.8372 16.6048 25.1349 16.6681 25.425C16.7069 25.6024 16.6806 25.7887 16.7661 25.9616C16.8134 26.057 16.8062 26.1796 16.8223 26.2901C16.8504 26.4835 16.8758 26.6774 16.9052 26.8704C16.9324 27.0504 16.9653 27.2291 16.9916 27.4092C17.0019 27.4778 17.0006 27.5478 17.0059 27.6414C16.9163 27.6472 16.8423 27.6521 16.7764 27.6561C16.6864 27.5763 16.6676 27.4872 16.6583 27.3829C16.64 27.181 16.599 26.9813 16.57 26.7808C16.542 26.5878 16.5353 26.3895 16.4858 26.2023C16.4069 25.9041 16.4225 25.5944 16.3338 25.2953C16.2656 25.0649 16.2768 24.8104 16.2505 24.5417Z" fill="#1C8B7F"/>
<path d="M23.4781 24.2007C23.4255 24.2645 23.3827 24.3273 23.3288 24.379C23.2811 24.4245 23.2321 24.4138 23.1822 24.3634C22.8448 24.0211 22.5056 23.6806 22.1651 23.341C21.8647 23.0411 21.5621 22.7433 21.2604 22.4443C21.2252 22.4095 21.1877 22.3765 21.1561 22.3382C21.0835 22.2509 21.0897 22.1729 21.1708 22.0993C21.2439 22.0329 21.2836 22.0409 21.378 22.1345C22.0051 22.7581 22.6322 23.3816 23.2602 24.0042C23.3243 24.0679 23.3948 24.1259 23.4781 24.2007Z" fill="#1C8B7F"/>
<path d="M13.8086 7.37978C13.7801 7.38557 13.7457 7.38869 13.7141 7.39939C13.489 7.47382 13.4988 7.47337 13.4788 7.23137C13.4632 7.04596 13.4173 6.86279 13.3887 6.67828C13.3598 6.49153 13.3393 6.3039 13.309 6.11761C13.2773 5.92507 13.2363 5.73432 13.2029 5.54223C13.1753 5.38357 13.1494 5.22401 13.1294 5.06401C13.1008 4.83538 13.0786 4.6063 13.0514 4.35672H13.3428C13.3816 4.64908 13.4164 4.93922 13.4596 5.22803C13.4877 5.41432 13.5305 5.59794 13.5626 5.78335C13.596 5.97499 13.6236 6.16753 13.6548 6.35961C13.6851 6.54546 13.7181 6.73131 13.7466 6.91761C13.7685 7.06067 13.785 7.20463 13.8086 7.37978Z" fill="#1C8B7F"/>
<path d="M8.95822 9.69822C8.97738 9.83861 8.87487 9.88273 8.76301 9.94958C8.71755 9.90368 8.67031 9.8551 8.62262 9.80786C7.9746 9.16474 7.32657 8.52162 6.67811 7.8785C6.59343 7.79426 6.58585 7.72207 6.65894 7.64853C6.74006 7.56652 6.79577 7.56518 6.89426 7.66234C7.17549 7.94134 7.4527 8.22435 7.73259 8.50513C8.09226 8.86613 8.45237 9.22713 8.81426 9.58635C8.85749 9.62958 8.91053 9.66212 8.95822 9.69822Z" fill="#1C8B7F"/>
<path d="M16.5241 7.46758C16.4185 7.42747 16.3485 7.40073 16.271 7.37131C16.2625 7.23449 16.2736 7.10257 16.3044 6.96039C16.3713 6.65287 16.3882 6.3351 16.4359 6.02312C16.4631 5.84574 16.513 5.67193 16.5473 5.49544C16.574 5.35817 16.5959 5.21956 16.6133 5.08051C16.6333 4.92006 16.652 4.75872 16.6609 4.59739C16.6739 4.35583 16.7287 4.31349 16.9939 4.36697C16.9974 4.3995 17.0077 4.43516 17.0037 4.46858C16.9725 4.71906 16.9435 4.97042 16.9025 5.21911C16.8744 5.38936 16.8236 5.55605 16.7924 5.72585C16.7586 5.91081 16.7358 6.098 16.7069 6.28385C16.6757 6.48351 16.6422 6.68229 16.6115 6.88195C16.583 7.06647 16.5562 7.25142 16.5241 7.46758Z" fill="#1C8B7F"/>
<path d="M14.9076 4.18246C14.9959 4.17844 15.0641 4.17532 15.13 4.17265C15.1777 4.34513 15.1848 7.09142 15.1398 7.31739H14.9081L14.9076 4.18246Z" fill="#1C8B7F"/>
<path d="M14.9157 24.6687H15.1323C15.175 24.8278 15.1862 27.481 15.1452 27.7524H14.9277C14.8862 27.5959 14.8742 24.9655 14.9157 24.6687Z" fill="#1C8B7F"/>
<path d="M7.54719 21.3755V21.6011C7.23298 21.8239 6.91521 22.0454 6.60234 22.2727C6.31131 22.4844 6.02384 22.7014 5.73638 22.9181C5.6156 23.009 5.50997 23.021 5.46006 22.9412C5.40747 22.857 5.4449 22.7523 5.54964 22.6747C5.95031 22.3779 6.3483 22.0775 6.75075 21.7833C6.93259 21.6505 7.12646 21.5342 7.30696 21.4001C7.3805 21.3457 7.44646 21.3421 7.54719 21.3755Z" fill="#1C8B7F"/>
<path d="M22.6999 21.4099C22.7975 21.4647 22.8934 21.5075 22.9763 21.5672C23.4973 21.9438 24.0152 22.3244 24.5344 22.7028C24.6592 22.7937 24.677 22.8458 24.6048 22.9332C24.5366 23.0152 24.4408 23.0165 24.345 22.9457C23.8855 22.607 23.4251 22.27 22.9647 21.9318C22.8907 21.8774 22.8198 21.8177 22.7432 21.7673C22.5511 21.6412 22.5506 21.6434 22.6999 21.4099Z" fill="#1C8B7F"/>
<path d="M6.7151 9.76552C6.74941 9.86178 6.71599 9.93889 6.63621 9.98568C6.56045 10.0303 6.49226 9.99237 6.42496 9.94201C6.16691 9.74814 5.9044 9.55917 5.64412 9.36797C5.59287 9.33053 5.54117 9.29309 5.49437 9.24986C5.43198 9.19237 5.41816 9.07382 5.46986 9.02212C5.53226 8.95928 5.59733 8.95438 5.67577 9.01321C5.96234 9.22892 6.25382 9.43839 6.54396 9.64964C6.60011 9.69064 6.65894 9.72763 6.7151 9.76552Z" fill="#1C8B7F"/>
<path d="M23.3854 9.98613C23.3653 9.91883 23.3462 9.85243 23.323 9.77488C23.5944 9.57744 23.8605 9.38401 24.1261 9.1897C24.1943 9.13978 24.2576 9.08273 24.3276 9.03549C24.4194 8.9731 24.5223 8.98424 24.5959 9.05688C24.6667 9.12686 24.6627 9.179 24.5785 9.2405C24.2545 9.47627 23.9282 9.70803 23.6074 9.94825C23.5356 10.0017 23.4728 10.012 23.3854 9.98613Z" fill="#1C8B7F"/>
<path d="M45.1914 10.5373C45.1914 11.3075 45.0957 12.0093 44.9043 12.6428C44.7128 13.2717 44.4212 13.814 44.0293 14.2697C43.6419 14.7254 43.1497 15.0764 42.5527 15.3224C41.9557 15.564 41.2493 15.6848 40.4336 15.6848C39.6178 15.6848 38.9114 15.564 38.3144 15.3224C37.7174 15.0764 37.2229 14.7254 36.831 14.2697C36.4436 13.814 36.1543 13.2694 35.9628 12.6359C35.7714 12.0025 35.6757 11.2984 35.6757 10.5236C35.6757 9.48911 35.8444 8.58905 36.1816 7.82342C36.5234 7.05324 37.0475 6.45624 37.7539 6.03241C38.4602 5.60858 39.358 5.39667 40.4472 5.39667C41.5319 5.39667 42.4228 5.60858 43.1201 6.03241C43.8219 6.45624 44.3414 7.05324 44.6787 7.82342C45.0205 8.59361 45.1914 9.49823 45.1914 10.5373ZM37.8974 10.5373C37.8974 11.2346 37.984 11.8361 38.1572 12.342C38.3349 12.8433 38.6106 13.2306 38.9843 13.5041C39.358 13.773 39.8411 13.9074 40.4336 13.9074C41.0351 13.9074 41.5227 13.773 41.8964 13.5041C42.2701 13.2306 42.5413 12.8433 42.7099 12.342C42.8831 11.8361 42.9697 11.2346 42.9697 10.5373C42.9697 9.48911 42.7737 8.66424 42.3818 8.06268C41.9899 7.46112 41.345 7.16034 40.4472 7.16034C39.8502 7.16034 39.3626 7.29706 38.9843 7.57049C38.6106 7.83937 38.3349 8.22674 38.1572 8.7326C37.984 9.23391 37.8974 9.83547 37.8974 10.5373Z" fill="#1C8B7F"/>
<path d="M51.3505 7.7619C52.2119 7.7619 52.9069 8.09686 53.4355 8.76678C53.9687 9.4367 54.2353 10.4188 54.2353 11.7131C54.2353 12.579 54.11 13.3081 53.8593 13.9006C53.6087 14.4885 53.2623 14.9328 52.8203 15.2336C52.3782 15.5344 51.8701 15.6848 51.2959 15.6848C50.9267 15.6848 50.61 15.6392 50.3457 15.548C50.0813 15.4523 49.8558 15.3316 49.6689 15.1857C49.4821 15.0353 49.3203 14.8758 49.1836 14.7072H49.0742C49.1106 14.8895 49.138 15.0764 49.1562 15.2678C49.1744 15.4592 49.1836 15.646 49.1836 15.8283V18.9113H47.0986V7.90545H48.7939L49.0878 8.89667H49.1836C49.3203 8.69159 49.4866 8.50246 49.6826 8.32928C49.8785 8.15611 50.1132 8.01939 50.3867 7.91913C50.6647 7.81431 50.986 7.7619 51.3505 7.7619ZM50.6806 9.42987C50.316 9.42987 50.0267 9.50506 49.8125 9.65545C49.5983 9.80585 49.441 10.0314 49.3408 10.3322C49.2451 10.633 49.1927 11.0135 49.1836 11.4738V11.6994C49.1836 12.1916 49.2291 12.6086 49.3203 12.9504C49.416 13.2922 49.5732 13.5519 49.792 13.7297C50.0153 13.9074 50.3206 13.9963 50.708 13.9963C51.027 13.9963 51.289 13.9074 51.4941 13.7297C51.6992 13.5519 51.8518 13.2922 51.9521 12.9504C52.0569 12.604 52.1093 12.1825 52.1093 11.6857C52.1093 10.9383 51.9931 10.3755 51.7607 9.99725C51.5283 9.619 51.1683 9.42987 50.6806 9.42987Z" fill="#1C8B7F"/>
<path d="M59.1093 7.7619C59.8157 7.7619 60.4241 7.89862 60.9345 8.17206C61.4449 8.44094 61.8392 8.83286 62.1171 9.34784C62.3951 9.86281 62.5341 10.4917 62.5341 11.2346V12.2463H57.6054C57.6282 12.8342 57.8037 13.2967 58.1318 13.634C58.4645 13.9667 58.9248 14.133 59.5127 14.133C60.0003 14.133 60.4469 14.0829 60.8525 13.9826C61.2581 13.8823 61.6751 13.732 62.1035 13.5314V15.1447C61.7252 15.3316 61.3287 15.4683 60.914 15.5549C60.5039 15.6415 60.0048 15.6848 59.417 15.6848C58.6513 15.6848 57.9723 15.5435 57.3798 15.2609C56.792 14.9784 56.3294 14.5477 55.9921 13.9689C55.6595 13.3902 55.4931 12.661 55.4931 11.7814C55.4931 10.8882 55.6435 10.1454 55.9443 9.55292C56.2496 8.95591 56.6735 8.5093 57.2158 8.21307C57.7581 7.91229 58.3893 7.7619 59.1093 7.7619ZM59.123 9.2453C58.7174 9.2453 58.3802 9.37518 58.1113 9.63495C57.847 9.89471 57.6943 10.3026 57.6533 10.8586H60.5791C60.5745 10.5487 60.5175 10.273 60.4082 10.0314C60.3033 9.78989 60.1438 9.59849 59.9296 9.45721C59.72 9.31594 59.4511 9.2453 59.123 9.2453Z" fill="#1C8B7F"/>
<path d="M68.5703 7.7619C69.386 7.7619 70.0423 7.98521 70.539 8.43182C71.0358 8.87388 71.2841 9.58482 71.2841 10.5646V15.548H69.1992V11.0842C69.1992 10.5373 69.0989 10.1249 68.8984 9.84686C68.7024 9.56887 68.3925 9.42987 67.9687 9.42987C67.3307 9.42987 66.8955 9.64634 66.663 10.0793C66.4306 10.5122 66.3144 11.1366 66.3144 11.9523V15.548H64.2294V7.90545H65.8222L66.1025 8.88299H66.2187C66.3828 8.61867 66.5856 8.40448 66.8271 8.24042C67.0732 8.07635 67.3444 7.95558 67.6406 7.87811C67.9414 7.80064 68.2513 7.7619 68.5703 7.7619Z" fill="#1C8B7F"/>
<path d="M77.8398 7.17401C77.4342 7.17401 77.0742 7.25376 76.7597 7.41327C76.4498 7.56822 76.1878 7.7938 75.9736 8.09002C75.764 8.38625 75.6044 8.744 75.4951 9.16327C75.3857 9.58254 75.331 10.0542 75.331 10.5783C75.331 11.2847 75.4176 11.8885 75.5908 12.3898C75.7685 12.8866 76.0419 13.2671 76.4111 13.5314C76.7802 13.7912 77.2565 13.9211 77.8398 13.9211C78.2454 13.9211 78.651 13.8755 79.0566 13.7844C79.4668 13.6932 79.9111 13.5633 80.3896 13.3947V15.1721C79.9475 15.3543 79.5123 15.4842 79.0839 15.5617C78.6556 15.6437 78.1748 15.6848 77.6416 15.6848C76.6116 15.6848 75.764 15.4728 75.0986 15.049C74.4378 14.6206 73.9479 14.0236 73.6289 13.258C73.3099 12.4878 73.1503 11.59 73.1503 10.5646C73.1503 9.80812 73.2529 9.11542 73.458 8.48651C73.663 7.8576 73.9638 7.31301 74.3603 6.85272C74.7568 6.39243 75.2467 6.03697 75.83 5.78631C76.4134 5.53566 77.0833 5.41034 77.8398 5.41034C78.3365 5.41034 78.8333 5.47414 79.33 5.60174C79.8313 5.72479 80.3099 5.89569 80.7656 6.11444L80.082 7.8371C79.7083 7.65936 79.3323 7.50441 78.9541 7.37225C78.5758 7.24009 78.2044 7.17401 77.8398 7.17401Z" fill="#1C8B7F"/>
<path d="M88.4218 12.7726C88.4218 13.3651 88.2783 13.8801 87.9912 14.3176C87.7041 14.7551 87.2848 15.0923 86.7334 15.3293C86.1865 15.5663 85.5211 15.6848 84.7373 15.6848C84.3909 15.6848 84.0514 15.662 83.7187 15.6164C83.3906 15.5708 83.0738 15.5047 82.7685 15.4181C82.4677 15.327 82.1806 15.2154 81.9072 15.0832V13.1144C82.3811 13.3241 82.8733 13.5132 83.3837 13.6818C83.8942 13.8504 84.4 13.9348 84.9013 13.9348C85.2477 13.9348 85.5257 13.8892 85.7353 13.798C85.9495 13.7069 86.1044 13.5816 86.2001 13.4221C86.2959 13.2626 86.3437 13.0803 86.3437 12.8752C86.3437 12.6245 86.2594 12.4103 86.0908 12.2326C85.9222 12.0549 85.6897 11.8885 85.3935 11.7336C85.1018 11.5786 84.7714 11.4123 84.4023 11.2346C84.1699 11.1252 83.9169 10.993 83.6435 10.8381C83.3701 10.6786 83.1103 10.4849 82.8642 10.257C82.6181 10.0292 82.4153 9.75344 82.2558 9.42987C82.1009 9.10174 82.0234 8.70982 82.0234 8.25409C82.0234 7.65708 82.1601 7.14667 82.4335 6.72284C82.707 6.29901 83.0966 5.97544 83.6025 5.75213C84.1129 5.52427 84.7145 5.41034 85.4072 5.41034C85.9267 5.41034 86.4212 5.47186 86.8906 5.59491C87.3645 5.7134 87.859 5.88657 88.374 6.11444L87.6904 7.7619C87.2301 7.57505 86.8177 7.4315 86.4531 7.33124C86.0885 7.22642 85.7171 7.17401 85.3388 7.17401C85.0745 7.17401 84.8489 7.2173 84.6621 7.30389C84.4752 7.38592 84.3339 7.50441 84.2382 7.65936C84.1425 7.80975 84.0947 7.98521 84.0947 8.18573C84.0947 8.42271 84.163 8.62323 84.2998 8.78729C84.441 8.9468 84.6507 9.10174 84.9287 9.25213C85.2112 9.40252 85.5621 9.57798 85.9814 9.7785C86.4918 10.02 86.927 10.273 87.2871 10.5373C87.6516 10.7971 87.9319 11.1047 88.1279 11.4601C88.3238 11.8111 88.4218 12.2486 88.4218 12.7726Z" fill="#1C8B7F"/>
<path d="M94.0273 9.93573H97.9921V15.1174C97.4681 15.2905 96.9235 15.4295 96.3584 15.5344C95.7932 15.6346 95.1529 15.6848 94.4375 15.6848C93.444 15.6848 92.6009 15.4888 91.9082 15.0969C91.2154 14.7049 90.6891 14.1262 90.3291 13.3605C89.969 12.5949 89.789 11.6538 89.789 10.5373C89.789 9.48911 89.9895 8.58221 90.3906 7.81659C90.7962 7.05096 91.3863 6.45851 92.1611 6.03924C92.9404 5.61997 93.8906 5.41034 95.0117 5.41034C95.5403 5.41034 96.0621 5.4673 96.5771 5.58124C97.0921 5.69517 97.5592 5.84328 97.9785 6.02557L97.2744 7.72088C96.969 7.56594 96.6204 7.43605 96.2285 7.33124C95.8365 7.22642 95.4264 7.17401 94.998 7.17401C94.3828 7.17401 93.8473 7.31529 93.3916 7.59784C92.9404 7.88039 92.5895 8.27687 92.3388 8.78729C92.0927 9.29315 91.9697 9.89016 91.9697 10.5783C91.9697 11.23 92.0585 11.8088 92.2363 12.3146C92.414 12.8159 92.6943 13.2101 93.0771 13.4973C93.4599 13.7798 93.9589 13.9211 94.5742 13.9211C94.875 13.9211 95.1279 13.9074 95.333 13.8801C95.5426 13.8482 95.7386 13.8163 95.9209 13.7844V11.6994H94.0273V9.93573Z" fill="#1C8B7F"/>
<g clip-path="url(#clip0_20902_345374)">
<path d="M177.94 15.9041V19.6673H166.074V1.04379H170.386V15.8767H177.94V15.9041ZM141.957 0L131.436 8.10313C130.357 4.0653 126.849 1.09873 122.537 1.09873H114.983V19.7222H122.537C126.849 19.7222 130.64 16.7556 131.436 12.7178L141.957 20.8209L152.477 12.7178V19.7222H164.343V15.9316H156.515V1.09873H152.202V8.10313L142.231 16.2063L140.075 14.3165L144.937 10.5258L150.074 6.488L147.107 4.06255L137.136 11.891L134.98 10.0012L144.951 2.44742L141.984 0.0219746H141.979L141.957 0ZM119.021 4.86188H122.262C122.935 4.86188 123.597 5.01296 124.204 5.29039C124.811 5.56781 125.369 5.97434 125.841 6.48251C126.314 6.98792 126.698 7.59223 126.967 8.27344C127.237 8.9574 127.385 9.71827 127.385 10.5258C127.385 11.2675 127.253 11.9899 127.003 12.6601C126.754 13.3303 126.39 13.9456 125.935 14.4675C125.479 14.9894 124.935 15.4179 124.314 15.7173C123.693 16.0167 123.001 16.1843 122.259 16.1843H119.018V4.86737L119.021 4.86188Z" fill="#007DB8"/>
<path d="M121.639 21.3063V20.9329L121.479 20.8264H115.089L114.983 20.9329V21.3063L115.089 21.4128H117.809L117.916 21.5193V29.2944L118.022 29.4009H118.502L118.609 29.2944V21.5706L118.715 21.4641H121.487L121.647 21.305L121.639 21.3063ZM123.076 23.1667C121.37 23.1667 120.356 24.3907 120.356 26.1433V26.4115C120.356 28.1179 121.209 29.6062 123.179 29.6062C124.885 29.6062 125.527 28.4874 125.63 27.7458L125.524 27.6406H125.043L124.938 27.7458C124.671 28.4913 124.19 28.9711 123.232 28.9711C121.628 28.9711 121.153 27.4828 121.153 26.7386L121.261 26.6334H125.687L125.795 26.5257V26.1523C125.795 24.3945 124.837 23.1757 123.075 23.1757L123.076 23.1667ZM123.076 23.8056C123.822 23.8056 124.313 24.1123 124.616 24.5254C124.923 24.9385 125.042 25.4569 125.042 25.8854L124.937 25.9932H121.203L121.095 25.8854C121.095 25.4595 121.215 24.9398 121.521 24.5254C121.828 24.1123 122.322 23.8056 123.074 23.8056H123.076ZM127.015 26.3589C127.015 24.6524 127.867 23.7543 129.094 23.7543C130.319 23.7543 130.8 24.4997 130.954 25.2426L131.061 25.3491H131.593L131.7 25.2426C131.593 24.0173 130.581 23.1641 129.095 23.1641C127.491 23.1641 126.272 24.1764 126.272 26.3589C126.272 28.5913 127.498 29.5536 129.095 29.5536C130.583 29.5536 131.546 28.7017 131.7 27.4751L131.593 27.3686H131.113L131.007 27.4751C130.9 28.2205 130.368 28.9634 129.146 28.9634C127.921 28.9634 127.015 28.1115 127.015 26.3589ZM137.664 29.3483V25.6147C137.664 24.0109 136.812 23.1641 135.432 23.1641C134.58 23.1641 133.828 23.5375 133.456 24.1764H133.35V20.9817L133.189 20.8226H132.709L132.603 20.9291V29.3458L132.709 29.4523H133.189L133.296 29.3458V25.9842C133.296 24.5985 133.935 23.7517 135.272 23.7517C136.284 23.7517 136.875 24.3907 136.875 25.6121V29.3458L136.982 29.4523H137.462L137.675 29.3458L137.664 29.3483ZM143.951 29.3483V25.6147C143.951 24.0109 143.099 23.1641 141.719 23.1641C140.867 23.1641 140.115 23.5375 139.743 24.1764H139.636L139.53 23.431L139.423 23.3245H139.05L138.944 23.431V29.3458L139.05 29.4523H139.53L139.636 29.3458V25.9842C139.636 24.5985 140.275 23.7517 141.612 23.7517C142.625 23.7517 143.216 24.3907 143.216 25.6121V29.3458L143.323 29.4523H143.855L143.961 29.3458L143.951 29.3483ZM147.518 23.2154C145.914 23.2154 144.695 24.3355 144.695 26.4102C144.695 28.4887 145.922 29.6049 147.518 29.6049C149.114 29.6049 150.341 28.4874 150.341 26.4102C150.341 24.3317 149.114 23.2154 147.518 23.2154ZM147.518 23.8018C148.131 23.8018 148.65 24.0558 149.019 24.5087C149.385 24.9616 149.598 25.6147 149.598 26.4076C149.598 27.2069 149.385 27.8574 149.019 28.3065C148.654 28.7594 148.134 29.0109 147.518 29.0109C146.905 29.0109 146.386 28.7594 146.017 28.3065C145.651 27.8536 145.438 27.2005 145.438 26.4076C145.438 25.5813 145.651 24.9321 146.017 24.4831C146.383 24.0366 146.902 23.7966 147.518 23.7966V23.8018ZM151.996 29.3445V20.9278L151.835 20.8213H151.356L151.249 20.9278V29.3445L151.356 29.451H151.835L151.996 29.3445ZM155.678 23.2116C154.074 23.2116 152.855 24.3317 152.855 26.4063C152.855 28.4848 154.082 29.6011 155.678 29.6011C157.274 29.6011 158.501 28.4836 158.501 26.4063C158.501 24.3278 157.277 23.2116 155.678 23.2116ZM155.678 23.7979C156.291 23.7979 156.809 24.052 157.179 24.5049C157.545 24.9578 157.761 25.6109 157.761 26.4038C157.761 27.2031 157.545 27.8536 157.179 28.3027C156.814 28.7556 156.295 29.007 155.678 29.007C155.065 29.007 154.547 28.7556 154.177 28.3027C153.809 27.8497 153.593 27.1967 153.593 26.4038C153.593 25.5775 153.809 24.9283 154.174 24.4792C154.54 24.0327 155.06 23.7928 155.676 23.7928L155.678 23.7979ZM161.747 23.159C160.04 23.159 159.13 24.5447 159.13 26.3537C159.13 28.2141 159.983 29.5485 161.747 29.5485C162.866 29.5485 163.453 29.0686 163.723 28.5362V28.5888C163.723 30.1926 163.351 31.4114 161.862 31.4114C160.744 31.4114 160.374 30.9329 160.259 30.2939L160.151 30.1861H159.672L159.564 30.2939C159.671 31.3062 160.419 32.0004 161.912 32.0004C163.516 32.0004 164.53 30.988 164.53 28.5362V23.4169L164.422 23.3117H164.049L163.943 23.4169L163.836 24.1636H163.73C163.464 23.6837 162.877 23.1513 161.755 23.1513L161.747 23.159ZM161.747 23.7453C162.36 23.7453 162.853 23.957 163.197 24.3894C163.537 24.8218 163.723 25.4748 163.723 26.3524C163.723 27.2313 163.537 27.8793 163.197 28.3155C162.857 28.7479 162.364 28.9621 161.747 28.9621C161.134 28.9621 160.641 28.7479 160.297 28.3155C159.957 27.8831 159.774 27.23 159.774 26.3524C159.774 25.5005 159.958 24.8513 160.297 24.4022C160.637 23.9622 161.13 23.7376 161.747 23.7376V23.7453ZM166.43 22.2057V21.4602L166.323 21.3537H165.844L165.683 21.4602V22.2057L165.79 22.3122H166.27L166.43 22.2057ZM166.43 29.3393V23.4246L166.323 23.3181H165.844L165.683 23.4246V29.3393L165.79 29.4458H166.27L166.43 29.3393ZM169.997 23.1551C168.29 23.1551 167.277 24.3791 167.277 26.1318V26.3999C167.277 28.1063 168.13 29.5947 170.099 29.5947C171.806 29.5947 172.447 28.4759 172.55 27.7343L172.442 27.6291H171.964L171.856 27.7343C171.589 28.4797 171.11 28.9596 170.149 28.9596C168.546 28.9596 168.071 27.4712 168.071 26.7271L168.179 26.6219H172.605L172.713 26.5141V26.1407C172.713 24.4343 171.699 23.1641 169.993 23.1641L169.997 23.1551ZM169.997 23.7941C170.742 23.7941 171.236 24.1007 171.549 24.5139C171.856 24.927 171.975 25.4453 171.975 25.8739L171.867 25.9816H168.134L168.029 25.8739C168.029 25.4479 168.148 24.9283 168.455 24.5139C168.761 24.1007 169.253 23.7941 169.994 23.7941H169.997ZM177.939 27.8485C177.939 26.7297 177.3 26.2447 176.078 25.9881C174.853 25.7212 174.102 25.6147 174.102 24.7628C174.102 24.1238 174.582 23.7505 175.488 23.7505C176.607 23.7505 176.976 24.2303 176.976 24.8693L177.083 24.9757H177.563L177.669 24.8693C177.669 23.644 176.657 23.1628 175.437 23.1628C174.051 23.1628 173.358 23.9083 173.358 24.7666C173.358 25.7789 174.104 26.2549 175.334 26.473C176.56 26.7399 177.195 26.8464 177.195 27.8587C177.195 28.4977 176.821 28.9775 175.591 28.9775C174.472 28.9775 173.987 28.3386 173.987 27.5919L173.881 27.4854H173.401L173.294 27.5919C173.294 28.7107 174.146 29.5677 175.642 29.5677C177.182 29.6216 177.939 28.8749 177.939 27.8613L177.939 27.8485Z" fill="#808080"/>
</g>
<defs>
<clipPath id="clip0_20902_345374">
<rect width="62.9572" height="32" fill="white" transform="translate(114.983)"/>
</clipPath>
</defs>
</svg>
