<?xml version="1.0" encoding="UTF-8"?>
<svg id="_图层_2" data-name="图层 2" xmlns="http://www.w3.org/2000/svg" viewBox="0 0 1500.36 480">
  <defs>
    <style>
      .cls-1 {
        fill: #23877b;
      }
    </style>
  </defs>
  <g id="_图层_1-2" data-name="图层 1">
    <g>
      <g>
        <path class="cls-1" d="M10.92,148.5c.6,0,1.13-.35,1.37-.9,11.64-26.78,28.04-50.88,48.81-71.65,21.31-21.31,46.12-38.04,73.75-49.72,28.6-12.1,58.98-18.23,90.3-18.23s61.71,6.13,90.3,18.23c27.63,11.68,52.44,28.41,73.75,49.72,20.77,20.77,37.17,44.87,48.81,71.65.24.55.77.9,1.37.9h5.43c1.07,0,1.81-1.1,1.39-2.09C409.72,60.37,324.49,0,225.15,0S40.57,60.37,4.1,146.41c-.42.99.32,2.09,1.39,2.09h5.43Z"/>
        <path class="cls-1" d="M443.45,321.5c-.62,0-1.18.38-1.4.97-1,2.63-2.03,5.24-3.13,7.84-11.68,27.63-28.41,52.44-49.72,73.75-21.31,21.31-46.12,38.04-73.75,49.72-28.6,12.1-58.98,18.23-90.3,18.23s-61.71-6.13-90.3-18.23c-27.63-11.68-52.44-28.41-73.75-49.72-21.31-21.31-38.04-46.12-49.72-73.75-1.1-2.6-2.13-5.21-3.13-7.84-.22-.58-.78-.97-1.4-.97H1.51c-1.04,0-1.78,1.05-1.41,2.03,33.92,91.37,121.88,156.47,225.05,156.47s191.13-65.11,225.05-156.47c.36-.98-.37-2.03-1.41-2.03h-5.34Z"/>
      </g>
      <g>
        <path class="cls-1" d="M45.02,148.5c.56,0,1.07-.31,1.32-.81,9.5-18.39,21.75-35.14,36.55-49.95,18.48-18.48,40-32.99,63.95-43.12,24.8-10.49,51.14-15.81,78.31-15.81s53.51,5.32,78.31,15.81c23.96,10.13,45.47,24.64,63.95,43.12,14.8,14.8,27.06,31.55,36.55,49.95.26.5.76.81,1.32.81h7.84c1.11,0,1.85-1.17,1.35-2.17-34.52-69.64-106.33-117.51-189.32-117.51S70.35,76.69,35.83,146.33c-.49,1,.24,2.17,1.35,2.17h7.84Z"/>
        <path class="cls-1" d="M410.09,321.5c-.59,0-1.12.35-1.36.88-10.02,22.32-23.91,42.45-41.33,59.87-18.48,18.48-40,32.99-63.95,43.12-24.8,10.49-51.14,15.81-78.31,15.81s-53.51-5.32-78.31-15.81c-23.96-10.13-45.47-24.64-63.95-43.12-17.42-17.42-31.31-37.55-41.33-59.87-.24-.54-.77-.88-1.36-.88h-7.65c-1.08,0-1.81,1.11-1.39,2.1,32.39,75.05,107.05,127.58,193.98,127.58s161.59-52.53,193.98-127.58c.43-.99-.31-2.1-1.39-2.1h-7.65Z"/>
      </g>
      <path class="cls-1" d="M231.5,181c13.95,0,27.14,5.51,37.14,15.51,10,10,15.51,23.19,15.51,37.14v12.7c0,13.95-5.51,27.14-15.51,37.14-10,10-23.19,15.51-37.14,15.51h-12.7c-13.95,0-27.14-5.51-37.14-15.51-10-10-15.51-23.19-15.51-37.14v-12.7c0-13.95,5.51-27.14,15.51-37.14,10-10,23.19-15.51,37.14-15.51h12.7M231.5,131h-12.7c-56.46,0-102.65,46.19-102.65,102.65v12.7c0,56.46,46.19,102.65,102.65,102.65h12.7c56.46,0,102.65-46.19,102.65-102.65v-12.7c0-56.46-46.19-102.65-102.65-102.65h0Z"/>
      <g>
        <g id="_径向重复_" data-name="&amp;lt;径向重复&amp;gt;">
          <rect class="cls-1" x="222.88" y="370" width="5" height="48" rx="2" ry="2" transform="translate(451.33 787.67) rotate(179.92)"/>
        </g>
        <g id="_径向重复_-2" data-name="&amp;lt;径向重复&amp;gt;">
          <rect class="cls-1" x="198.78" y="368.14" width="5" height="48" rx="2" ry="2" transform="translate(339.35 810.74) rotate(-171.08)"/>
        </g>
        <g id="_径向重复_-3" data-name="&amp;lt;径向重复&amp;gt;">
          <rect class="cls-1" x="175.28" y="362.53" width="5" height="48" rx="2" ry="2" transform="translate(228.03 809.01) rotate(-162.08)"/>
        </g>
        <g id="_径向重复_-4" data-name="&amp;lt;径向重复&amp;gt;">
          <rect class="cls-1" x="152.94" y="353.32" width="5" height="48" rx="2" ry="2" transform="translate(123.23 784.13) rotate(-153.08)"/>
        </g>
        <g id="_径向重复_-5" data-name="&amp;lt;径向重复&amp;gt;">
          <rect class="cls-1" x="132.31" y="340.72" width="5" height="48" rx="2" ry="2" transform="translate(30.05 739.18) rotate(-144.08)"/>
        </g>
        <g id="_径向重复_-6" data-name="&amp;lt;径向重复&amp;gt;">
          <rect class="cls-1" x="113.91" y="325.05" width="5" height="48" rx="2" ry="2" transform="translate(-47.6 678.43) rotate(-135.08)"/>
        </g>
        <g id="_径向重复_-7" data-name="&amp;lt;径向重复&amp;gt;">
          <path class="cls-1" d="M111.79,322.16l.59.81c.65.89.45,2.15-.44,2.79l-27.56,19.91c-.89.65-2.15.45-2.79-.44l-.59-.81c-.65-.89-.45-2.15.44-2.79l27.56-19.91c.89-.65,2.15-.45,2.79.44Z"/>
        </g>
        <g id="_径向重复_-8" data-name="&amp;lt;径向重复&amp;gt;">
          <path class="cls-1" d="M102.16,150.34l-.59.81c-.65.89-1.9,1.09-2.79.45l-17.63-12.81c-.89-.65-1.09-1.9-.45-2.79l.59-.81c.65-.89,1.9-1.09,2.79-.45l17.63,12.81c.89.65,1.09,1.9.45,2.79Z"/>
        </g>
        <g id="_径向重复_-9" data-name="&amp;lt;径向重复&amp;gt;">
          <rect class="cls-1" x="113.59" y="107.27" width="5" height="48" rx="2" ry="2" transform="translate(-58.83 120.8) rotate(-45.08)"/>
        </g>
        <g id="_径向重复_-10" data-name="&amp;lt;径向重复&amp;gt;">
          <rect class="cls-1" x="131.95" y="91.54" width="5" height="48" rx="2" ry="2" transform="translate(-42.26 101.35) rotate(-36.08)"/>
        </g>
        <g id="_径向重复_-11" data-name="&amp;lt;径向重复&amp;gt;">
          <rect class="cls-1" x="152.53" y="78.89" width="5" height="48" rx="2" ry="2" transform="translate(-29.84 81.87) rotate(-27.08)"/>
        </g>
        <g id="_径向重复_-12" data-name="&amp;lt;径向重复&amp;gt;">
          <rect class="cls-1" x="174.85" y="69.61" width="5" height="48" rx="2" ry="2" transform="translate(-20.3 59.67) rotate(-18.08)"/>
        </g>
        <g id="_径向重复_-13" data-name="&amp;lt;径向重复&amp;gt;">
          <rect class="cls-1" x="198.33" y="63.93" width="5" height="48" rx="2" ry="2" transform="translate(-11.36 32.81) rotate(-9.08)"/>
        </g>
        <g id="_径向重复_-14" data-name="&amp;lt;径向重复&amp;gt;">
          <rect class="cls-1" x="222.42" y="62" width="5" height="48" rx="2" ry="2" transform="translate(-.13 .33) rotate(-.08)"/>
        </g>
        <g id="_径向重复_-15" data-name="&amp;lt;径向重复&amp;gt;">
          <rect class="cls-1" x="246.52" y="63.86" width="5" height="48" rx="2" ry="2" transform="translate(16.63 -37.53) rotate(8.92)"/>
        </g>
        <g id="_径向重复_-16" data-name="&amp;lt;径向重复&amp;gt;">
          <rect class="cls-1" x="270.02" y="69.47" width="5" height="48" rx="2" ry="2" transform="translate(41.97 -79.3) rotate(17.92)"/>
        </g>
        <g id="_径向重复_-17" data-name="&amp;lt;径向重复&amp;gt;">
          <rect class="cls-1" x="292.36" y="78.68" width="5" height="48" rx="2" ry="2" transform="translate(78.42 -122.36) rotate(26.92)"/>
        </g>
        <g id="_径向重复_-18" data-name="&amp;lt;径向重复&amp;gt;">
          <rect class="cls-1" x="312.99" y="91.28" width="5" height="48" rx="2" ry="2" transform="translate(127.6 -163.15) rotate(35.92)"/>
        </g>
        <g id="_径向重复_-19" data-name="&amp;lt;径向重复&amp;gt;">
          <rect class="cls-1" x="331.38" y="106.95" width="5" height="48" rx="2" ry="2" transform="translate(189.9 -197.53) rotate(44.92)"/>
        </g>
        <g id="_径向重复_-20" data-name="&amp;lt;径向重复&amp;gt;">
          <path class="cls-1" d="M347.5,151.84l-.59-.81c-.65-.89-.45-2.15.44-2.79l18.56-13.91c.89-.65,2.15-.45,2.79.44l.59.81c.65.89.45,2.15-.44,2.79l-18.56,13.91c-.89.65-2.15.45-2.79-.44Z"/>
        </g>
        <g id="_径向重复_-21" data-name="&amp;lt;径向重复&amp;gt;">
          <path class="cls-1" d="M339.14,323.66l.59-.81c.65-.89,1.9-1.09,2.79-.45l26.63,18.81c.89.65,1.09,1.9.45,2.79l-.59.81c-.65.89-1.9,1.09-2.79.45l-26.63-18.81c-.89-.65-1.09-1.9-.45-2.79Z"/>
        </g>
        <g id="_径向重复_-22" data-name="&amp;lt;径向重复&amp;gt;">
          <rect class="cls-1" x="331.7" y="324.73" width="5" height="48" rx="2" ry="2" transform="translate(817.13 358.3) rotate(134.92)"/>
        </g>
        <g id="_径向重复_-23" data-name="&amp;lt;径向重复&amp;gt;">
          <rect class="cls-1" x="313.35" y="340.46" width="5" height="48" rx="2" ry="2" transform="translate(785.76 472.97) rotate(143.92)"/>
        </g>
        <g id="_径向重复_-24" data-name="&amp;lt;径向重复&amp;gt;">
          <rect class="cls-1" x="292.76" y="353.11" width="5" height="48" rx="2" ry="2" transform="translate(729.85 578.44) rotate(152.92)"/>
        </g>
        <g id="_径向重复_-25" data-name="&amp;lt;径向重复&amp;gt;">
          <rect class="cls-1" x="270.45" y="362.39" width="5" height="48" rx="2" ry="2" transform="translate(652.36 668.97) rotate(161.92)"/>
        </g>
        <g id="_径向重复_-26" data-name="&amp;lt;径向重复&amp;gt;">
          <rect class="cls-1" x="246.96" y="368.07" width="5" height="48" rx="2" ry="2" transform="translate(557.7 739.83) rotate(170.92)"/>
        </g>
      </g>
    </g>
    <path class="cls-1" d="M653.86,351.95h-22.61v-25.02h12.98v-14.99h-92.06v14.99h15.92v25.02h-25.83v14.99h24.74l-14.98,51.92h16.59l14.98-51.92h31.59v52.05h16.06v-52.05h22.61v-14.99ZM584.68,351.95v-25.02h30.51v25.02h-30.51Z"/>
    <g>
      <polygon class="cls-1" points="1218.03 354.89 1218.03 339.9 1177.03 339.9 1179.56 331.88 1213.22 331.88 1213.22 317.96 1183.97 317.96 1186.59 309.66 1171.6 309.66 1168.98 317.96 1145.78 317.96 1145.78 331.88 1164.58 331.88 1162.04 339.9 1140.96 339.9 1140.96 354.89 1157.3 354.89 1154.59 363.45 1150.19 377.37 1165.18 377.37 1194.75 377.37 1180.91 396.85 1148.45 385.93 1148.45 399.85 1212.15 421.26 1212.15 407.34 1192.99 400.9 1213.22 377.37 1213.22 377.12 1213.22 370.21 1213.22 363.45 1169.58 363.45 1172.29 354.89 1218.03 354.89"/>
      <polygon class="cls-1" points="1144.17 309.66 1128.11 309.66 1106.7 355.16 1121.02 355.16 1121.02 420.86 1136.01 420.86 1136.01 337.76 1130.29 337.76 1144.17 309.66"/>
    </g>
    <g>
      <path class="cls-1" d="M1486.08,326.66h-10.17v-17.13h-14.99v17.13h-24.09v66.37h24.09v27.83h14.99v-27.83h24.09v-66.37h-13.92ZM1450.75,340.57h10.17v12.31h-10.17v-12.31ZM1450.75,379.11v-12.31h10.17v12.31h-10.17ZM1486.08,379.11h-10.17v-12.31h10.17v12.31ZM1486.08,352.88h-10.17v-12.31h10.17v12.31Z"/>
      <polygon class="cls-1" points="1419.71 327.73 1414.79 309.53 1399.24 309.53 1408.44 327.73 1419.71 327.73"/>
      <polygon class="cls-1" points="1421.04 357.7 1424.67 382.32 1433.89 382.32 1431.33 357.7 1421.04 357.7"/>
      <polygon class="cls-1" points="1427.59 344.86 1427.59 332.01 1409 332.01 1391.34 332.01 1391.34 344.86 1410.15 344.86 1389.05 375.91 1402.41 375.88 1405.79 371.72 1405.79 421.39 1418.64 421.39 1418.64 361.45 1414.13 361.45 1427.59 344.86"/>
    </g>
    <g>
      <polygon class="cls-1" points="931.23 340.57 935.64 340.57 935.64 326.65 931.23 326.65 916.24 326.65 911.02 326.65 899.64 326.65 905.45 309.99 890.47 310.01 877.15 352.81 890.53 352.79 894.79 340.57 911.02 340.57 916.24 340.57 916.24 368.8 907.72 380.32 899.78 368.8 899.78 356.89 884.79 356.89 884.79 371.48 899.39 391.57 877.7 420.85 892.69 420.85 907.18 402.29 920.66 420.85 935.64 420.85 915.5 391.62 931.23 371.48 931.23 340.57"/>
      <polygon class="cls-1" points="847.43 348.06 848.64 337.89 852.68 337.89 879.44 337.89 879.44 323.97 860.4 323.97 856.96 309.52 843.05 309.52 846.48 323.96 837.71 323.97 823.92 323.97 823.92 337.89 833.83 337.89 824.79 421.4 838.69 421.38 845.77 361.98 857.76 361.98 860.71 361.98 860.71 406.4 847.86 406.4 850 420.85 860.71 420.85 860.71 420.85 875.7 420.85 875.7 420.85 875.7 420.85 875.7 406.4 875.7 406.4 875.7 361.98 875.7 361.98 875.7 348.06 857.76 348.06 847.43 348.06"/>
    </g>
    <path class="cls-1" d="M675.16,153.34c0,18.76-6.16,34.23-18.48,46.4-12.32,12.17-28.37,18.26-48.12,18.26s-35.66-6.1-47.91-18.31c-12.25-12.2-18.38-27.65-18.38-46.35v-27.41c0-18.62,6.11-34.05,18.32-46.29,12.21-12.24,28.13-18.36,47.74-18.36s35.84,6.12,48.23,18.36c12.4,12.24,18.59,27.67,18.59,46.29v27.41ZM643.33,129.72c0-11.86-3.1-21.59-9.3-29.19-6.2-7.6-14.77-11.4-25.7-11.4s-19.2,3.8-25.21,11.4c-6.02,7.6-9.02,17.33-9.02,29.19v20.62c0,12.07,3.02,21.9,9.08,29.5,6.05,7.6,14.51,11.4,25.38,11.4s19.47-3.8,25.59-11.4c6.12-7.6,9.19-17.44,9.19-29.5v-20.62Z"/>
    <path class="cls-1" d="M809.25,162.33c0,16.74-4.05,27.2-12.14,37.38-8.09,10.18-19.4,15.27-33.91,15.27-6.2,0-11.7-1.1-16.52-3.3-4.81-2.2-8.93-5.42-12.36-9.68v55.3h-31.83V102.6h30.62v13.39c3.5-4.95,7.71-8.77,12.63-11.46,4.92-2.68,10.66-4.03,17.23-4.03,14.66,0,26.03,5.48,34.12,16.43,8.09,10.95,12.14,25.35,12.14,43.21v2.2ZM777.31,155.14c0-10.67-.94-14.01-4.66-20.64-3.72-6.63-10.33-10.25-17.98-10.25-4.81,0-8.91.94-12.3,2.82s-6.07,4.57-8.04,8.06v44.59c1.97,3.21,4.65,5.65,8.04,7.32,3.39,1.67,7.56,2.51,12.52,2.51,7.73,0,13.4-1.89,17.01-7.68,3.61-5.79,5.41-14.63,5.41-24.54v-2.2Z"/>
    <path class="cls-1" d="M985.66,102.6v16.22c3.94-5.79,8.79-10.29,14.55-13.5,5.76-3.21,12.21-4.81,19.36-4.81,11.96,0,21.29,3.68,28,11.04,6.71,7.36,10.06,18.99,10.06,34.89v69.36h-32.05v-69.26c0-8.09-1.48-13.83-4.43-17.21-2.95-3.38-7.38-5.07-13.29-5.07-4.74,0-8.91.85-12.52,2.56-3.61,1.71-6.58,4.06-8.91,7.06v81.92h-31.94v-113.2h31.17Z"/>
    <path class="cls-1" d="M1318.37,176.04c0-5.86-2.13-10.57-6.4-14.12s-11.76-6.9-22.48-10.04c-18.38-5.3-32.32-11.54-41.84-18.73-9.52-7.18-14.27-16.98-14.27-29.4s5.36-22.68,16.08-30.6c10.72-7.92,24.39-11.87,41.02-11.87,17.65,0,31.85,4.26,42.6,12.76,10.75,8.51,15.95,19.67,15.59,33.48l-.22.63h-30.95c0-7.6-2.41-13.44-7.22-17.52s-11.56-6.12-20.23-6.12c-7.88,0-13.96,1.81-18.27,5.44-4.3,3.63-6.45,8.27-6.45,13.91,0,5.16,2.33,9.4,7,12.71,4.67,3.31,12.72,6.82,24.17,10.51,17.5,4.74,30.84,10.93,40.03,18.57,9.19,7.64,13.78,17.7,13.78,30.18s-5.32,23.33-15.97,30.86c-10.65,7.53-24.72,11.3-42.22,11.3s-31.85-4.08-44.13-12.24c-12.29-8.16-18.25-20.33-17.88-36.51l.22-.63h30.95c0,9,2.77,15.62,8.31,19.88,5.54,4.25,13.05,6.38,22.53,6.38,8.53,0,15.04-1.71,19.52-5.13,4.48-3.42,6.73-7.99,6.73-13.71Z"/>
    <path class="cls-1" d="M1500.36,194.97c-4.96,6.21-12.36,11.6-22.2,16.16-9.84,4.57-22.53,6.85-38.06,6.85-19.25,0-35-5.79-47.25-17.37-12.25-11.58-18.38-26.61-18.38-45.09v-31.8c0-18.41,5.94-33.43,17.83-45.04,11.88-11.61,27.16-17.42,45.83-17.42s34.38,4.41,44.73,13.23c10.35,8.82,15.35,20.59,14.98,35.31l-.22.63h-30.08c0-8.09-2.44-14.39-7.33-18.88-4.89-4.5-12-6.75-21.33-6.75s-17.65,3.61-23.62,10.83c-5.98,7.22-8.97,16.51-8.97,27.88v32.01c0,11.51,3.06,20.89,9.19,28.14,6.12,7.25,14.33,10.88,24.61,10.88,7.58,0,13.58-.73,17.99-2.2,4.41-1.46,7.82-3.31,10.23-5.54v-27.5h-30.62v-23.13h62.67v58.8Z"/>
    <path class="cls-1" d="M855.69,164.41v.46c0,19,9.43,28.5,28.31,28.5,6.34,0,11.53-1.21,15.59-3.65,4.05-2.43,6.6-5.85,7.19-10.26v-.68h26.76v1.37c-.74,11.4-5.64,20.56-14.71,27.47-9.07,6.92-21.05,10.37-35.94,10.37-16.96,0-30.27-4.79-39.92-14.36-9.66-9.58-14.49-23.56-14.49-41.95v-10.26c0-18.09,4.72-31.96,14.15-41.61,9.43-9.65,22.41-14.48,38.92-14.48s29.49,4.79,38.92,14.36c9.43,9.58,14.15,23.26,14.15,41.04v13.68h-78.95ZM855.69,144.03h51.53v-1.6c0-7.9-2.32-12.87-6.97-16.9-4.64-4.03-10.87-6.04-18.69-6.04-16.22,0-24.85,7.51-25.88,24.54Z"/>
    <path class="cls-1" d="M1180.46,166.63c-1.49,4.97-3.74,9.37-6.75,13.21-5.96,7.6-14.27,11.4-24.92,11.4s-18.81-3.8-24.71-11.4c-5.89-7.6-8.84-17.44-8.84-29.5v-20.62c0-11.86,2.93-21.59,8.79-29.19,5.86-7.6,14.04-11.4,24.55-11.4s18.99,3.8,25.02,11.4c2.83,3.56,4.99,7.6,6.49,12.1h32.43c-2.25-12.8-7.91-23.8-16.98-33-12.07-12.24-27.72-18.36-46.96-18.36s-34.59,6.12-46.48,18.36c-11.89,12.24-17.84,27.67-17.84,46.29v27.41c0,18.69,5.96,34.14,17.89,46.35,11.93,12.21,27.47,18.31,46.64,18.31s34.86-6.08,46.85-18.26c9.03-9.17,14.66-20.2,16.9-33.1h-32.09Z"/>
  </g>
</svg>