<svg width="20" height="20" viewBox="0 0 20 20" fill="none" xmlns="http://www.w3.org/2000/svg">
<g id="box">
<path id="Vector" d="M10 10.4163L17.5 5.83301M10 10.4163L2.50002 5.83301M10 10.4163V18.7497M1.66669 8.55072V11.4486C1.66669 12.4397 1.66669 12.9352 1.80888 13.3804C1.9347 13.7744 2.14065 14.1382 2.41377 14.4488C2.72241 14.7998 3.14731 15.0547 3.99711 15.5646L7.53044 17.6846C8.42834 18.2233 8.87729 18.4927 9.35656 18.5979C9.78048 18.691 10.2196 18.691 10.6435 18.5979C11.1227 18.4927 11.5717 18.2233 12.4696 17.6846L16.0029 15.5646C16.8527 15.0547 17.2776 14.7998 17.5863 14.4488C17.8594 14.1382 18.0653 13.7744 18.1912 13.3804C18.3334 12.9352 18.3334 12.4397 18.3334 11.4486V8.55072C18.3334 7.55969 18.3334 7.06418 18.1912 6.61894C18.0653 6.22493 17.8594 5.86119 17.5863 5.55058C17.2776 5.19957 16.8527 4.94463 16.0029 4.43476L12.4696 2.31476C11.5717 1.77602 11.1227 1.50664 10.6435 1.4014C10.2196 1.30831 9.78048 1.30831 9.35656 1.4014C8.87729 1.50665 8.42834 1.77601 7.53044 2.31475L3.99711 4.43476C3.14731 4.94463 2.72241 5.19957 2.41377 5.55058C2.14065 5.86119 1.9347 6.22493 1.80888 6.61894C1.66669 7.06418 1.66669 7.55969 1.66669 8.55072Z" stroke="#475467" stroke-width="1.67" stroke-linecap="round" stroke-linejoin="round"/>
</g>
</svg>
