<svg xmlns="http://www.w3.org/2000/svg" width="20" height="20" viewBox="0 0 20 20" fill="none">
  <g clip-path="url(#clip0_35245_104417)">
    <path d="M5.00002 5.00033H5.00835M5.00002 15.0003H5.00835M4.33335 8.33366H15.6667C16.6001 8.33366 17.0668 8.33366 17.4233 8.152C17.7369 7.99221 17.9919 7.73725 18.1517 7.42364C18.3334 7.06712 18.3334 6.60041 18.3334 5.66699V4.33366C18.3334 3.40024 18.3334 2.93353 18.1517 2.57701C17.9919 2.2634 17.7369 2.00844 17.4233 1.84865C17.0668 1.66699 16.6001 1.66699 15.6667 1.66699H4.33335C3.39993 1.66699 2.93322 1.66699 2.5767 1.84865C2.2631 2.00844 2.00813 2.2634 1.84834 2.57701C1.66669 2.93353 1.66669 3.40024 1.66669 4.33366V5.66699C1.66669 6.60041 1.66669 7.06712 1.84834 7.42364C2.00813 7.73725 2.2631 7.99221 2.5767 8.152C2.93322 8.33366 3.39993 8.33366 4.33335 8.33366ZM4.33335 18.3337H15.6667C16.6001 18.3337 17.0668 18.3337 17.4233 18.152C17.7369 17.9922 17.9919 17.7372 18.1517 17.4236C18.3334 17.0671 18.3334 16.6004 18.3334 15.667V14.3337C18.3334 13.4002 18.3334 12.9335 18.1517 12.577C17.9919 12.2634 17.7369 12.0084 17.4233 11.8486C17.0668 11.667 16.6001 11.667 15.6667 11.667H4.33335C3.39993 11.667 2.93322 11.667 2.5767 11.8486C2.2631 12.0084 2.00813 12.2634 1.84834 12.577C1.66669 12.9335 1.66669 13.4002 1.66669 14.3337V15.667C1.66669 16.6004 1.66669 17.0671 1.84834 17.4236C2.00813 17.7372 2.2631 17.9922 2.5767 18.152C2.93322 18.3337 3.39993 18.3337 4.33335 18.3337Z" stroke="#475467" stroke-width="1.67" stroke-linecap="round" stroke-linejoin="round"/>
  </g>
  <defs>
    <clipPath id="clip0_35245_104417">
      <rect width="20" height="20" fill="white"/>
    </clipPath>
  </defs>
</svg>