<svg width="20" height="20" viewBox="0 0 20 20" fill="none" xmlns="http://www.w3.org/2000/svg">
<path d="M8.33342 5.83374L5.00008 5.83374C3.15913 5.83374 1.66675 7.32612 1.66675 9.16707V9.16707C1.66675 11.008 3.15913 12.5004 5.00008 12.5004L8.33342 12.5004M8.33342 5.83374L8.33342 12.5004M8.33342 5.83374L11.6316 3.52486C13.2611 2.38409 14.0759 1.81371 14.7541 1.84337C15.3447 1.8692 15.8936 2.15498 16.2535 2.62399C16.6667 3.16259 16.6667 4.15717 16.6667 6.14634L16.6667 6.66707M8.33342 12.5004L11.6318 14.8091C13.2613 15.9497 14.076 16.52 14.7542 16.4903C15.3448 16.4644 15.8937 16.1786 16.2535 15.7096C16.6667 15.171 16.6667 14.1765 16.6667 12.1875L16.6667 11.6671M5.00008 12.5004L5.00008 16.2504C5.00008 16.9408 5.55973 17.5004 6.25008 17.5004V17.5004C6.94044 17.5004 7.50008 16.9408 7.50008 16.2504L7.50008 12.5004M16.6667 6.66707V6.66707C18.0475 6.66707 19.1667 7.78636 19.1667 9.16707V9.16707C19.1667 10.5478 18.0475 11.6671 16.6667 11.6671V11.6671M16.6667 6.66707L16.6667 11.6671" stroke="#475467" stroke-width="1.5" stroke-linecap="round" stroke-linejoin="round"/>
</svg>