<svg width="20" height="20" viewBox="0 0 20 20" fill="none" xmlns="http://www.w3.org/2000/svg">
<g id="users-01">
<path id="Icon" d="M18.3334 17.5V15.8333C18.3334 14.2801 17.271 12.9751 15.8334 12.605M12.9167 2.7423C14.1383 3.23679 15 4.43443 15 5.83333C15 7.23224 14.1383 8.42988 12.9167 8.92437M14.1667 17.5C14.1667 15.9469 14.1667 15.1703 13.913 14.5577C13.5746 13.741 12.9257 13.092 12.109 12.7537C11.4964 12.5 10.7198 12.5 9.16669 12.5H6.66669C5.11355 12.5 4.33698 12.5 3.72441 12.7537C2.90765 13.092 2.25874 13.741 1.92042 14.5577C1.66669 15.1703 1.66669 15.9469 1.66669 17.5M11.25 5.83333C11.25 7.67428 9.75764 9.16667 7.91669 9.16667C6.07574 9.16667 4.58335 7.67428 4.58335 5.83333C4.58335 3.99238 6.07574 2.5 7.91669 2.5C9.75764 2.5 11.25 3.99238 11.25 5.83333Z" stroke="#475467" stroke-width="1.67" stroke-linecap="round" stroke-linejoin="round"/>
</g>
</svg>
