<svg width="44" height="44" viewBox="0 0 44 44" fill="none" xmlns="http://www.w3.org/2000/svg">
<g filter="url(#filter0_d_38014_11213)">
<rect x="2" y="1" width="40" height="40" rx="8" fill="white" shape-rendering="crispEdges"/>
<rect x="2.5" y="1.5" width="39" height="39" rx="7.5" stroke="#EAECF0" shape-rendering="crispEdges"/>
<g clip-path="url(#clip0_38014_11213)">
<path d="M21.9998 18.5009L15.3864 22.7996C14.8132 23.1722 14.5266 23.3585 14.4273 23.5948C14.3406 23.8012 14.3406 24.0339 14.4273 24.2404M21.9998 18.5009L28.6133 22.7996C29.1865 23.1722 29.4731 23.3585 29.5724 23.5948C29.6591 23.8012 29.6591 24.0339 29.5724 24.2404M21.9998 18.5009V13.0842M21.9998 23.5009L15.3864 19.2021C14.8132 18.8296 14.5266 18.6433 14.4273 18.407C14.3406 18.2006 14.3406 17.9679 14.4273 17.7614M21.9998 23.5009L28.6133 19.2021C29.1865 18.8296 29.4731 18.6433 29.5724 18.407C29.6591 18.2006 29.6591 17.9679 29.5724 17.7614M21.9998 23.5009V28.9176M29.7265 24.3119L22.7265 28.8619C22.4635 29.0329 22.332 29.1183 22.1903 29.1516C22.065 29.181 21.9347 29.181 21.8094 29.1516C21.6677 29.1183 21.5362 29.0329 21.2732 28.8619L14.2732 24.3119C14.0515 24.1678 13.9407 24.0958 13.8604 23.9997C13.7893 23.9146 13.7359 23.8162 13.7033 23.7102C13.6665 23.5905 13.6665 23.4584 13.6665 23.194V18.8078C13.6665 18.5434 13.6665 18.4112 13.7033 18.2915C13.7359 18.1856 13.7893 18.0872 13.8604 18.0021C13.9407 17.906 14.0515 17.834 14.2732 17.6899L21.2732 13.1399C21.5362 12.9689 21.6677 12.8834 21.8094 12.8502C21.9347 12.8208 22.065 12.8208 22.1903 12.8502C22.332 12.8834 22.4635 12.9689 22.7265 13.1399L29.7265 17.6899C29.9482 17.834 30.059 17.906 30.1393 18.0021C30.2104 18.0872 30.2638 18.1856 30.2964 18.2915C30.3332 18.4112 30.3332 18.5434 30.3332 18.8078V23.194C30.3332 23.4584 30.3332 23.5905 30.2964 23.7102C30.2638 23.8162 30.2104 23.9146 30.1393 23.9997C30.059 24.0958 29.9482 24.1678 29.7265 24.3119Z" stroke="#344054" stroke-width="1.66667" stroke-linecap="round" stroke-linejoin="round"/>
</g>
</g>
<defs>
<filter id="filter0_d_38014_11213" x="0" y="0" width="44" height="44" filterUnits="userSpaceOnUse" color-interpolation-filters="sRGB">
<feFlood flood-opacity="0" result="BackgroundImageFix"/>
<feColorMatrix in="SourceAlpha" type="matrix" values="0 0 0 0 0 0 0 0 0 0 0 0 0 0 0 0 0 0 127 0" result="hardAlpha"/>
<feOffset dy="1"/>
<feGaussianBlur stdDeviation="1"/>
<feComposite in2="hardAlpha" operator="out"/>
<feColorMatrix type="matrix" values="0 0 0 0 0.0627451 0 0 0 0 0.0941176 0 0 0 0 0.156863 0 0 0 0.05 0"/>
<feBlend mode="normal" in2="BackgroundImageFix" result="effect1_dropShadow_38014_11213"/>
<feBlend mode="normal" in="SourceGraphic" in2="effect1_dropShadow_38014_11213" result="shape"/>
</filter>
<clipPath id="clip0_38014_11213">
<rect width="20" height="20" fill="white" transform="translate(12 11)"/>
</clipPath>
</defs>
</svg>
