<?xml version="1.0" standalone="no"?><!DOCTYPE svg PUBLIC "-//W3C//DTD SVG 1.1//EN" "http://www.w3.org/Graphics/SVG/1.1/DTD/svg11.dtd"><svg t="1753431960976" class="icon" viewBox="0 0 1024 1024" version="1.1" xmlns="http://www.w3.org/2000/svg" p-id="2393" xmlns:xlink="http://www.w3.org/1999/xlink" width="400" height="400"><path d="M864 77.226667h-704C118.826667 77.226667 85.333333 110.72 85.333333 151.893333v720.426667c0 41.173333 33.493333 74.666667 74.666667 74.666667h704c41.173333 0 74.666667-33.493333 74.666667-74.666667V151.893333c0-41.173333-33.493333-74.666667-74.666667-74.666666z m-704 64h704c5.973333 0 10.666667 4.693333 10.666667 10.666666v116.266667H149.333333V151.893333c0-5.973333 4.693333-10.666667 10.666667-10.666666zM149.333333 872.106667V332.16h176.213334v550.826667H160a10.88 10.88 0 0 1-10.666667-10.88z m714.666667 10.666666H389.546667V332.16H874.666667v540.16c0 5.76-4.693333 10.453333-10.666667 10.453333z" p-id="2394" fill="#475467"></path></svg>