<svg xmlns="http://www.w3.org/2000/svg" width="24" height="24" viewBox="0 0 24 24" fill="none">
  <path opacity="0.12" d="M5.11942 10.1007L9.72591 4.34261C11.0368 2.70406 11.6922 1.88479 12.2669 1.79439C12.7645 1.71614 13.268 1.89278 13.6076 2.26468C14 2.69433 14 3.74351 14 5.84187V7.6C14 8.44008 14 8.86012 14.1635 9.18099C14.3073 9.46323 14.5368 9.6927 14.819 9.83651C15.1399 10 15.5599 10 16.4 10H17.0065C18.6051 10 19.4043 10 19.8148 10.3277C20.1719 10.6127 20.3796 11.0448 20.3791 11.5016C20.3785 12.0269 19.8792 12.651 18.8806 13.8993L14.2741 19.6574C12.9632 21.2959 12.3078 22.1152 11.7331 22.2056C11.2355 22.2839 10.732 22.1072 10.3924 21.7353C10 21.3057 10 20.2565 10 18.1581V16.4C10 15.5599 10 15.1399 9.83651 14.819C9.6927 14.5368 9.46323 14.3073 9.18099 14.1635C8.86012 14 8.44008 14 7.6 14H6.9935C5.39495 14 4.59567 14 4.18516 13.6723C3.82814 13.3873 3.62044 12.9552 3.62094 12.4984C3.62151 11.9731 4.12081 11.349 5.11942 10.1007Z" fill="#2F384C"/>
  <path d="M5.11942 10.1007L9.72591 4.34261C11.0368 2.70406 11.6922 1.88479 12.2669 1.79439C12.7645 1.71614 13.268 1.89278 13.6076 2.26468C14 2.69433 14 3.74351 14 5.84187V7.6C14 8.44008 14 8.86012 14.1635 9.18099C14.3073 9.46323 14.5368 9.6927 14.819 9.83651C15.1399 10 15.5599 10 16.4 10H17.0065C18.6051 10 19.4043 10 19.8148 10.3277C20.1719 10.6127 20.3796 11.0448 20.3791 11.5016C20.3785 12.0269 19.8792 12.651 18.8806 13.8993L14.2741 19.6574C12.9632 21.2959 12.3078 22.1152 11.7331 22.2056C11.2355 22.2839 10.732 22.1072 10.3924 21.7353C10 21.3057 10 20.2565 10 18.1581V16.4C10 15.5599 10 15.1399 9.83651 14.819C9.6927 14.5368 9.46323 14.3073 9.18099 14.1635C8.86012 14 8.44008 14 7.6 14H6.9935C5.39495 14 4.59567 14 4.18516 13.6723C3.82814 13.3873 3.62044 12.9552 3.62094 12.4984C3.62151 11.9731 4.12081 11.349 5.11942 10.1007Z" stroke="#2F384C" stroke-width="1.5" stroke-linecap="round" stroke-linejoin="round"/>
</svg>