<svg width="12" height="12" viewBox="0 0 12 12" fill="none" xmlns="http://www.w3.org/2000/svg">
<path d="M7.5 4.5H7.505M7.5 7.5C9.15685 7.5 10.5 6.15685 10.5 4.5C10.5 2.84315 9.15685 1.5 7.5 1.5C5.84315 1.5 4.5 2.84315 4.5 4.5C4.5 4.63684 4.50916 4.77154 4.52691 4.90352C4.55609 5.12059 4.57068 5.22913 4.56086 5.29779C4.55063 5.36933 4.5376 5.40787 4.50234 5.47095C4.4685 5.5315 4.40885 5.59114 4.28957 5.71043L1.73431 8.26569C1.64784 8.35216 1.6046 8.3954 1.57368 8.44586C1.54627 8.49059 1.52606 8.53937 1.51382 8.59038C1.5 8.64793 1.5 8.70908 1.5 8.83137V9.7C1.5 9.98003 1.5 10.12 1.5545 10.227C1.60243 10.3211 1.67892 10.3976 1.773 10.4455C1.87996 10.5 2.01997 10.5 2.3 10.5H3.16863C3.29092 10.5 3.35207 10.5 3.40962 10.4862C3.46063 10.4739 3.50941 10.4537 3.55414 10.4263C3.6046 10.3954 3.64784 10.3522 3.73431 10.2657L6.28957 7.71043C6.40885 7.59115 6.4685 7.5315 6.52905 7.49766C6.59213 7.4624 6.63067 7.44937 6.70221 7.43914C6.77087 7.42932 6.87941 7.44391 7.09648 7.47309C7.22846 7.49084 7.36316 7.5 7.5 7.5Z" stroke="#344054" stroke-linecap="round" stroke-linejoin="round"/>
</svg>
