<?xml version="1.0" standalone="no"?><!DOCTYPE svg PUBLIC "-//W3C//DTD SVG 1.1//EN" "http://www.w3.org/Graphics/SVG/1.1/DTD/svg11.dtd"><svg t="1752574930986" class="icon" viewBox="0 0 1024 1024" version="1.1" xmlns="http://www.w3.org/2000/svg" p-id="8797" xmlns:xlink="http://www.w3.org/1999/xlink" width="200" height="200"><path d="M510.06 112h-0.578a37.81 37.81 0 0 0-21.442 7.042l-0.364 0.263 0.105-0.067a45.582 45.582 0 0 0-6.93 5.486l-0.598 0.587-270.946 270.62c-17.743 17.721-17.743 46.456 0 64.178l0.536 0.526c17.78 17.19 46.142 17.015 63.705-0.526l198.597-198.36v612.384c0 20.914 16.974 37.867 37.908 37.867h5.309c20.645-0.34 37.28-17.162 37.28-37.867V261.748l198.598 198.36c17.74 17.72 46.5 17.72 64.241 0 17.743-17.72 17.744-46.455 0.002-64.177L544.515 125.289l-0.575-0.564a45.577 45.577 0 0 0-6.257-5.045l-0.569-0.375 0.104 0.076A37.78 37.78 0 0 0 514.731 112h-4.671z" fill="#D33F17" p-id="8798"></path></svg>