<svg width="44" height="44" viewBox="0 0 44 44" fill="none" xmlns="http://www.w3.org/2000/svg">
<g filter="url(#filter0_d_36366_526707)">
<rect x="2" y="1" width="40" height="40" rx="8" fill="white" shape-rendering="crispEdges"/>
<rect x="2.5" y="1.5" width="39" height="39" rx="7.5" stroke="#EAECF0" shape-rendering="crispEdges"/>
<path d="M30.3337 18.084H13.667M13.667 21.4173H16.6226C17.0727 21.4173 17.2978 21.4173 17.5154 21.4561C17.7086 21.4905 17.8971 21.5476 18.0769 21.6261C18.2795 21.7146 18.4668 21.8394 18.8414 22.0891L19.326 22.4122C19.7005 22.6619 19.8878 22.7867 20.0904 22.8752C20.2702 22.9537 20.4587 23.0108 20.6519 23.0452C20.8695 23.084 21.0946 23.084 21.5448 23.084H22.4559C22.906 23.084 23.1311 23.084 23.3488 23.0452C23.542 23.0108 23.7304 22.9537 23.9102 22.8752C24.1129 22.7867 24.3001 22.6619 24.6747 22.4122L25.1593 22.0891C25.5338 21.8394 25.7211 21.7146 25.9237 21.6261C26.1036 21.5476 26.292 21.4905 26.4852 21.4561C26.7029 21.4173 26.9279 21.4173 27.3781 21.4173H30.3337M13.667 17.0007L13.667 25.0006C13.667 25.9341 13.667 26.4008 13.8486 26.7573C14.0084 27.0709 14.2634 27.3259 14.577 27.4857C14.9335 27.6673 15.4002 27.6673 16.3337 27.6673L27.667 27.6673C28.6004 27.6673 29.0671 27.6673 29.4236 27.4857C29.7372 27.3259 29.9922 27.0709 30.152 26.7573C30.3337 26.4008 30.3337 25.9341 30.3337 25.0007V17.0007C30.3337 16.0672 30.3337 15.6005 30.152 15.244C29.9922 14.9304 29.7372 14.6754 29.4236 14.5156C29.0671 14.334 28.6004 14.334 27.667 14.334L16.3337 14.334C15.4002 14.334 14.9335 14.334 14.577 14.5156C14.2634 14.6754 14.0084 14.9304 13.8486 15.244C13.667 15.6005 13.667 16.0672 13.667 17.0007Z" stroke="#2F384C" stroke-width="1.5" stroke-linecap="round" stroke-linejoin="round"/>
</g>
<defs>
<filter id="filter0_d_36366_526707" x="0" y="0" width="44" height="44" filterUnits="userSpaceOnUse" color-interpolation-filters="sRGB">
<feFlood flood-opacity="0" result="BackgroundImageFix"/>
<feColorMatrix in="SourceAlpha" type="matrix" values="0 0 0 0 0 0 0 0 0 0 0 0 0 0 0 0 0 0 127 0" result="hardAlpha"/>
<feOffset dy="1"/>
<feGaussianBlur stdDeviation="1"/>
<feComposite in2="hardAlpha" operator="out"/>
<feColorMatrix type="matrix" values="0 0 0 0 0.0627451 0 0 0 0 0.0941176 0 0 0 0 0.156863 0 0 0 0.05 0"/>
<feBlend mode="normal" in2="BackgroundImageFix" result="effect1_dropShadow_36366_526707"/>
<feBlend mode="normal" in="SourceGraphic" in2="effect1_dropShadow_36366_526707" result="shape"/>
</filter>
</defs>
</svg>
