<?xml version="1.0" standalone="no"?><!DOCTYPE svg PUBLIC "-//W3C//DTD SVG 1.1//EN" "http://www.w3.org/Graphics/SVG/1.1/DTD/svg11.dtd"><svg t="1752215157458" class="icon" viewBox="0 0 1024 1024" version="1.1" xmlns="http://www.w3.org/2000/svg" p-id="3578" xmlns:xlink="http://www.w3.org/1999/xlink" width="400" height="400"><path d="M597.333333 661.333333a85.333333 85.333333 0 1 0-170.666666 0 85.333333 85.333333 0 0 0 170.666666 0z m256-202.666666v405.333333a85.333333 85.333333 0 0 1-85.333333 85.333333H256a85.333333 85.333333 0 0 1-85.333333-85.333333v-405.333333a85.333333 85.333333 0 0 1 85.333333-85.333334h42.666667v-85.333333a213.333333 213.333333 0 1 1 426.666666 0v85.333333h42.666667a85.333333 85.333333 0 0 1 85.333333 85.333334z m-341.333333-298.666667a128 128 0 0 0-128 128v85.333333h256v-85.333333a128 128 0 0 0-128-128z" fill="#aaa9a9" p-id="3579"></path></svg>