<svg xmlns="http://www.w3.org/2000/svg" width="24" height="24" viewBox="0 0 24 24" fill="none">
  <path d="M4 14.0004L5.57465 20.299C5.61893 20.4761 5.64107 20.5647 5.66727 20.642C5.92317 21.3975 6.60352 21.9287 7.39852 21.9937C7.4799 22.0004 7.5712 22.0004 7.75379 22.0004C7.98244 22.0004 8.09677 22.0004 8.19308 21.9911C9.145 21.8987 9.89834 21.1454 9.99066 20.1935C10 20.0972 10 19.9828 10 19.7542V5.5004M18.5 13.5004C20.433 13.5004 22 11.9334 22 10.0004C22 8.0674 20.433 6.5004 18.5 6.5004M10.25 5.5004H6.5C4.01472 5.5004 2 7.51512 2 10.0004C2 12.4857 4.01472 14.5004 6.5 14.5004H10.25C12.0164 14.5004 14.1772 15.4473 15.8443 16.356C16.8168 16.8862 17.3031 17.1513 17.6216 17.1123C17.9169 17.0761 18.1402 16.9435 18.3133 16.7015C18.5 16.4405 18.5 15.9184 18.5 14.8741V5.12668C18.5 4.0824 18.5 3.56025 18.3133 3.29929C18.1402 3.0573 17.9169 2.9247 17.6216 2.88853C17.3031 2.84952 16.8168 3.1146 15.8443 3.64475C14.1772 4.55351 12.0164 5.5004 10.25 5.5004Z" stroke="white" stroke-width="2" stroke-linecap="round" stroke-linejoin="round"/>
</svg>