<?xml version="1.0" standalone="no"?><!DOCTYPE svg PUBLIC "-//W3C//DTD SVG 1.1//EN" "http://www.w3.org/Graphics/SVG/1.1/DTD/svg11.dtd"><svg t="1753425442701" class="icon" viewBox="0 0 1024 1024" version="1.1" xmlns="http://www.w3.org/2000/svg" p-id="6845" xmlns:xlink="http://www.w3.org/1999/xlink" width="200" height="200"><path d="M512 34.133333C248.507733 34.133333 34.133333 248.507733 34.133333 512s214.3744 477.866667 477.866667 477.866667 477.866667-214.3744 477.866667-477.866667S775.492267 34.133333 512 34.133333z m-20.138667 745.591467l-199.8848-61.7472a26.845867 26.845867 0 0 1-18.722133-22.459733L273.066667 692.3776V407.790933c0.017067-4.898133 1.365333-9.710933 3.908266-13.892266a16.247467 16.247467 0 0 1 11.656534-15.274667l103.424-30.6176a16.5376 16.5376 0 0 1 20.497066 11.042133h-0.017066a16.247467 16.247467 0 0 1-1.262934 12.424534 16.042667 16.042667 0 0 1-9.659733 7.901866l-54.7328 16.213334 145.015467 49.749333v334.3872z m4.744534-363.776l-48.913067-39.168a22.766933 22.766933 0 0 1-7.185067-25.2928 22.664533 22.664533 0 0 1 21.4016-15.223467H488.106667v-69.239466a22.749867 22.749867 0 0 1 22.715733-22.715734v-0.0512a22.869333 22.869333 0 0 1 22.818133 22.818134v69.205333H559.786667a22.698667 22.698667 0 0 1 21.384533 15.223467c3.208533 9.096533 0.341333 19.234133-7.168 25.275733l-48.9472 39.168c-8.362667 6.656-20.138667 6.656-28.450133 0zM750.933333 692.309333a26.88 26.88 0 0 1-18.909866 25.634134L532.138667 779.690667h-0.034134V445.303467l145.032534-49.749334-54.749867-16.213333a16.3328 16.3328 0 0 1-10.9056-20.3264 16.5376 16.5376 0 0 1 17.902933-11.588267l2.594134 0.529067 103.4752 30.634667a16.213333 16.213333 0 0 1 11.605333 15.274666c2.525867 4.1984 3.8912 8.977067 3.908267 13.841067v284.603733z" p-id="6846" fill="#AAA9A9"></path></svg>