<svg width="60" height="60" viewBox="0 0 60 60" fill="none" xmlns="http://www.w3.org/2000/svg">
<g filter="url(#filter0_d_35579_507613)">
<rect x="2" y="1" width="56" height="56" rx="12" fill="white" shape-rendering="crispEdges"/>
<rect x="2.5" y="1.5" width="55" height="55" rx="11.5" stroke="#EAECF0" shape-rendering="crispEdges"/>
<path d="M29.9994 25.5003V30.1669M29.9994 34.8336H30.0111M28.3839 19.5406L18.7882 36.115C18.256 37.0343 17.9899 37.494 18.0292 37.8712C18.0635 38.2003 18.2359 38.4993 18.5035 38.6939C18.8103 38.9169 19.3414 38.9169 20.4037 38.9169H39.5951C40.6574 38.9169 41.1885 38.9169 41.4953 38.6939C41.7629 38.4993 41.9353 38.2003 41.9696 37.8712C42.0089 37.494 41.7428 37.0343 41.2105 36.115L31.6148 19.5406C31.0845 18.6246 30.8194 18.1666 30.4734 18.0127C30.1716 17.8786 29.8271 17.8786 29.5254 18.0127C29.1794 18.1666 28.9143 18.6246 28.3839 19.5406Z" stroke="#344054" stroke-width="2" stroke-linecap="round" stroke-linejoin="round"/>
</g>
<defs>
<filter id="filter0_d_35579_507613" x="0" y="0" width="60" height="60" filterUnits="userSpaceOnUse" color-interpolation-filters="sRGB">
<feFlood flood-opacity="0" result="BackgroundImageFix"/>
<feColorMatrix in="SourceAlpha" type="matrix" values="0 0 0 0 0 0 0 0 0 0 0 0 0 0 0 0 0 0 127 0" result="hardAlpha"/>
<feOffset dy="1"/>
<feGaussianBlur stdDeviation="1"/>
<feComposite in2="hardAlpha" operator="out"/>
<feColorMatrix type="matrix" values="0 0 0 0 0.0627451 0 0 0 0 0.0941176 0 0 0 0 0.156863 0 0 0 0.05 0"/>
<feBlend mode="normal" in2="BackgroundImageFix" result="effect1_dropShadow_35579_507613"/>
<feBlend mode="normal" in="SourceGraphic" in2="effect1_dropShadow_35579_507613" result="shape"/>
</filter>
</defs>
</svg>
