<?xml version="1.0" standalone="no"?><!DOCTYPE svg PUBLIC "-//W3C//DTD SVG 1.1//EN" "http://www.w3.org/Graphics/SVG/1.1/DTD/svg11.dtd"><svg t="1753431912755" class="icon" viewBox="0 0 1024 1024" version="1.1" xmlns="http://www.w3.org/2000/svg" p-id="2140" xmlns:xlink="http://www.w3.org/1999/xlink" width="400" height="400"><path d="M297.216 368.0256h-133.632c-30.976 0-56.064 25.088-56.064 56.064v441.4464C107.52 896.512 132.608 921.6 163.584 921.6h133.5808c31.0272 0 56.1152-25.088 56.1152-56.064V424.0896c0-30.976-25.088-56.064-56.064-56.064z m4.864 497.5104a4.9152 4.9152 0 0 1-4.864 4.864h-133.632a4.9152 4.9152 0 0 1-4.864-4.864V424.0896c0-2.7136 2.2016-4.864 4.864-4.864h133.5808c2.7136 0 4.9152 2.1504 4.9152 4.864v441.4464zM578.6624 102.4H445.3376C414.2592 102.4 389.12 127.5392 389.12 158.6176v706.816c0 31.0272 25.1392 56.1664 56.2176 56.1664h133.376c31.0272 0 56.2176-25.1392 56.2176-56.2176V158.6176A56.2688 56.2688 0 0 0 578.6624 102.4z m5.0176 762.9824a5.0176 5.0176 0 0 1-5.0176 5.0176H445.3376a5.0176 5.0176 0 0 1-5.0176-5.0176V158.6176c0-2.7648 2.2528-5.0176 5.0176-5.0176h133.376c2.7136 0 4.9664 2.2528 4.9664 5.0176v706.7648zM860.416 518.4h-133.5808c-30.976 0-56.064 25.088-56.064 56.064v291.0208A55.9616 55.9616 0 0 0 726.784 921.6h133.5808c30.976 0 56.064-25.088 56.064-56.064V574.464a55.9616 55.9616 0 0 0-56.0128-56.064z m4.864 347.136a4.864 4.864 0 0 1-4.864 4.864h-133.5808a4.864 4.864 0 0 1-4.864-4.864V574.464c0-2.7136 2.2016-4.864 4.864-4.864h133.5808c2.7136 0 4.864 2.2016 4.864 4.864v291.072z" p-id="2141" fill="#475467"></path></svg>