<svg width="17" height="19" viewBox="0 0 17 19" fill="none" xmlns="http://www.w3.org/2000/svg">
<path d="M10 15.8333C10 16.7537 9.25385 17.4999 8.33337 17.4999C7.4129 17.4999 6.66671 16.7537 6.66671 15.8333M10 15.8333C10 14.9128 9.25385 14.1666 8.33337 14.1666M10 15.8333H15.8334M6.66671 15.8333C6.66671 14.9128 7.4129 14.1666 8.33337 14.1666M6.66671 15.8333H0.833374M8.33337 14.1666V10.8333M15.8334 3.33325C15.8334 4.71396 12.4755 5.83325 8.33337 5.83325C4.19124 5.83325 0.833374 4.71396 0.833374 3.33325M15.8334 3.33325C15.8334 1.95254 12.4755 0.833252 8.33337 0.833252C4.19124 0.833252 0.833374 1.95254 0.833374 3.33325M15.8334 3.33325V8.33325C15.8334 9.71659 12.5 10.8333 8.33337 10.8333M0.833374 3.33325V8.33325C0.833374 9.71659 4.16671 10.8333 8.33337 10.8333" stroke="#475467" stroke-width="1.66667" stroke-linecap="round" stroke-linejoin="round"/>
</svg>
