<svg width="17" height="17" viewBox="0 0 17 17" fill="none" xmlns="http://www.w3.org/2000/svg">
<path d="M0.833374 5.83325H15.8334M5.83337 5.83325L5.83337 15.8333M4.83337 0.833252H11.8334C13.2335 0.833252 13.9336 0.833252 14.4683 1.10574C14.9388 1.34542 15.3212 1.72787 15.5609 2.19828C15.8334 2.73305 15.8334 3.43312 15.8334 4.83325V11.8333C15.8334 13.2334 15.8334 13.9334 15.5609 14.4682C15.3212 14.9386 14.9388 15.3211 14.4683 15.5608C13.9336 15.8333 13.2335 15.8333 11.8334 15.8333H4.83337C3.43324 15.8333 2.73318 15.8333 2.1984 15.5608C1.72799 15.3211 1.34554 14.9386 1.10586 14.4682C0.833374 13.9334 0.833374 13.2334 0.833374 11.8333V4.83325C0.833374 3.43312 0.833374 2.73305 1.10586 2.19828C1.34554 1.72787 1.72799 1.34542 2.1984 1.10574C2.73318 0.833252 3.43324 0.833252 4.83337 0.833252Z" stroke="#475467" stroke-width="1.66667" stroke-linecap="round" stroke-linejoin="round"/>
</svg>
