<svg width="20" height="20" viewBox="0 0 20 20" fill="none" xmlns="http://www.w3.org/2000/svg">
<g id="home-line">
<path id="Icon" d="M6.66667 14.1667H13.3333M9.18141 2.30333L3.52949 6.69927C3.15168 6.99312 2.96278 7.14005 2.82669 7.32405C2.70614 7.48704 2.61633 7.67065 2.56169 7.86588C2.5 8.08627 2.5 8.32558 2.5 8.80421V14.8333C2.5 15.7667 2.5 16.2335 2.68166 16.59C2.84144 16.9036 3.09641 17.1585 3.41002 17.3183C3.76654 17.5 4.23325 17.5 5.16667 17.5H14.8333C15.7668 17.5 16.2335 17.5 16.59 17.3183C16.9036 17.1585 17.1586 16.9036 17.3183 16.59C17.5 16.2335 17.5 15.7667 17.5 14.8333V8.80421C17.5 8.32558 17.5 8.08627 17.4383 7.86588C17.3837 7.67065 17.2939 7.48704 17.1733 7.32405C17.0372 7.14005 16.8483 6.99312 16.4705 6.69927L10.8186 2.30333C10.5258 2.07562 10.3794 1.96177 10.2178 1.918C10.0752 1.87938 9.92484 1.87938 9.78221 1.918C9.62057 1.96177 9.47418 2.07562 9.18141 2.30333Z" stroke="#667085" stroke-width="1.66667" stroke-linecap="round" stroke-linejoin="round"/>
</g>
</svg>
