<svg width="20" height="20" viewBox="0 0 20 20" fill="none" xmlns="http://www.w3.org/2000/svg">
<g id="folder-code">
<path id="Icon" d="M10.8337 5.83333L9.90404 3.9741C9.63649 3.439 9.50271 3.17144 9.30313 2.97597C9.12664 2.80311 8.91393 2.67164 8.68039 2.59109C8.4163 2.5 8.11716 2.5 7.5189 2.5H4.33366C3.40024 2.5 2.93353 2.5 2.57701 2.68166C2.2634 2.84144 2.00844 3.09641 1.84865 3.41002C1.66699 3.76654 1.66699 4.23325 1.66699 5.16667V5.83333M1.66699 5.83333H14.3337C15.7338 5.83333 16.4339 5.83333 16.9686 6.10582C17.439 6.3455 17.8215 6.72795 18.0612 7.19836C18.3337 7.73314 18.3337 8.4332 18.3337 9.83333V13.5C18.3337 14.9001 18.3337 15.6002 18.0612 16.135C17.8215 16.6054 17.439 16.9878 16.9686 17.2275C16.4339 17.5 15.7338 17.5 14.3337 17.5H5.66699C4.26686 17.5 3.5668 17.5 3.03202 17.2275C2.56161 16.9878 2.17916 16.6054 1.93948 16.135C1.66699 15.6002 1.66699 14.9001 1.66699 13.5V5.83333ZM11.667 13.75L13.7503 11.6667L11.667 9.58333M8.33366 9.58333L6.25033 11.6667L8.33366 13.75" stroke="#475467" stroke-width="1.66667" stroke-linecap="round" stroke-linejoin="round"/>
</g>
</svg>
