<svg width="17" height="17" viewBox="0 0 17 17" fill="none" xmlns="http://www.w3.org/2000/svg">
<path d="M0.833374 0.833252V9.33325C0.833374 10.7334 0.833374 11.4334 1.10586 11.9682C1.34554 12.4386 1.72799 12.8211 2.1984 13.0608C2.73318 13.3333 3.43324 13.3333 4.83337 13.3333H10.8334M10.8334 13.3333C10.8334 14.714 11.9527 15.8333 13.3334 15.8333C14.7141 15.8333 15.8334 14.714 15.8334 13.3333C15.8334 11.9525 14.7141 10.8333 13.3334 10.8333C11.9527 10.8333 10.8334 11.9525 10.8334 13.3333ZM0.833374 4.99992L10.8334 4.99992M10.8334 4.99992C10.8334 6.38063 11.9527 7.49992 13.3334 7.49992C14.7141 7.49992 15.8334 6.38063 15.8334 4.99992C15.8334 3.61921 14.7141 2.49992 13.3334 2.49992C11.9527 2.49992 10.8334 3.61921 10.8334 4.99992Z" stroke="#475467" stroke-width="1.66667" stroke-linecap="round" stroke-linejoin="round"/>
</svg>
