<svg width="19" height="19" viewBox="0 0 19 19" fill="none" xmlns="http://www.w3.org/2000/svg">
<path d="M16.8334 17.4999C17.0667 17.4999 17.1834 17.4999 17.2725 17.4545C17.3509 17.4146 17.4147 17.3508 17.4546 17.2724C17.5 17.1833 17.5 17.0666 17.5 16.8333V8.16659C17.5 7.93323 17.5 7.81655 17.4546 7.72742C17.4147 7.64902 17.3509 7.58528 17.2725 7.54533C17.1834 7.49992 17.0667 7.49992 16.8334 7.49992L14.8334 7.49992C14.6 7.49992 14.4833 7.49992 14.3942 7.54533C14.3158 7.58528 14.2521 7.64902 14.2121 7.72742C14.1667 7.81655 14.1667 7.93323 14.1667 8.16659V10.1666C14.1667 10.3999 14.1667 10.5166 14.1213 10.6057C14.0813 10.6841 14.0176 10.7479 13.9392 10.7878C13.8501 10.8333 13.7334 10.8333 13.5 10.8333H11.5C11.2667 10.8333 11.15 10.8333 11.0609 10.8787C10.9825 10.9186 10.9187 10.9824 10.8788 11.0608C10.8334 11.1499 10.8334 11.2666 10.8334 11.4999V13.4999C10.8334 13.7333 10.8334 13.85 10.788 13.9391C10.748 14.0175 10.6843 14.0812 10.6059 14.1212C10.5167 14.1666 10.4001 14.1666 10.1667 14.1666H8.16671C7.93335 14.1666 7.81667 14.1666 7.72754 14.212C7.64914 14.2519 7.5854 14.3157 7.54545 14.3941C7.50004 14.4832 7.50004 14.5999 7.50004 14.8333V16.8333C7.50004 17.0666 7.50004 17.1833 7.54545 17.2724C7.5854 17.3508 7.64914 17.4146 7.72754 17.4545C7.81667 17.4999 7.93335 17.4999 8.16671 17.4999L16.8334 17.4999Z" stroke="#475467" stroke-width="1.66667" stroke-linecap="round" stroke-linejoin="round"/>
<path d="M7.50004 4.83325C7.50004 4.5999 7.50004 4.48322 7.54545 4.39409C7.5854 4.31569 7.64914 4.25195 7.72754 4.212C7.81667 4.16659 7.93335 4.16659 8.16671 4.16659H10.1667C10.4001 4.16659 10.5167 4.16659 10.6059 4.212C10.6843 4.25195 10.748 4.31569 10.788 4.39409C10.8334 4.48322 10.8334 4.5999 10.8334 4.83325V6.83325C10.8334 7.06661 10.8334 7.18328 10.788 7.27241C10.748 7.35082 10.6843 7.41456 10.6059 7.4545C10.5167 7.49992 10.4001 7.49992 10.1667 7.49992H8.16671C7.93335 7.49992 7.81667 7.49992 7.72754 7.4545C7.64914 7.41456 7.5854 7.35082 7.54545 7.27241C7.50004 7.18328 7.50004 7.06661 7.50004 6.83325V4.83325Z" stroke="#475467" stroke-width="1.66667" stroke-linecap="round" stroke-linejoin="round"/>
<path d="M1.66671 9.83325C1.66671 9.5999 1.66671 9.48322 1.71212 9.39409C1.75207 9.31569 1.81581 9.25195 1.89421 9.212C1.98334 9.16659 2.10002 9.16659 2.33337 9.16659H4.33337C4.56673 9.16659 4.68341 9.16659 4.77254 9.212C4.85094 9.25195 4.91468 9.31569 4.95463 9.39409C5.00004 9.48322 5.00004 9.5999 5.00004 9.83325V11.8333C5.00004 12.0666 5.00004 12.1833 4.95463 12.2724C4.91468 12.3508 4.85094 12.4146 4.77254 12.4545C4.68341 12.4999 4.56673 12.4999 4.33337 12.4999H2.33337C2.10002 12.4999 1.98334 12.4999 1.89421 12.4545C1.81581 12.4146 1.75207 12.3508 1.71212 12.2724C1.66671 12.1833 1.66671 12.0666 1.66671 11.8333V9.83325Z" stroke="#475467" stroke-width="1.66667" stroke-linecap="round" stroke-linejoin="round"/>
<path d="M0.833374 1.49992C0.833374 1.26656 0.833374 1.14989 0.878788 1.06076C0.918735 0.982355 0.982477 0.918613 1.06088 0.878666C1.15001 0.833252 1.26669 0.833252 1.50004 0.833252H3.50004C3.7334 0.833252 3.85007 0.833252 3.9392 0.878666C4.0176 0.918613 4.08135 0.982355 4.12129 1.06076C4.16671 1.14989 4.16671 1.26656 4.16671 1.49992V3.49992C4.16671 3.73327 4.16671 3.84995 4.12129 3.93908C4.08135 4.01748 4.0176 4.08122 3.9392 4.12117C3.85007 4.16659 3.7334 4.16659 3.50004 4.16659H1.50004C1.26669 4.16659 1.15001 4.16659 1.06088 4.12117C0.982477 4.08122 0.918735 4.01748 0.878788 3.93908C0.833374 3.84995 0.833374 3.73327 0.833374 3.49992V1.49992Z" stroke="#475467" stroke-width="1.66667" stroke-linecap="round" stroke-linejoin="round"/>
</svg>
