<?xml version="1.0" standalone="no"?><!DOCTYPE svg PUBLIC "-//W3C//DTD SVG 1.1//EN" "http://www.w3.org/Graphics/SVG/1.1/DTD/svg11.dtd"><svg t="1752215121437" class="icon" viewBox="0 0 1024 1024" version="1.1" xmlns="http://www.w3.org/2000/svg" p-id="3322" xmlns:xlink="http://www.w3.org/1999/xlink" width="400" height="400"><path d="M94.189892 341.099566a182.147168 182.147168 0 0 0 34.109957 42.978546 314.4938 314.4938 0 0 0 53.893732 42.296346 460.484415 460.484415 0 0 0 83.910493 42.978545 716.991289 716.991289 0 0 0 245.591688 42.296347 716.991289 716.991289 0 0 0 245.591688-42.296347 460.484415 460.484415 0 0 0 83.910493-42.978545 314.4938 314.4938 0 0 0 53.893731-42.296346 182.147168 182.147168 0 0 0 34.109957-42.978546 123.478043 123.478043 0 0 0 19.101576-42.296346 136.439827 136.439827 0 0 0 6.821991-42.978545C955.125198 113.927255 756.60525 0 511.695762 0S68.266325 113.927255 68.266325 255.824675a136.439827 136.439827 0 0 0 6.821992 42.978545A123.478043 123.478043 0 0 0 94.189892 341.099566z" p-id="3323" fill="#aaa9a9"></path><path d="M929.201631 426.374458a182.147168 182.147168 0 0 1-34.109957 42.978545 314.4938 314.4938 0 0 1-53.893731 42.296347 460.484415 460.484415 0 0 1-83.910493 42.978545 716.991289 716.991289 0 0 1-245.591688 42.296346 716.991289 716.991289 0 0 1-245.591688-42.296346 460.484415 460.484415 0 0 1-83.910493-42.978545 314.4938 314.4938 0 0 1-53.893732-42.296347 182.147168 182.147168 0 0 1-34.109957-42.978545 123.478043 123.478043 0 0 1-19.101575-42.296346 124.842441 124.842441 0 0 0-6.821992 42.296346 136.439827 136.439827 0 0 0 6.821992 42.978545 123.478043 123.478043 0 0 0 19.101575 42.296347 182.147168 182.147168 0 0 0 34.109957 42.978545 314.4938 314.4938 0 0 0 53.893732 42.296346 460.484415 460.484415 0 0 0 83.910493 42.978546 716.991289 716.991289 0 0 0 245.591688 42.296346 716.991289 716.991289 0 0 0 245.591688-42.296346 460.484415 460.484415 0 0 0 83.910493-42.978546 314.4938 314.4938 0 0 0 53.893731-42.296346 182.147168 182.147168 0 0 0 34.109957-42.978545 123.478043 123.478043 0 0 0 19.101576-42.296347 136.439827 136.439827 0 0 0 6.821991-42.978545 124.842441 124.842441 0 0 0-6.821991-42.296346 123.478043 123.478043 0 0 1-19.101576 42.296346z" p-id="3324" fill="#aaa9a9"></path><path d="M929.201631 596.924241a182.147168 182.147168 0 0 1-34.109957 42.978546 314.4938 314.4938 0 0 1-53.893731 42.296346 460.484415 460.484415 0 0 1-83.910493 42.978545 716.991289 716.991289 0 0 1-245.591688 42.296346 716.991289 716.991289 0 0 1-245.591688-42.296346A460.484415 460.484415 0 0 1 182.193581 682.199133a314.4938 314.4938 0 0 1-53.893732-42.296346 182.147168 182.147168 0 0 1-34.109957-42.978546 123.478043 123.478043 0 0 1-19.101575-42.296346 124.842441 124.842441 0 0 0-6.821992 42.296346 136.439827 136.439827 0 0 0 6.821992 42.978546 123.478043 123.478043 0 0 0 19.101575 42.296346 182.147168 182.147168 0 0 0 34.109957 42.978545 314.4938 314.4938 0 0 0 53.893732 42.296346 460.484415 460.484415 0 0 0 83.910493 42.978546 716.991289 716.991289 0 0 0 245.591688 42.296346 716.991289 716.991289 0 0 0 245.591688-42.296346 460.484415 460.484415 0 0 0 83.910493-42.978546 314.4938 314.4938 0 0 0 53.893731-42.296346 182.147168 182.147168 0 0 0 34.109957-42.978545 123.478043 123.478043 0 0 0 19.101576-42.296346 136.439827 136.439827 0 0 0 6.821991-42.978546 124.842441 124.842441 0 0 0-6.821991-42.296346 123.478043 123.478043 0 0 1-19.101576 42.296346z" p-id="3325" fill="#aaa9a9"></path><path d="M929.201631 767.474024a182.147168 182.147168 0 0 1-34.109957 42.978546 314.4938 314.4938 0 0 1-53.893731 42.296346 618.072414 618.072414 0 0 1-329.502181 85.274892 618.072414 618.072414 0 0 1-329.502181-85.274892 314.4938 314.4938 0 0 1-53.893732-42.296346 182.147168 182.147168 0 0 1-34.109957-42.978546 123.478043 123.478043 0 0 1-19.101575-42.296346 124.842441 124.842441 0 0 0-6.821992 42.296346 136.439827 136.439827 0 0 0 6.821992 42.978546 123.478043 123.478043 0 0 0 19.101575 42.296346 182.147168 182.147168 0 0 0 34.109957 42.978545A556.674492 556.674492 0 0 0 511.695762 1023.298699a556.674492 556.674492 0 0 0 383.395912-127.571238 182.147168 182.147168 0 0 0 34.109957-42.978545 123.478043 123.478043 0 0 0 19.101576-42.296346 136.439827 136.439827 0 0 0 6.821991-42.978546 124.842441 124.842441 0 0 0-6.821991-42.296346 123.478043 123.478043 0 0 1-19.101576 42.296346z" p-id="3326" fill="#aaa9a9"></path></svg>