<svg width="20" height="20" viewBox="0 0 20 20" fill="none" xmlns="http://www.w3.org/2000/svg">
<g id="target-04" clip-path="url(#clip0_19351_5158)">
<path id="Icon" d="M13.3336 6.6665V4.1665L15.8336 1.6665L16.667 3.33317L18.3336 4.1665L15.8336 6.6665H13.3336ZM13.3336 6.6665L10.0003 9.99979M18.3337 9.99984C18.3337 14.6022 14.6027 18.3332 10.0003 18.3332C5.39795 18.3332 1.66699 14.6022 1.66699 9.99984C1.66699 5.39746 5.39795 1.6665 10.0003 1.6665M14.167 9.99984C14.167 12.301 12.3015 14.1665 10.0003 14.1665C7.69914 14.1665 5.83366 12.301 5.83366 9.99984C5.83366 7.69865 7.69914 5.83317 10.0003 5.83317" stroke="#475467" stroke-width="1.66667" stroke-linecap="round" stroke-linejoin="round"/>
</g>
<defs>
<clipPath id="clip0_19351_5158">
<rect width="20" height="20" fill="white"/>
</clipPath>
</defs>
</svg>
