<svg width="18" height="17" viewBox="0 0 18 17" fill="none" xmlns="http://www.w3.org/2000/svg">
<path d="M1.79134 3.05564C1.16106 2.35121 0.845919 1.99899 0.834032 1.69965C0.823705 1.43962 0.935452 1.18969 1.13613 1.02399C1.36713 0.833252 1.83976 0.833252 2.785 0.833252H15.1541C16.0994 0.833252 16.572 0.833252 16.803 1.02399C17.0037 1.18969 17.1154 1.43962 17.1051 1.69965C17.0932 1.99899 16.778 2.35121 16.1478 3.05565L11.3926 8.37028C11.2669 8.5107 11.2041 8.58091 11.1593 8.66082C11.1196 8.73168 11.0904 8.80798 11.0728 8.88729C11.0529 8.9767 11.0529 9.07091 11.0529 9.25934V13.7152C11.0529 13.8782 11.0529 13.9597 11.0266 14.0301C11.0034 14.0924 10.9656 14.1482 10.9164 14.1929C10.8608 14.2434 10.7851 14.2737 10.6338 14.3342L7.80048 15.4675C7.4942 15.5901 7.34105 15.6513 7.21812 15.6258C7.11061 15.6034 7.01627 15.5396 6.9556 15.448C6.88622 15.3434 6.88622 15.1784 6.88622 14.8486V9.25934C6.88622 9.07091 6.88622 8.9767 6.86632 8.88729C6.84867 8.80798 6.81952 8.73168 6.7798 8.66082C6.735 8.58091 6.67218 8.5107 6.54654 8.37028L1.79134 3.05564Z" stroke="#475467" stroke-width="1.66667" stroke-linecap="round" stroke-linejoin="round"/>
</svg>
