<svg width="19" height="19" viewBox="0 0 19 19" fill="none" xmlns="http://www.w3.org/2000/svg">
<path d="M6.66671 2.08325V0.833252M3.38392 3.3838L2.50004 2.49992M3.38392 9.99992L2.50004 10.8838M10 3.3838L10.8839 2.49992M2.08337 6.66659H0.833374M12.3871 12.6579L10.3107 16.5141C10.0734 16.9547 9.95483 17.1749 9.81213 17.2306C9.68828 17.279 9.5488 17.2653 9.43669 17.1939C9.30749 17.1116 9.23385 16.8725 9.08655 16.3943L6.20436 7.03763C6.08404 6.64701 6.02388 6.4517 6.07229 6.31978C6.11445 6.20488 6.205 6.11433 6.3199 6.07217C6.45182 6.02376 6.64713 6.08392 7.03775 6.20425L16.3944 9.08646C16.8726 9.23376 17.1117 9.3074 17.194 9.4366C17.2654 9.54872 17.2791 9.68819 17.2307 9.81204C17.175 9.95474 16.9547 10.0733 16.5142 10.3106L12.658 12.387C12.5926 12.4222 12.5598 12.4399 12.5312 12.4625C12.5057 12.4826 12.4827 12.5056 12.4626 12.531C12.44 12.5597 12.4224 12.5924 12.3871 12.6579Z" stroke="#475467" stroke-width="1.66667" stroke-linecap="round" stroke-linejoin="round"/>
</svg>
