<svg width="17" height="19" viewBox="0 0 17 19" fill="none" xmlns="http://www.w3.org/2000/svg">
<path d="M15.8334 3.33325C15.8334 4.71396 12.4755 5.83325 8.33337 5.83325C4.19124 5.83325 0.833374 4.71396 0.833374 3.33325M15.8334 3.33325C15.8334 1.95254 12.4755 0.833252 8.33337 0.833252C4.19124 0.833252 0.833374 1.95254 0.833374 3.33325M15.8334 3.33325V14.9999C15.8334 16.3833 12.5 17.4999 8.33337 17.4999C4.16671 17.4999 0.833374 16.3833 0.833374 14.9999V3.33325M15.8334 9.16659C15.8334 10.5499 12.5 11.6666 8.33337 11.6666C4.16671 11.6666 0.833374 10.5499 0.833374 9.16659" stroke="#475467" stroke-width="1.66667" stroke-linecap="round" stroke-linejoin="round"/>
</svg>
