<svg width="17" height="17" viewBox="0 0 17 17" fill="none" xmlns="http://www.w3.org/2000/svg">
<path d="M13.3334 10.8333C11.9527 10.8333 10.8334 11.9525 10.8334 13.3333C10.8334 14.714 11.9527 15.8333 13.3334 15.8333C14.7141 15.8333 15.8334 14.714 15.8334 13.3333C15.8334 11.9525 14.7141 10.8333 13.3334 10.8333ZM13.3334 10.8333V4.99992C13.3334 4.55789 13.1578 4.13397 12.8452 3.82141C12.5327 3.50885 12.1087 3.33325 11.6667 3.33325H9.16671M3.33337 5.83325C4.71409 5.83325 5.83337 4.71396 5.83337 3.33325C5.83337 1.95254 4.71409 0.833252 3.33337 0.833252C1.95266 0.833252 0.833374 1.95254 0.833374 3.33325C0.833374 4.71396 1.95266 5.83325 3.33337 5.83325ZM3.33337 5.83325V15.8333" stroke="#475467" stroke-width="1.66667" stroke-linecap="round" stroke-linejoin="round"/>
</svg>
