<svg width="15" height="19" viewBox="0 0 15 19" fill="none" xmlns="http://www.w3.org/2000/svg">
<path d="M9.16671 1.05811V4.50022C9.16671 4.96693 9.16671 5.20029 9.25754 5.37855C9.33743 5.53535 9.46491 5.66283 9.62171 5.74273C9.79997 5.83356 10.0333 5.83356 10.5 5.83356H13.9422M9.16671 13.3335H4.16671M10.8334 10.0002H4.16671M14.1667 7.49035V13.5002C14.1667 14.9003 14.1667 15.6004 13.8942 16.1351C13.6545 16.6055 13.2721 16.988 12.8017 17.2277C12.2669 17.5002 11.5668 17.5002 10.1667 17.5002H4.83337C3.43324 17.5002 2.73318 17.5002 2.1984 17.2277C1.72799 16.988 1.34554 16.6055 1.10586 16.1351C0.833374 15.6004 0.833374 14.9003 0.833374 13.5002V4.8335C0.833374 3.43336 0.833374 2.7333 1.10586 2.19852C1.34554 1.72811 1.72799 1.34566 2.1984 1.10598C2.73318 0.833496 3.43324 0.833496 4.83337 0.833496H7.50985C8.12133 0.833496 8.42707 0.833496 8.71479 0.902571C8.96988 0.963813 9.21374 1.06482 9.43742 1.2019C9.68971 1.3565 9.9059 1.57269 10.3383 2.00507L12.9951 4.66192C13.4275 5.0943 13.6437 5.31049 13.7983 5.56278C13.9354 5.78646 14.0364 6.03033 14.0976 6.28542C14.1667 6.57314 14.1667 6.87887 14.1667 7.49035Z" stroke="#475467" stroke-width="1.66667" stroke-linecap="round" stroke-linejoin="round"/>
</svg>
