<svg width="44" height="44" viewBox="0 0 44 44" fill="none" xmlns="http://www.w3.org/2000/svg">
<g filter="url(#filter0_d_41104_563887)">
<rect x="2" y="1" width="40" height="40" rx="8" fill="white" shape-rendering="crispEdges"/>
<rect x="2.5" y="1.5" width="39" height="39" rx="7.5" stroke="#EAECF0" shape-rendering="crispEdges"/>
<path d="M24.4997 20.1667L21.1663 23.5L19.9163 22.25M15.583 20.1111C15.583 16.4599 18.4558 13.5 21.9997 13.5C25.0172 13.5 27.5483 15.6461 28.2335 18.5377C29.9493 19.2203 31.1663 20.9359 31.1663 22.9444C31.1663 25.5525 29.1143 27.6667 26.583 27.6667H16.4997C14.4746 27.6667 12.833 25.9753 12.833 23.8889C12.833 22.1282 14.002 20.6489 15.584 20.2299C15.5833 20.1904 15.583 20.1508 15.583 20.1111Z" stroke="#2F384C" stroke-width="1.5" stroke-linecap="round" stroke-linejoin="round"/>
</g>
<defs>
<filter id="filter0_d_41104_563887" x="0" y="0" width="44" height="44" filterUnits="userSpaceOnUse" color-interpolation-filters="sRGB">
<feFlood flood-opacity="0" result="BackgroundImageFix"/>
<feColorMatrix in="SourceAlpha" type="matrix" values="0 0 0 0 0 0 0 0 0 0 0 0 0 0 0 0 0 0 127 0" result="hardAlpha"/>
<feOffset dy="1"/>
<feGaussianBlur stdDeviation="1"/>
<feComposite in2="hardAlpha" operator="out"/>
<feColorMatrix type="matrix" values="0 0 0 0 0.0627451 0 0 0 0 0.0941176 0 0 0 0 0.156863 0 0 0 0.05 0"/>
<feBlend mode="normal" in2="BackgroundImageFix" result="effect1_dropShadow_41104_563887"/>
<feBlend mode="normal" in="SourceGraphic" in2="effect1_dropShadow_41104_563887" result="shape"/>
</filter>
</defs>
</svg>
