<?xml version="1.0" standalone="no"?><!DOCTYPE svg PUBLIC "-//W3C//DTD SVG 1.1//EN" "http://www.w3.org/Graphics/SVG/1.1/DTD/svg11.dtd"><svg t="1752738040873" class="icon" viewBox="0 0 1024 1024" version="1.1" xmlns="http://www.w3.org/2000/svg" p-id="2873" xmlns:xlink="http://www.w3.org/1999/xlink" width="200" height="200"><path d="M770.942529 541.425287H247.172414c-23.54023 0-47.08046-17.655172-47.08046-47.080459 0-23.54023 23.54023-47.08046 47.08046-47.08046h523.770115c23.54023 0 47.08046 17.655172 47.08046 41.195402s-17.655172 52.965517-47.08046 52.965517c5.885057 0 0 0 0 0z m0 223.632184H247.172414c-23.54023 0-47.08046-17.655172-47.08046-47.08046 0-23.54023 23.54023-47.08046 47.08046-47.080459h523.770115c23.54023 0 47.08046 17.655172 47.08046 47.080459s-17.655172 47.08046-47.08046 47.08046zM200.091954 276.597701c0-23.54023 23.54023-47.08046 47.08046-47.08046h329.563218c23.54023 0 47.08046 17.655172 47.08046 41.195403s-17.655172 47.08046-41.195402 47.080459H247.172414c-23.54023 5.885057-47.08046-17.655172-47.08046-41.195402zM929.83908 0H94.16092C41.195402 0 0 41.195402 0 88.275862v841.563218c0 52.965517 41.195402 88.275862 94.16092 88.275863h835.67816c52.965517 0 94.16092-41.195402 94.16092-88.275863V88.275862C1018.114943 41.195402 976.91954 0 929.83908 0z" fill="#AAA9A9" p-id="2874"></path></svg>