<?xml version="1.0" standalone="no"?><!DOCTYPE svg PUBLIC "-//W3C//DTD SVG 1.1//EN" "http://www.w3.org/Graphics/SVG/1.1/DTD/svg11.dtd"><svg t="1753425459225" class="icon" viewBox="0 0 1024 1024" version="1.1" xmlns="http://www.w3.org/2000/svg" p-id="7904" xmlns:xlink="http://www.w3.org/1999/xlink" width="200" height="200"><path d="M950.856571 1023.999c-7.313993 0-14.627986-3.656996-21.942978-7.313993L757.029761 881.369139H73.143429c-21.942979 0-36.571964-14.627986-36.571965-36.570964V36.570964C36.571464 14.629986 51.20045 0 73.143429 0h877.713142C972.79955 0 987.429536 14.628986 987.429536 36.570964V987.429036c0 14.627986-7.314993 25.599975-21.942979 32.913968-3.656996 3.656996-10.971989 3.656996-14.628986 3.656996zM109.714393 808.228211H767.99975c7.313993 0 14.628986 3.656996 21.942979 7.313993l124.342878 98.742903V73.142929H109.714393v735.085282z" fill="#AAA9A9" p-id="7905"></path><path d="M753.370764 252.342754H248.686257c-21.942979 0-36.571964-14.628986-36.571964-36.571965s14.628986-36.570964 36.571964-36.570964H753.369764c21.942979 0 36.571964 14.628986 36.571965 36.570964s-14.628986 36.571964-36.571965 36.571965z m0 215.770789H248.686257c-21.942979 0-36.571964-14.627986-36.571964-36.570964s14.628986-36.571964 36.571964-36.571965H753.369764c21.942979 0 36.571964 14.628986 36.571965 36.571965s-14.628986 36.570964-36.571965 36.570964z m-153.59985 212.114793H248.686257c-21.942979 0-36.571964-14.628986-36.571964-36.571965s14.628986-36.570964 36.571964-36.570964H599.769914c21.942979 0 36.571964 14.627986 36.571965 36.570964s-14.628986 36.571964-36.571965 36.571965z" fill="#AAA9A9" p-id="7906"></path></svg>