<svg xmlns="http://www.w3.org/2000/svg" width="24" height="24" viewBox="0 0 24 24" fill="none">
  <circle cx="12" cy="12" r="12" fill="#7289DA"/>
  <path fill-rule="evenodd" clip-rule="evenodd" d="M15.468 16.6719C15.468 16.6719 15.036 16.1559 14.676 15.6999C16.248 15.2559 16.848 14.2719 16.848 14.2719C16.356 14.5959 15.888 14.8239 15.468 14.9799C14.868 15.2319 14.292 15.3999 13.728 15.4959C12.576 15.7119 11.52 15.6519 10.62 15.4839C9.93602 15.3519 9.34802 15.1599 8.85602 14.9679C8.58002 14.8599 8.28002 14.7279 7.98002 14.5599C7.96202 14.5479 7.94402 14.5389 7.92602 14.5299C7.90802 14.5209 7.89002 14.5119 7.87202 14.4999C7.84802 14.4879 7.83602 14.4759 7.82402 14.4639C7.60802 14.3439 7.48802 14.2599 7.48802 14.2599C7.48802 14.2599 8.06402 15.2199 9.58802 15.6759C9.22802 16.1319 8.78402 16.6719 8.78402 16.6719C6.13202 16.5879 5.12402 14.8479 5.12402 14.8479C5.12402 10.9839 6.85202 7.8519 6.85202 7.8519C8.58002 6.5559 10.224 6.5919 10.224 6.5919L10.344 6.7359C8.18402 7.3599 7.18802 8.3079 7.18802 8.3079C7.18802 8.3079 7.45202 8.1639 7.89602 7.9599C9.18002 7.3959 10.2 7.2399 10.62 7.2039C10.6292 7.20237 10.6381 7.20085 10.6469 7.19935C10.7075 7.18904 10.7612 7.1799 10.824 7.1799C11.556 7.0839 12.384 7.0599 13.248 7.1559C14.388 7.2879 15.612 7.6239 16.86 8.3079C16.86 8.3079 15.912 7.4079 13.872 6.7839L14.04 6.5919C14.04 6.5919 15.684 6.5559 17.412 7.8519C17.412 7.8519 19.14 10.9839 19.14 14.8479C19.14 14.8479 18.12 16.5879 15.468 16.6719ZM8.66406 12.3999C8.66406 11.6679 9.20406 11.0679 9.88806 11.0679C10.5721 11.0679 11.1241 11.6679 11.1121 12.3999C11.1121 13.1319 10.5721 13.7319 9.88806 13.7319C9.21606 13.7319 8.66406 13.1319 8.66406 12.3999ZM13.0441 12.3999C13.0441 11.6679 13.5841 11.0679 14.2681 11.0679C14.9521 11.0679 15.4921 11.6679 15.4921 12.3999C15.4921 13.1319 14.9521 13.7319 14.2681 13.7319C13.5961 13.7319 13.0441 13.1319 13.0441 12.3999Z" fill="white"/>
</svg>
