<svg xmlns="http://www.w3.org/2000/svg" width="12" height="14" viewBox="0 0 12 14" fill="none">
  <path d="M11.3337 12.9997H0.666992M8.66699 1.66634C8.50032 2.83301 9.50032 3.83301 10.667 3.66634M2.66699 9.66634L2.95148 8.52838C3.09373 7.95938 3.16486 7.67488 3.27923 7.40963C3.38078 7.17413 3.5075 6.95032 3.65719 6.74209C3.8258 6.50754 4.03316 6.30018 4.44789 5.88546L9.00041 1.333C9.5527 0.78072 10.4481 0.780734 11.0004 1.33303V1.33303C11.5526 1.8853 11.5526 2.7807 11.0004 3.33297L6.44787 7.88546C6.03315 8.30019 5.82579 8.50755 5.59124 8.67615C5.38301 8.82584 5.1592 8.95256 4.92371 9.0541C4.65846 9.16847 4.37397 9.2396 3.80497 9.38185L2.66699 9.66634Z" stroke="#98A2B3" stroke-linecap="round" stroke-linejoin="round"/>
</svg>