<svg width="16" height="16" viewBox="0 0 16 16" fill="none" xmlns="http://www.w3.org/2000/svg">
<g id="grid-11">
<path id="Vector" d="M8.00016 6.00065L8.00016 14.6673M1.3335 6.00065H14.6668M1.3335 10.0007H14.6668M6.66683 14.6673H9.3335C11.2003 14.6673 12.1338 14.6673 12.8468 14.304C13.474 13.9844 13.9839 13.4745 14.3035 12.8473C14.6668 12.1342 14.6668 11.2008 14.6668 9.33399V6.66732C14.6668 4.80048 14.6668 3.86706 14.3035 3.15402C13.9839 2.52681 13.474 2.01687 12.8468 1.6973C12.1338 1.33398 11.2003 1.33398 9.3335 1.33398H6.66683C4.79999 1.33398 3.86657 1.33398 3.15353 1.6973C2.52632 2.01687 2.01639 2.52681 1.69681 3.15402C1.3335 3.86706 1.3335 4.80048 1.3335 6.66732V9.33398C1.3335 11.2008 1.3335 12.1342 1.69681 12.8473C2.01639 13.4745 2.52632 13.9844 3.15353 14.304C3.86657 14.6673 4.79999 14.6673 6.66683 14.6673Z" stroke="#344054" stroke-linecap="round" stroke-linejoin="round"/>
</g>
</svg>
