<?xml version="1.0" standalone="no"?><!DOCTYPE svg PUBLIC "-//W3C//DTD SVG 1.1//EN" "http://www.w3.org/Graphics/SVG/1.1/DTD/svg11.dtd"><svg t="1753175919150" class="icon" viewBox="0 0 1024 1024" version="1.1" xmlns="http://www.w3.org/2000/svg" p-id="6933" xmlns:xlink="http://www.w3.org/1999/xlink" width="200" height="200"><path d="M837.2527402666667 837.2527402666667c0 29.127111466666666-24.272593066666666 53.399703466666665-53.399703466666665 53.399704533333335H113.92948160000003L208.59259306666672 448.8912597333333c0-29.127111466666666 24.272593066666666-53.399703466666665 53.399703466666665-53.399704533333335h614.096592c29.127111466666666 0 53.399703466666665 24.272593066666666 53.399704533333335 53.399704533333335l-92.2358528 388.36148053333335zM220.72888853333336 356.6554069333333h601.9602965333332v-53.399703466666665c0-29.127111466666666-24.272593066666666-53.399703466666665-53.399703466666665-53.399703466666665H448.8912597333333v-48.54518506666667c0-29.127111466666666-24.272593066666666-53.399703466666665-53.399704533333335-53.399703466666665h-266.9985184c-29.127111466666666 0-53.399703466666665 24.272593066666666-53.399703466666665 53.399703466666665v635.9419253333333l94.66311146666666-427.19762879999996c-2.427259733333333-31.554370133333336 21.845333333333333-53.399703466666665 50.97244373333333-53.399704533333335z m0 0" fill="#E9A437" p-id="6934"></path></svg>