<svg xmlns="http://www.w3.org/2000/svg" width="24" height="24" viewBox="0 0 24 24" fill="none">
  <path d="M11.4267 20.2102C13.755 20.2102 15.9879 19.2853 17.6343 17.6389C19.2807 15.9926 20.2056 13.7596 20.2056 11.4313C20.2056 9.10297 19.2807 6.87001 17.6343 5.22364C15.9879 3.57727 13.755 2.65234 11.4267 2.65234C9.09833 2.65234 6.86537 3.57727 5.219 5.22364C3.57263 6.87001 2.64771 9.10297 2.64771 11.4313C2.64771 13.7596 3.57263 15.9926 5.219 17.6389C6.86537 19.2853 9.09833 20.2102 11.4267 20.2102Z" fill="#FFD21E"/>
  <path d="M20.2056 11.4321C20.2056 9.10373 19.2807 6.87077 17.6343 5.2244C15.988 3.57803 13.755 2.6531 11.4267 2.6531C9.09836 2.6531 6.8654 3.57803 5.21903 5.2244C3.57266 6.87077 2.64773 9.10373 2.64773 11.4321C2.64773 13.7604 3.57266 15.9933 5.21903 17.6397C6.8654 19.2861 9.09836 20.211 11.4267 20.211C13.755 20.211 15.988 19.2861 17.6343 17.6397C19.2807 15.9933 20.2056 13.7604 20.2056 11.4321ZM1.63721 11.4321C1.63721 10.1465 1.89042 8.8735 2.38239 7.68578C2.87435 6.49807 3.59544 5.41889 4.50448 4.50985C5.41351 3.60081 6.4927 2.87972 7.68041 2.38776C8.86812 1.89579 10.1411 1.64258 11.4267 1.64258C12.7123 1.64258 13.9852 1.89579 15.1729 2.38776C16.3607 2.87972 17.4398 3.60081 18.3489 4.50985C19.2579 5.41889 19.979 6.49807 20.471 7.68578C20.9629 8.8735 21.2162 10.1465 21.2162 11.4321C21.2162 14.0284 20.1848 16.5184 18.3489 18.3543C16.513 20.1901 14.023 21.2215 11.4267 21.2215C8.83035 21.2215 6.34036 20.1901 4.50448 18.3543C2.6686 16.5184 1.63721 14.0284 1.63721 11.4321Z" fill="#FF9D0B"/>
  <path d="M14.2789 9.04514C14.6023 9.1563 14.7286 9.81819 15.0545 9.6464C15.2752 9.52924 15.4562 9.34927 15.5745 9.12925C15.6929 8.90923 15.7434 8.65904 15.7196 8.41033C15.6958 8.16162 15.5987 7.92556 15.4408 7.732C15.2828 7.53845 15.0709 7.39609 14.832 7.32294C14.5931 7.24978 14.3379 7.24912 14.0986 7.32103C13.8594 7.39294 13.6468 7.53419 13.4878 7.72692C13.3288 7.91966 13.2305 8.15521 13.2054 8.40379C13.1803 8.65238 13.2295 8.90282 13.3467 9.12346C13.5008 9.41398 13.9909 8.94156 14.2815 9.04261L14.2789 9.04514ZM8.32947 9.04514C8.0061 9.1563 7.87725 9.81819 7.55389 9.6464C7.33321 9.52924 7.15224 9.34927 7.03385 9.12925C6.91547 8.90923 6.86499 8.65904 6.88881 8.41033C6.91262 8.16162 7.00966 7.92556 7.16765 7.732C7.32563 7.53845 7.53747 7.39609 7.77637 7.32294C8.01527 7.24978 8.2705 7.24912 8.50977 7.32103C8.74905 7.39294 8.96162 7.53419 9.12061 7.72692C9.27961 7.91966 9.37787 8.15521 9.40298 8.40379C9.42809 8.65238 9.37891 8.90282 9.26168 9.12346C9.10757 9.41398 8.61494 8.94156 8.32694 9.04261L8.32947 9.04514Z" fill="#3A3B45"/>
  <path d="M11.3635 15.1048C13.8468 15.1048 14.6477 12.8917 14.6477 11.7549C14.6477 11.1637 14.251 11.3507 13.6144 11.6639C13.0258 11.9544 12.2351 12.3561 11.366 12.3561C9.54958 12.3561 8.08179 10.618 8.08179 11.7549C8.08179 12.8917 8.8801 15.1048 11.366 15.1048H11.3635Z" fill="#FF323D"/>
  <path fill-rule="evenodd" clip-rule="evenodd" d="M9.46124 14.5255C9.59454 14.2546 9.78223 14.0141 10.0126 13.8189C10.243 13.6238 10.5111 13.4782 10.8002 13.3912C10.9012 13.3609 11.0048 13.5352 11.1135 13.7146C11.2145 13.8864 11.3206 14.0607 11.4267 14.0607C11.5404 14.0607 11.6541 13.8889 11.7627 13.7196C11.8764 13.5428 11.9876 13.371 12.0962 13.4038C12.6389 13.5761 13.0924 13.9544 13.3593 14.4573C14.3017 13.7146 14.6478 12.502 14.6478 11.7542C14.6478 11.163 14.2511 11.35 13.6145 11.6632L13.5791 11.6809C12.9956 11.9714 12.2175 12.3554 11.3636 12.3554C10.5097 12.3554 9.73408 11.9714 9.14798 11.6809C8.49114 11.355 8.07935 11.1504 8.07935 11.7542C8.07935 12.5247 8.44819 13.7904 9.46124 14.5255Z" fill="#3A3B45"/>
  <path d="M17.3637 10.2319C17.5814 10.2319 17.7903 10.1454 17.9443 9.99147C18.0982 9.83749 18.1847 9.62865 18.1847 9.4109C18.1847 9.19314 18.0982 8.9843 17.9443 8.83032C17.7903 8.67635 17.5814 8.58984 17.3637 8.58984C17.1459 8.58984 16.9371 8.67635 16.7831 8.83032C16.6291 8.9843 16.5426 9.19314 16.5426 9.4109C16.5426 9.62865 16.6291 9.83749 16.7831 9.99147C16.9371 10.1454 17.1459 10.2319 17.3637 10.2319ZM5.61631 10.2319C5.83407 10.2319 6.04291 10.1454 6.19689 9.99147C6.35086 9.83749 6.43737 9.62865 6.43737 9.4109C6.43737 9.19314 6.35086 8.9843 6.19689 8.83032C6.04291 8.67635 5.83407 8.58984 5.61631 8.58984C5.39856 8.58984 5.18972 8.67635 5.03574 8.83032C4.88176 8.9843 4.79526 9.19314 4.79526 9.4109C4.79526 9.62865 4.88176 9.83749 5.03574 9.99147C5.18972 10.1454 5.39856 10.2319 5.61631 10.2319ZM3.92621 13.0109C3.51695 13.0109 3.15316 13.1776 2.898 13.4833C2.68042 13.7521 2.5618 14.0874 2.562 14.4332C2.40293 14.3854 2.23798 14.3599 2.07189 14.3574C1.68031 14.3574 1.32663 14.5065 1.07652 14.7768C0.853391 15.0085 0.712708 15.3072 0.676183 15.6268C0.639657 15.9464 0.709319 16.2691 0.874419 16.5452C0.650837 16.7277 0.49222 16.9776 0.422209 17.2576C0.361577 17.485 0.300945 17.965 0.624314 18.4551C0.503092 18.6415 0.430957 18.8555 0.414615 19.0772C0.398272 19.2989 0.438253 19.5212 0.53084 19.7233C0.788524 20.3094 1.43273 20.7692 2.68326 21.2644C3.45884 21.5726 4.17126 21.7696 4.17631 21.7722C5.07628 22.0215 6.0039 22.1573 6.93758 22.1764C8.418 22.1764 9.47652 21.7216 10.0854 20.8273C11.0656 19.3898 10.9266 18.0736 9.65589 16.8054C8.9561 16.1031 8.48874 15.0698 8.39274 14.8425C8.19568 14.1705 7.67526 13.4227 6.81379 13.4227C6.5846 13.4263 6.35959 13.4846 6.15747 13.5927C5.95534 13.7008 5.78194 13.8556 5.65168 14.0442C5.39905 13.7258 5.15147 13.4757 4.92916 13.3317C4.63249 13.1309 4.28436 13.0195 3.92621 13.0109ZM3.92621 14.0214C4.05505 14.0214 4.21421 14.077 4.386 14.1856C4.92663 14.5292 5.96495 16.3153 6.34642 17.0101C6.47273 17.2425 6.69252 17.341 6.88705 17.341C7.27863 17.341 7.58179 16.9545 6.92495 16.4618C5.93463 15.7216 6.28073 14.5115 6.75316 14.4383C6.77337 14.4332 6.7961 14.4332 6.81379 14.4332C7.24326 14.4332 7.43273 15.1734 7.43273 15.1734C7.43273 15.1734 7.98852 16.5679 8.94347 17.5229C9.89589 18.4753 9.94642 19.2408 9.25168 20.2589C8.77673 20.9536 7.86979 21.1633 6.93758 21.1633C5.97505 21.1633 4.98474 20.9359 4.43147 20.7945C4.40368 20.7869 1.03358 19.8345 1.46052 19.0261C1.53126 18.8896 1.65 18.8341 1.79905 18.8341C2.40031 18.8341 3.49168 19.7284 3.9641 19.7284C4.06768 19.7284 4.14095 19.6854 4.17379 19.5768C4.37337 18.8568 1.12705 18.5536 1.39989 17.5128C1.45042 17.3284 1.57926 17.2551 1.76368 17.2551C2.55695 17.2551 4.34052 18.6522 4.71442 18.6522C4.74221 18.6522 4.76495 18.6446 4.77505 18.6269C4.962 18.3237 4.85842 18.1115 3.53716 17.3132C2.22095 16.5149 1.29379 16.0349 1.81926 15.4614C1.87989 15.3957 1.96579 15.3654 2.07189 15.3654C2.87274 15.3654 4.76495 17.0884 4.76495 17.0884C4.76495 17.0884 5.27526 17.6189 5.586 17.6189C5.65673 17.6189 5.71737 17.5936 5.75779 17.5229C5.97505 17.1541 3.72158 15.4463 3.59526 14.7414C3.50937 14.2614 3.65589 14.0214 3.92621 14.0214Z" fill="#FF9D0B"/>
  <path d="M9.25163 20.2577C9.94637 19.237 9.89584 18.4715 8.94342 17.5191C7.98847 16.5667 7.43268 15.1697 7.43268 15.1697C7.43268 15.1697 7.22552 14.3612 6.7531 14.437C6.28068 14.5128 5.93458 15.7204 6.92489 16.4606C7.91268 17.2008 6.72784 17.7035 6.34637 17.0088C5.96742 16.3141 4.92658 14.528 4.38595 14.1844C3.84784 13.8433 3.46889 14.0328 3.59521 14.7402C3.72153 15.445 5.97753 17.1528 5.75774 17.5191C5.53795 17.8905 4.76489 17.0871 4.76489 17.0871C4.76489 17.0871 2.34721 14.8867 1.81921 15.4602C1.29374 16.0337 2.22089 16.5137 3.5371 17.312C4.85837 18.1103 4.96195 18.3225 4.775 18.6257C4.58553 18.9288 1.67268 16.4707 1.39984 17.5141C1.127 18.5524 4.37331 18.853 4.17374 19.573C3.97163 20.293 1.88489 18.2139 1.46047 19.0223C1.031 19.8332 4.40363 20.7857 4.43142 20.7932C5.51774 21.0762 8.28405 21.6749 9.25163 20.2577Z" fill="#FFD21E"/>
  <path d="M19.0537 13.0098C19.463 13.0098 19.8293 13.1765 20.0819 13.4822C20.2995 13.7509 20.4181 14.0863 20.4179 14.4321C20.5778 14.384 20.7436 14.3585 20.9105 14.3563C21.3021 14.3563 21.6558 14.5053 21.9059 14.7757C22.129 15.0074 22.2697 15.3061 22.3062 15.6257C22.3428 15.9453 22.2731 16.268 22.108 16.5441C22.3307 16.727 22.4884 16.9768 22.5577 17.2565C22.6183 17.4839 22.679 17.9639 22.3556 18.454C22.4768 18.6403 22.5489 18.8543 22.5653 19.0761C22.5816 19.2978 22.5416 19.5201 22.4491 19.7222C22.1914 20.3083 21.5472 20.7681 20.2992 21.2632C19.5211 21.5714 18.8086 21.7685 18.8036 21.771C17.9036 22.0204 16.976 22.1562 16.0423 22.1752C14.5619 22.1752 13.5034 21.7205 12.8945 20.8262C11.9143 19.3887 12.0533 18.0725 13.324 16.8043C14.0263 16.102 14.4937 15.0687 14.5897 14.8413C14.7867 14.1693 15.3046 13.4216 16.1661 13.4216C16.3953 13.4252 16.6203 13.4835 16.8224 13.5916C17.0246 13.6996 17.198 13.8544 17.3282 14.043C17.5809 13.7247 17.8284 13.4746 18.0533 13.3306C18.3492 13.1302 18.6964 13.0189 19.0537 13.0098ZM19.0537 14.0203C18.9249 14.0203 18.7682 14.0759 18.5939 14.1845C18.0558 14.5281 17.015 16.3142 16.6335 17.0089C16.582 17.1081 16.5045 17.1913 16.4092 17.2496C16.3139 17.3079 16.2045 17.3391 16.0929 17.3399C15.7038 17.3399 15.3981 16.9533 16.0575 16.4607C17.0453 15.7205 16.6992 14.5104 16.2267 14.4371C16.2067 14.4339 16.1864 14.4322 16.1661 14.4321C15.7366 14.4321 15.5472 15.1723 15.5472 15.1723C15.5472 15.1723 14.9914 16.5668 14.039 17.5218C13.084 18.4742 13.0335 19.2397 13.7307 20.2578C14.2032 20.9525 15.1126 21.1622 16.0423 21.1622C17.0074 21.1622 17.9952 20.9348 18.551 20.7933C18.5762 20.7858 21.9489 19.8333 21.5219 19.0249C21.4486 18.8885 21.3324 18.8329 21.1834 18.8329C20.5821 18.8329 19.4882 19.7272 19.0183 19.7272C18.9122 19.7272 18.839 19.6843 18.8086 19.5757C18.6065 18.8557 21.8529 18.5525 21.58 17.5117C21.532 17.3272 21.4032 17.254 21.2162 17.254C20.423 17.254 18.6394 18.651 18.2655 18.651C18.2402 18.651 18.2175 18.6435 18.2074 18.6258C18.0204 18.3226 18.1215 18.1104 19.4402 17.3121C20.7615 16.5138 21.6886 16.0338 21.1581 15.4603C21.1 15.3946 21.0141 15.3643 20.9105 15.3643C20.1072 15.3643 18.215 17.0872 18.215 17.0872C18.215 17.0872 17.7046 17.6178 17.3964 17.6178C17.3617 17.6193 17.3272 17.6112 17.2969 17.5942C17.2665 17.5772 17.2415 17.5522 17.2246 17.5218C17.0049 17.1529 19.2583 15.4451 19.3846 14.7403C19.4705 14.2603 19.324 14.0203 19.0537 14.0203Z" fill="#FF9D0B"/>
  <path d="M13.7308 20.2577C13.0361 19.237 13.0841 18.4715 14.039 17.5191C14.9914 16.5667 15.5472 15.1697 15.5472 15.1697C15.5472 15.1697 15.7544 14.3612 16.2293 14.437C16.6992 14.5128 17.0453 15.7204 16.0575 16.4606C15.0672 17.2008 16.2546 17.7035 16.6335 17.0088C17.015 16.3141 18.0558 14.528 18.594 14.1844C19.1321 13.8433 19.5135 14.0328 19.3847 14.7402C19.2584 15.445 17.0049 17.1528 17.2247 17.5191C17.442 17.8905 18.215 17.0871 18.215 17.0871C18.215 17.0871 20.6352 14.8867 21.1607 15.4602C21.6862 16.0337 20.7615 16.5137 19.4428 17.312C18.1215 18.1103 18.0205 18.3225 18.2049 18.6257C18.3944 18.9288 21.3072 16.4707 21.5801 17.5141C21.8529 18.5524 18.6091 18.853 18.8087 19.573C19.0108 20.293 21.095 18.2139 21.522 19.0223C21.9489 19.8332 18.5788 20.7857 18.551 20.7932C17.4622 21.0762 14.6958 21.6749 13.7308 20.2577Z" fill="#FFD21E"/>
</svg>
