<svg xmlns="http://www.w3.org/2000/svg" width="16" height="16" viewBox="0 0 16 16" fill="none">
  <g clip-path="url(#clip0_33884_37477)">
    <path d="M6.06016 6.00065C6.2169 5.5551 6.52626 5.17939 6.93347 4.94007C7.34067 4.70076 7.81943 4.61328 8.28495 4.69313C8.75047 4.77297 9.17271 5.015 9.47688 5.37634C9.78106 5.73767 9.94753 6.195 9.94683 6.66732C9.94683 8.00065 7.94683 8.66732 7.94683 8.66732M8.00016 11.334H8.00683M14.6668 8.00065C14.6668 11.6826 11.6821 14.6673 8.00016 14.6673C4.31826 14.6673 1.3335 11.6826 1.3335 8.00065C1.3335 4.31875 4.31826 1.33398 8.00016 1.33398C11.6821 1.33398 14.6668 4.31875 14.6668 8.00065Z" stroke="#475467" stroke-width="1.33333" stroke-linecap="round" stroke-linejoin="round"/>
  </g>
  <defs>
    <clipPath id="clip0_33884_37477">
      <rect width="16" height="16" fill="white"/>
    </clipPath>
  </defs>
</svg>