<svg width="12" height="12" viewBox="0 0 12 12" fill="none" xmlns="http://www.w3.org/2000/svg">
<g clip-path="url(#clip0_14205_42671)">
<rect x="0.75" y="0.75" width="10.5" height="10.5" fill="#FFCA28"/>
<path d="M7.125 9.48209L7.89808 8.97055C7.95865 9.16089 8.34231 9.61295 8.82692 9.61295C9.31154 9.61295 9.53654 9.34826 9.53654 9.17279C9.53654 8.69459 9.04169 8.52599 8.80401 8.44501C8.76527 8.43181 8.73336 8.42093 8.71154 8.41143C8.70035 8.40656 8.68343 8.40009 8.66171 8.39179C8.39736 8.2908 7.42212 7.9182 7.42212 6.83815C7.42212 5.64852 8.57019 5.51172 8.82981 5.51172C8.99966 5.51172 9.81635 5.53254 10.2231 6.29687L9.47308 6.82031C9.30865 6.48721 9.03547 6.37717 8.86731 6.37717C8.45192 6.37717 8.36538 6.6817 8.36538 6.82031C8.36538 7.20926 8.81669 7.3836 9.19775 7.5308C9.29745 7.56931 9.39234 7.60596 9.47308 7.64412C9.88846 7.84041 10.5 8.1616 10.5 9.17279C10.5 9.67926 10.0752 10.4992 9.00577 10.4992C7.56923 10.4992 7.18846 9.63674 7.125 9.48209Z" fill="#3E3E3E"/>
<path d="M3.375 9.58367L4.18075 9.07239C4.24389 9.26264 4.48922 9.6134 4.8452 9.6134C5.20117 9.6134 5.38337 9.24777 5.38337 9.07239V5.62422H6.37432V9.07239C6.39036 9.548 6.12659 10.4992 4.96245 10.4992C3.89213 10.4992 3.44716 9.86309 3.375 9.58367Z" fill="#3E3E3E"/>
</g>
<defs>
<clipPath id="clip0_14205_42671">
<rect width="12" height="12" fill="white"/>
</clipPath>
</defs>
</svg>
