<?xml version="1.0" standalone="no"?><!DOCTYPE svg PUBLIC "-//W3C//DTD SVG 1.1//EN" "http://www.w3.org/Graphics/SVG/1.1/DTD/svg11.dtd"><svg t="1754118552308" class="icon" viewBox="0 0 1024 1024" version="1.1" xmlns="http://www.w3.org/2000/svg" p-id="4855" xmlns:xlink="http://www.w3.org/1999/xlink" width="400" height="400"><path d="M248 776V864h528v-88H864V248h-88V160H248v88H160v528h88z" fill="#475467" opacity=".24" p-id="4856"></path><path d="M226.624 61.504h-165.12v165.12h165.12v-165.12zM962.624 61.504h-165.12v165.12h165.12v-165.12zM226.624 797.504h-165.12v165.12h165.12v-165.12zM962.624 797.504h-165.12v165.12h165.12v-165.12z" fill="#475467" p-id="4857"></path><path d="M192 288H96v448h96V288zM928 288h-96v448h96V288zM736 96H288v96h448V96zM736 832H288v96h448v-96z" fill="#475467" p-id="4858"></path></svg>