<svg width="16" height="16" viewBox="0 0 16 16" fill="none" xmlns="http://www.w3.org/2000/svg">
<path d="M14.0007 10.6667V4.8C14.0007 4.05326 14.0007 3.67989 13.8553 3.39468C13.7275 3.14379 13.5235 2.93982 13.2726 2.81199C12.9874 2.66666 12.6141 2.66666 11.8673 2.66666H4.13398C3.38725 2.66666 3.01388 2.66666 2.72866 2.81199C2.47778 2.93982 2.27381 3.14379 2.14598 3.39468C2.00065 3.67989 2.00065 4.05326 2.00065 4.8V10.6667M3.11176 13.3333H12.8895C13.3029 13.3333 13.5095 13.3333 13.6791 13.2879C14.1392 13.1646 14.4986 12.8052 14.6219 12.3451C14.6673 12.1755 14.6673 11.9689 14.6673 11.5556C14.6673 11.3489 14.6673 11.2456 14.6446 11.1608C14.583 10.9307 14.4033 10.751 14.1732 10.6894C14.0884 10.6667 13.9851 10.6667 13.7784 10.6667H2.22287C2.01621 10.6667 1.91288 10.6667 1.82811 10.6894C1.59804 10.751 1.41835 10.9307 1.3567 11.1608C1.33398 11.2456 1.33398 11.3489 1.33398 11.5556C1.33398 11.9689 1.33398 12.1755 1.37942 12.3451C1.50271 12.8052 1.8621 13.1646 2.32223 13.2879C2.49178 13.3333 2.69844 13.3333 3.11176 13.3333Z" stroke="#667085" stroke-width="1.5" stroke-linecap="round" stroke-linejoin="round"/>
</svg>
