<svg width="12" height="12" viewBox="0 0 12 12" fill="none" xmlns="http://www.w3.org/2000/svg">
<path d="M1 6.03806C1 3.18867 3.1371 1 5.91935 1C8.72177 1 11 3.18867 11 6.03806C11 8.32997 9.62903 10.2915 7.6129 10.9729C7.35081 11.0348 7.25 10.8696 7.25 10.7251C7.25 10.5979 7.26745 10 7.26745 9.5C7.26745 9 6.92742 8.5409 6.92742 8.5409C8.05645 8.41701 9.24597 7.75183 9.24597 5.76964C9.24597 5.1915 9.04435 4.92308 8.72177 4.55142C8.7621 4.40689 8.94355 3.87004 8.66129 3.14737C8.2379 3.00284 7.27016 3.70486 7.27016 3.70486C6.86694 3.58097 6.44355 3.53968 6 3.53968C5.57661 3.53968 5.15323 3.58097 4.75 3.70486C4.75 3.70486 3.7621 3.02348 3.35887 3.14737C3.07661 3.87004 3.2379 4.40689 3.29839 4.55142C2.97581 4.92308 2.81452 5.1915 2.81452 5.76964C2.81452 7.75183 3.96371 8.41701 5.09274 8.5409C5.09274 8.5409 4.75 8.93119 4.75 9.4656V10.7458C4.75 10.8696 4.66935 11.0348 4.40726 10.9935C2.39113 10.2915 1 8.32997 1 6.03806Z" stroke="#667085" stroke-linecap="round" stroke-linejoin="round"/>
</svg>
