<svg width="12" height="12" viewBox="0 0 12 12" fill="none" xmlns="http://www.w3.org/2000/svg">
<path d="M4.56892 2.36217C5.02953 1.44095 5.25983 0.980345 5.57148 0.832538C5.84268 0.703911 6.15732 0.703911 6.42853 0.832538C6.74018 0.980346 6.97048 1.44095 7.43108 2.36217L7.61073 2.72145C7.75294 3.00589 7.82405 3.14811 7.92809 3.25699C8.02017 3.35338 8.1306 3.43038 8.25288 3.48347C8.39102 3.54345 8.54906 3.56101 8.86512 3.59612L9.0282 3.61424C10.1323 3.73692 10.6844 3.79826 10.9339 4.0528C11.1507 4.27401 11.2527 4.58319 11.2102 4.89C11.1613 5.24305 10.7543 5.62101 9.94023 6.37693L9.76806 6.5368C9.49018 6.79483 9.35124 6.92385 9.27095 7.08019C9.19998 7.21838 9.16218 7.3712 9.16054 7.52654C9.1587 7.70229 9.2223 7.88354 9.34949 8.24605V8.24605C9.76469 9.42936 9.97228 10.021 9.83648 10.3669C9.71869 10.6669 9.46351 10.8918 9.15104 10.9709C8.79081 11.0621 8.23837 10.7859 7.1335 10.2334L6.71555 10.0244C6.45318 9.89326 6.322 9.82766 6.1844 9.80185C6.06253 9.77898 5.93747 9.77898 5.81561 9.80185C5.67801 9.82766 5.54683 9.89326 5.28446 10.0244L4.8665 10.2334C3.76163 10.7859 3.20919 11.0621 2.84896 10.9709C2.53649 10.8918 2.28131 10.6669 2.16351 10.3669C2.02771 10.021 2.23531 9.42936 2.65051 8.24605V8.24605C2.7777 7.88354 2.8413 7.70229 2.83946 7.52654C2.83782 7.3712 2.80002 7.21838 2.72905 7.08019C2.64876 6.92385 2.50982 6.79483 2.23194 6.5368L2.05977 6.37693C1.2457 5.62101 0.838672 5.24305 0.789765 4.89C0.747264 4.58319 0.849334 4.27401 1.06615 4.0528C1.31563 3.79826 1.86769 3.73692 2.9718 3.61424L3.13488 3.59612C3.45095 3.56101 3.60898 3.54345 3.74712 3.48347C3.8694 3.43038 3.97983 3.35338 4.07191 3.25699C4.17595 3.14811 4.24706 3.00589 4.38927 2.72145L4.56892 2.36217Z" stroke="#667085" stroke-linecap="round" stroke-linejoin="round"/>
</svg>
