<svg width="16" height="16" viewBox="0 0 16 16" fill="none" xmlns="http://www.w3.org/2000/svg">
<path d="M15.3828 9.65723C15.4733 9.69354 15.5545 9.74934 15.6201 9.82031L15.6807 9.89648C15.7356 9.97729 15.7713 10.0693 15.7861 10.165L15.7939 10.2617C15.7944 10.3592 15.7735 10.4554 15.7324 10.543L15.6846 10.627C15.6306 10.7082 15.5594 10.7764 15.4766 10.8262L15.3896 10.8701L8.35352 13.7832C8.23322 13.833 8.10145 13.8452 7.97559 13.8203L7.85254 13.7832L0.81543 10.8711C0.725409 10.8338 0.644913 10.7767 0.580078 10.7051L0.520508 10.6279C0.448505 10.5196 0.41043 10.3919 0.411133 10.2617L0.418945 10.165C0.428852 10.1014 0.447633 10.0395 0.475586 9.98145L0.524414 9.89746C0.579222 9.81693 0.651043 9.75006 0.734375 9.70117L0.821289 9.6582L4.81055 8.05664L6.54102 8.77246L3.12012 10.1465L2.80078 10.2744L3.11816 10.4062L8.04883 12.4473L8.10254 12.4697L8.15625 12.4473L13.0869 10.4062L13.4053 10.2744L13.0859 10.1465L9.66309 8.77344L11.3936 8.05664L15.3828 9.65723ZM8.9209 8.77734L8.35352 9.0127C8.23321 9.0625 8.10146 9.07473 7.97559 9.0498L7.85254 9.0127L7.2832 8.77637L8.10156 8.44824L8.9209 8.77734ZM6.27832 7.57031C6.41596 7.58567 6.58419 7.61655 6.77832 7.65332C7.06548 7.70771 7.40368 7.77303 7.75195 7.80273L8.10156 7.81934C8.59864 7.82097 9.08553 7.73533 9.47852 7.66895C9.67749 7.63533 9.84978 7.60676 9.99219 7.59473C10.1025 7.58542 10.1815 7.58762 10.2354 7.59766L10.2812 7.61035L11.0215 7.90723L9.29102 8.62402L8.1543 8.16797L8.10254 8.14648L8.0498 8.16797L6.91309 8.62402L5.18262 7.9082L6.01367 7.5752C6.05199 7.55988 6.134 7.55422 6.27832 7.57031ZM8.22656 2.02832L8.34668 2.06348L15.3828 4.88672C15.4735 4.92311 15.5544 4.97957 15.6201 5.05078L15.6807 5.12598C15.7356 5.20673 15.7713 5.29879 15.7861 5.39453L15.7939 5.49121C15.7945 5.58872 15.7735 5.68487 15.7324 5.77246L15.6846 5.85645C15.6306 5.93762 15.5594 6.00585 15.4766 6.05566L15.3896 6.09961L11.3936 7.75391L10.3857 7.34961C10.2694 7.30296 10.119 7.30264 9.96777 7.31543C9.81169 7.32865 9.62781 7.35846 9.43164 7.3916C9.15982 7.43752 8.85762 7.48766 8.54395 7.51562L13.0869 5.63574L13.4053 5.50391L13.0859 5.37598L8.1543 3.39746L8.10254 3.37598L8.0498 3.39746L3.12012 5.37598L2.80078 5.50391L3.11816 5.63574L7.63867 7.50684C7.35693 7.47525 7.08049 7.42536 6.83008 7.37793C6.63922 7.34178 6.45993 7.3078 6.30957 7.29102C6.20198 7.27901 6.09259 7.27348 5.99805 7.29004L5.90918 7.31445L4.81152 7.75391L0.81543 6.10059C0.725388 6.06331 0.644921 6.00624 0.580078 5.93457L0.520508 5.85742C0.466575 5.77623 0.43179 5.68452 0.417969 5.58887L0.411133 5.49219C0.41166 5.39455 0.433539 5.29818 0.475586 5.21094L0.524414 5.12695C0.57922 5.04643 0.65104 4.97954 0.734375 4.93066L0.821289 4.8877L7.8584 2.06348C7.97598 2.01626 8.10384 2.00461 8.22656 2.02832Z" fill="#344054" stroke="#344054" stroke-width="0.280702"/>
</svg>
