<svg width="12" height="12" viewBox="0 0 12 12" fill="none" xmlns="http://www.w3.org/2000/svg">
<path d="M4.5 6L5.5 7L7.75 4.75M3.85374 1.45389V1.45389C3.3027 1.69879 3.02718 1.82124 2.79793 1.9792C2.14527 2.42886 1.69708 3.11853 1.55123 3.89756C1.5 4.17121 1.5 4.47271 1.5 5.07572L1.5 5.70392C1.5 6.34176 1.5 6.66068 1.54517 6.9587C1.68277 7.86649 2.12848 8.69931 2.80748 9.31735C3.0304 9.52025 3.29576 9.69716 3.82647 10.051V10.051C4.31627 10.3775 4.56117 10.5408 4.80968 10.6482C5.56927 10.9765 6.43074 10.9765 7.19032 10.6482C7.43884 10.5408 7.68373 10.3775 8.17353 10.051V10.051C8.70425 9.69716 8.96961 9.52025 9.19252 9.31735C9.87152 8.69931 10.3172 7.86649 10.4548 6.9587C10.5 6.66068 10.5 6.34176 10.5 5.70391L10.5 5.07572C10.5 4.47271 10.5 4.17121 10.4488 3.89756C10.3029 3.11853 9.85473 2.42886 9.20207 1.9792C8.97282 1.82124 8.6973 1.69879 8.14626 1.45389V1.45389C7.63456 1.22646 7.37871 1.11275 7.12045 1.0374C6.38874 0.823887 5.61126 0.823887 4.87955 1.0374C4.62129 1.11275 4.36544 1.22646 3.85374 1.45389Z" stroke="#344054" stroke-linecap="round" stroke-linejoin="round"/>
</svg>
