<svg
xmlns="http://www.w3.org/2000/svg"
width="16"
height="16"
viewBox="0 0 16 16"
fill="none"
>
<path
  opacity="0.12"
  d="M14.6668 8.91772V4.85468C14.6668 4.73812 14.6057 4.6301 14.5057 4.57013C14.3998 4.50661 14.2675 4.50712 14.1621 4.57146L10.2235 6.97608C9.41586 7.46914 9.01206 7.71568 8.58015 7.81192C8.19818 7.89703 7.80215 7.89703 7.42017 7.81192C6.98827 7.71568 6.58447 7.46914 5.77686 6.97608L1.83825 4.57146C1.73287 4.50712 1.60048 4.50661 1.49461 4.57013C1.39465 4.6301 1.3335 4.73812 1.3335 4.85468V8.91772C1.3335 9.79863 1.3335 10.2391 1.45989 10.6349C1.57173 10.9851 1.75479 11.3084 1.99757 11.5845C2.27192 11.8965 2.64961 12.1231 3.40498 12.5764L5.80498 14.0164C6.60311 14.4952 7.00218 14.7347 7.42819 14.8282C7.80502 14.911 8.19531 14.911 8.57213 14.8282C8.99814 14.7347 9.39721 14.4952 10.1953 14.0164L12.5953 12.5764C13.3507 12.1231 13.7284 11.8965 14.0028 11.5845C14.2455 11.3084 14.4286 10.9851 14.5404 10.6349C14.6668 10.2391 14.6668 9.79863 14.6668 8.91772Z"
  fill="#AD4A3B"
/>
<path
  d="M8.00016 8.33268L14.0002 4.66602M8.00016 8.33268L2.00016 4.66602M8.00016 8.33268V14.9993M1.3335 7.08176V8.91694C1.3335 9.79785 1.3335 10.2383 1.45989 10.6341C1.57173 10.9843 1.75479 11.3076 1.99757 11.5837C2.27192 11.8957 2.6496 12.1223 3.40498 12.5756L5.80498 14.0156C6.60311 14.4945 7.00218 14.7339 7.42819 14.8274C7.80502 14.9102 8.19531 14.9102 8.57213 14.8274C8.99814 14.7339 9.39721 14.4945 10.1953 14.0156L12.5953 12.5756C13.3507 12.1223 13.7284 11.8957 14.0028 11.5837C14.2455 11.3076 14.4286 10.9843 14.5404 10.6341C14.6668 10.2383 14.6668 9.79785 14.6668 8.91694V7.08176C14.6668 6.20085 14.6668 5.76039 14.5404 5.36462C14.4286 5.01439 14.2455 4.69107 14.0028 4.41497C13.7284 4.10296 13.3507 3.87635 12.5953 3.42312L10.1953 1.98313C9.39721 1.50424 8.99814 1.2648 8.57213 1.17125C8.19531 1.0885 7.80502 1.0885 7.42819 1.17125C7.00218 1.2648 6.60311 1.50425 5.80498 1.98313L3.40498 3.42312C2.6496 3.87635 2.27192 4.10296 1.99757 4.41497C1.75479 4.69107 1.57173 5.01439 1.45989 5.36462C1.3335 5.76039 1.3335 6.20085 1.3335 7.08176Z"
  stroke="#AD4A3B"
  stroke-linecap="round"
  stroke-linejoin="round"
/>
</svg>
