<svg width="16" height="16" viewBox="0 0 16 16" fill="none" xmlns="http://www.w3.org/2000/svg">
<g id="box">
<path id="Fill" opacity="0.12" d="M14.6667 9.52166V4.85468C14.6667 4.73812 14.6055 4.6301 14.5056 4.57013C14.3997 4.50661 14.2673 4.50712 14.1619 4.57146L9.66747 7.31543C9.06177 7.68522 8.75891 7.87012 8.43499 7.9423C8.14851 8.00614 7.85148 8.00614 7.565 7.9423C7.24107 7.87012 6.93822 7.68522 6.33252 7.31542L1.83808 4.57146C1.7327 4.50712 1.60031 4.50661 1.49444 4.57013C1.39449 4.6301 1.33333 4.73812 1.33333 4.85468V9.52165C1.33333 10.1823 1.33333 10.5127 1.42812 10.8095C1.51201 11.0722 1.6493 11.3147 1.83138 11.5218C2.03714 11.7558 2.32041 11.9257 2.88694 12.2656L6.35361 14.3456C6.95221 14.7048 7.25151 14.8844 7.57102 14.9545C7.85364 15.0166 8.14635 15.0166 8.42897 14.9545C8.74848 14.8844 9.04778 14.7048 9.64638 14.3456L13.113 12.2656C13.6796 11.9257 13.9628 11.7558 14.1686 11.5218C14.3507 11.3147 14.488 11.0722 14.5719 10.8095C14.6667 10.5127 14.6667 10.1823 14.6667 9.52166Z" fill="#2F384C"/>
<path id="Vector" d="M8 8.33333L14 4.66666M8 8.33333L1.99999 4.66666M8 8.33333V15M1.33333 6.47847V9.52152C1.33333 10.1822 1.33333 10.5125 1.42812 10.8094C1.51201 11.0721 1.6493 11.3145 1.83138 11.5216C2.03714 11.7556 2.32041 11.9256 2.88694 12.2655L6.35361 14.3455C6.95221 14.7047 7.25151 14.8842 7.57102 14.9544C7.85364 15.0165 8.14635 15.0165 8.42897 14.9544C8.74848 14.8842 9.04778 14.7047 9.64638 14.3455L13.113 12.2655C13.6796 11.9256 13.9628 11.7556 14.1686 11.5216C14.3507 11.3145 14.488 11.0721 14.5719 10.8094C14.6667 10.5125 14.6667 10.1822 14.6667 9.52152V6.47847C14.6667 5.81779 14.6667 5.48745 14.5719 5.19062C14.488 4.92794 14.3507 4.68545 14.1686 4.47838C13.9628 4.24438 13.6796 4.07442 13.113 3.7345L9.64638 1.6545C9.04778 1.29534 8.74848 1.11576 8.42897 1.04559C8.14635 0.983529 7.85364 0.983529 7.57102 1.04559C7.25151 1.11576 6.95221 1.29534 6.35361 1.6545L2.88694 3.7345C2.32041 4.07442 2.03714 4.24438 1.83138 4.47838C1.6493 4.68545 1.51201 4.92794 1.42812 5.19062C1.33333 5.48745 1.33333 5.81779 1.33333 6.47847Z" stroke="#2F384C" stroke-linecap="round" stroke-linejoin="round"/>
</g>
</svg>
