<svg width="15" height="14" viewBox="0 0 15 14" fill="none" xmlns="http://www.w3.org/2000/svg">
<g id="dotpoints-01">
<path id="Icon" d="M13.2329 6.99984L6.23291 6.99984M13.2329 3.49984L6.23291 3.49984M13.2329 10.4998L6.23291 10.4998M3.89958 6.99984C3.89958 7.322 3.63841 7.58317 3.31624 7.58317C2.99408 7.58317 2.73291 7.322 2.73291 6.99984C2.73291 6.67767 2.99408 6.4165 3.31624 6.4165C3.63841 6.4165 3.89958 6.67767 3.89958 6.99984ZM3.89958 3.49984C3.89958 3.822 3.63841 4.08317 3.31624 4.08317C2.99408 4.08317 2.73291 3.822 2.73291 3.49984C2.73291 3.17767 2.99408 2.9165 3.31624 2.9165C3.63841 2.9165 3.89958 3.17767 3.89958 3.49984ZM3.89958 10.4998C3.89958 10.822 3.63841 11.0832 3.31624 11.0832C2.99408 11.0832 2.73291 10.822 2.73291 10.4998C2.73291 10.1777 2.99408 9.9165 3.31624 9.9165C3.63841 9.9165 3.89958 10.1777 3.89958 10.4998Z" stroke="#475467" stroke-width="1.17" stroke-linecap="round" stroke-linejoin="round"/>
</g>
</svg>
