<svg xmlns="http://www.w3.org/2000/svg" width="14" height="14" viewBox="0 0 14 14" fill="none">
  <path d="M1.16699 7.00033H12.8337M1.16699 7.00033C1.16699 10.222 3.77866 12.8337 7.00033 12.8337M1.16699 7.00033C1.16699 3.77866 3.77866 1.16699 7.00033 1.16699M12.8337 7.00033C12.8337 10.222 10.222 12.8337 7.00033 12.8337M12.8337 7.00033C12.8337 3.77866 10.222 1.16699 7.00033 1.16699M7.00033 1.16699C8.45941 2.76436 9.2886 4.83735 9.33366 7.00033C9.2886 9.16331 8.45941 11.2363 7.00033 12.8337M7.00033 1.16699C5.54125 2.76436 4.71205 4.83735 4.66699 7.00033C4.71205 9.16331 5.54125 11.2363 7.00033 12.8337" stroke="#475467" stroke-width="1.16667" stroke-linecap="round" stroke-linejoin="round"/>
</svg>