<svg width="16" height="16" viewBox="0 0 16 16" fill="none" xmlns="http://www.w3.org/2000/svg">
  <path
    d="M7.99992 10.0002C9.10449 10.0002 9.99992 9.10473 9.99992 8.00016C9.99992 6.89559 9.10449 6.00016 7.99992 6.00016C6.89535 6.00016 5.99992 6.89559 5.99992 8.00016C5.99992 9.10473 6.89535 10.0002 7.99992 10.0002Z"
    stroke="#667085"
    stroke-width="1.5"
    stroke-linecap="round"
    stroke-linejoin="round"
  />
  <path
    d="M12.4848 9.81835C12.4041 10.0011 12.38 10.2039 12.4157 10.4005C12.4513 10.5971 12.545 10.7785 12.6848 10.9214L12.7211 10.9577C12.8338 11.0703 12.9232 11.204 12.9842 11.3511C12.9842 12.4266 12.8338 12.5603 12.7211 12.6729C12.6086 12.7856 12.4749 12.875 12.3277 12.936C12.1806 12.997 12.0228 13.0284 11.8636 13.0284C11.7043 13.0284 11.5465 12.997 11.3994 12.936C11.2522 12.875 11.1186 12.7856 11.006 12.6729L10.9696 12.6365C10.8268 12.4968 10.6454 12.4031 10.4488 12.3674C10.2522 12.3318 10.0494 12.3559 9.86659 12.4365C9.68733 12.5134 9.53445 12.6409 9.42677 12.8035C9.31909 12.9661 9.2613 13.1567 9.26052 13.3517V13.4547C9.26052 13.7762 9.13282 14.0845 8.9055 14.3118C8.67819 14.5391 8.36988 14.6668 8.0484 14.6668C7.72693 14.6668 7.41862 14.5391 7.1913 14.3118C6.96399 14.0845 6.83628 13.7762 6.83628 13.4547V13.4002C6.83159 13.1996 6.76666 13.005 6.64993 12.8418C6.53319 12.6786 6.37006 12.5543 6.18174 12.485C5.99894 12.4043 5.79617 12.3803 5.59956 12.4159C5.40296 12.4516 5.22154 12.5453 5.07871 12.685L5.04234 12.7214C4.92977 12.8341 4.79609 12.9235 4.64894 12.9845C4.50179 13.0455 4.34406 13.0769 4.18477 13.0769C4.02548 13.0769 3.86775 13.0455 3.7206 12.9845C3.57345 12.9235 3.43976 12.8341 3.32719 12.7214C3.21449 12.6088 3.12509 12.4751 3.06409 12.328C3.00309 12.1808 2.97169 12.0231 2.97169 11.8638C2.97169 11.7045 3.00309 11.5468 3.06409 11.3996C3.12509 11.2525 3.21449 11.1188 3.32719 11.0062L3.36356 10.9699C3.50327 10.827 3.597 10.6456 3.63265 10.449C3.6683 10.2524 3.64423 10.0496 3.56355 9.86683C3.48673 9.68758 3.35916 9.5347 3.19656 9.42702C3.03396 9.31933 2.84343 9.26155 2.6484 9.26077H2.54537C2.2239 9.26077 1.91559 9.13306 1.68827 8.90575C1.46096 8.67843 1.33325 8.37012 1.33325 8.04865C1.33325 7.72717 1.46096 7.41887 1.68827 7.19155C1.91559 6.96423 2.2239 6.83653 2.54537 6.83653H2.59992C2.80052 6.83183 2.99507 6.7669 3.15828 6.65017C3.32149 6.53344 3.44581 6.37031 3.51507 6.18198C3.59575 5.99918 3.61981 5.79641 3.58416 5.59981C3.54852 5.4032 3.45479 5.22179 3.31507 5.07895L3.27871 5.04259C3.16601 4.93001 3.0766 4.79633 3.0156 4.64918C2.9546 4.50203 2.92321 4.3443 2.92321 4.18501C2.92321 4.02572 2.9546 3.86799 3.0156 3.72084C3.0766 3.57369 3.16601 3.44001 3.27871 3.32744C3.39128 3.21474 3.52496 3.12533 3.67211 3.06433C3.81926 3.00333 3.97699 2.97194 4.13628 2.97194C4.29557 2.97194 4.4533 3.00333 4.60045 3.06433C4.7476 3.12533 4.88128 3.21474 4.99386 3.32744L5.03022 3.3638C5.17306 3.50352 5.35447 3.59725 5.55108 3.63289C5.74768 3.66854 5.95045 3.64448 6.13325 3.5638H6.18174C6.36099 3.48697 6.51387 3.35941 6.62155 3.19681C6.72923 3.03421 6.78702 2.84367 6.7878 2.64865V2.54562C6.7878 2.22414 6.9155 1.91584 7.14282 1.68852C7.37014 1.4612 7.67844 1.3335 7.99992 1.3335C8.32139 1.3335 8.6297 1.4612 8.85702 1.68852C9.08433 1.91584 9.21204 2.22414 9.21204 2.54562V2.60016C9.21282 2.79518 9.27061 2.98572 9.37829 3.14832C9.48597 3.31092 9.63885 3.43849 9.8181 3.51531C10.0009 3.59599 10.2037 3.62006 10.4003 3.58441C10.5969 3.54876 10.7783 3.45503 10.9211 3.31531L10.9575 3.27895C11.0701 3.16625 11.2038 3.07685 11.3509 3.01585C11.4981 2.95485 11.6558 2.92345 11.8151 2.92345C11.9744 2.92345 12.1321 2.95485 12.2792 3.01585C12.4264 3.07685 12.5601 3.16625 12.6726 3.27895C12.7853 3.39152 12.8748 3.52521 12.9357 3.67236C12.9967 3.81951 13.0281 3.97723 13.0281 4.13653C13.0281 4.29582 12.9967 4.45355 12.9357 4.6007C12.8748 4.74785 12.7853 4.88153 12.6726 4.9941L12.6363 5.03047C12.4966 5.1733 12.4028 5.35472 12.3672 5.55132C12.3315 5.74792 12.3556 5.9507 12.4363 6.1335V6.18198C12.5131 6.36124 12.6407 6.51411 12.8033 6.6218C12.9659 6.72948 13.1564 6.78726 13.3514 6.78804H13.4545C13.7759 6.78804 14.0842 6.91575 14.3116 7.14306C14.5389 7.37038 14.6666 7.67869 14.6666 8.00016C14.6666 8.32164 14.5389 8.62995 14.3116 8.85726C14.0842 9.08458 13.7759 9.21228 13.4545 9.21228H13.3999C13.2049 9.21306 13.0144 9.27085 12.8518 9.37853C12.6892 9.48621 12.5616 9.63909 12.4848 9.81835Z"
    stroke="#667085"
    stroke-width="1.5"
    stroke-linecap="round"
    stroke-linejoin="round"
  />
</svg>