<svg width="16" height="16" viewBox="0 0 16 16" fill="none" xmlns="http://www.w3.org/2000/svg">
  <path d="M12.6666 14V10M10.6666 12H14.6666M7.99992 10H5.33325C4.09074 10 3.46949 10 2.97943 10.203C2.32602 10.4736 1.80689 10.9928 1.53624 11.6462C1.33325 12.1362 1.33325 12.7575 1.33325 14M10.3333 2.19384C11.3105 2.58943 11.9999 3.54754 11.9999 4.66667C11.9999 5.78579 11.3105 6.7439 10.3333 7.13949M8.99992 4.66667C8.99992 6.13943 7.80601 7.33333 6.33325 7.33333C4.86049 7.33333 3.66659 6.13943 3.66659 4.66667C3.66659 3.19391 4.86049 2 6.33325 2C7.80601 2 8.99992 3.19391 8.99992 4.66667Z" stroke="#667085" stroke-width="1.5" stroke-linecap="round" stroke-linejoin="round"/>
</svg>