<svg 
  width="16" 
  height="16" 
  viewBox="0 0 16 16" 
  fill="none" 
  xmlns="http://www.w3.org/2000/svg"
>
  <path 
    d="M8 2.66659V10.1333C8 11.2534 8 11.8134 8.21799 12.2412C8.40973 12.6176 8.71569 12.9235 9.09202 13.1153C9.51984 13.3333 10.0799 13.3333 11.2 13.3333H11.3333M11.3333 13.3333C11.3333 14.0696 11.9303 14.6666 12.6667 14.6666C13.403 14.6666 14 14.0696 14 13.3333C14 12.5969 13.403 11.9999 12.6667 11.9999C11.9303 11.9999 11.3333 12.5969 11.3333 13.3333ZM4.66667 2.66659L11.3333 2.66658M4.66667 2.66659C4.66667 3.40297 4.06971 3.99992 3.33333 3.99992C2.59695 3.99992 2 3.40297 2 2.66659C2 1.93021 2.59695 1.33325 3.33333 1.33325C4.06971 1.33325 4.66667 1.93021 4.66667 2.66659ZM11.3333 2.66658C11.3333 3.40296 11.9303 3.99992 12.6667 3.99992C13.403 3.99992 14 3.40297 14 2.66659C14 1.93021 13.403 1.33325 12.6667 1.33325C11.9303 1.33325 11.3333 1.93021 11.3333 2.66658ZM8 7.99992H11.3333M11.3333 7.99992C11.3333 8.7363 11.9303 9.33325 12.6667 9.33325C13.403 9.33325 14 8.7363 14 7.99992C14 7.26354 13.403 6.66659 12.6667 6.66659C11.9303 6.66659 11.3333 7.26354 11.3333 7.99992Z" 
    stroke="#667085" 
    stroke-width="1.5" 
    stroke-linecap="round" 
    stroke-linejoin="round"
  />
</svg>