<svg width="30" height="26" viewBox="0 0 30 26" fill="none" xmlns="http://www.w3.org/2000/svg">
<path d="M28.3346 9H1.66797M17.668 20.3333L21.0013 17L17.668 13.6667M12.3346 13.6667L9.0013 17L12.3346 20.3333M1.66797 7.4L1.66797 18.6C1.66797 20.8402 1.66797 21.9603 2.10394 22.816C2.48744 23.5686 3.09936 24.1805 3.85201 24.564C4.70765 25 5.82776 25 8.06797 25H21.9346C24.1748 25 25.295 25 26.1506 24.564C26.9032 24.1805 27.5152 23.5686 27.8987 22.816C28.3346 21.9603 28.3346 20.8402 28.3346 18.6V7.4C28.3346 5.15979 28.3346 4.03969 27.8987 3.18404C27.5152 2.43139 26.9032 1.81947 26.1506 1.43598C25.295 1 24.1748 1 21.9346 1L8.06797 1C5.82776 1 4.70765 1 3.85201 1.43597C3.09936 1.81947 2.48744 2.43139 2.10394 3.18404C1.66797 4.03968 1.66797 5.15979 1.66797 7.4Z" stroke="black" stroke-width="2" stroke-linecap="round" stroke-linejoin="round"/>
</svg>
