<svg width="16" height="16" viewBox="0 0 16 16" fill="none" xmlns="http://www.w3.org/2000/svg">
  <path d="M7.99967 5.99967V9.99967M7.99967 5.99967H1.33301M7.99967 5.99967H14.6663M7.99967 9.99967L7.99968 14.6663M7.99967 9.99967H1.33301M7.99967 9.99967H14.6663M6.66634 14.6663H9.33301C11.1998 14.6663 12.1333 14.6663 12.8463 14.303C13.4735 13.9835 13.9835 13.4735 14.303 12.8463C14.6663 12.1333 14.6663 11.1999 14.6663 9.33301V6.66634C14.6663 4.7995 14.6663 3.86608 14.303 3.15304C13.9835 2.52583 13.4735 2.0159 12.8463 1.69632C12.1333 1.33301 11.1999 1.33301 9.33301 1.33301H6.66634C4.7995 1.33301 3.86608 1.33301 3.15304 1.69632C2.52583 2.0159 2.0159 2.52583 1.69632 3.15304C1.33301 3.86608 1.33301 4.7995 1.33301 6.66634V9.33301C1.33301 11.1998 1.33301 12.1333 1.69632 12.8463C2.0159 13.4735 2.52583 13.9835 3.15304 14.303C3.86608 14.6663 4.7995 14.6663 6.66634 14.6663Z" stroke="#667085" stroke-linecap="round" stroke-linejoin="round"/>
</svg>
  