<?xml version="1.0" standalone="no"?><!DOCTYPE svg PUBLIC "-//W3C//DTD SVG 1.1//EN" "http://www.w3.org/Graphics/SVG/1.1/DTD/svg11.dtd"><svg t="1752225211810" class="icon" viewBox="0 0 1024 1024" version="1.1" xmlns="http://www.w3.org/2000/svg" p-id="7800" xmlns:xlink="http://www.w3.org/1999/xlink" width="400" height="400"><path d="M688.832 896c13.226667 0 23.957333-10.730667 23.957333-23.957333V621.290667c0-13.226667-10.730667-23.957333-23.957333-23.957334h-2.282667c-13.226667 0-23.957333 10.730667-23.957333 23.957334v250.752c0 13.226667 10.730667 23.957333 23.957333 23.957333h-173.397333c13.226667 0 23.936-10.730667 23.936-23.957333V621.290667c0-13.226667-10.709333-23.957333-23.936-23.957334h-2.304c-13.226667 0-23.936 10.730667-23.936 23.957334v250.752c0 13.226667 10.709333 23.957333 23.936 23.957333h-173.397333c13.226667 0 23.957333-10.730667 23.957333-23.957333V621.290667c0-13.226667-10.730667-23.957333-23.957333-23.957334h-2.282667c-13.226667 0-23.957333 10.730667-23.957333 23.957334v250.752c0 13.226667 10.730667 23.957333 23.957333 23.957333h-106.112A143.722667 143.722667 0 0 1 85.333333 752.277333V417.493333a143.722667 143.722667 0 0 1 143.722667-143.722666h33.237333A143.744 143.744 0 0 1 404.736 149.333333h214.528a143.744 143.744 0 0 1 142.442667 124.437334h33.237333A143.722667 143.722667 0 0 1 938.666667 417.493333v334.784A143.722667 143.722667 0 0 1 794.944 896H688.853333z" p-id="7801" fill="#aaa9a9"></path></svg>