<svg xmlns="http://www.w3.org/2000/svg" width="12" height="12" viewBox="0 0 12 12" fill="none">
  <path d="M10 2.5C10 3.32843 8.20914 4 6 4C3.79086 4 2 3.32843 2 2.5M10 2.5C10 1.67157 8.20914 1 6 1C3.79086 1 2 1.67157 2 2.5M10 2.5V9.5C10 10.3284 8.20914 11 6 11C3.79086 11 2 10.3284 2 9.5V2.5M10 4.8333C10 5.66173 8.20914 6.3333 6 6.3333C3.79086 6.3333 2 5.66173 2 4.8333M10 7.165C10 7.99343 8.20914 8.665 6 8.665C3.79086 8.665 2 7.99343 2 7.165" stroke="#0BA5EC" stroke-linecap="round" stroke-linejoin="round"/>
</svg>