<svg xmlns="http://www.w3.org/2000/svg" width="12" height="12" viewBox="0 0 12 12" fill="none">
  <g clip-path="url(#clip0_18055_161273)">
    <path d="M6.5 2.99992L3.25091 3.64974C3.06941 3.68604 2.97866 3.70419 2.90476 3.74833C2.83943 3.78734 2.78386 3.84076 2.7423 3.9045C2.69528 3.97661 2.67357 4.06657 2.63014 4.24649L1 10.9999M1 10.9999L7.75343 9.36979C7.93336 9.32636 8.02332 9.30464 8.09542 9.25763C8.15917 9.21606 8.21258 9.1605 8.2516 9.09516C8.29573 9.02126 8.31388 8.93051 8.35018 8.74901L9 5.49992M1 10.9999L4.793 7.20692M10.4343 3.93424L8.06569 1.56561C7.86768 1.3676 7.76867 1.2686 7.65451 1.2315C7.55409 1.19887 7.44591 1.19887 7.34549 1.2315C7.23133 1.2686 7.13232 1.3676 6.93431 1.56561L6.56569 1.93424C6.36768 2.13225 6.26867 2.23125 6.23158 2.34542C6.19895 2.44584 6.19895 2.55401 6.23158 2.65443C6.26867 2.7686 6.36768 2.8676 6.56569 3.06561L8.93432 5.43424C9.13232 5.63225 9.23133 5.73125 9.34549 5.76835C9.44591 5.80097 9.55409 5.80097 9.65451 5.76835C9.76867 5.73125 9.86768 5.63225 10.0657 5.43424L10.4343 5.06561C10.6323 4.8676 10.7313 4.7686 10.7684 4.65443C10.8011 4.55401 10.8011 4.44584 10.7684 4.34542C10.7313 4.23125 10.6323 4.13225 10.4343 3.93424ZM5.5 5.49992C6.05228 5.49992 6.5 5.94764 6.5 6.49992C6.5 7.05221 6.05229 7.49992 5.5 7.49992C4.94772 7.49992 4.5 7.05221 4.5 6.49992C4.5 5.94764 4.94772 5.49992 5.5 5.49992Z" stroke="#17B26A" stroke-linecap="round" stroke-linejoin="round"/>
  </g>
  <defs>
    <clipPath id="clip0_18055_161273">
      <rect width="12" height="12" fill="white"/>
    </clipPath>
  </defs>
</svg>