<svg xmlns="http://www.w3.org/2000/svg" width="12" height="12" viewBox="0 0 12 12" fill="none">
  <g clip-path="url(#clip0_17759_67723)">
    <path d="M6 7.5C4.34315 7.5 3 6.15685 3 4.5V1.72222C3 1.5153 3 1.41184 3.03015 1.32899C3.0807 1.19011 3.19011 1.0807 3.32899 1.03015C3.41184 1 3.5153 1 3.72222 1H8.27778C8.4847 1 8.58816 1 8.67101 1.03015C8.80989 1.0807 8.9193 1.19011 8.96985 1.32899C9 1.41184 9 1.5153 9 1.72222V4.5C9 6.15685 7.65685 7.5 6 7.5ZM6 7.5V9M9 2H10.25C10.483 2 10.5995 2 10.6913 2.03806C10.8139 2.08881 10.9112 2.18614 10.9619 2.30866C11 2.40054 11 2.51703 11 2.75V3C11 3.46499 11 3.69748 10.9489 3.88823C10.8102 4.40587 10.4059 4.81019 9.88823 4.94889C9.69748 5 9.46499 5 9 5M3 2H1.75C1.51703 2 1.40054 2 1.30866 2.03806C1.18614 2.08881 1.08881 2.18614 1.03806 2.30866C1 2.40054 1 2.51703 1 2.75V3C1 3.46499 1 3.69748 1.05111 3.88823C1.18981 4.40587 1.59413 4.81019 2.11177 4.94889C2.30252 5 2.53501 5 3 5M3.72222 11H8.27778C8.40051 11 8.5 10.9005 8.5 10.7778C8.5 9.79594 7.70406 9 6.72222 9H5.27778C4.29594 9 3.5 9.79594 3.5 10.7778C3.5 10.9005 3.59949 11 3.72222 11Z" stroke="#4E5BA6" stroke-linecap="round" stroke-linejoin="round"/>
  </g>
  <defs>
    <clipPath id="clip0_17759_67723">
      <rect width="12" height="12" fill="white"/>
    </clipPath>
  </defs>
</svg>