<svg xmlns="http://www.w3.org/2000/svg" width="12" height="12" viewBox="0 0 12 12" fill="none">
  <path d="M11 4.5H1M7 8.75L8.25 7.5L7 6.25M5 6.25L3.75 7.5L5 8.75M1 3.9L1 8.1C1 8.94008 1 9.36012 1.16349 9.68098C1.3073 9.96323 1.53677 10.1927 1.81901 10.3365C2.13988 10.5 2.55992 10.5 3.4 10.5H8.6C9.44008 10.5 9.86012 10.5 10.181 10.3365C10.4632 10.1927 10.6927 9.96323 10.8365 9.68099C11 9.36012 11 8.94008 11 8.1V3.9C11 3.05992 11 2.63988 10.8365 2.31901C10.6927 2.03677 10.4632 1.8073 10.181 1.66349C9.86012 1.5 9.44008 1.5 8.6 1.5L3.4 1.5C2.55992 1.5 2.13988 1.5 1.81901 1.66349C1.53677 1.8073 1.3073 2.03677 1.16349 2.31901C1 2.63988 1 3.05992 1 3.9Z" stroke="#2E90FA" stroke-linecap="round" stroke-linejoin="round"/>
</svg>