<svg xmlns="http://www.w3.org/2000/svg" width="12" height="12" viewBox="0 0 12 12" fill="none">
  <g clip-path="url(#clip0_19316_16186)">
    <path d="M2.5 7.5C2.03406 7.5 1.80109 7.5 1.61732 7.42388C1.37229 7.32239 1.17761 7.12771 1.07612 6.88268C1 6.69891 1 6.46594 1 6V2.6C1 2.03995 1 1.75992 1.10899 1.54601C1.20487 1.35785 1.35785 1.20487 1.54601 1.10899C1.75992 1 2.03995 1 2.6 1H6C6.46594 1 6.69891 1 6.88268 1.07612C7.12771 1.17761 7.32239 1.37229 7.42388 1.61732C7.5 1.80109 7.5 2.03406 7.5 2.5M6.1 11H9.4C9.96005 11 10.2401 11 10.454 10.891C10.6422 10.7951 10.7951 10.6422 10.891 10.454C11 10.2401 11 9.96005 11 9.4V6.1C11 5.53995 11 5.25992 10.891 5.04601C10.7951 4.85785 10.6422 4.70487 10.454 4.60899C10.2401 4.5 9.96005 4.5 9.4 4.5H6.1C5.53995 4.5 5.25992 4.5 5.04601 4.60899C4.85785 4.70487 4.70487 4.85785 4.60899 5.04601C4.5 5.25992 4.5 5.53995 4.5 6.1V9.4C4.5 9.96005 4.5 10.2401 4.60899 10.454C4.70487 10.6422 4.85785 10.7951 5.04601 10.891C5.25992 11 5.53995 11 6.1 11Z" stroke="#475467" stroke-linecap="round" stroke-linejoin="round"/>
  </g>
  <defs>
    <clipPath id="clip0_19316_16186">
      <rect width="12" height="12" fill="white"/>
    </clipPath>
  </defs>
</svg>