<svg xmlns="http://www.w3.org/2000/svg" width="20" height="20" viewBox="0 0 20 20" fill="none">
  <path d="M14.5684 13.7582C14.359 13.9546 14.2543 14.0528 14.0909 14.148C13.9606 14.2238 13.7726 14.2982 13.6257 14.332C13.4413 14.3743 13.2673 14.3743 12.9194 14.3743H11.958C11.4913 14.3743 11.2579 14.3743 11.0797 14.2835C10.9229 14.2036 10.7954 14.0761 10.7155 13.9193C10.6247 13.7411 10.6247 13.5077 10.6247 13.041V11.666C10.6247 11.3208 10.3449 11.041 9.99967 11.041C9.6545 11.041 9.37467 11.3208 9.37467 11.666V13.041C9.37467 13.5077 9.37467 13.7411 9.28385 13.9193C9.20395 14.0761 9.07647 14.2036 8.91967 14.2835C8.74141 14.3743 8.50805 14.3743 8.04134 14.3743H7.10517C6.75406 14.3743 6.5785 14.3743 6.39332 14.3316C6.24517 14.2973 6.0574 14.2227 5.92619 14.1458C5.76219 14.0497 5.65624 13.9497 5.44433 13.7495C5.28607 13.6 5.12416 13.4392 4.96209 13.2677C3.8777 12.1202 2.70801 10.4095 2.70801 8.33268C2.70801 4.30561 5.9726 1.04102 9.99967 1.04102C14.0268 1.04102 17.2913 4.30561 17.2913 8.33268C17.2913 10.4421 16.1235 12.1527 15.0356 13.295C14.8787 13.4597 14.7219 13.6143 14.5684 13.7582Z" fill="#D0D5DD"/>
  <path d="M13.125 15.625H6.875V15.8333C6.875 17.5592 8.27411 18.9583 10 18.9583C11.7259 18.9583 13.125 17.5592 13.125 15.8333V15.625Z" fill="#98A2B3"/>
</svg>