<svg xmlns="http://www.w3.org/2000/svg" width="12" height="12" viewBox="0 0 12 12" fill="none">
  <g clip-path="url(#clip0_17759_67711)">
    <path d="M6.49992 7L4.99992 5.5M7.5051 1.75V1M9.47477 2.53033L10.0051 2M9.47477 6.5L10.0051 7.03033M5.5051 2.53033L4.97477 2M10.2551 4.5H11.0051M3.06561 10.4343L7.68424 5.81569C7.88225 5.61768 7.98125 5.51867 8.01835 5.40451C8.05097 5.30409 8.05097 5.19591 8.01835 5.09549C7.98125 4.98133 7.88225 4.88232 7.68424 4.68431L7.31561 4.31569C7.1176 4.11768 7.0186 4.01867 6.90443 3.98158C6.80401 3.94895 6.69584 3.94895 6.59542 3.98158C6.48125 4.01867 6.38225 4.11768 6.18424 4.31569L1.56561 8.93431C1.3676 9.13232 1.2686 9.23133 1.2315 9.34549C1.19887 9.44591 1.19887 9.55409 1.2315 9.65451C1.2686 9.76867 1.3676 9.86768 1.56561 10.0657L1.93424 10.4343C2.13225 10.6323 2.23125 10.7313 2.34542 10.7684C2.44584 10.8011 2.55401 10.8011 2.65443 10.7684C2.7686 10.7313 2.8676 10.6323 3.06561 10.4343Z" stroke="#7A5AF8" stroke-linecap="round" stroke-linejoin="round"/>
  </g>
  <defs>
    <clipPath id="clip0_17759_67711">
      <rect width="12" height="12" fill="white"/>
    </clipPath>
  </defs>
</svg>