<svg xmlns="http://www.w3.org/2000/svg" width="12" height="12" viewBox="0 0 12 12" fill="none">
  <path d="M8.1 10.5H3.46569C3.16278 10.5 3.01132 10.5 2.94119 10.4401C2.88034 10.3881 2.84805 10.3102 2.85432 10.2304C2.86156 10.1384 2.96865 10.0313 3.18284 9.81716L7.43431 5.56569C7.63232 5.36768 7.73133 5.26867 7.84549 5.23158C7.94591 5.19895 8.05409 5.19895 8.15451 5.23158C8.26867 5.26867 8.36768 5.36768 8.56568 5.56568L10.5 7.5V8.1M8.1 10.5C8.94008 10.5 9.36012 10.5 9.68099 10.3365C9.96323 10.1927 10.1927 9.96323 10.3365 9.68099C10.5 9.36012 10.5 8.94008 10.5 8.1M8.1 10.5H3.9C3.05992 10.5 2.63988 10.5 2.31901 10.3365C2.03677 10.1927 1.8073 9.96323 1.66349 9.68099C1.5 9.36012 1.5 8.94008 1.5 8.1V3.9C1.5 3.05992 1.5 2.63988 1.66349 2.31901C1.8073 2.03677 2.03677 1.8073 2.31901 1.66349C2.63988 1.5 3.05992 1.5 3.9 1.5H8.1C8.94008 1.5 9.36012 1.5 9.68099 1.66349C9.96323 1.8073 10.1927 2.03677 10.3365 2.31901C10.5 2.63988 10.5 3.05992 10.5 3.9V8.1M5.25 4.25C5.25 4.80228 4.80228 5.25 4.25 5.25C3.69772 5.25 3.25 4.80228 3.25 4.25C3.25 3.69772 3.69772 3.25 4.25 3.25C4.80228 3.25 5.25 3.69772 5.25 4.25Z" stroke="#EAAA08" stroke-linecap="round" stroke-linejoin="round"/>
</svg>