<svg xmlns="http://www.w3.org/2000/svg" width="20" height="20" viewBox="0 0 20 20" fill="none">
  <path fill-rule="evenodd" clip-rule="evenodd" d="M7.44395 18.9577C5.20374 18.9577 4.08363 18.9577 3.22798 18.5217C2.47534 18.1382 1.86341 17.5263 1.47992 16.7736C1.04395 15.918 1.04395 14.7979 1.04395 12.5577V10.291C1.04395 9.8243 1.04395 9.59095 1.13477 9.41269C1.21467 9.25589 1.34215 9.1284 1.49895 9.04851C1.67721 8.95768 1.91057 8.95768 2.37728 8.95768L8.04394 8.95768C8.51066 8.95768 8.74401 8.95768 8.92227 9.04851C9.07907 9.1284 9.20656 9.25589 9.28645 9.41269C9.37728 9.59095 9.37728 9.8243 9.37728 10.291V11.6579C9.37724 11.6606 9.37723 11.6633 9.37723 11.666C9.37723 11.6687 9.37724 11.6714 9.37728 11.6741L9.37728 17.6243C9.37728 18.0911 9.37728 18.3244 9.28645 18.5027C9.20656 18.6595 9.07907 18.787 8.92227 18.8669C8.74401 18.9577 8.51066 18.9577 8.04395 18.9577H7.44395ZM11.9606 12.291C11.4939 12.291 11.2605 12.291 11.0823 12.3818C10.9255 12.4617 10.798 12.5892 10.7181 12.746C10.6273 12.9243 10.6273 13.1576 10.6273 13.6243L10.6273 17.6243C10.6273 18.0911 10.6273 18.3244 10.7181 18.5027C10.798 18.6595 10.9255 18.787 11.0823 18.8669C11.2605 18.9577 11.4939 18.9577 11.9606 18.9577H13.4434C14.855 18.9577 15.5609 18.9577 16.1347 18.7815C17.4026 18.3922 18.3951 17.3997 18.7844 16.1318C18.9606 15.5579 18.9606 14.8521 18.9606 13.4404C18.9606 13.1463 18.9606 12.9993 18.9239 12.8797C18.8428 12.6156 18.636 12.4088 18.3719 12.3277C18.2523 12.291 18.1053 12.291 17.8112 12.291H11.9606ZM17.6273 11.041C18.094 11.041 18.3273 11.041 18.5056 10.9502C18.6624 10.8703 18.7899 10.7428 18.8698 10.586C18.9606 10.4077 18.9606 10.1744 18.9606 9.70768V7.44102C18.9606 5.20081 18.9606 4.0807 18.5246 3.22505C18.1411 2.47241 17.5292 1.86048 16.7766 1.47699C15.9209 1.04102 14.8008 1.04102 12.5606 1.04102H11.9606C11.4939 1.04102 11.2605 1.04102 11.0823 1.13184C10.9255 1.21174 10.798 1.33922 10.7181 1.49602C10.6273 1.67428 10.6273 1.90764 10.6273 2.37435V8.33268V9.70768C10.6273 10.1744 10.6273 10.4077 10.7181 10.586C10.798 10.7428 10.9255 10.8703 11.0823 10.9502C11.2605 11.041 11.4939 11.041 11.9606 11.041H17.6273Z" fill="#D0D5DD"/>
  <path d="M8.04394 1.04102H6.56119C5.14952 1.04102 4.44368 1.04102 3.86985 1.21721C2.60194 1.60652 1.60945 2.59901 1.22014 3.86692C1.04395 4.44075 1.04395 5.14659 1.04395 6.55826C1.04395 6.85236 1.04395 6.9994 1.08065 7.11895C1.16176 7.3831 1.36853 7.58987 1.63268 7.67098C1.75222 7.70768 1.89927 7.70768 2.19337 7.70768L8.04395 7.70768C8.51066 7.70768 8.74401 7.70768 8.92227 7.61685C9.07907 7.53696 9.20656 7.40947 9.28645 7.25267C9.37728 7.07441 9.37728 6.84106 9.37728 6.37435V2.37435C9.37728 1.90764 9.37728 1.67428 9.28645 1.49602C9.20656 1.33922 9.07907 1.21174 8.92227 1.13184C8.74401 1.04102 8.51066 1.04102 8.04394 1.04102Z" fill="#98A2B3"/>
</svg>