<svg xmlns="http://www.w3.org/2000/svg" width="12" height="12" viewBox="0 0 12 12" fill="none">
  <path d="M4.5 8.99998V3.17768C4.5 2.93691 4.5 2.81653 4.5438 2.71889C4.58241 2.63282 4.64458 2.55943 4.72313 2.5072C4.81224 2.44794 4.93099 2.42815 5.16848 2.38857L9.56848 1.65523C9.88897 1.60182 10.0492 1.57511 10.1741 1.6215C10.2837 1.6622 10.3755 1.74002 10.4337 1.84143C10.5 1.95699 10.5 2.11944 10.5 2.44435V7.99998M4.5 8.99998C4.5 9.82841 3.82843 10.5 3 10.5C2.17157 10.5 1.5 9.82841 1.5 8.99998C1.5 8.17155 2.17157 7.49998 3 7.49998C3.82843 7.49998 4.5 8.17155 4.5 8.99998ZM10.5 7.99998C10.5 8.82841 9.82843 9.49998 9 9.49998C8.17157 9.49998 7.5 8.82841 7.5 7.99998C7.5 7.17155 8.17157 6.49998 9 6.49998C9.82843 6.49998 10.5 7.17155 10.5 7.99998Z" stroke="#EF6820" stroke-linecap="round" stroke-linejoin="round"/>
</svg>