<svg xmlns="http://www.w3.org/2000/svg" width="20" height="20" viewBox="0 0 20 20" fill="none">
  <path fill-rule="evenodd" clip-rule="evenodd" d="M7.44395 18.9596C5.20374 18.9596 4.08363 18.9596 3.22798 18.5237C2.47534 18.1402 1.86341 17.5282 1.47992 16.7756C1.04395 15.9199 1.04395 14.7998 1.04395 12.5596V10.293C1.04395 9.82626 1.04395 9.5929 1.13477 9.41464C1.21467 9.25784 1.34215 9.13036 1.49895 9.05046C1.67721 8.95964 1.91057 8.95964 2.37728 8.95964L8.04394 8.95963C8.51066 8.95963 8.74401 8.95963 8.92227 9.05046C9.07907 9.13036 9.20656 9.25784 9.28645 9.41464C9.37728 9.5929 9.37728 9.82626 9.37728 10.293V11.6599C9.37724 11.6626 9.37723 11.6653 9.37723 11.668C9.37723 11.6707 9.37724 11.6734 9.37728 11.676L9.37728 17.6263C9.37728 18.093 9.37728 18.3264 9.28645 18.5046C9.20656 18.6614 9.07907 18.7889 8.92227 18.8688C8.74401 18.9596 8.51066 18.9596 8.04395 18.9596H7.44395ZM11.9606 12.293C11.4939 12.293 11.2605 12.293 11.0823 12.3838C10.9255 12.4637 10.798 12.5912 10.7181 12.748C10.6273 12.9262 10.6273 13.1596 10.6273 13.6263L10.6273 17.6263C10.6273 18.093 10.6273 18.3264 10.7181 18.5046C10.798 18.6614 10.9255 18.7889 11.0823 18.8688C11.2605 18.9596 11.4939 18.9596 11.9606 18.9596H13.4434C14.855 18.9596 15.5609 18.9596 16.1347 18.7834C17.4026 18.3941 18.3951 17.4016 18.7844 16.1337C18.9606 15.5599 18.9606 14.8541 18.9606 13.4424C18.9606 13.1483 18.9606 13.0012 18.9239 12.8817C18.8428 12.6175 18.636 12.4108 18.3719 12.3297C18.2523 12.293 18.1053 12.293 17.8112 12.293H11.9606ZM17.6273 11.043C18.094 11.043 18.3273 11.043 18.5056 10.9521C18.6624 10.8722 18.7899 10.7448 18.8698 10.588C18.9606 10.4097 18.9606 10.1763 18.9606 9.70964V7.44297C18.9606 5.20276 18.9606 4.08265 18.5246 3.22701C18.1411 2.47436 17.5292 1.86244 16.7766 1.47894C15.9209 1.04297 14.8008 1.04297 12.5606 1.04297H11.9606C11.4939 1.04297 11.2605 1.04297 11.0823 1.1338C10.9255 1.21369 10.798 1.34117 10.7181 1.49798C10.6273 1.67624 10.6273 1.90959 10.6273 2.3763V8.33463V9.70964C10.6273 10.1763 10.6273 10.4097 10.7181 10.588C10.798 10.7448 10.9255 10.8722 11.0823 10.9521C11.2605 11.043 11.4939 11.043 11.9606 11.043H17.6273Z" fill="#5271E3"/>
  <path d="M8.04394 1.04297H6.56119C5.14952 1.04297 4.44368 1.04297 3.86985 1.21916C2.60194 1.60847 1.60945 2.60096 1.22014 3.86888C1.04395 4.4427 1.04395 5.14854 1.04395 6.56021C1.04395 6.85431 1.04395 7.00136 1.08065 7.1209C1.16176 7.38505 1.36853 7.59182 1.63268 7.67293C1.75222 7.70964 1.89927 7.70964 2.19337 7.70964L8.04395 7.70963C8.51066 7.70963 8.74401 7.70963 8.92227 7.61881C9.07907 7.53891 9.20656 7.41143 9.28645 7.25463C9.37728 7.07637 9.37728 6.84301 9.37728 6.3763V2.3763C9.37728 1.90959 9.37728 1.67624 9.28645 1.49798C9.20656 1.34117 9.07907 1.21369 8.92227 1.1338C8.74401 1.04297 8.51066 1.04297 8.04394 1.04297Z" fill="#3250BD"/>
</svg>