<svg xmlns="http://www.w3.org/2000/svg" width="12" height="12" viewBox="0 0 12 12" fill="none">
  <g clip-path="url(#clip0_17759_67719)">
    <path d="M6 10.2361C6.53075 10.7112 7.23164 11 8 11C9.65685 11 11 9.65686 11 8.00001C11 6.61654 10.0635 5.45179 8.78991 5.10509M3.21009 5.10508C1.93647 5.45179 1 6.61653 1 8C1 9.65685 2.34315 11 4 11C5.65685 11 7 9.65685 7 8C7 7.60975 6.92549 7.23691 6.78991 6.89492M9 4C9 5.65685 7.65685 7 6 7C4.34315 7 3 5.65685 3 4C3 2.34315 4.34315 1 6 1C7.65685 1 9 2.34315 9 4Z" stroke="#FF4405" stroke-linecap="round" stroke-linejoin="round"/>
  </g>
  <defs>
    <clipPath id="clip0_17759_67719">
      <rect width="12" height="12" fill="white"/>
    </clipPath>
  </defs>
</svg>