<svg xmlns="http://www.w3.org/2000/svg" width="12" height="12" viewBox="0 0 12 12" fill="none">
  <path d="M6 10H2.6C2.03995 10 1.75992 10 1.54601 9.89101C1.35785 9.79513 1.20487 9.64215 1.10899 9.45399C1 9.24008 1 8.96005 1 8.4V3.6C1 3.03995 1 2.75992 1.10899 2.54601C1.20487 2.35785 1.35785 2.20487 1.54601 2.10899C1.75992 2 2.03995 2 2.6 2H2.8C3.9201 2 4.48016 2 4.90798 2.21799C5.28431 2.40973 5.59027 2.71569 5.78201 3.09202C6 3.51984 6 4.0799 6 5.2M6 10V5.2M6 10H9.4C9.96005 10 10.2401 10 10.454 9.89101C10.6422 9.79513 10.7951 9.64215 10.891 9.45399C11 9.24008 11 8.96005 11 8.4V3.6C11 3.03995 11 2.75992 10.891 2.54601C10.7951 2.35785 10.6422 2.20487 10.454 2.10899C10.2401 2 9.96005 2 9.4 2H9.2C8.07989 2 7.51984 2 7.09202 2.21799C6.71569 2.40973 6.40973 2.71569 6.21799 3.09202C6 3.51984 6 4.0799 6 5.2" stroke="#66C61C" stroke-linecap="round" stroke-linejoin="round"/>
</svg>