<svg xmlns="http://www.w3.org/2000/svg" width="18" height="18" viewBox="0 0 18 18" fill="none">
  <g clip-path="url(#clip0_19318_99338)">
    <rect opacity="0.12" x="1.5" y="1.5" width="15" height="15" rx="5" fill="#4D6AD6"/>
    <path d="M5.25 12.75L12.75 12.75M5.25 9L9.75 9M5.25 5.25L12.75 5.25M9 16.5V16.5C11.3297 16.5 12.4946 16.5 13.4134 16.1194C14.6386 15.6119 15.6119 14.6386 16.1194 13.4134C16.5 12.4946 16.5 11.3297 16.5 9V9C16.5 6.67029 16.5 5.50544 16.1194 4.58658C15.6119 3.36144 14.6386 2.38807 13.4134 1.8806C12.4946 1.5 11.3297 1.5 9 1.5V1.5C6.67029 1.5 5.50544 1.5 4.58658 1.8806C3.36144 2.38807 2.38807 3.36144 1.8806 4.58658C1.5 5.50544 1.5 6.67029 1.5 9V9C1.5 11.3297 1.5 12.4946 1.8806 13.4134C2.38807 14.6386 3.36144 15.6119 4.58659 16.1194C5.50544 16.5 6.67029 16.5 9 16.5Z" stroke="#4D6AD6" stroke-width="1.5" stroke-linecap="round" stroke-linejoin="round"/>
  </g>
  <defs>
    <clipPath id="clip0_19318_99338">
      <rect width="18" height="18" fill="white"/>
    </clipPath>
  </defs>
</svg>