<svg xmlns="http://www.w3.org/2000/svg" width="20" height="20" viewBox="0 0 20 20" fill="none">
  <path fill-rule="evenodd" clip-rule="evenodd" d="M11.0387 2.09097C11.0387 1.51079 10.5773 1.04102 9.99713 1.04102H9.10801C6.8678 1.04102 5.74769 1.04102 4.89205 1.47699C4.1394 1.86048 3.52748 2.47241 3.14398 3.22505C2.70801 4.0807 2.70801 5.20081 2.70801 7.44101V12.5577C2.70801 14.7979 2.70801 15.918 3.14398 16.7736C3.52748 17.5263 4.1394 18.1382 4.89205 18.5217C5.74769 18.9577 6.8678 18.9577 9.108 18.9577H10.8913C13.1316 18.9577 14.2517 18.9577 15.1073 18.5217C15.86 18.1382 16.4719 17.5263 16.8554 16.7736C17.2913 15.918 17.2913 14.7979 17.2913 12.5577V8.33522C17.2913 7.75504 16.8216 7.29362 16.2414 7.29362H14.305C13.8599 7.29363 13.4884 7.29364 13.1848 7.26884C12.8683 7.24297 12.5711 7.18705 12.29 7.04384C11.8588 6.82413 11.5082 6.47355 11.2885 6.04235C11.1453 5.7613 11.0894 5.46408 11.0635 5.14751C11.0387 4.84399 11.0387 4.47246 11.0387 4.02734V2.09097ZM7.49707 9.37695C7.15189 9.37695 6.87207 9.65678 6.87207 10.002C6.87207 10.3471 7.15189 10.627 7.49707 10.627H12.4971C12.8422 10.627 13.1221 10.3471 13.1221 10.002C13.1221 9.65678 12.8422 9.37695 12.4971 9.37695H7.49707ZM7.49707 12.7103C7.15189 12.7103 6.87207 12.9901 6.87207 13.3353C6.87207 13.6805 7.15189 13.9603 7.49707 13.9603H10.8304C11.1756 13.9603 11.4554 13.6805 11.4554 13.3353C11.4554 12.9901 11.1756 12.7103 10.8304 12.7103H7.49707Z" fill="#D0D5DD"/>
  <path d="M17.0978 6.04705C16.9958 5.72446 16.8548 5.41514 16.6777 5.12604C16.42 4.70556 16.0597 4.34524 15.339 3.62461L14.7115 2.99707C13.9909 2.27645 13.6306 1.91612 13.2101 1.65845C12.921 1.48129 12.6117 1.34027 12.2891 1.23828V4.00539C12.2891 4.48241 12.2895 4.80259 12.3097 5.04915C12.3292 5.28842 12.3641 5.40282 12.4026 5.47829C12.5025 5.67429 12.6618 5.83365 12.8578 5.93352C12.9333 5.97197 13.0477 6.00687 13.287 6.02642C13.5335 6.04657 13.8537 6.04705 14.3307 6.04705H17.0978Z" fill="#98A2B3"/>
</svg>