<svg xmlns="http://www.w3.org/2000/svg" width="20" height="20" viewBox="0 0 20 20" fill="none">
  <path fill-rule="evenodd" clip-rule="evenodd" d="M11.039 2.09097C11.039 1.51079 10.5776 1.04102 9.99738 1.04102H9.10825C6.86804 1.04102 5.74794 1.04102 4.89229 1.47699C4.13964 1.86048 3.52772 2.47241 3.14423 3.22505C2.70825 4.0807 2.70825 5.20081 2.70825 7.44101V12.5577C2.70825 14.7979 2.70825 15.918 3.14423 16.7736C3.52772 17.5263 4.13964 18.1382 4.89229 18.5217C5.74794 18.9577 6.86804 18.9577 9.10825 18.9577H10.8916C13.1318 18.9577 14.2519 18.9577 15.1075 18.5217C15.8602 18.1382 16.4721 17.5263 16.8556 16.7736C17.2916 15.918 17.2916 14.7979 17.2916 12.5577V8.33522C17.2916 7.75504 16.8218 7.29362 16.2416 7.29362H14.3053C13.8602 7.29363 13.4886 7.29364 13.1851 7.26884C12.8685 7.24297 12.5713 7.18705 12.2903 7.04384C11.859 6.82413 11.5085 6.47355 11.2888 6.04235C11.1456 5.7613 11.0896 5.46408 11.0638 5.14751C11.039 4.84399 11.039 4.47246 11.039 4.02734V2.09097ZM7.49731 9.37695C7.15214 9.37695 6.87231 9.65678 6.87231 10.002C6.87231 10.3471 7.15214 10.627 7.49731 10.627H12.4973C12.8425 10.627 13.1223 10.3471 13.1223 10.002C13.1223 9.65678 12.8425 9.37695 12.4973 9.37695H7.49731ZM7.49731 12.7103C7.15214 12.7103 6.87231 12.9901 6.87231 13.3353C6.87231 13.6805 7.15214 13.9603 7.49731 13.9603H10.8306C11.1758 13.9603 11.4556 13.6805 11.4556 13.3353C11.4556 12.9901 11.1758 12.7103 10.8306 12.7103H7.49731Z" fill="#5271E3"/>
  <path d="M17.0978 6.04705C16.9958 5.72446 16.8548 5.41514 16.6777 5.12604C16.42 4.70556 16.0597 4.34524 15.339 3.62461L14.7115 2.99707C13.9909 2.27645 13.6306 1.91612 13.2101 1.65845C12.921 1.48129 12.6117 1.34027 12.2891 1.23828V4.00539C12.2891 4.48241 12.2895 4.80259 12.3097 5.04915C12.3292 5.28842 12.3641 5.40282 12.4026 5.47829C12.5025 5.67429 12.6618 5.83365 12.8578 5.93352C12.9333 5.97197 13.0477 6.00687 13.287 6.02642C13.5335 6.04657 13.8537 6.04705 14.3307 6.04705H17.0978Z" fill="#3250BD"/>
</svg>