<svg xmlns="http://www.w3.org/2000/svg" width="16" height="16" viewBox="0 0 16 16" fill="none">
  <path d="M2.66675 4.53398C2.66675 3.41388 2.66675 2.85383 2.88474 2.426C3.07648 2.04968 3.38244 1.74372 3.75877 1.55197C4.18659 1.33398 4.74664 1.33398 5.86675 1.33398H8.00793C8.49711 1.33398 8.7417 1.33398 8.97188 1.38924C9.17595 1.43824 9.37104 1.51905 9.54998 1.6287C9.75182 1.75239 9.92477 1.92534 10.2707 2.27124L12.3962 4.39673C12.7421 4.74263 12.915 4.91558 13.0387 5.11741C13.1484 5.29636 13.2292 5.49145 13.2782 5.69552C13.3334 5.9257 13.3334 6.17029 13.3334 6.65947V11.4673C13.3334 12.5874 13.3334 13.1475 13.1154 13.5753C12.9237 13.9516 12.6177 14.2576 12.2414 14.4493C11.8136 14.6673 11.2535 14.6673 10.1334 14.6673H5.86675C4.74664 14.6673 4.18659 14.6673 3.75877 14.4493C3.38244 14.2576 3.07648 13.9516 2.88474 13.5753C2.66675 13.1475 2.66675 12.5874 2.66675 11.4673V4.53398Z" fill="#F2F4F7"/>
  <path d="M9.33341 1.51367V4.26737C9.33341 4.64073 9.33341 4.82742 9.40608 4.97003C9.46999 5.09547 9.57198 5.19745 9.69742 5.26137C9.84003 5.33403 10.0267 5.33403 10.4001 5.33403H13.1538M9.33341 11.334H5.33341M10.6667 8.66732H5.33341M13.3334 6.65947V11.4673C13.3334 12.5874 13.3334 13.1475 13.1154 13.5753C12.9237 13.9516 12.6177 14.2576 12.2414 14.4493C11.8136 14.6673 11.2535 14.6673 10.1334 14.6673H5.86675C4.74664 14.6673 4.18659 14.6673 3.75877 14.4493C3.38244 14.2576 3.07648 13.9516 2.88474 13.5753C2.66675 13.1475 2.66675 12.5874 2.66675 11.4673V4.53398C2.66675 3.41388 2.66675 2.85383 2.88474 2.426C3.07648 2.04968 3.38244 1.74372 3.75877 1.55197C4.18659 1.33398 4.74664 1.33398 5.86675 1.33398H8.00793C8.49711 1.33398 8.7417 1.33398 8.97188 1.38924C9.17595 1.43824 9.37104 1.51905 9.54998 1.6287C9.75182 1.75239 9.92477 1.92534 10.2707 2.27124L12.3962 4.39673C12.7421 4.74263 12.915 4.91558 13.0387 5.11741C13.1484 5.29636 13.2292 5.49145 13.2782 5.69552C13.3334 5.9257 13.3334 6.17029 13.3334 6.65947Z" stroke="#667085" stroke-width="1.33333" stroke-linecap="round" stroke-linejoin="round"/>
</svg>