<svg xmlns="http://www.w3.org/2000/svg" width="12" height="12" viewBox="0 0 12 12" fill="none">
  <g clip-path="url(#clip0_17759_67715)">
    <path d="M4.49999 5.60973L6.38888 7.49862M3.98742 10.4861C3.30401 11.1695 2 10.9986 1 10.9986C1.51255 9.99862 0.829133 8.6946 1.51255 8.01118C2.19597 7.32777 3.30401 7.32777 3.98742 8.01118C4.67084 8.6946 4.67084 9.80264 3.98742 10.4861ZM5.9608 7.96093L10.5294 3.02689C10.9317 2.59231 10.9188 1.91742 10.5 1.49862C10.0812 1.07983 9.40629 1.06685 8.9717 1.46924L4.03767 6.03779C3.7827 6.27387 3.65522 6.39192 3.58086 6.51781C3.40257 6.81969 3.3954 7.19289 3.56196 7.50141C3.63141 7.63006 3.75427 7.75291 3.99997 7.99862C4.24568 8.24433 4.36853 8.36718 4.49719 8.43664C4.8057 8.6032 5.17891 8.59602 5.48079 8.41773C5.60668 8.34338 5.72472 8.2159 5.9608 7.96093Z" stroke="#06AED4" stroke-linecap="round" stroke-linejoin="round"/>
  </g>
  <defs>
    <clipPath id="clip0_17759_67715">
      <rect width="12" height="12" fill="white"/>
    </clipPath>
  </defs>
</svg>