<svg xmlns="http://www.w3.org/2000/svg" width="12" height="12" viewBox="0 0 12 12" fill="none">
  <path d="M4.75 4.48267C4.75 4.24402 4.75 4.1247 4.79987 4.05809C4.84333 4.00004 4.90986 3.96372 4.98219 3.95855C5.06519 3.95262 5.16556 4.01715 5.3663 4.14619L7.7266 5.66353C7.90079 5.77551 7.98789 5.8315 8.01797 5.9027C8.04426 5.9649 8.04426 6.0351 8.01797 6.0973C7.98789 6.1685 7.90079 6.22449 7.7266 6.33647L5.3663 7.85381C5.16556 7.98285 5.06519 8.04738 4.98219 8.04145C4.90986 8.03628 4.84333 7.99996 4.79987 7.94191C4.75 7.8753 4.75 7.75598 4.75 7.51733V4.48267Z" stroke="#6172F3" stroke-linecap="round" stroke-linejoin="round"/>
  <path d="M1.5 3.9C1.5 3.05992 1.5 2.63988 1.66349 2.31901C1.8073 2.03677 2.03677 1.8073 2.31901 1.66349C2.63988 1.5 3.05992 1.5 3.9 1.5H8.1C8.94008 1.5 9.36012 1.5 9.68099 1.66349C9.96323 1.8073 10.1927 2.03677 10.3365 2.31901C10.5 2.63988 10.5 3.05992 10.5 3.9V8.1C10.5 8.94008 10.5 9.36012 10.3365 9.68099C10.1927 9.96323 9.96323 10.1927 9.68099 10.3365C9.36012 10.5 8.94008 10.5 8.1 10.5H3.9C3.05992 10.5 2.63988 10.5 2.31901 10.3365C2.03677 10.1927 1.8073 9.96323 1.66349 9.68099C1.5 9.36012 1.5 8.94008 1.5 8.1V3.9Z" stroke="#6172F3" stroke-linecap="round" stroke-linejoin="round"/>
</svg>