<svg width="12" height="12" viewBox="0 0 12 12" fill="none" xmlns="http://www.w3.org/2000/svg">
<g id="hourglass-03">
<path id="Icon" d="M4.5 9.25H7.5M3.3 1H8.7C8.98003 1 9.12004 1 9.227 1.0545C9.32108 1.10243 9.39757 1.17892 9.4455 1.273C9.5 1.37996 9.5 1.51997 9.5 1.8V2.83726C9.5 3.08185 9.5 3.20414 9.47237 3.31923C9.44787 3.42127 9.40747 3.51881 9.35264 3.60828C9.2908 3.7092 9.20432 3.79568 9.03137 3.96863L7.56569 5.43431C7.36768 5.63232 7.26867 5.73133 7.23158 5.84549C7.19895 5.94591 7.19895 6.05409 7.23158 6.15451C7.26867 6.26867 7.36768 6.36768 7.56568 6.56568L9.03137 8.03137C9.20432 8.20432 9.2908 8.2908 9.35264 8.39172C9.40747 8.48119 9.44787 8.57873 9.47237 8.68077C9.5 8.79586 9.5 8.91815 9.5 9.16274V10.2C9.5 10.48 9.5 10.62 9.4455 10.727C9.39757 10.8211 9.32108 10.8976 9.227 10.9455C9.12004 11 8.98003 11 8.7 11H3.3C3.01997 11 2.87996 11 2.773 10.9455C2.67892 10.8976 2.60243 10.8211 2.5545 10.727C2.5 10.62 2.5 10.48 2.5 10.2V9.16274C2.5 8.91815 2.5 8.79586 2.52763 8.68077C2.55213 8.57873 2.59253 8.48119 2.64736 8.39172C2.7092 8.2908 2.79568 8.20432 2.96863 8.03137L4.43432 6.56568C4.63232 6.36768 4.73133 6.26867 4.76842 6.15451C4.80105 6.05409 4.80105 5.94591 4.76842 5.84549C4.73133 5.73133 4.63232 5.63232 4.43431 5.43431L2.96863 3.96863C2.79568 3.79568 2.7092 3.7092 2.64736 3.60828C2.59253 3.51881 2.55213 3.42127 2.52763 3.31923C2.5 3.20414 2.5 3.08185 2.5 2.83726V1.8C2.5 1.51997 2.5 1.37996 2.5545 1.273C2.60243 1.17892 2.67892 1.10243 2.773 1.0545C2.87996 1 3.01997 1 3.3 1Z" stroke="#4E5BA6" stroke-width="1.5" stroke-linecap="round" stroke-linejoin="round"/>
</g>
</svg>
