<?xml version="1.0" standalone="no"?>
<!DOCTYPE svg PUBLIC "-//W3C//DTD SVG 20010904//EN"
 "http://www.w3.org/TR/2001/REC-SVG-20010904/DTD/svg10.dtd">
<svg version="1.0" xmlns="http://www.w3.org/2000/svg"
 width="1024.000000pt" height="1024.000000pt" viewBox="0 0 1024.000000 1024.000000"
 preserveAspectRatio="xMidYMid meet">

<g transform="translate(0.000000,1024.000000) scale(0.100000,-0.100000)"
fill="#000000" stroke="none">
<path d="M1140 6845 l0 -1135 565 0 565 0 0 565 0 565 570 0 570 0 0 570 0
570 -1135 0 -1135 0 0 -1135z"/>
<path d="M6830 7410 l0 -570 570 0 570 0 0 -565 0 -565 565 0 565 0 0 1135 0
1135 -1135 0 -1135 0 0 -570z"/>
<path d="M0 5135 l0 -565 570 0 570 0 0 565 0 565 -570 0 -570 0 0 -565z"/>
<path d="M9100 5135 l0 -565 570 0 570 0 0 565 0 565 -570 0 -570 0 0 -565z"/>
<path d="M1140 3425 l0 -1135 1135 0 1135 0 0 565 0 565 -567 2 -568 3 -3 568
-2 567 -565 0 -565 0 0 -1135z"/>
<path d="M4550 3995 l0 -565 570 0 570 0 0 565 0 565 -570 0 -570 0 0 -565z"/>
<path d="M7968 3993 l-3 -568 -567 -3 -568 -2 0 -565 0 -565 1135 0 1135 0 0
1135 0 1135 -565 0 -565 0 -2 -567z"/>
</g>
</svg>
