<svg xmlns="http://www.w3.org/2000/svg" width="24" height="24" viewBox="0 0 24 24" fill="none">
  <g clip-path="url(#clip0_9211_45434)">
    <path d="M5.04235 15.1662C5.04235 16.5538 3.90879 17.6874 2.52117 17.6874C1.13355 17.6874 0 16.5538 0 15.1662C0 13.7786 1.13355 12.645 2.52117 12.645H5.04235V15.1662Z" fill="#E01E5A"/>
    <path d="M6.31274 15.1662C6.31274 13.7786 7.44629 12.645 8.83392 12.645C10.2215 12.645 11.3551 13.7786 11.3551 15.1662V21.4789C11.3551 22.8665 10.2215 24.0001 8.83392 24.0001C7.44629 24.0001 6.31274 22.8665 6.31274 21.4789V15.1662Z" fill="#E01E5A"/>
    <path d="M8.83392 5.04235C7.44629 5.04235 6.31274 3.90879 6.31274 2.52117C6.31274 1.13355 7.44629 0 8.83392 0C10.2215 0 11.3551 1.13355 11.3551 2.52117V5.04235H8.83392Z" fill="#36C5F0"/>
    <path d="M8.83388 6.3125C10.2215 6.3125 11.355 7.44605 11.355 8.83367C11.355 10.2213 10.2215 11.3548 8.83388 11.3548H2.52117C1.13355 11.3548 0 10.2213 0 8.83367C0 7.44605 1.13355 6.3125 2.52117 6.3125H8.83388Z" fill="#36C5F0"/>
    <path d="M18.9576 8.83367C18.9576 7.44605 20.0912 6.3125 21.4788 6.3125C22.8664 6.3125 24 7.44605 24 8.83367C24 10.2213 22.8664 11.3548 21.4788 11.3548H18.9576V8.83367Z" fill="#2EB67D"/>
    <path d="M17.6872 8.83388C17.6872 10.2215 16.5537 11.355 15.1661 11.355C13.7784 11.355 12.6449 10.2215 12.6449 8.83388V2.52117C12.6449 1.13355 13.7784 0 15.1661 0C16.5537 0 17.6872 1.13355 17.6872 2.52117V8.83388Z" fill="#2EB67D"/>
    <path d="M15.1661 18.9575C16.5537 18.9575 17.6872 20.0911 17.6872 21.4787C17.6872 22.8663 16.5537 23.9999 15.1661 23.9999C13.7784 23.9999 12.6449 22.8663 12.6449 21.4787V18.9575H15.1661Z" fill="#ECB22E"/>
    <path d="M15.1661 17.6874C13.7784 17.6874 12.6449 16.5538 12.6449 15.1662C12.6449 13.7786 13.7784 12.645 15.1661 12.645H21.4788C22.8664 12.645 23.9999 13.7786 23.9999 15.1662C23.9999 16.5538 22.8664 17.6874 21.4788 17.6874H15.1661Z" fill="#ECB22E"/>
  </g>
  <defs>
    <clipPath id="clip0_9211_45434">
      <rect width="24" height="24" fill="white"/>
    </clipPath>
  </defs>
</svg>
