<svg width="25" height="24" viewBox="0 0 25 24" fill="none" xmlns="http://www.w3.org/2000/svg">
<g clip-path="url(#clip0_33959_430327)">
<path d="M3.28027 11.3107L12.442 2.14893C13.7071 0.883951 15.758 0.883951 17.0229 2.14893C18.288 3.4139 18.288 5.46483 17.0229 6.72981L10.1039 13.6489" stroke="black" stroke-width="2" stroke-linecap="round"/>
<path d="M10.1992 13.5536L17.0228 6.72998C18.2879 5.46501 20.3388 5.46501 21.6038 6.72998L21.6515 6.7777C22.9165 8.04268 22.9165 10.0936 21.6515 11.3586L13.3655 19.6446C12.9438 20.0663 12.9438 20.7499 13.3655 21.1715L15.0668 22.8729" stroke="black" stroke-width="2" stroke-linecap="round"/>
<path d="M14.7324 4.43945L7.95654 11.2153C6.69157 12.4803 6.69157 14.5312 7.95654 15.7962C9.22152 17.0611 11.2724 17.0611 12.5374 15.7962L19.3133 9.02032" stroke="black" stroke-width="2" stroke-linecap="round"/>
</g>
<defs>
<clipPath id="clip0_33959_430327">
<rect width="24" height="24" fill="white" transform="translate(0.5)"/>
</clipPath>
</defs>
</svg>
