<svg xmlns="http://www.w3.org/2000/svg" width="16" height="16" viewBox="0 0 16 16" fill="none"><g opacity="0.12"><path d="M1.3335 4.00065C1.3335 3.17231 1.3335 2.75814 1.46882 2.43144C1.64925 1.99583 1.99534 1.64974 2.43095 1.46931C2.75765 1.33398 3.17182 1.33398 4.00016 1.33398C4.8285 1.33398 5.24267 1.33398 5.56938 1.46931C6.00498 1.64974 6.35107 1.99583 6.5315 2.43144C6.66683 2.75814 6.66683 3.17231 6.66683 4.00065C6.66683 4.82899 6.66683 5.24316 6.5315 5.56987C6.35107 6.00547 6.00498 6.35156 5.56938 6.53199C5.24267 6.66732 4.8285 6.66732 4.00016 6.66732C3.17182 6.66732 2.75765 6.66732 2.43095 6.53199C1.99534 6.35156 1.64925 6.00547 1.46882 5.56987C1.3335 5.24316 1.3335 4.82899 1.3335 4.00065Z" fill="#7B58CF"/><path d="M1.3335 12.0007C1.3335 11.1723 1.3335 10.7581 1.46882 10.4314C1.64925 9.99583 1.99534 9.64974 2.43095 9.46931C2.75765 9.33398 3.17182 9.33398 4.00016 9.33398C4.8285 9.33398 5.24267 9.33398 5.56938 9.46931C6.00498 9.64974 6.35107 9.99583 6.5315 10.4314C6.66683 10.7581 6.66683 11.1723 6.66683 12.0007C6.66683 12.829 6.66683 13.2432 6.5315 13.5699C6.35107 14.0055 6.00498 14.3516 5.56938 14.532C5.24267 14.6673 4.8285 14.6673 4.00016 14.6673C3.17182 14.6673 2.75765 14.6673 2.43095 14.532C1.99534 14.3516 1.64925 14.0055 1.46882 13.5699C1.3335 13.2432 1.3335 12.829 1.3335 12.0007Z" fill="#7B58CF"/><path d="M9.3335 12.0007C9.3335 11.1723 9.3335 10.7581 9.46882 10.4314C9.64925 9.99583 9.99534 9.64974 10.4309 9.46931C10.7577 9.33398 11.1718 9.33398 12.0002 9.33398C12.8285 9.33398 13.2427 9.33398 13.5694 9.46931C14.005 9.64974 14.3511 9.99583 14.5315 10.4314C14.6668 10.7581 14.6668 11.1723 14.6668 12.0007C14.6668 12.829 14.6668 13.2432 14.5315 13.5699C14.3511 14.0055 14.005 14.3516 13.5694 14.532C13.2427 14.6673 12.8285 14.6673 12.0002 14.6673C11.1718 14.6673 10.7577 14.6673 10.4309 14.532C9.99534 14.3516 9.64925 14.0055 9.46882 13.5699C9.3335 13.2432 9.3335 12.829 9.3335 12.0007Z" fill="#7B58CF"/></g><path d="M1.3335 4.00065C1.3335 3.17231 1.3335 2.75814 1.46882 2.43144C1.64925 1.99583 1.99534 1.64974 2.43095 1.46931C2.75765 1.33398 3.17182 1.33398 4.00016 1.33398V1.33398C4.8285 1.33398 5.24267 1.33398 5.56938 1.46931C6.00498 1.64974 6.35107 1.99583 6.5315 2.43144C6.66683 2.75814 6.66683 3.17231 6.66683 4.00065V4.00065C6.66683 4.82899 6.66683 5.24316 6.5315 5.56987C6.35107 6.00547 6.00498 6.35156 5.56938 6.53199C5.24267 6.66732 4.8285 6.66732 4.00016 6.66732V6.66732C3.17182 6.66732 2.75765 6.66732 2.43095 6.53199C1.99534 6.35156 1.64925 6.00547 1.46882 5.56987C1.3335 5.24316 1.3335 4.82899 1.3335 4.00065V4.00065Z" stroke="#7B58CF" stroke-linecap="round" stroke-linejoin="round"/><path d="M9.3335 4.00065C9.3335 3.17231 9.3335 2.75814 9.46882 2.43144C9.64925 1.99583 9.99534 1.64974 10.4309 1.46931C10.7577 1.33398 11.1718 1.33398 12.0002 1.33398V1.33398C12.8285 1.33398 13.2427 1.33398 13.5694 1.46931C14.005 1.64974 14.3511 1.99583 14.5315 2.43144C14.6668 2.75814 14.6668 3.17231 14.6668 4.00065V4.00065C14.6668 4.82899 14.6668 5.24316 14.5315 5.56987C14.3511 6.00547 14.005 6.35156 13.5694 6.53199C13.2427 6.66732 12.8285 6.66732 12.0002 6.66732V6.66732C11.1718 6.66732 10.7577 6.66732 10.4309 6.53199C9.99534 6.35156 9.64925 6.00547 9.46882 5.56987C9.3335 5.24316 9.3335 4.82899 9.3335 4.00065V4.00065Z" stroke="#7B58CF" stroke-linecap="round" stroke-linejoin="round"/><path d="M1.3335 12.0007C1.3335 11.1723 1.3335 10.7581 1.46882 10.4314C1.64925 9.99583 1.99534 9.64974 2.43095 9.46931C2.75765 9.33398 3.17182 9.33398 4.00016 9.33398V9.33398C4.8285 9.33398 5.24267 9.33398 5.56938 9.46931C6.00498 9.64974 6.35107 9.99583 6.5315 10.4314C6.66683 10.7581 6.66683 11.1723 6.66683 12.0007V12.0007C6.66683 12.829 6.66683 13.2432 6.5315 13.5699C6.35107 14.0055 6.00498 14.3516 5.56938 14.532C5.24267 14.6673 4.8285 14.6673 4.00016 14.6673V14.6673C3.17182 14.6673 2.75765 14.6673 2.43095 14.532C1.99534 14.3516 1.64925 14.0055 1.46882 13.5699C1.3335 13.2432 1.3335 12.829 1.3335 12.0007V12.0007Z" stroke="#7B58CF" stroke-linecap="round" stroke-linejoin="round"/><path d="M9.3335 12.0007C9.3335 11.1723 9.3335 10.7581 9.46882 10.4314C9.64925 9.99583 9.99534 9.64974 10.4309 9.46931C10.7577 9.33398 11.1718 9.33398 12.0002 9.33398V9.33398C12.8285 9.33398 13.2427 9.33398 13.5694 9.46931C14.005 9.64974 14.3511 9.99583 14.5315 10.4314C14.6668 10.7581 14.6668 11.1723 14.6668 12.0007V12.0007C14.6668 12.829 14.6668 13.2432 14.5315 13.5699C14.3511 14.0055 14.005 14.3516 13.5694 14.532C13.2427 14.6673 12.8285 14.6673 12.0002 14.6673V14.6673C11.1718 14.6673 10.7577 14.6673 10.4309 14.532C9.99534 14.3516 9.64925 14.0055 9.46882 13.5699C9.3335 13.2432 9.3335 12.829 9.3335 12.0007V12.0007Z" stroke="#7B58CF" stroke-linecap="round" stroke-linejoin="round"/></svg>
