<svg width="44" height="44" viewBox="0 0 44 44" fill="none" xmlns="http://www.w3.org/2000/svg">
<g filter="url(#filter0_d_36366_526686)">
<rect x="2" y="1" width="40" height="40" rx="8" fill="white" shape-rendering="crispEdges"/>
<rect x="2.5" y="1.5" width="39" height="39" rx="7.5" stroke="#EAECF0" shape-rendering="crispEdges"/>
<path d="M19.8294 27.1419L20.3164 28.2373C20.4612 28.5634 20.6975 28.8404 20.9966 29.0349C21.2957 29.2293 21.6448 29.3327 22.0016 29.3327C22.3583 29.3327 22.7075 29.2293 23.0066 29.0349C23.3057 28.8404 23.542 28.5634 23.6868 28.2373L24.1738 27.1419C24.3472 26.7533 24.6388 26.4292 25.0071 26.216C25.3778 26.0022 25.8066 25.9111 26.2321 25.9558L27.4238 26.0827C27.7785 26.1202 28.1365 26.054 28.4544 25.8921C28.7722 25.7302 29.0363 25.4796 29.2145 25.1706C29.393 24.8619 29.4781 24.5079 29.4593 24.1518C29.4406 23.7956 29.3189 23.4525 29.109 23.1642L28.4034 22.1947C28.1522 21.847 28.018 21.4284 28.0201 20.9993C28.02 20.5715 28.1555 20.1546 28.4071 19.8086L29.1127 18.8392C29.3226 18.5508 29.4443 18.2077 29.463 17.8516C29.4818 17.4954 29.3967 17.1415 29.2183 16.8327C29.04 16.5237 28.7759 16.2731 28.4581 16.1112C28.1402 15.9493 27.7822 15.8831 27.4275 15.9206L26.2358 16.0475C25.8103 16.0922 25.3815 16.0011 25.0108 15.7873C24.6418 15.5729 24.3501 15.2471 24.1775 14.8568L23.6868 13.7614C23.542 13.4353 23.3057 13.1583 23.0066 12.9638C22.7075 12.7694 22.3583 12.666 22.0016 12.666C21.6448 12.666 21.2957 12.7694 20.9966 12.9638C20.6975 13.1583 20.4612 13.4353 20.3164 13.7614L19.8294 14.8568C19.6568 15.2471 19.3651 15.5729 18.996 15.7873C18.6254 16.0011 18.1966 16.0922 17.771 16.0475L16.5757 15.9206C16.2209 15.8831 15.8629 15.9493 15.5451 16.1112C15.2272 16.2731 14.9632 16.5237 14.7849 16.8327C14.6064 17.1415 14.5214 17.4954 14.5401 17.8516C14.5589 18.2077 14.6806 18.5508 14.8905 18.8392L15.596 19.8086C15.8476 20.1546 15.9831 20.5715 15.9831 20.9993C15.9831 21.4272 15.8476 21.8441 15.596 22.1901L14.8905 23.1595C14.6806 23.4479 14.5589 23.791 14.5401 24.1471C14.5214 24.5033 14.6064 24.8572 14.7849 25.166C14.9633 25.4748 15.2274 25.7253 15.5453 25.8872C15.8631 26.049 16.221 26.1153 16.5757 26.0781L17.7673 25.9512C18.1929 25.9065 18.6217 25.9976 18.9923 26.2114C19.3628 26.4252 19.6558 26.751 19.8294 27.1419Z" stroke="#2F384C" stroke-width="1.5" stroke-linecap="round" stroke-linejoin="round"/>
<path d="M22.0001 23.4993C23.3808 23.4993 24.5001 22.3801 24.5001 20.9993C24.5001 19.6186 23.3808 18.4993 22.0001 18.4993C20.6194 18.4993 19.5001 19.6186 19.5001 20.9993C19.5001 22.3801 20.6194 23.4993 22.0001 23.4993Z" stroke="#2F384C" stroke-width="1.5" stroke-linecap="round" stroke-linejoin="round"/>
</g>
<defs>
<filter id="filter0_d_36366_526686" x="0" y="0" width="44" height="44" filterUnits="userSpaceOnUse" color-interpolation-filters="sRGB">
<feFlood flood-opacity="0" result="BackgroundImageFix"/>
<feColorMatrix in="SourceAlpha" type="matrix" values="0 0 0 0 0 0 0 0 0 0 0 0 0 0 0 0 0 0 127 0" result="hardAlpha"/>
<feOffset dy="1"/>
<feGaussianBlur stdDeviation="1"/>
<feComposite in2="hardAlpha" operator="out"/>
<feColorMatrix type="matrix" values="0 0 0 0 0.0627451 0 0 0 0 0.0941176 0 0 0 0 0.156863 0 0 0 0.05 0"/>
<feBlend mode="normal" in2="BackgroundImageFix" result="effect1_dropShadow_36366_526686"/>
<feBlend mode="normal" in="SourceGraphic" in2="effect1_dropShadow_36366_526686" result="shape"/>
</filter>
</defs>
</svg>
