<svg width="16" height="16" viewBox="0 0 16 16" fill="none" xmlns="http://www.w3.org/2000/svg">
<path d="M7.33301 4.93203V9.73203M7.33301 4.93203H4.93301M7.33301 4.93203H9.73301M5.33301 13.332C4.71367 13.332 4.404 13.332 4.14489 13.291C2.71858 13.0651 1.59995 11.9465 1.37405 10.5201C1.33301 10.261 1.33301 9.95137 1.33301 9.33203V6.66536C1.33301 4.79852 1.33301 3.8651 1.69632 3.15206C2.0159 2.52486 2.52583 2.01492 3.15304 1.69534C3.86608 1.33203 4.7995 1.33203 6.66634 1.33203H9.33301C9.95235 1.33203 10.262 1.33203 10.5211 1.37307C11.9474 1.59898 13.0661 2.71761 13.292 4.14392C13.333 4.40303 13.333 4.71269 13.333 5.33203" stroke="#344054" stroke-linecap="round" stroke-linejoin="round"/>
<path d="M11.5554 7.99864L8.02443 11.5296C7.6849 11.8691 7.51513 12.0389 7.38023 12.2323C7.2605 12.404 7.16139 12.5891 7.08496 12.784C6.99885 13.0035 6.95176 13.239 6.85759 13.7098L6.6665 14.6653L7.62197 14.4742C8.09281 14.38 8.32824 14.3329 8.54777 14.2468C8.74262 14.1704 8.9278 14.0713 9.09948 13.9515C9.2929 13.8166 9.46267 13.6469 9.8022 13.3073L13.3332 9.77637M11.5554 7.99864L12.1345 7.41951C12.3985 7.1555 12.5305 7.02349 12.6828 6.97403C12.8167 6.93053 12.9609 6.93053 13.0948 6.97404C13.247 7.0235 13.379 7.15551 13.643 7.41953L13.9123 7.68879C14.1763 7.9528 14.3083 8.08481 14.3577 8.23702C14.4012 8.37092 14.4012 8.51515 14.3577 8.64904C14.3083 8.80126 14.1763 8.93326 13.9123 9.19727L13.3332 9.77637M11.5554 7.99864C11.5554 8.98046 12.3513 9.77637 13.3332 9.77637" stroke="#344054" stroke-linecap="round" stroke-linejoin="round"/>
</svg>
