<?xml version="1.0" standalone="no"?><!DOCTYPE svg PUBLIC "-//W3C//DTD SVG 1.1//EN" "http://www.w3.org/Graphics/SVG/1.1/DTD/svg11.dtd"><svg t="1752225245335" class="icon" viewBox="0 0 1024 1024" version="1.1" xmlns="http://www.w3.org/2000/svg" p-id="8003" xmlns:xlink="http://www.w3.org/1999/xlink" width="400" height="400"><path d="M521.798 543.294c149.77 0 271.747-121.976 271.747-271.747S671.569 0 521.798 0 250.051 121.976 250.051 271.747s121.976 271.547 271.747 271.547z m420.318 231.955c-19.396-41.592-46.99-79.185-81.984-111.779-70.386-65.387-164.568-102.98-258.15-102.98H441.814c-93.782 0-187.764 37.593-258.15 102.98-34.993 32.594-62.588 70.187-81.984 111.779-20.396 43.791-30.794 89.782-30.794 137.173 0 61.588 49.99 111.578 111.578 111.578h678.868c61.588 0 111.578-49.99 111.578-111.578-0.2-47.391-10.398-93.582-30.794-137.173z" p-id="8004" fill="#aaa9a9"></path></svg>