<svg width="12" height="12" viewBox="0 0 12 12" fill="none" xmlns="http://www.w3.org/2000/svg">
<g clip-path="url(#clip0_42137_542494)">
<path d="M1 6C1 8.76142 3.23858 11 6 11C6.82843 11 7.5 10.3284 7.5 9.5V9.25C7.5 9.01779 7.5 8.90168 7.51283 8.80421C7.60145 8.13111 8.13111 7.60145 8.80421 7.51283C8.90168 7.5 9.01779 7.5 9.25 7.5H9.5C10.3284 7.5 11 6.82843 11 6C11 3.23858 8.76142 1 6 1C3.23858 1 1 3.23858 1 6Z" stroke="#344054" stroke-linecap="round" stroke-linejoin="round"/>
<path d="M3.5 6.5C3.77614 6.5 4 6.27614 4 6C4 5.72386 3.77614 5.5 3.5 5.5C3.22386 5.5 3 5.72386 3 6C3 6.27614 3.22386 6.5 3.5 6.5Z" stroke="#344054" stroke-linecap="round" stroke-linejoin="round"/>
<path d="M8 4.5C8.27614 4.5 8.5 4.27614 8.5 4C8.5 3.72386 8.27614 3.5 8 3.5C7.72386 3.5 7.5 3.72386 7.5 4C7.5 4.27614 7.72386 4.5 8 4.5Z" stroke="#344054" stroke-linecap="round" stroke-linejoin="round"/>
<path d="M5 4C5.27614 4 5.5 3.77614 5.5 3.5C5.5 3.22386 5.27614 3 5 3C4.72386 3 4.5 3.22386 4.5 3.5C4.5 3.77614 4.72386 4 5 4Z" stroke="#344054" stroke-linecap="round" stroke-linejoin="round"/>
</g>
<defs>
<clipPath id="clip0_42137_542494">
<rect width="12" height="12" fill="white"/>
</clipPath>
</defs>
</svg>
