<svg width="12" height="12" viewBox="0 0 12 12" fill="none" xmlns="http://www.w3.org/2000/svg">
<path d="M4.5 9.5V3.67899C4.5 3.22638 4.5 3.00007 4.57968 2.8126C4.64998 2.64722 4.76354 2.50383 4.90843 2.39752C5.07267 2.27702 5.29296 2.22519 5.73354 2.12152L8.53354 1.4627C9.20495 1.30472 9.54066 1.22573 9.80456 1.31011C10.0359 1.38408 10.2324 1.53973 10.3574 1.74798C10.5 1.98554 10.5 2.33041 10.5 3.02016V8M4.5 9.5C4.5 10.3284 3.82843 11 3 11C2.17157 11 1.5 10.3284 1.5 9.5C1.5 8.67157 2.17157 8 3 8C3.82843 8 4.5 8.67157 4.5 9.5ZM10.5 8C10.5 8.82843 9.82843 9.5 9 9.5C8.17157 9.5 7.5 8.82843 7.5 8C7.5 7.17157 8.17157 6.5 9 6.5C9.82843 6.5 10.5 7.17157 10.5 8Z" stroke="#344054" stroke-linecap="round" stroke-linejoin="round"/>
</svg>
