<svg width="12" height="12" viewBox="0 0 12 12" fill="none" xmlns="http://www.w3.org/2000/svg">
<path d="M7.5 2.3C7.5 2.01997 7.5 1.87996 7.4455 1.773C7.39757 1.67892 7.32108 1.60243 7.227 1.5545C7.12004 1.5 6.98003 1.5 6.7 1.5H5.3C5.01997 1.5 4.87996 1.5 4.773 1.5545C4.67892 1.60243 4.60243 1.67892 4.5545 1.773C4.5 1.87996 4.5 2.01997 4.5 2.3V3.7C4.5 3.98003 4.5 4.12004 4.4455 4.22699C4.39757 4.32108 4.32108 4.39757 4.227 4.4455C4.12004 4.5 3.98003 4.5 3.7 4.5H2.3C2.01997 4.5 1.87996 4.5 1.773 4.5545C1.67892 4.60243 1.60243 4.67892 1.5545 4.773C1.5 4.87996 1.5 5.01997 1.5 5.3V6.7C1.5 6.98003 1.5 7.12004 1.5545 7.227C1.60243 7.32108 1.67892 7.39757 1.773 7.4455C1.87996 7.5 2.01997 7.5 2.3 7.5H3.7C3.98003 7.5 4.12004 7.5 4.227 7.5545C4.32108 7.60243 4.39757 7.67892 4.4455 7.773C4.5 7.87996 4.5 8.01997 4.5 8.3V9.7C4.5 9.98003 4.5 10.12 4.5545 10.227C4.60243 10.3211 4.67892 10.3976 4.773 10.4455C4.87996 10.5 5.01997 10.5 5.3 10.5H6.7C6.98003 10.5 7.12004 10.5 7.227 10.4455C7.32108 10.3976 7.39757 10.3211 7.4455 10.227C7.5 10.12 7.5 9.98003 7.5 9.7V8.3C7.5 8.01997 7.5 7.87996 7.5545 7.773C7.60243 7.67892 7.67892 7.60243 7.773 7.5545C7.87996 7.5 8.01997 7.5 8.3 7.5H9.7C9.98003 7.5 10.12 7.5 10.227 7.4455C10.3211 7.39757 10.3976 7.32108 10.4455 7.227C10.5 7.12004 10.5 6.98003 10.5 6.7V5.3C10.5 5.01997 10.5 4.87996 10.4455 4.773C10.3976 4.67892 10.3211 4.60243 10.227 4.5545C10.12 4.5 9.98003 4.5 9.7 4.5L8.3 4.5C8.01997 4.5 7.87996 4.5 7.773 4.4455C7.67892 4.39757 7.60243 4.32108 7.5545 4.22699C7.5 4.12004 7.5 3.98003 7.5 3.7V2.3Z" stroke="#344054" stroke-linecap="round" stroke-linejoin="round"/>
</svg>
