<svg width="12" height="12" viewBox="0 0 12 12" fill="none" xmlns="http://www.w3.org/2000/svg">
<g clip-path="url(#clip0_42137_542446)">
<path d="M6 11C8.76142 11 11 8.76142 11 6C11 3.23858 8.76142 1 6 1C3.23858 1 1 3.23858 1 6C1 8.76142 3.23858 11 6 11Z" stroke="#344054" stroke-linecap="round" stroke-linejoin="round"/>
<path d="M7.36105 4.13298C7.60533 4.05156 7.72746 4.01085 7.80868 4.03981C7.87937 4.06501 7.93499 4.12063 7.96019 4.19131C7.98915 4.27254 7.94844 4.39467 7.86702 4.63895L7.12325 6.87026C7.10006 6.93983 7.08846 6.97462 7.0687 7.00351C7.0512 7.02909 7.02909 7.0512 7.00351 7.0687C6.97462 7.08846 6.93983 7.10006 6.87026 7.12325L4.63895 7.86702C4.39467 7.94844 4.27254 7.98915 4.19131 7.96019C4.12063 7.93499 4.06501 7.87937 4.03981 7.80868C4.01085 7.72746 4.05156 7.60533 4.13298 7.36105L4.87675 5.12974C4.89994 5.06017 4.91154 5.02538 4.9313 4.99649C4.9488 4.97091 4.97091 4.9488 4.99649 4.9313C5.02538 4.91154 5.06017 4.89994 5.12974 4.87675L7.36105 4.13298Z" stroke="#344054" stroke-linecap="round" stroke-linejoin="round"/>
</g>
<defs>
<clipPath id="clip0_42137_542446">
<rect width="12" height="12" fill="white"/>
</clipPath>
</defs>
</svg>
