<svg width="12" height="12" viewBox="0 0 12 12" fill="none" xmlns="http://www.w3.org/2000/svg">
<path d="M6 1.5C3.8737 1.5 2.15 3.27594 2.15 5.46667C2.15 5.50851 2.12208 5.54526 2.08201 5.55732C1.16782 5.83246 0.5 6.70255 0.5 7.73333C0.5 8.98518 1.48497 10 2.7 10H8.75C10.2688 10 11.5 8.73147 11.5 7.16667C11.5 6.11312 10.9419 5.19388 10.1137 4.70567L10.1137 4.70566C9.94784 4.60792 9.86493 4.55904 9.82602 4.52328C9.77878 4.47986 9.7706 4.46989 9.73725 4.41508C9.70977 4.36994 9.68103 4.28768 9.62356 4.12316L9.62355 4.12314C9.08923 2.59363 7.66858 1.5 6 1.5Z" stroke="#344054" stroke-linecap="round" stroke-linejoin="round"/>
</svg>
