<svg width="12" height="12" viewBox="0 0 12 12" fill="none" xmlns="http://www.w3.org/2000/svg">
<path d="M10.5 6C10.5 8.48528 8.48528 10.5 6 10.5C5.40143 10.5 4.83015 10.3831 4.30775 10.171C4.20776 10.1304 4.15777 10.1101 4.11736 10.101C4.07783 10.0921 4.04858 10.0889 4.00807 10.0889C3.96665 10.0889 3.92154 10.0964 3.83133 10.1114L2.05238 10.4079C1.86609 10.439 1.77295 10.4545 1.70559 10.4256C1.64664 10.4003 1.59966 10.3534 1.57438 10.2944C1.54549 10.2271 1.56102 10.1339 1.59206 9.94762L1.88855 8.16868C1.90359 8.07846 1.91111 8.03335 1.9111 7.99193C1.9111 7.95142 1.90786 7.92217 1.899 7.88264C1.88994 7.84223 1.86964 7.79224 1.82903 7.69226C1.61687 7.16985 1.5 6.59857 1.5 6C1.5 3.51472 3.51472 1.5 6 1.5C8.48528 1.5 10.5 3.51472 10.5 6Z" stroke="#344054" stroke-linecap="round" stroke-linejoin="round"/>
</svg>
