<svg width="12" height="12" viewBox="0 0 12 12" fill="none" xmlns="http://www.w3.org/2000/svg">
<path d="M6.25 8C6.25 8.13807 6.13807 8.25 6 8.25C5.86193 8.25 5.75 8.13807 5.75 8M6.25 8C6.25 7.86193 6.13807 7.75 6 7.75C5.86193 7.75 5.75 7.86193 5.75 8M6.25 8H5.75M5 5.25V5C5 4.44772 5.44772 4 6 4C6.55228 4 7 4.44772 7 5V5.06066C7 5.34196 6.88825 5.61175 6.68934 5.81066L6 6.5M11 6C11 8.76142 8.76142 11 6 11C5.43032 11 4.94177 10.9189 4.48814 10.7566C4.0594 10.6032 3.84502 10.5265 3.76276 10.5072C3.0038 10.3287 2.68895 10.8489 2.03482 10.9579C1.71354 11.0114 1.42767 10.7483 1.45433 10.4237C1.47764 10.1399 1.67394 9.87144 1.75227 9.59887C1.91511 9.03222 1.69415 8.60259 1.4607 8.09864C1.16507 7.46048 1 6.7495 1 6C1 3.23858 3.23858 1 6 1C8.76142 1 11 3.23858 11 6Z" stroke="#344054" stroke-linecap="round" stroke-linejoin="round"/>
</svg>
