<svg width="12" height="12" viewBox="0 0 12 12" fill="none" xmlns="http://www.w3.org/2000/svg">
<g clip-path="url(#clip0_42137_542466)">
<path d="M2.00001 10.9087C2.3013 11 2.70825 11 3.4 11H8.6C9.29175 11 9.6987 11 9.99999 10.9087M2.00001 10.9087C1.93541 10.8891 1.87567 10.8654 1.81901 10.8365C1.53677 10.6927 1.3073 10.4632 1.16349 10.181C1 9.86012 1 9.44008 1 8.6V3.4C1 2.55992 1 2.13988 1.16349 1.81901C1.3073 1.53677 1.53677 1.3073 1.81901 1.16349C2.13988 1 2.55992 1 3.4 1H8.6C9.44008 1 9.86012 1 10.181 1.16349C10.4632 1.3073 10.6927 1.53677 10.8365 1.81901C11 2.13988 11 2.55992 11 3.4V8.6C11 9.44008 11 9.86012 10.8365 10.181C10.6927 10.4632 10.4632 10.6927 10.181 10.8365C10.1243 10.8654 10.0646 10.8891 9.99999 10.9087M2.00001 10.9087C2.00018 10.5041 2.0026 10.2899 2.03843 10.1098C2.19624 9.31644 2.81644 8.69624 3.60982 8.53843C3.80302 8.5 4.03534 8.5 4.5 8.5H7.5C7.96466 8.5 8.19698 8.5 8.39018 8.53843C9.18356 8.69624 9.80376 9.31644 9.96157 10.1098C9.9974 10.2899 9.99982 10.5041 9.99999 10.9087M8 4.75C8 5.85457 7.10457 6.75 6 6.75C4.89543 6.75 4 5.85457 4 4.75C4 3.64543 4.89543 2.75 6 2.75C7.10457 2.75 8 3.64543 8 4.75Z" stroke="#344054" stroke-linecap="round" stroke-linejoin="round"/>
</g>
<defs>
<clipPath id="clip0_42137_542466">
<rect width="12" height="12" fill="white"/>
</clipPath>
</defs>
</svg>
