<svg width="12" height="12" viewBox="0 0 12 12" fill="none" xmlns="http://www.w3.org/2000/svg">
<g clip-path="url(#clip0_42137_542450)">
<path d="M7.81568 3.81569C7.61767 3.61768 7.51866 3.51867 7.48157 3.40451C7.44894 3.30409 7.44894 3.19591 7.48157 3.09549C7.51866 2.98133 7.61767 2.88232 7.81568 2.68431L9.23486 1.26513C8.85825 1.09481 8.4402 1 7.99999 1C6.34314 1 4.99999 2.34315 4.99999 4C4.99999 4.24552 5.02948 4.48415 5.08512 4.71254C5.1447 4.95712 5.17449 5.07941 5.1692 5.15666C5.16367 5.23755 5.15161 5.28058 5.11431 5.35256C5.07868 5.42131 5.01042 5.48957 4.8739 5.62609L1.74999 8.75C1.33578 9.16421 1.33578 9.83579 1.74999 10.25C2.1642 10.6642 2.83578 10.6642 3.24999 10.25L6.3739 7.12609C6.51042 6.98957 6.57868 6.92131 6.64743 6.88568C6.71941 6.84838 6.76245 6.83633 6.84333 6.83079C6.92058 6.8255 7.04287 6.85529 7.28745 6.91487C7.51584 6.97051 7.75447 7 7.99999 7C9.65685 7 11 5.65685 11 4C11 3.5598 10.9052 3.14174 10.7349 2.76513L9.31568 4.18431C9.11767 4.38232 9.01866 4.48133 8.9045 4.51842C8.80408 4.55105 8.6959 4.55105 8.59548 4.51842C8.48132 4.48133 8.38231 4.38232 8.18431 4.18431L7.81568 3.81569Z" stroke="#344054" stroke-linecap="round" stroke-linejoin="round"/>
</g>
<defs>
<clipPath id="clip0_42137_542450">
<rect width="12" height="12" fill="white"/>
</clipPath>
</defs>
</svg>
