<svg width="12" height="12" viewBox="0 0 12 12" fill="none" xmlns="http://www.w3.org/2000/svg">
<path d="M0.5 0.500031L0.75 0.5L1.36361 0.500015C1.59083 0.500021 1.70444 0.500023 1.79843 0.540119C1.88134 0.575489 1.95315 0.632615 2.00626 0.705452C2.06646 0.788022 2.09201 0.898724 2.1431 1.12013L2.34615 2.00003M2.34615 2.00003L3.3569 6.37992C3.40799 6.60133 3.43354 6.71203 3.49374 6.7946C3.54685 6.86744 3.61866 6.92457 3.70157 6.95994C3.79557 7.00003 3.90918 7.00003 4.13641 7.00003H9.40478C9.61835 7.00003 9.72513 7.00003 9.81521 6.96365C9.89473 6.93154 9.96465 6.87952 10.0183 6.81258C10.079 6.73675 10.1097 6.63447 10.171 6.42991L10.8821 4.05979C11.0915 3.36169 11.1962 3.01264 11.1205 2.73598C11.0541 2.49368 10.899 2.28523 10.686 2.15207C10.4428 2.00003 10.0784 2.00003 9.34955 2.00003H2.34615ZM7 7H2.8C2.51997 7 2.37996 7 2.273 7.0545C2.17892 7.10243 2.10243 7.17892 2.0545 7.273C2 7.37996 2 7.51997 2 7.8V8.2C2 8.48003 2 8.62004 2.0545 8.727C2.10243 8.82108 2.17892 8.89757 2.273 8.9455C2.37996 9 2.51997 9 2.8 9H10.5M5.5 10C5.5 10.5523 5.05228 11 4.5 11C3.94772 11 3.5 10.5523 3.5 10C3.5 9.44772 3.94772 9 4.5 9C5.05228 9 5.5 9.44772 5.5 10ZM9.5 10C9.5 10.5523 9.05228 11 8.5 11C7.94772 11 7.5 10.5523 7.5 10C7.5 9.44772 7.94772 9 8.5 9C9.05228 9 9.5 9.44772 9.5 10Z" stroke="#344054" stroke-linecap="round" stroke-linejoin="round"/>
</svg>
