<svg width="12" height="12" viewBox="0 0 12 12" fill="none" xmlns="http://www.w3.org/2000/svg">
<path d="M6 9C7.21338 8.21997 8.1323 8.00782 9.39988 7.95012C9.98536 7.92347 10.2781 7.91015 10.4821 7.79787C10.6671 7.69606 10.8038 7.55302 10.8971 7.36356C11 7.15465 11 6.87929 11 6.32857V1.8C11 1.51923 11 1.37884 10.9449 1.2714C10.8967 1.17745 10.8186 1.10003 10.7242 1.05268C10.6163 0.998529 10.4775 0.999763 10.1998 1.00223C8.48504 1.01746 7.4539 1.13678 6 2.07143M6 9C4.78662 8.21997 3.8677 8.00782 2.60012 7.95012C2.01464 7.92347 1.7219 7.91015 1.51787 7.79787C1.33286 7.69606 1.19618 7.55302 1.10288 7.36356C1 7.15465 1 6.87929 1 6.32857V1.8C1 1.51923 1 1.37884 1.0551 1.2714C1.10329 1.17745 1.1814 1.10003 1.27578 1.05268C1.3837 0.99853 1.52253 0.999763 1.8002 1.00223C3.51496 1.01746 4.5461 1.13678 6 2.07143M6 9V2.07143M10.5 9.75C8.70654 9.75 7.7172 9.95103 6.45036 10.7136C6.2752 10.8191 6.18761 10.8718 6.10753 10.8894C6.03061 10.9064 5.96939 10.9064 5.89247 10.8894C5.81239 10.8718 5.7248 10.8191 5.54964 10.7136C4.2828 9.95103 3.29346 9.75 1.5 9.75" stroke="#344054" stroke-linecap="round" stroke-linejoin="round"/>
</svg>
