<svg width="12" height="12" viewBox="0 0 12 12" fill="none" xmlns="http://www.w3.org/2000/svg">
<path d="M6.5 3.5L5.94223 2.38446C5.7817 2.0634 5.70143 1.90287 5.58169 1.78558C5.47579 1.68187 5.34816 1.60299 5.20804 1.55465C5.04958 1.5 4.8701 1.5 4.51115 1.5H2.6C2.03995 1.5 1.75992 1.5 1.54601 1.60899C1.35785 1.70487 1.20487 1.85785 1.10899 2.04601C1 2.25992 1 2.53995 1 3.1V3.5M1 3.5H8.6C9.44008 3.5 9.86012 3.5 10.181 3.66349C10.4632 3.8073 10.6927 4.03677 10.8365 4.31901C11 4.63988 11 5.05992 11 5.9V8.1C11 8.94008 11 9.36012 10.8365 9.68099C10.6927 9.96323 10.4632 10.1927 10.181 10.3365C9.86012 10.5 9.44008 10.5 8.6 10.5H3.4C2.55992 10.5 2.13988 10.5 1.81901 10.3365C1.53677 10.1927 1.3073 9.96323 1.16349 9.68099C1 9.36012 1 8.94008 1 8.1V3.5Z" stroke="#344054" stroke-linecap="round" stroke-linejoin="round"/>
</svg>
