<svg width="12" height="12" viewBox="0 0 12 12" fill="none" xmlns="http://www.w3.org/2000/svg">
<path d="M1 11L10 11M9.5 3V3C9.96594 3 10.1989 3 10.3827 3.07612C10.6277 3.17761 10.8224 3.37229 10.9239 3.61731C11 3.80109 11 4.03406 11 4.5L11 5C11 5.46594 11 5.69891 10.9239 5.88268C10.8224 6.12771 10.6277 6.32238 10.3827 6.42388C10.1989 6.5 9.96594 6.5 9.5 6.5V6.5M5.5 9V9C6.90013 9 7.6002 9 8.13498 8.72752C8.60538 8.48783 8.98783 8.10538 9.22752 7.63497C9.5 7.1002 9.5 6.40013 9.5 5L9.5 3.4C9.5 2.55992 9.5 2.13988 9.33651 1.81901C9.1927 1.53677 8.96323 1.3073 8.68099 1.16349C8.36012 0.999999 7.94008 0.999999 7.1 0.999999L3.9 0.999999C3.05992 1 2.63988 1 2.31901 1.16349C2.03677 1.3073 1.8073 1.53677 1.66349 1.81901C1.5 2.13988 1.5 2.55992 1.5 3.4L1.5 5C1.5 6.40013 1.5 7.1002 1.77248 7.63498C2.01217 8.10538 2.39462 8.48783 2.86503 8.72752C3.3998 9 4.09987 9 5.5 9Z" stroke="#344054" stroke-linecap="round" stroke-linejoin="round"/>
</svg>
