<svg width="24" height="24" viewBox="0 0 24 24" fill="none" xmlns="http://www.w3.org/2000/svg">
<path d="M5.85 18.6L8.72044 15.7296C9.50197 14.948 9.89273 14.5573 10.3443 14.4083C10.7416 14.2773 11.1699 14.2741 11.5691 14.3993C12.0228 14.5415 12.4193 14.9265 13.2123 15.6964L15.6132 18.0274M21.575 18.3344L20.7034 17.4627C19.9113 16.6707 19.5153 16.2747 19.0587 16.1263C18.657 15.9958 18.2243 15.9958 17.8226 16.1263C17.3659 16.2747 16.9698 16.6708 16.1776 17.463C15.8409 17.7997 15.6132 18.0274 15.6132 18.0274M19.025 21.4392L15.6132 18.0274M16 2H11.6C8.23969 2 6.55953 2 5.27606 2.65396C4.14708 3.2292 3.2292 4.14708 2.65396 5.27606C2 6.55953 2 8.23969 2 11.6V16M18.6 10.1C18.6 11.0389 17.8389 11.8 16.9 11.8C15.9611 11.8 15.2 11.0389 15.2 10.1C15.2 9.16112 15.9611 8.4 16.9 8.4C17.8389 8.4 18.6 9.16112 18.6 10.1ZM11.4 22H15.6C17.8402 22 18.9603 22 19.816 21.564C20.5686 21.1805 21.1805 20.5686 21.564 19.816C22 18.9603 22 17.8402 22 15.6V11.4C22 9.15979 22 8.03968 21.564 7.18404C21.1805 6.43139 20.5686 5.81947 19.816 5.43597C18.9603 5 17.8402 5 15.6 5H11.4C9.15979 5 8.03968 5 7.18404 5.43597C6.43139 5.81947 5.81947 6.43139 5.43597 7.18404C5 8.03968 5 9.15979 5 11.4V15.6C5 17.8402 5 18.9603 5.43597 19.816C5.81947 20.5686 6.43139 21.1805 7.18404 21.564C8.03968 22 9.15979 22 11.4 22Z" stroke="#2F384C" stroke-width="1.5" stroke-linecap="round" stroke-linejoin="round"/>
</svg>
