<svg width="12" height="12" viewBox="0 0 12 12" fill="none" xmlns="http://www.w3.org/2000/svg">
<path d="M1.25 9.25L3.37818 7.12182C3.77118 6.72882 3.96767 6.53233 4.19453 6.45798C4.39411 6.39257 4.60921 6.39166 4.80934 6.45537C5.03682 6.52779 5.23498 6.72262 5.63129 7.11227L9.25 10.6701" stroke="#344054" stroke-linecap="round" stroke-linejoin="round"/>
<path d="M10.7501 8.84375L10.0377 8.13137C9.64171 7.73535 9.4437 7.53735 9.21537 7.46316C9.01453 7.3979 8.79818 7.3979 8.59734 7.46316C8.36901 7.53735 8.171 7.73535 7.77499 8.13137L7.24316 8.66319" stroke="#344054" stroke-linecap="round" stroke-linejoin="round"/>
<path d="M6 1H4.2C3.07989 1 2.51984 1 2.09202 1.21799C1.71569 1.40973 1.40973 1.71569 1.21799 2.09202C1 2.51984 1 3.07989 1 4.2V7.8C1 8.92011 1 9.48016 1.21799 9.90798C1.40973 10.2843 1.71569 10.5903 2.09202 10.782C2.51984 11 3.07989 11 4.2 11H7.8C8.92011 11 9.48016 11 9.90798 10.782C10.2843 10.5903 10.5903 10.2843 10.782 9.90798C11 9.48016 11 8.9201 11 7.8V6" stroke="#344054" stroke-linecap="round" stroke-linejoin="round"/>
<path d="M9 2.00008L7.9351 3.06497C7.68046 3.31962 7.55313 3.44695 7.45196 3.59201C7.36216 3.72077 7.28783 3.85965 7.23051 4.0058C7.16593 4.17044 7.13061 4.34701 7.05999 4.70014V4.70014C7.03145 4.84283 7.15725 4.96863 7.29993 4.94009V4.94009C7.65307 4.86946 7.82963 4.83415 7.99428 4.76957C8.14042 4.71225 8.27931 4.63792 8.40807 4.54812C8.55313 4.44694 8.68045 4.31962 8.9351 4.06497L10 3.00007C10.2761 2.72393 10.2761 2.27622 10 2.00008C9.72386 1.72393 9.27614 1.72393 9 2.00008Z" stroke="#344054" stroke-linecap="round" stroke-linejoin="round"/>
</svg>
