<svg width="12" height="12" viewBox="0 0 12 12" fill="none" xmlns="http://www.w3.org/2000/svg">
<path d="M6 11L7 9M7 9L8.5 6L10 9M7 9C7 9 7.5 9.5 8.5 9.5C9.5 9.5 10 9 10 9M10 9L11 11M3.5 2.67341H1.8C1.51997 2.67341 1.37996 2.67341 1.273 2.7279C1.17892 2.77584 1.10243 2.85233 1.0545 2.94641C1 3.05337 1 3.19338 1 3.47341V4.51314C1 4.79316 1 4.93318 1.0545 5.04013C1.10243 5.13421 1.17892 5.2107 1.273 5.25864C1.37996 5.31314 1.51997 5.31314 1.8 5.31314H3.5M3.5 2.67341H5.2C5.48003 2.67341 5.62004 2.67341 5.727 2.7279C5.82108 2.77584 5.89757 2.85233 5.9455 2.94641C6 3.05337 6 3.19338 6 3.47341V4.51314C6 4.79316 6 4.93318 5.9455 5.04013C5.89757 5.13421 5.82108 5.2107 5.727 5.25864C5.62004 5.31314 5.48003 5.31314 5.2 5.31314H3.5M3.5 2.67341V5.31314M3.5 2.67341V1M3.5 5.31314V8" stroke="#344054" stroke-linecap="round" stroke-linejoin="round"/>
</svg>
