<svg width="12" height="12" viewBox="0 0 12 12" fill="none" xmlns="http://www.w3.org/2000/svg">
<path d="M9.5 7.50005V4.50005M7 4.25C7 4.38807 6.88807 4.5 6.75 4.5C6.61193 4.5 6.5 4.38807 6.5 4.25M7 4.25C7 4.11193 6.88807 4 6.75 4C6.61193 4 6.5 4.11193 6.5 4.25M7 4.25H6.5M5 10.5H7.9C8.46005 10.5 8.74008 10.5 8.95399 10.391C9.14215 10.2951 9.29513 10.1422 9.39101 9.95399C9.5 9.74008 9.5 9.46005 9.5 8.9V3.1C9.5 2.53995 9.5 2.25992 9.39101 2.04601C9.29513 1.85785 9.14215 1.70487 8.95399 1.60899C8.74008 1.5 8.46005 1.5 7.9 1.5H2.1C1.53995 1.5 1.25992 1.5 1.04601 1.60899C0.857847 1.70487 0.704867 1.85785 0.608993 2.04601C0.5 2.25992 0.5 2.53995 0.5 3.1V8.9C0.5 9.46005 0.5 9.74008 0.608993 9.95399C0.704867 10.1422 0.857847 10.2951 1.04601 10.391C1.25992 10.5 1.53995 10.5 2.1 10.5H5Z" stroke="#344054" stroke-linecap="round" stroke-linejoin="round"/>
<path d="M9.5 7.50005V7.50005C9.84095 7.75576 10.0114 7.88362 10.1415 7.93356C10.6901 8.14429 11.3013 7.83868 11.4619 7.27331C11.5 7.13933 11.5 6.92624 11.5 6.50005V5.50003C11.5 5.07385 11.5 4.86076 11.4619 4.72678C11.3013 4.1614 10.6901 3.85578 10.1414 4.06653C10.0114 4.11648 9.84094 4.24433 9.5 4.50005V4.50005" stroke="#344054" stroke-linecap="round" stroke-linejoin="round"/>
</svg>
