<svg width="12" height="12" viewBox="0 0 12 12" fill="none" xmlns="http://www.w3.org/2000/svg">
<path d="M6 6.25L10.5 3.5M6 6.25L1.5 3.5M6 6.25V11.25M1 4.85886V7.14114C1 7.63666 1 7.88441 1.07109 8.10703C1.13401 8.30404 1.23698 8.48591 1.37354 8.64122C1.52786 8.81672 1.74031 8.94419 2.16521 9.19913L4.76521 10.7591C5.21416 11.0285 5.43863 11.1632 5.67827 11.2158C5.89023 11.2624 6.10977 11.2624 6.32173 11.2158C6.56136 11.1632 6.78584 11.0285 7.23479 10.7591L9.83479 9.19913C10.2597 8.94419 10.4721 8.81672 10.6265 8.64122C10.763 8.48591 10.866 8.30404 10.9289 8.10703C11 7.88441 11 7.63666 11 7.14114V4.85886C11 4.36334 11 4.11559 10.9289 3.89296C10.866 3.69596 10.763 3.51409 10.6265 3.35878C10.4721 3.18328 10.2597 3.05581 9.83479 2.80087L7.23479 1.24087C6.78584 0.971504 6.56136 0.836819 6.32173 0.784196C6.10977 0.737649 5.89023 0.737649 5.67827 0.784196C5.43863 0.836819 5.21416 0.971504 4.76521 1.24087L2.16521 2.80087C1.74031 3.05581 1.52786 3.18328 1.37354 3.35878C1.23698 3.51409 1.13401 3.69596 1.07109 3.89296C1 4.11559 1 4.36334 1 4.85886Z" stroke="#344054" stroke-linecap="round" stroke-linejoin="round"/>
</svg>
