<svg width="12" height="12" viewBox="0 0 12 12" fill="none" xmlns="http://www.w3.org/2000/svg">
<path d="M8 10.75V9.59999C8 9.03993 8 8.75991 8.10899 8.54599C8.20487 8.35783 8.35785 8.20485 8.54601 8.10898C8.75992 7.99999 9.03995 7.99999 9.6 7.99999H10.75M3.5 3.5H7.5M3.5 5.5H6.5M3.5 7.5H4.5M7.67452 11H4.2C3.07989 11 2.51984 11 2.09202 10.782C1.71569 10.5903 1.40973 10.2843 1.21799 9.90798C1 9.48016 1 8.92011 1 7.8V4.2C1 3.07989 1 2.51984 1.21799 2.09202C1.40973 1.71569 1.71569 1.40973 2.09202 1.21799C2.51984 1 3.07989 1 4.2 1H7.8C8.92011 1 9.48016 1 9.90798 1.21799C10.2843 1.40973 10.5903 1.71569 10.782 2.09202C11 2.51984 11 3.07989 11 4.2V7.67452C11 8.1637 11 8.40829 10.9447 8.63846C10.8957 8.84254 10.8149 9.03763 10.7053 9.21657C10.5816 9.4184 10.4086 9.59135 10.0627 9.93726L9.93726 10.0627C9.59135 10.4086 9.4184 10.5816 9.21657 10.7053C9.03763 10.8149 8.84254 10.8957 8.63846 10.9447C8.40829 11 8.1637 11 7.67452 11Z" stroke="#344054" stroke-linecap="round" stroke-linejoin="round"/>
</svg>
