<svg width="12" height="12" viewBox="0 0 12 12" fill="none" xmlns="http://www.w3.org/2000/svg">
<path d="M4 2.5H6M2.5 6V8M9.5 4V6M6 9.5H8M9.5 11V11C10.3284 11 11 10.3284 11 9.5V9.5C11 8.67157 10.3284 8 9.5 8V8C8.67157 8 8 8.67157 8 9.5V9.5C8 10.3284 8.67157 11 9.5 11ZM2.5 11V11C3.32843 11 4 10.3284 4 9.5V9.5C4 8.67157 3.32843 8 2.5 8V8C1.67157 8 1 8.67157 1 9.5V9.5C1 10.3284 1.67157 11 2.5 11ZM9.5 4V4C10.3284 4 11 3.32843 11 2.5V2.5C11 1.67157 10.3284 1 9.5 1V1C8.67157 1 8 1.67157 8 2.5V2.5C8 3.32843 8.67157 4 9.5 4ZM2.5 4V4C3.32843 4 4 3.32843 4 2.5V2.5C4 1.67157 3.32843 1 2.5 1V1C1.67157 1 1 1.67157 1 2.5V2.5C1 3.32843 1.67157 4 2.5 4Z" stroke="#344054" stroke-linecap="round" stroke-linejoin="round"/>
</svg>
