<svg width="12" height="12" viewBox="0 0 12 12" fill="none" xmlns="http://www.w3.org/2000/svg">
<path d="M6.00006 6.00049L6.00506 6.00049M8.12139 3.87899C10.4645 6.22214 11.4143 9.07138 10.2427 10.243C9.07114 11.4145 6.2219 10.4648 3.87875 8.12163C1.53561 5.77849 0.585858 2.92925 1.75743 1.75767C2.929 0.586101 5.77825 1.53585 8.12139 3.87899ZM8.1214 8.12166C5.77826 10.4648 2.92901 11.4146 1.75744 10.243C0.585868 9.07141 1.53561 6.22217 3.87876 3.87902C6.22191 1.53587 9.07115 0.586126 10.2427 1.7577C11.4143 2.92927 10.4645 5.77851 8.1214 8.12166ZM6.25006 6.00049C6.25006 6.13856 6.13813 6.25049 6.00006 6.25049C5.86199 6.25049 5.75006 6.13856 5.75006 6.00049C5.75006 5.86242 5.86199 5.75049 6.00006 5.75049C6.13813 5.75049 6.25006 5.86242 6.25006 6.00049Z" stroke="#344054" stroke-linecap="round" stroke-linejoin="round"/>
</svg>
