<svg width="12" height="12" viewBox="0 0 12 12" fill="none" xmlns="http://www.w3.org/2000/svg">
<path d="M4.5 6L5.5 7L7.75 4.75M4.70036 1.07761L2.92527 1.86654C2.40938 2.09582 2.15143 2.21046 1.96228 2.39168C1.79509 2.55186 1.66725 2.74858 1.58878 2.96641C1.5 3.21285 1.5 3.49513 1.5 4.05969L1.5 6.7874C1.5 7.41354 1.5 7.72661 1.5863 8.01079C1.66271 8.26237 1.78796 8.49642 1.95491 8.69954C2.14349 8.92898 2.40398 9.10264 2.92496 9.44996L4.66872 10.6125C5.14986 10.9332 5.39043 11.0936 5.65044 11.1559C5.88023 11.211 6.11977 11.211 6.34956 11.1559C6.60958 11.0936 6.85015 10.9332 7.33128 10.6125L9.07504 9.44996C9.59602 9.10264 9.85651 8.92898 10.0451 8.69954C10.212 8.49641 10.3373 8.26237 10.4137 8.01079C10.5 7.72661 10.5 7.41354 10.5 6.7874L10.5 4.05968C10.5 3.49513 10.5 3.21285 10.4112 2.96641C10.3327 2.74857 10.2049 2.55186 10.0377 2.39168C9.84857 2.21046 9.59062 2.09582 9.07473 1.86653L7.29964 1.07761C6.82105 0.864907 6.58176 0.758555 6.33302 0.716552C6.11257 0.679325 5.88743 0.679325 5.66698 0.716552C5.41824 0.758556 5.17895 0.864908 4.70036 1.07761Z" stroke="#344054" stroke-linecap="round" stroke-linejoin="round"/>
</svg>
