<svg width="12" height="12" viewBox="0 0 12 12" fill="none" xmlns="http://www.w3.org/2000/svg">
<path d="M4.89803 4.95529C4.68002 4.39617 4.13628 4 3.5 4C2.67157 4 2 4.67157 2 5.5C2 6.32843 2.67157 7 3.5 7C4.32843 7 5 6.32843 5 5.5C5 5.30785 4.96387 5.12414 4.89803 4.95529ZM4.89803 4.95529L7.10885 4.06206M7.10885 4.06206C7.03865 3.88847 7 3.69875 7 3.5C7 2.67157 7.67157 2 8.5 2C9.32843 2 10 2.67157 10 3.5C10 4.32843 9.32843 5 8.5 5C8.4021 5 8.3064 4.99062 8.21373 4.97272M7.10885 4.06206C7.29669 4.52651 7.71036 4.87544 8.21373 4.97272M8.21373 4.97272L7.8133 7.03277M7.8133 7.03277C7.71225 7.0113 7.60745 7 7.5 7C6.67157 7 6 7.67157 6 8.5C6 9.32843 6.67157 10 7.5 10C8.32843 10 9 9.32843 9 8.5C9 7.77902 8.49133 7.17684 7.8133 7.03277Z" stroke="#344054" stroke-linecap="round" stroke-linejoin="round"/>
</svg>
