<svg width="12" height="12" viewBox="0 0 12 12" fill="none" xmlns="http://www.w3.org/2000/svg">
<path d="M4.5 7H3.4C2.07452 7 1 8.07452 1 9.4V9.4C1 10.2837 1.71634 11 2.6 11H4.5H6.25M6.5 3C6.5 4.10457 5.60457 5 4.5 5C3.39543 5 2.5 4.10457 2.5 3C2.5 1.89543 3.39543 1 4.5 1C5.60457 1 6.5 1.89543 6.5 3Z" stroke="#344054" stroke-linecap="round" stroke-linejoin="round"/>
<path d="M7.25 7.5L7.25 10M6 8.5L6 9M8.5 6.5L8.5 11M9.75 7.5V10M11 8.5V9" stroke="#344054" stroke-linecap="round" stroke-linejoin="round"/>
</svg>
