<svg width="12" height="12" viewBox="0 0 12 12" fill="none" xmlns="http://www.w3.org/2000/svg">
<path d="M6.3 1C4.61984 1 3.77976 1 3.13803 1.32698C2.57354 1.6146 2.1146 2.07354 1.82698 2.63803C1.5 3.27976 1.5 4.11984 1.5 5.8" stroke="#344054" stroke-linecap="round" stroke-linejoin="round"/>
<path d="M7.6875 2.7125V3.45001C7.6875 4.01006 7.6875 4.29009 7.79649 4.504C7.89237 4.69216 8.04535 4.84515 8.23351 4.94102C8.44742 5.05001 8.72745 5.05001 9.2875 5.05001H10.2656M10.5 6.31621V7.25C10.5 8.41485 10.5 8.99728 10.3097 9.45671C10.056 10.0693 9.56928 10.556 8.95671 10.8097C8.49728 11 7.91485 11 6.75 11V11C5.58515 11 5.00272 11 4.54329 10.8097C3.93072 10.556 3.44404 10.0693 3.1903 9.45671C3 8.99728 3 8.41485 3 7.25V6.22066C3 5.08334 3 4.51469 3.18158 4.06462C3.43564 3.43491 3.93491 2.93564 4.56462 2.68158C5.01469 2.5 5.58334 2.5 6.72066 2.5V2.5C7.18489 2.5 7.417 2.5 7.63872 2.5403C7.94865 2.59663 8.24514 2.71103 8.51258 2.87747C8.70391 2.99655 8.87587 3.15245 9.21978 3.46427L9.2471 3.48903C9.67132 3.87366 9.88343 4.06597 10.0424 4.29116C10.2329 4.56099 10.368 4.86589 10.4399 5.18825C10.5 5.45727 10.5 5.74358 10.5 6.31621Z" stroke="#344054" stroke-width="0.75" stroke-linecap="round" stroke-linejoin="round"/>
</svg>
