<svg width="12" height="12" viewBox="0 0 12 12" fill="none" xmlns="http://www.w3.org/2000/svg">
<path d="M8 4L11 4L11 1L8 1L8 4ZM8 4L6.5 4L6.5 5.5L8 5.5L8 4ZM4 9L4 6L1 6L1 9L4 9ZM4 9L4 11L6 11L6 9L4 9ZM6 2.25C6 2.38807 5.88807 2.5 5.75 2.5C5.61193 2.5 5.5 2.38807 5.5 2.25M6 2.25C6 2.11193 5.88807 2 5.75 2C5.61193 2 5.5 2.11193 5.5 2.25M6 2.25L5.5 2.25M11 6.25C11 6.38807 10.8881 6.5 10.75 6.5C10.6119 6.5 10.5 6.38807 10.5 6.25M11 6.25C11 6.11193 10.8881 6 10.75 6C10.6119 6 10.5 6.11193 10.5 6.25M11 6.25L10.5 6.25M7.5 7.75C7.5 7.88807 7.38807 8 7.25 8C7.11193 8 7 7.88807 7 7.75M7.5 7.75C7.5 7.61193 7.38807 7.5 7.25 7.5C7.11193 7.5 7 7.61193 7 7.75M7.5 7.75L7 7.75M9 9L11 9L11 11L9 11L9 9ZM1 1L3 1L3 3L1 3L1 1Z" stroke="#344054" stroke-linecap="round" stroke-linejoin="round"/>
</svg>
