<svg width="24" height="24" viewBox="0 0 24 24" fill="none" xmlns="http://www.w3.org/2000/svg">
<path d="M10 6V11M10 6H7M10 6H13M20 11V10C20 7.19974 20 5.79961 19.455 4.73005C18.9757 3.78924 18.2108 3.02433 17.27 2.54497C16.2004 2 14.8003 2 12 2H10C7.19974 2 5.79961 2 4.73005 2.54497C3.78924 3.02433 3.02433 3.78924 2.54497 4.73005C2 5.79961 2 7.19974 2 10V14.5C2 14.9643 2 15.1965 2.01541 15.3923C2.20838 17.8442 4.15582 19.7916 6.6077 19.9846C6.80355 20 7.0357 20 7.5 20V20" stroke="#2F384C" stroke-width="1.5" stroke-linecap="round" stroke-linejoin="round"/>
<path d="M10 16.1413C10 15.0398 10 14.489 10.213 14.0652C10.4003 13.6924 10.6997 13.3875 11.069 13.1932C11.4888 12.9724 12.0394 12.9622 13.1407 12.9418L15.7407 12.8937C16.8795 12.8726 17.4489 12.862 17.8848 13.077C18.2681 13.2661 18.5808 13.5731 18.7769 13.9528C19 14.3846 19 14.9541 19 16.0931V18.692C19 19.7935 19 20.3443 18.787 20.7681C18.5997 21.1409 18.3003 21.4458 17.931 21.6401C17.5112 21.8609 16.9606 21.8711 15.8593 21.8915L13.2593 21.9396C12.1205 21.9607 11.5511 21.9713 11.1152 21.7562C10.7319 21.5672 10.4192 21.2602 10.2231 20.8805C10 20.4486 10 19.8792 10 18.7402V16.1413Z" stroke="#2F384C" stroke-width="1.5" stroke-linecap="round" stroke-linejoin="round"/>
<path d="M22 20.3334V14.6667L19 16.1667V18.5L22 20.3334Z" stroke="#2F384C" stroke-width="1.5" stroke-linecap="round" stroke-linejoin="round"/>
</svg>
