<svg width="12" height="12" viewBox="0 0 12 12" fill="none" xmlns="http://www.w3.org/2000/svg">
<path d="M1.25 9.25L3.38522 7.11478C3.77598 6.72401 3.97137 6.52863 4.19714 6.45417C4.39578 6.38865 4.60995 6.38707 4.80953 6.44964C5.03638 6.52077 5.23463 6.71324 5.63113 7.09819L7.24306 8.66319M10.75 8.84375L10.0376 8.13137C9.64161 7.73535 9.4436 7.53734 9.21527 7.46316C9.01443 7.3979 8.79808 7.3979 8.59723 7.46316C8.36891 7.53734 8.17081 7.73544 7.77462 8.13163C7.4724 8.43385 7.24306 8.66319 7.24306 8.66319M9.25 10.6701L7.24306 8.66319M7.5 3L8.5 4L10.5 2M6 1H5.75V1C4.117 1 3.3005 1 2.67313 1.30938C2.08084 1.60147 1.60147 2.08084 1.30938 2.67313C1 3.3005 1 4.117 1 5.75V6.2C1 7.88016 1 8.72024 1.32698 9.36197C1.6146 9.92646 2.07354 10.3854 2.63803 10.673C3.27976 11 4.11984 11 5.8 11H6.25C7.883 11 8.6995 11 9.32686 10.6906C9.91916 10.3985 10.3985 9.91916 10.6906 9.32686C11 8.6995 11 7.883 11 6.25V6.25V6" stroke="#344054" stroke-linecap="round" stroke-linejoin="round"/>
</svg>
