<svg width="48" height="48" viewBox="0 0 48 48" fill="none" xmlns="http://www.w3.org/2000/svg">
  <rect width="48" height="48" rx="10" fill="#3250BD" />
  <path
    d="M18 20H18.01M18 28H18.01M18 24H30M18 24C15.7909 24 14 22.2091 14 20C14 17.7909 15.7909 16 18 16H30C32.2091 16 34 17.7909 34 20C34 22.2091 32.2091 24 30 24M18 24C15.7909 24 14 25.7909 14 28C14 30.2091 15.7909 32 18 32H30C32.2091 32 34 30.2091 34 28C34 25.7909 32.2091 24 30 24"
    stroke="white" stroke-width="2" stroke-linecap="round" stroke-linejoin="round" />
</svg>
  
  