<svg width="48" height="48" viewBox="0 0 48 48" fill="none" xmlns="http://www.w3.org/2000/svg">
  <rect width="48" height="48" rx="9" fill="#3250BD" />
  <path
    d="M19.5 16.5C19.5 15.1193 20.6193 14 22 14C23.3807 14 24.5 15.1193 24.5 16.5V18H25.5C26.8978 18 27.5967 18 28.1481 18.2284C28.8831 18.5328 29.4672 19.1169 29.7716 19.8519C29.8983 20.1578 29.9547 20.5091 29.9799 21C30.0222 21.8274 30.6716 22.5 31.5 22.5V22.5C32.8807 22.5 34 23.6193 34 25C34 26.3807 32.8807 27.5 31.5 27.5H30V29.2C30 30.8802 30 31.7202 29.673 32.362C29.3854 32.9265 28.9265 33.3854 28.362 33.673C27.7202 34 26.8802 34 25.2 34H24.5V32.25C24.5 31.0074 23.4926 30 22.25 30C21.0074 30 20 31.0074 20 32.25V34H18.8C17.1198 34 16.2798 34 15.638 33.673C15.0735 33.3854 14.6146 32.9265 14.327 32.362C14 31.7202 14 30.8802 14 29.2V27.5H15.5C16.8807 27.5 18 26.3807 18 25C18 23.6193 16.8807 22.5 15.5 22.5V22.5C14.6716 22.5 13.9778 21.8274 14.0201 21C14.0453 20.5091 14.1017 20.1578 14.2284 19.8519C14.5328 19.1169 15.1169 18.5328 15.8519 18.2284C16.4033 18 17.1022 18 18.5 18H19.5V16.5Z"
    stroke="white" stroke-width="2" stroke-linecap="round" stroke-linejoin="round" />
</svg>

  