<svg width="56" height="56" viewBox="0 0 56 56" fill="none" xmlns="http://www.w3.org/2000/svg">
  <rect x="4" y="4" width="48" height="48" rx="24" fill="#ACBDFF"/>
  <rect x="4" y="4" width="48" height="48" rx="24" stroke="#CED8FF" stroke-width="8"/>
  <path d="M29 21C29 22.1046 26.5376 23 23.5 23C20.4624 23 18 22.1046 18 21M29 21C29 19.8954 26.5376 19 23.5 19C20.4624 19 18 19.8954 18 21M29 21V22.5M18 21V33C18 34.1046 20.4624 35 23.5 35M23.5 27C23.3315 27 23.1647 26.9972 23 26.9918C20.1967 26.9 18 26.0433 18 25M23.5 31C20.4624 31 18 30.1046 18 29M38 27.5C38 28.6046 35.5376 29.5 32.5 29.5C29.4624 29.5 27 28.6046 27 27.5M38 27.5C38 26.3954 35.5376 25.5 32.5 25.5C29.4624 25.5 27 26.3954 27 27.5M38 27.5V35C38 36.1046 35.5376 37 32.5 37C29.4624 37 27 36.1046 27 35V27.5M38 31.25C38 32.3546 35.5376 33.25 32.5 33.25C29.4624 33.25 27 32.3546 27 31.25" stroke="white" stroke-width="2" stroke-linecap="round" stroke-linejoin="round"/>
</svg>
