<svg width="48" height="48" viewBox="0 0 48 48" fill="none" xmlns="http://www.w3.org/2000/svg">
  <rect width="48" height="48" rx="10" fill="#3250BD" />
  <path
    d="M25 17C25 18.1046 22.5376 19 19.5 19C16.4624 19 14 18.1046 14 17M25 17C25 15.8954 22.5376 15 19.5 15C16.4624 15 14 15.8954 14 17M25 17V18.5M14 17V29C14 30.1046 16.4624 31 19.5 31M19.5 23C19.3315 23 19.1647 22.9972 19 22.9918C16.1967 22.9 14 22.0433 14 21M19.5 27C16.4624 27 14 26.1046 14 25M34 23.5C34 24.6046 31.5376 25.5 28.5 25.5C25.4624 25.5 23 24.6046 23 23.5M34 23.5C34 22.3954 31.5376 21.5 28.5 21.5C25.4624 21.5 23 22.3954 23 23.5M34 23.5V31C34 32.1046 31.5376 33 28.5 33C25.4624 33 23 32.1046 23 31V23.5M34 27.25C34 28.3546 31.5376 29.25 28.5 29.25C25.4624 29.25 23 28.3546 23 27.25"
    stroke="white" stroke-width="2" stroke-linecap="round" stroke-linejoin="round" />
</svg>
  