<svg width="56" height="56" viewBox="0 0 56 56" fill="none" xmlns="http://www.w3.org/2000/svg">
  <rect x="4" y="4" width="48" height="48" rx="24" fill="#ACBDFF"/>
  <rect x="4" y="4" width="48" height="48" rx="24" stroke="#CED8FF" stroke-width="8"/>
  <path d="M33 36H32.8C31.1198 36 30.2798 36 29.638 35.673C29.0735 35.3854 28.6146 34.9265 28.327 34.362C28 33.7202 28 32.8802 28 31.2V24.8C28 23.1198 28 22.2798 28.327 21.638C28.6146 21.0735 29.0735 20.6146 29.638 20.327C30.2798 20 31.1198 20 32.8 20H33M33 36C33 37.1046 33.8954 38 35 38C36.1046 38 37 37.1046 37 36C37 34.8954 36.1046 34 35 34C33.8954 34 33 34.8954 33 36ZM33 20C33 21.1046 33.8954 22 35 22C36.1046 22 37 21.1046 37 20C37 18.8954 36.1046 18 35 18C33.8954 18 33 18.8954 33 20ZM23 28L33 28M23 28C23 29.1046 22.1046 30 21 30C19.8954 30 19 29.1046 19 28C19 26.8954 19.8954 26 21 26C22.1046 26 23 26.8954 23 28ZM33 28C33 29.1046 33.8954 30 35 30C36.1046 30 37 29.1046 37 28C37 26.8954 36.1046 26 35 26C33.8954 26 33 26.8954 33 28Z" stroke="white" stroke-width="2" stroke-linecap="round" stroke-linejoin="round"/>
</svg>