<svg width="48" height="48" viewBox="0 0 48 48" fill="none" xmlns="http://www.w3.org/2000/svg">
  <rect width="48" height="48" rx="10" fill="#3250BD"/>
  <path d="M21 23.5001L23 25.5001L27.5 21.0001M32 24.0001C32 28.9086 26.646 32.4785 24.698 33.615C24.4766 33.7442 24.3659 33.8087 24.2097 33.8422C24.0884 33.8682 23.9116 33.8682 23.7903 33.8422C23.6341 33.8087 23.5234 33.7442 23.302 33.615C21.354 32.4785 16 28.9086 16 24.0001V19.2177C16 18.4182 16 18.0184 16.1308 17.6748C16.2463 17.3713 16.434 17.1004 16.6777 16.8856C16.9535 16.6426 17.3278 16.5022 18.0764 16.2215L23.4382 14.2108C23.6461 14.1328 23.75 14.0938 23.857 14.0784C23.9518 14.0647 24.0482 14.0647 24.143 14.0784C24.25 14.0938 24.3539 14.1328 24.5618 14.2108L29.9236 16.2215C30.6722 16.5022 31.0465 16.6426 31.3223 16.8856C31.566 17.1004 31.7537 17.3713 31.8692 17.6748C32 18.0184 32 18.4182 32 19.2177V24.0001Z" stroke="white" stroke-width="2" stroke-linecap="round" stroke-linejoin="round"/>
</svg>  