<svg width="12" height="12" viewBox="0 0 12 12" fill="none" xmlns="http://www.w3.org/2000/svg">
<g clip-path="url(#clip0_14205_42723)">
<path d="M10.5 0H1.5C0.671573 0 0 0.671573 0 1.5V10.5C0 11.3284 0.671573 12 1.5 12H10.5C11.3284 12 12 11.3284 12 10.5V1.5C12 0.671573 11.3284 0 10.5 0Z" fill="#1683A5"/>
<path d="M2.51618 5.25086C2.47497 4.91233 2.52688 4.56898 2.6663 4.25775C2.80572 3.94653 3.02739 3.67922 3.30743 3.48461L4.29743 2.65961C4.92368 2.14586 5.24243 2.13086 6.02243 2.13086H8.13743C8.58368 2.13086 9.05618 2.23211 9.05618 2.80211C9.05618 3.37211 8.53118 3.46961 8.13743 3.46961H5.78993C5.50931 3.49258 5.24484 3.61027 5.03993 3.80336L4.21493 4.50086C4.00868 4.66586 3.83993 4.80461 3.83993 5.07086V6.72461C3.83993 6.98711 3.99368 7.12586 4.21493 7.29461L5.02493 7.97711C5.23034 8.16945 5.49453 8.28702 5.77493 8.31086H8.13743C8.53118 8.31086 9.05618 8.39711 9.05618 8.97836C9.05618 9.55961 8.58368 9.64586 8.13743 9.64586H6.02243C5.24243 9.64586 4.91993 9.64586 4.29743 9.12086L3.30743 8.28461C3.0301 8.08921 2.81035 7.82289 2.67115 7.5135C2.53196 7.20411 2.47844 6.86301 2.51618 6.52586V5.25086Z" fill="white"/>
</g>
<defs>
<clipPath id="clip0_14205_42723">
<rect width="12" height="12" fill="white"/>
</clipPath>
</defs>
</svg>
