<svg xmlns="http://www.w3.org/2000/svg" width="16" height="16" viewBox="0 0 16 16" fill="none"><path opacity="0.12" d="M8 14.6673C11.3137 14.6673 14 13.7719 14 12.6673V3.33398C14 3.33398 13.6667 5.33398 8 5.33398C2.33333 5.33398 2 3.33398 2 3.33398V12.6673C2 13.7719 4.68629 14.6673 8 14.6673Z" fill="#1F75CB"/><path d="M14 8.00065C14 9.10522 11.3137 10.0007 8 10.0007C4.68629 10.0007 2 9.10522 2 8.00065M14 3.33398C14 4.43855 11.3137 5.33398 8 5.33398C4.68629 5.33398 2 4.43855 2 3.33398M14 3.33398C14 2.22941 11.3137 1.33398 8 1.33398C4.68629 1.33398 2 2.22941 2 3.33398M14 3.33398V12.6673C14 13.7719 11.3137 14.6673 8 14.6673C4.68629 14.6673 2 13.7719 2 12.6673V3.33398" stroke="#1F75CB" stroke-linecap="round" stroke-linejoin="round"/></svg>
