<svg
  width="12"
  height="12"
  viewBox="0 0 12 12"
  fill="none"
  xmlns="http://www.w3.org/2000/svg"
>
  <path
    d="M10 10.5H2M8 2C7.875 2.875 8.625 3.625 9.5 3.5M3.5 8L3.57005 7.71979C3.73008 7.07967 3.8101 6.7596 3.93877 6.4612C4.05301 6.19627 4.19557 5.94448 4.36397 5.71022C4.55366 5.44635 4.78694 5.21307 5.25351 4.74651L8.25006 1.74999C8.66428 1.33578 9.33585 1.33579 9.75005 1.75001V1.75001C10.1642 2.16422 10.1642 2.83577 9.75003 3.24997L6.75349 6.24651C6.28693 6.71307 6.05364 6.94636 5.78978 7.13604C5.55553 7.30443 5.30374 7.44699 5.03881 7.56123C4.74041 7.6899 4.42035 7.76991 3.78023 7.92994L3.5 8Z"
    stroke="#606266"
    stroke-linecap="round"
    stroke-linejoin="round"
  />
</svg>
