<svg xmlns="http://www.w3.org/2000/svg" width="24" height="24" viewBox="0 0 24 24" fill="none">
  <path d="M18 10.0003L14 6.0003M2.5 21.5003L5.88437 21.1243C6.29786 21.0783 6.5046 21.0553 6.69785 20.9928C6.86929 20.9373 7.03245 20.8589 7.18289 20.7597C7.35245 20.6479 7.49955 20.5008 7.79373 20.2066L21 7.0003C22.1046 5.89573 22.1046 4.10487 21 3.0003C19.8955 1.89573 18.1046 1.89573 17 3.0003L3.79373 16.2066C3.49955 16.5008 3.35246 16.6478 3.24064 16.8174C3.14143 16.9679 3.06301 17.131 3.00751 17.3025C2.94496 17.4957 2.92198 17.7024 2.87604 18.1159L2.5 21.5003Z" stroke="white" stroke-width="2" stroke-linecap="round" stroke-linejoin="round"/>
</svg>