<svg xmlns="http://www.w3.org/2000/svg" width="44" height="44" viewBox="0 0 44 44" fill="none">
  <g filter="url(#filter0_d_9488_171854)">
    <rect x="2" y="1" width="40" height="40" rx="8" fill="white" shape-rendering="crispEdges"/>
    <rect x="2.5" y="1.5" width="39" height="39" rx="7.5" stroke="#EAECF0" shape-rendering="crispEdges"/>
    <path fill-rule="evenodd" clip-rule="evenodd" d="M32.7093 10.521L21.6674 5L7 12.3337V21L11.4865 23.2432V19.6351L19.4241 23.6039V29.9574L13.9023 27.1965V27.2121L7 23.7609V29.6663L21.6674 37L36.3348 29.6663V12.3337L35.4702 11.9014L30.7801 14.2465L30.7818 14.2474L21.6674 18.8046L12.553 14.2474L21.6674 9.69017L28.0192 12.8661L32.7093 10.521ZM23.9106 29.9574V23.6039L31.8483 19.6351V23.2432L36.3347 21V23.7609L29.4324 27.2121V27.1965L23.9106 29.9574Z" fill="#1C8B7F"/>
  </g>
  <defs>
    <filter id="filter0_d_9488_171854" x="0" y="0" width="44" height="44" filterUnits="userSpaceOnUse" color-interpolation-filters="sRGB">
      <feFlood flood-opacity="0" result="BackgroundImageFix"/>
      <feColorMatrix in="SourceAlpha" type="matrix" values="0 0 0 0 0 0 0 0 0 0 0 0 0 0 0 0 0 0 127 0" result="hardAlpha"/>
      <feOffset dy="1"/>
      <feGaussianBlur stdDeviation="1"/>
      <feComposite in2="hardAlpha" operator="out"/>
      <feColorMatrix type="matrix" values="0 0 0 0 0.0627451 0 0 0 0 0.0941176 0 0 0 0 0.156863 0 0 0 0.05 0"/>
      <feBlend mode="normal" in2="BackgroundImageFix" result="effect1_dropShadow_9488_171854"/>
      <feBlend mode="normal" in="SourceGraphic" in2="effect1_dropShadow_9488_171854" result="shape"/>
    </filter>
  </defs>
</svg>