<?xml version="1.0" encoding="UTF-8"?>
<svg width="34px" height="37px" viewBox="0 0 34 37" version="1.1" xmlns="http://www.w3.org/2000/svg" xmlns:xlink="http://www.w3.org/1999/xlink">
    <title>Group</title>
    <g id="社区" stroke="none" stroke-width="1" fill="none" fill-rule="evenodd">
        <g id="专属实例" transform="translate(-782, -155)" fill-rule="nonzero">
            <g id="Group" transform="translate(782, 155)">
                <polygon id="Path" fill="#DCE1E9" points="33 10.5183472 17 19 1 10.5183472 17 2"></polygon>
                <path d="M17,37 C16.7821219,37 16.5676663,36.9460264 16.3762308,36.842418 L0.683923077,28.3746973 C0.262421918,28.1468782 0,27.7075612 0,27.2299531 L0,10.3023256 C0,9.58307101 0.585473789,9 1.30769231,9 C2.02991083,9 2.61538462,9.58307101 2.61538462,10.3023256 L2.61538462,26.4537671 L17,34.2156274 L31.3846154,26.4537671 L31.3846154,10.3023256 C31.3846154,9.58307101 31.9700892,9 32.6923077,9 C33.4145262,9 34,9.58307101 34,10.3023256 L34,27.2299531 C34,27.7075612 33.7375781,28.1468782 33.3160769,28.3746973 L17.6237692,36.842418 C17.4323337,36.9460264 17.2178781,37 17,37 Z" id="Path" fill="#2F384C"></path>
                <path d="M32.6869405,11.4562718 C32.4693401,11.4560757 32.2552179,11.4000221 32.0639472,11.2931709 L16.982535,2.87992774 L1.89981405,11.2931709 C1.26753731,11.6225555 0.495543595,11.3739436 0.158130966,10.7322814 C-0.179281663,10.0906191 0.0404336934,9.28895568 0.653827387,8.92366086 L16.3595417,0.162673961 C16.7481691,-0.0542246536 17.2169009,-0.0542246536 17.6055283,0.162673961 L33.3112426,8.92366086 C33.8399762,9.21623456 34.1073651,9.84196123 33.959677,10.4410859 C33.8119889,11.0402106 33.2871622,11.4588286 32.6869405,11.4562718 Z M16.982535,31 C16.2596995,31 15.6737255,30.3965496 15.6737255,29.6521559 L15.6737255,18.8694028 C15.6737255,18.125009 16.2596995,17.5215586 16.982535,17.5215586 C17.7053706,17.5215586 18.2913445,18.125009 18.2913445,18.8694028 L18.2913445,29.6521559 C18.2913445,30.3965496 17.7053706,31 16.982535,31 Z" id="Shape" fill="#2F384C"></path>
                <path d="M17.3265796,20 C16.7193015,20.0011894 16.1891083,19.5725414 16.0404225,18.9601717 C15.8917367,18.3478019 16.162687,17.7087451 16.6977009,17.4099302 L26.0924855,12.140293 C26.7317155,11.8153009 27.5036281,12.0732788 27.8411713,12.7247144 C28.1787144,13.3761501 27.9614222,14.1885521 27.3489188,14.5651247 L17.9541342,19.834762 C17.754217,19.946296 17.5384124,20 17.3265796,20 L17.3265796,20 Z" id="Path" fill="#2F384C"></path>
                <path d="M16.6754668,20 C16.4635671,20 16.2476943,19.9462892 16.047714,19.8347359 L6.65128683,14.5655671 C6.03859001,14.1889295 5.82122912,13.3763874 6.15887889,12.7248394 C6.49652866,12.0732915 7.26868501,11.8152691 7.90811691,12.1403172 L17.3045441,17.4108632 C17.8382553,17.7104206 18.1080916,18.348694 17.9595248,18.960161 C17.8109579,19.5716279 17.2819569,20 16.6754668,20 L16.6754668,20 Z" id="Path" fill="#2F384C"></path>
            </g>
        </g>
    </g>
</svg>