<svg width="16" height="16" viewBox="0 0 16 16" fill="none" xmlns="http://www.w3.org/2000/svg">
  <path d="M8.00016 10.6668V7.3335M8.3335 5.3335C8.3335 5.51759 8.18426 5.66683 8.00016 5.66683C7.81607 5.66683 7.66683 5.51759 7.66683 5.3335M8.3335 5.3335C8.3335 5.1494 8.18426 5.00016 8.00016 5.00016C7.81607 5.00016 7.66683 5.1494 7.66683 5.3335M8.3335 5.3335H7.66683M14.6668 8.00016C14.6668 11.6821 11.6821 14.6668 8.00016 14.6668C4.31826 14.6668 1.3335 11.6821 1.3335 8.00016C1.3335 4.31826 4.31826 1.3335 8.00016 1.3335C11.6821 1.3335 14.6668 4.31826 14.6668 8.00016Z" stroke="#667085" stroke-linecap="round" stroke-linejoin="round"/>
</svg>
  