<svg width="32" height="32" viewBox="0 0 32 32" fill="none" xmlns="http://www.w3.org/2000/svg">
<g id="server">
<g id="Fill" opacity="0.12">
<path d="M4 8.00033C4 5.05481 6.38781 2.66699 9.33333 2.66699H22.6667C25.6122 2.66699 28 5.05481 28 8.00033C28 10.9458 25.6122 13.3337 22.6667 13.3337H9.33333C6.38781 13.3337 4 10.9458 4 8.00033Z" fill="#475467"/>
<path d="M4 22.667C4 19.7215 6.38781 17.3337 9.33333 17.3337H22.6667C25.6122 17.3337 28 19.7215 28 22.667C28 25.6125 25.6122 28.0003 22.6667 28.0003H9.33333C6.38781 28.0003 4 25.6125 4 22.667Z" fill="#475467"/>
</g>
<path id="Vector" d="M23.3333 8.00033C23.3333 8.36852 23.0349 8.66699 22.6667 8.66699C22.2985 8.66699 22 8.36852 22 8.00033M23.3333 8.00033C23.3333 7.63214 23.0349 7.33366 22.6667 7.33366C22.2985 7.33366 22 7.63214 22 8.00033M23.3333 8.00033H22M23.3333 22.667C23.3333 23.0352 23.0349 23.3337 22.6667 23.3337C22.2985 23.3337 22 23.0352 22 22.667M23.3333 22.667C23.3333 22.2988 23.0349 22.0003 22.6667 22.0003C22.2985 22.0003 22 22.2988 22 22.667M23.3333 22.667H22M9.33333 28.0003H22.6667C23.9066 28.0003 24.5266 28.0003 25.0353 27.864C26.4156 27.4942 27.4938 26.416 27.8637 25.0356C28 24.5269 28 23.907 28 22.667V22.667C28 21.427 28 20.807 27.8637 20.2984C27.4938 18.918 26.4156 17.8398 25.0353 17.47C24.5266 17.3337 23.9066 17.3337 22.6667 17.3337H9.33333C8.09337 17.3337 7.47339 17.3337 6.96472 17.47C5.58436 17.8398 4.50616 18.918 4.1363 20.2984C4 20.807 4 21.427 4 22.667V22.667C4 23.907 4 24.5269 4.1363 25.0356C4.50616 26.416 5.58436 27.4942 6.96472 27.864C7.47339 28.0003 8.09337 28.0003 9.33333 28.0003ZM9.33333 13.3337H22.6667C23.9066 13.3337 24.5266 13.3337 25.0353 13.1974C26.4156 12.8275 27.4938 11.7493 27.8637 10.3689C28 9.86027 28 9.24029 28 8.00033V8.00033C28 6.76036 28 6.14038 27.8637 5.63172C27.4938 4.25135 26.4156 3.17316 25.0353 2.80329C24.5266 2.66699 23.9066 2.66699 22.6667 2.66699H9.33333C8.09337 2.66699 7.47339 2.66699 6.96472 2.80329C5.58436 3.17316 4.50616 4.25135 4.1363 5.63172C4 6.14038 4 6.76036 4 8.00033V8.00033C4 9.24029 4 9.86027 4.1363 10.3689C4.50616 11.7493 5.58436 12.8275 6.96472 13.1974C7.47339 13.3337 8.09337 13.3337 9.33333 13.3337Z" stroke="#475467" stroke-width="2" stroke-linecap="round" stroke-linejoin="round"/>
</g>
</svg>
