<svg width="16" height="16" viewBox="0 0 16 16" fill="none" xmlns="http://www.w3.org/2000/svg">
<g id="server-02">
<path id="Icon" d="M4.00065 5.33366H4.00732M4.00065 10.667H4.00732M4.00065 8.00033H12.0007M4.00065 8.00033C2.52789 8.00033 1.33398 6.80642 1.33398 5.33366C1.33398 3.8609 2.52789 2.66699 4.00065 2.66699H12.0007C13.4734 2.66699 14.6673 3.8609 14.6673 5.33366C14.6673 6.80642 13.4734 8.00033 12.0007 8.00033M4.00065 8.00033C2.52789 8.00033 1.33398 9.19423 1.33398 10.667C1.33398 12.1398 2.52789 13.3337 4.00065 13.3337H12.0007C13.4734 13.3337 14.6673 12.1398 14.6673 10.667C14.6673 9.19423 13.4734 8.00033 12.0007 8.00033" stroke="#344054" stroke-width="1.33333" stroke-linecap="round" stroke-linejoin="round"/>
</g>
</svg>
