<svg t="1713950168920" class="icon" viewBox="0 0 1024 1024" version="1.1" xmlns="http://www.w3.org/2000/svg" p-id="16970" xmlns:xlink="http://www.w3.org/1999/xlink" width="200" height="200"><path d="M326.404858 1024a269.978918 269.978918 0 0 1 20.564133-301.55041 503.437299 503.437299 0 0 0 68.262685-168.779487 198.388427 198.388427 0 0 1 27.390402 150.775204 410.344063 410.344063 0 0 0 78.843401-287.215245 510.17824 510.17824 0 0 1 147.362071 603.186147c445.840659-266.992425 231.239844-644.143758 112.633429-785.020874-69.54261-82.597848-41.725566-47.442566-35.325939 7.764881a148.727324 148.727324 0 0 1-36.179223 127.395235A536.032731 536.032731 0 0 0 467.45263 7.82461C460.882346 4.240819 436.563765-12.056897 438.696974 17.296058c11.092686 154.870966-89.850759 320.237319-187.722383 446.608614a393.705034 393.705034 0 0 0-21.588074-129.443116c-4.69306-12.287283-17.065671-36.605865-26.537119 4.778388C180.493369 436.258285 113.937252 519.709417 93.28779 621.932787 62.569581 783.459365 117.435714 898.311332 326.404858 1024z" fill="#FF3333" p-id="16971"></path></svg>