<svg xmlns="http://www.w3.org/2000/svg" width="18" height="18" viewBox="0 0 18 18" fill="none">
  <path opacity="0.12" d="M2.25 6.86938C2.25 5.74027 2.25 5.17572 2.42756 4.68283C2.58451 4.24716 2.84019 3.85373 3.17457 3.53337C3.55286 3.17094 4.06875 2.94165 5.10055 2.48308L6.40073 1.90522C7.3579 1.47981 7.83649 1.26711 8.33396 1.1831C8.77487 1.10865 9.22513 1.10865 9.66604 1.1831C10.1635 1.26711 10.6421 1.47981 11.5993 1.90522L12.8995 2.48308C13.9312 2.94165 14.4471 3.17093 14.8254 3.53337C15.1598 3.85373 15.4155 4.24716 15.5724 4.68283C15.75 5.17571 15.75 5.74027 15.75 6.86938L15.75 9.3248C15.75 10.5771 15.75 11.2032 15.5774 11.7716C15.4246 12.2747 15.1741 12.7428 14.8402 13.1491C14.463 13.608 13.942 13.9553 12.9001 14.6499L11.6626 15.4749C10.7003 16.1165 10.2192 16.4372 9.69912 16.5618C9.23955 16.672 8.76046 16.672 8.30089 16.5618C7.78085 16.4372 7.29971 16.1165 6.33744 15.4749L5.09992 14.6499C4.05796 13.9553 3.53698 13.608 3.15982 13.1491C2.82593 12.7428 2.57541 12.2747 2.42261 11.7716C2.25 11.2032 2.25 10.5771 2.25 9.3248L2.25 6.86938Z" fill="#667085"/>
  <path d="M6.75 9L8.25 10.5L11.625 7.125M6.40073 1.90522L5.10055 2.48308C4.06875 2.94165 3.55286 3.17094 3.17457 3.53337C2.84019 3.85373 2.58451 4.24716 2.42756 4.68283C2.25 5.17572 2.25 5.74027 2.25 6.86938L2.25 9.3248C2.25 10.5771 2.25 11.2032 2.42261 11.7716C2.57541 12.2747 2.82593 12.7428 3.15982 13.1491C3.53698 13.608 4.05796 13.9553 5.09992 14.6499L6.33744 15.4749C7.29971 16.1165 7.78085 16.4372 8.30089 16.5618C8.76046 16.672 9.23955 16.672 9.69912 16.5618C10.2192 16.4372 10.7003 16.1165 11.6626 15.4749L12.9001 14.6499C13.942 13.9553 14.463 13.608 14.8402 13.1491C15.1741 12.7428 15.4246 12.2747 15.5774 11.7716C15.75 11.2032 15.75 10.5771 15.75 9.3248L15.75 6.86938C15.75 5.74027 15.75 5.17571 15.5724 4.68283C15.4155 4.24716 15.1598 3.85373 14.8254 3.53337C14.4471 3.17093 13.9312 2.94165 12.8995 2.48308L11.5993 1.90522C10.6421 1.47981 10.1635 1.26711 9.66604 1.1831C9.22513 1.10865 8.77487 1.10865 8.33396 1.1831C7.83649 1.26711 7.3579 1.47981 6.40073 1.90522Z" stroke="#667085" stroke-width="1.5" stroke-linecap="round" stroke-linejoin="round"/>
</svg>