<svg width="16" height="16" viewBox="0 0 16 16" fill="none" xmlns="http://www.w3.org/2000/svg"><path d="M6.05992 6.00016C6.21665 5.55461 6.52602 5.1789 6.93322 4.93958C7.34042 4.70027 7.81918 4.61279 8.2847 4.69264C8.75022 4.77249 9.17246 5.01451 9.47664 5.37585C9.78081 5.73718 9.94729 6.19451 9.94659 6.66683C9.94659 8.00016 7.94659 8.66683 7.94659 8.66683M7.99992 11.3335H8.00659M14.6666 8.00016C14.6666 11.6821 11.6818 14.6668 7.99992 14.6668C4.31802 14.6668 1.33325 11.6821 1.33325 8.00016C1.33325 4.31826 4.31802 1.3335 7.99992 1.3335C11.6818 1.3335 14.6666 4.31826 14.6666 8.00016Z" stroke="#98A2B3" stroke-width="1.33333" stroke-linecap="round" stroke-linejoin="round"/></svg>