<svg xmlns="http://www.w3.org/2000/svg" width="16" height="16" viewBox="0 0 12 12" fill="none">
    <path
        d="M7 5.5H4M5 7.5H4M8 3.5H4M10 5.25V3.4C10 2.55992 10 2.13988 9.83651 1.81901C9.6927 1.53677 9.46323 1.3073 9.18099 1.16349C8.86012 1 8.44008 1 7.6 1H4.4C3.55992 1 3.13988 1 2.81901 1.16349C2.53677 1.3073 2.3073 1.53677 2.16349 1.81901C2 2.13988 2 2.55992 2 3.4V8.6C2 9.44008 2 9.86012 2.16349 10.181C2.3073 10.4632 2.53677 10.6927 2.81901 10.8365C3.13988 11 3.55992 11 4.4 11H5.75M11 11L10.25 10.25M10.75 9C10.75 9.9665 9.9665 10.75 9 10.75C8.0335 10.75 7.25 9.9665 7.25 9C7.25 8.0335 8.0335 7.25 9 7.25C9.9665 7.25 10.75 8.0335 10.75 9Z"
        stroke="#475467" stroke-linecap="round" stroke-linejoin="round" />
</svg>