<svg width="12" height="12" viewBox="0 0 12 12" fill="none" xmlns="http://www.w3.org/2000/svg">
  <path d="M6 3.00001V11.0001M6 3.00001H4.28328C4.17763 3.00001 4.12481 3.00001 4.07307 3.00725C4.02712 3.01369 3.98186 3.02437 3.93789 3.03916C3.88837 3.05582 3.84112 3.07945 3.74663 3.1267L3 3.50001M6 3.00001H7.71672C7.82237 3.00001 7.87519 3.00001 7.92693 3.00725C7.97288 3.01369 8.01814 3.02437 8.06211 3.03916C8.11163 3.05582 8.15888 3.07945 8.25337 3.1267L9 3.50001M6 3.00001V1.00006M6 11.0001H8.5M6 11.0001H3.5M1 4.00001H1.71672C1.82237 4.00001 1.87519 4.00001 1.92693 3.99277C1.97288 3.98633 2.01814 3.97565 2.06211 3.96085C2.11163 3.94419 2.15888 3.92057 2.25337 3.87332L3 3.50001M11 4.00001H10.2833C10.1776 4.00001 10.1248 4.00001 10.0731 3.99277C10.0271 3.98633 9.98186 3.97565 9.93789 3.96085C9.88837 3.94419 9.84112 3.92057 9.74663 3.87332L9 3.50001M3 3.50001L1.93102 7.06327C1.80356 7.48816 1.73982 7.7006 1.76796 7.87171C1.80739 8.11145 1.9605 8.31724 2.1788 8.42389C2.33461 8.50001 2.55641 8.50001 3 8.50001V8.50001C3.44359 8.50001 3.66539 8.50001 3.8212 8.42389C4.0395 8.31724 4.19261 8.11145 4.23204 7.87171C4.26018 7.7006 4.19644 7.48816 4.06898 7.06327L3 3.50001ZM9 3.50001L7.93102 7.06327C7.80356 7.48816 7.73982 7.7006 7.76796 7.87171C7.80739 8.11145 7.9605 8.31724 8.1788 8.42389C8.33461 8.50001 8.55641 8.50001 9 8.50001V8.50001V8.50001C9.44359 8.50001 9.66539 8.50001 9.8212 8.42389C10.0395 8.31724 10.1926 8.11145 10.232 7.87171C10.2602 7.7006 10.1964 7.48816 10.069 7.06327L9 3.50001Z" stroke="#667085" stroke-linecap="round" stroke-linejoin="round"/>
</svg>
