<svg width="18" height="18" viewBox="0 0 18 18" fill="none" xmlns="http://www.w3.org/2000/svg">
  <path d="M9 4.50001V16.5001M9 4.50001H6.42492C6.26645 4.50001 6.18721 4.50001 6.1096 4.51088C6.04067 4.52053 5.97279 4.53655 5.90683 4.55875C5.83255 4.58374 5.76168 4.61917 5.61994 4.69005L4.5 5.25001M9 4.50001H11.5751C11.7336 4.50001 11.8128 4.50001 11.8904 4.51088C11.9593 4.52053 12.0272 4.53655 12.0932 4.55875C12.1674 4.58374 12.2383 4.61917 12.3801 4.69005L13.5 5.25001M9 4.50001V1.50009M9 16.5001H12.75M9 16.5001H5.25M1.5 6.00001H2.57508C2.73355 6.00001 2.81279 6.00001 2.8904 5.98915C2.95933 5.9795 3.02721 5.96347 3.09317 5.94128C3.16745 5.91629 3.23832 5.88086 3.38006 5.80998L4.5 5.25001M16.5 6.00001H15.4249C15.2664 6.00001 15.1872 6.00001 15.1096 5.98915C15.0407 5.9795 14.9728 5.96347 14.9068 5.94128C14.8326 5.91629 14.7617 5.88086 14.6199 5.80998L13.5 5.25001M4.5 5.25001L2.89653 10.5949C2.70533 11.2322 2.60974 11.5509 2.65194 11.8076C2.71108 12.1672 2.94075 12.4759 3.2682 12.6358C3.50192 12.75 3.83461 12.75 4.5 12.75V12.75C5.16539 12.75 5.49808 12.75 5.7318 12.6358C6.05925 12.4759 6.28892 12.1672 6.34806 11.8076C6.39026 11.5509 6.29467 11.2322 6.10347 10.5949L4.5 5.25001ZM13.5 5.25001L11.8965 10.5949C11.7053 11.2322 11.6097 11.5509 11.6519 11.8076C11.7111 12.1672 11.9408 12.4759 12.2682 12.6358C12.5019 12.75 12.8346 12.75 13.5 12.75V12.75V12.75C14.1654 12.75 14.4981 12.75 14.7318 12.6358C15.0592 12.4759 15.2889 12.1672 15.3481 11.8076C15.3903 11.5509 15.2947 11.2322 15.1035 10.5949L13.5 5.25001Z" stroke="black" stroke-width="1.5" stroke-linecap="round" stroke-linejoin="round"/>
</svg>
  