<svg width="32" height="32" viewBox="0 0 32 32" fill="none" xmlns="http://www.w3.org/2000/svg">
<g opacity="0.12">
<path d="M2.66663 6.93329C2.66663 5.43982 2.66663 4.69308 2.95728 4.12265C3.21294 3.62089 3.62089 3.21294 4.12265 2.95728C4.69308 2.66663 5.43982 2.66663 6.93329 2.66663H9.06662C10.5601 2.66663 11.3068 2.66663 11.8773 2.95728C12.379 3.21294 12.787 3.62089 13.0426 4.12265C13.3333 4.69308 13.3333 5.43982 13.3333 6.93329V25.0666C13.3333 26.5601 13.3333 27.3068 13.0426 27.8773C12.787 28.379 12.379 28.787 11.8773 29.0426C11.3068 29.3333 10.5601 29.3333 9.06663 29.3333H6.9333C5.43982 29.3333 4.69308 29.3333 4.12265 29.0426C3.62089 28.787 3.21294 28.379 2.95728 27.8773C2.66663 27.3068 2.66663 26.5601 2.66663 25.0666V6.93329Z" fill="#2F384C"/>
<path d="M18.6666 22.9333C18.6666 21.4398 18.6666 20.6931 18.9573 20.1227C19.2129 19.6209 19.6209 19.2129 20.1227 18.9573C20.6931 18.6666 21.4398 18.6666 22.9333 18.6666H25.0666C26.5601 18.6666 27.3068 18.6666 27.8773 18.9573C28.379 19.2129 28.787 19.6209 29.0426 20.1227C29.3333 20.6931 29.3333 21.4398 29.3333 22.9333V25.0666C29.3333 26.5601 29.3333 27.3068 29.0426 27.8773C28.787 28.379 28.379 28.787 27.8773 29.0426C27.3068 29.3333 26.5601 29.3333 25.0666 29.3333H22.9333C21.4398 29.3333 20.6931 29.3333 20.1227 29.0426C19.6209 28.787 19.2129 28.379 18.9573 27.8773C18.6666 27.3068 18.6666 26.5601 18.6666 25.0666V22.9333Z" fill="#2F384C"/>
</g>
<path d="M2.66663 6.93329C2.66663 5.43982 2.66663 4.69308 2.95728 4.12265C3.21294 3.62089 3.62089 3.21294 4.12265 2.95728C4.69308 2.66663 5.43982 2.66663 6.93329 2.66663H9.06662C10.5601 2.66663 11.3068 2.66663 11.8773 2.95728C12.379 3.21294 12.787 3.62089 13.0426 4.12265C13.3333 4.69308 13.3333 5.43982 13.3333 6.93329V25.0666C13.3333 26.5601 13.3333 27.3068 13.0426 27.8773C12.787 28.379 12.379 28.787 11.8773 29.0426C11.3068 29.3333 10.5601 29.3333 9.06663 29.3333H6.9333C5.43982 29.3333 4.69308 29.3333 4.12265 29.0426C3.62089 28.787 3.21294 28.379 2.95728 27.8773C2.66663 27.3068 2.66663 26.5601 2.66663 25.0666V6.93329Z" stroke="#2F384C" stroke-width="2" stroke-linecap="round" stroke-linejoin="round"/>
<path d="M18.6666 6.9333C18.6666 5.43982 18.6666 4.69308 18.9573 4.12265C19.2129 3.62089 19.6209 3.21294 20.1227 2.95728C20.6931 2.66663 21.4398 2.66663 22.9333 2.66663H25.0666C26.5601 2.66663 27.3068 2.66663 27.8773 2.95728C28.379 3.21294 28.787 3.62089 29.0426 4.12265C29.3333 4.69308 29.3333 5.43982 29.3333 6.93329V9.06662C29.3333 10.5601 29.3333 11.3068 29.0426 11.8773C28.787 12.379 28.379 12.787 27.8773 13.0426C27.3068 13.3333 26.5601 13.3333 25.0666 13.3333H22.9333C21.4398 13.3333 20.6931 13.3333 20.1227 13.0426C19.6209 12.787 19.2129 12.379 18.9573 11.8773C18.6666 11.3068 18.6666 10.5601 18.6666 9.06663V6.9333Z" stroke="#2F384C" stroke-width="2" stroke-linecap="round" stroke-linejoin="round"/>
<path d="M18.6666 22.9333C18.6666 21.4398 18.6666 20.6931 18.9573 20.1227C19.2129 19.6209 19.6209 19.2129 20.1227 18.9573C20.6931 18.6666 21.4398 18.6666 22.9333 18.6666H25.0666C26.5601 18.6666 27.3068 18.6666 27.8773 18.9573C28.379 19.2129 28.787 19.6209 29.0426 20.1227C29.3333 20.6931 29.3333 21.4398 29.3333 22.9333V25.0666C29.3333 26.5601 29.3333 27.3068 29.0426 27.8773C28.787 28.379 28.379 28.787 27.8773 29.0426C27.3068 29.3333 26.5601 29.3333 25.0666 29.3333H22.9333C21.4398 29.3333 20.6931 29.3333 20.1227 29.0426C19.6209 28.787 19.2129 28.379 18.9573 27.8773C18.6666 27.3068 18.6666 26.5601 18.6666 25.0666V22.9333Z" stroke="#2F384C" stroke-width="2" stroke-linecap="round" stroke-linejoin="round"/>
</svg>
