<svg width="24" height="24" viewBox="0 0 24 24" fill="none" xmlns="http://www.w3.org/2000/svg">
<path d="M12.9998 14L9.99985 11M15.0102 3.5V2M18.9495 5.06066L20.0102 4M18.9495 13L20.0102 14.0607M11.0102 5.06066L9.94954 4M20.5102 9H22.0102M6.13122 20.8686L15.3685 11.6314C15.7645 11.2354 15.9625 11.0373 16.0367 10.809C16.1019 10.6082 16.1019 10.3918 16.0367 10.191C15.9625 9.96265 15.7645 9.76465 15.3685 9.36863L14.6312 8.63137C14.2352 8.23535 14.0372 8.03735 13.8089 7.96316C13.608 7.8979 13.3917 7.8979 13.1908 7.96316C12.9625 8.03735 12.7645 8.23535 12.3685 8.63137L3.13122 17.8686C2.7352 18.2646 2.53719 18.4627 2.46301 18.691C2.39775 18.8918 2.39775 19.1082 2.46301 19.309C2.53719 19.5373 2.7352 19.7354 3.13122 20.1314L3.86848 20.8686C4.2645 21.2646 4.4625 21.4627 4.69083 21.5368C4.89168 21.6021 5.10802 21.6021 5.30887 21.5368C5.53719 21.4627 5.7352 21.2646 6.13122 20.8686Z" stroke="#344054" stroke-width="2" stroke-linecap="round" stroke-linejoin="round"/>
</svg>
