<svg width="18" height="18" viewBox="0 0 18 18" fill="none" xmlns="http://www.w3.org/2000/svg">
<g id="01-Icon/&#231;&#138;&#182;&#230;&#128;&#129;/&#229;&#184;&#174;&#229;&#138;&#169;/&#229;&#161;&#171;&#229;&#133;&#133;24">
<g id="Fill" opacity="0.12">
<path d="M3.75 13.5C3.75 12.5681 3.75 12.1022 3.90224 11.7346C4.10523 11.2446 4.49458 10.8552 4.98463 10.6522C5.35218 10.5 5.81812 10.5 6.75 10.5C7.68188 10.5 8.14782 10.5 8.51537 10.6522C9.00542 10.8552 9.39477 11.2446 9.59776 11.7346C9.75 12.1022 9.75 12.5681 9.75 13.5C9.75 14.4319 9.75 14.8978 9.59776 15.2654C9.39477 15.7554 9.00542 16.1448 8.51537 16.3478C8.14782 16.5 7.68188 16.5 6.75 16.5C5.81812 16.5 5.35218 16.5 4.98463 16.3478C4.49458 16.1448 4.10523 15.7554 3.90224 15.2654C3.75 14.8978 3.75 14.4319 3.75 13.5Z" fill="#4E5BA6"/>
<path d="M8.25 4.5C8.25 3.56812 8.25 3.10218 8.40224 2.73463C8.60523 2.24458 8.99458 1.85523 9.48463 1.65224C9.85218 1.5 10.3181 1.5 11.25 1.5C12.1819 1.5 12.6478 1.5 13.0154 1.65224C13.5054 1.85523 13.8948 2.24458 14.0978 2.73463C14.25 3.10218 14.25 3.56812 14.25 4.5C14.25 5.43188 14.25 5.89782 14.0978 6.26537C13.8948 6.75542 13.5054 7.14477 13.0154 7.34776C12.6478 7.5 12.1819 7.5 11.25 7.5C10.3181 7.5 9.85218 7.5 9.48463 7.34776C8.99458 7.14477 8.60523 6.75542 8.40224 6.26537C8.25 5.89782 8.25 5.43188 8.25 4.5Z" fill="#4E5BA6"/>
</g>
<path id="Vector" d="M1.5 13.5H3.75M14.25 4.5H16.5M12 13.5H16.5M1.5 4.5H6M6.75 16.5V16.5C7.68188 16.5 8.14782 16.5 8.51537 16.3478C9.00542 16.1448 9.39477 15.7554 9.59776 15.2654C9.75 14.8978 9.75 14.4319 9.75 13.5V13.5C9.75 12.5681 9.75 12.1022 9.59776 11.7346C9.39477 11.2446 9.00542 10.8552 8.51537 10.6522C8.14782 10.5 7.68188 10.5 6.75 10.5V10.5C5.81812 10.5 5.35218 10.5 4.98463 10.6522C4.49458 10.8552 4.10523 11.2446 3.90224 11.7346C3.75 12.1022 3.75 12.5681 3.75 13.5V13.5C3.75 14.4319 3.75 14.8978 3.90224 15.2654C4.10523 15.7554 4.49458 16.1448 4.98463 16.3478C5.35218 16.5 5.81812 16.5 6.75 16.5ZM11.25 7.5V7.5C12.1819 7.5 12.6478 7.5 13.0154 7.34776C13.5054 7.14477 13.8948 6.75542 14.0978 6.26537C14.25 5.89782 14.25 5.43188 14.25 4.5V4.5C14.25 3.56812 14.25 3.10218 14.0978 2.73463C13.8948 2.24458 13.5054 1.85523 13.0154 1.65224C12.6478 1.5 12.1819 1.5 11.25 1.5V1.5C10.3181 1.5 9.85218 1.5 9.48463 1.65224C8.99458 1.85523 8.60523 2.24458 8.40224 2.73463C8.25 3.10218 8.25 3.56812 8.25 4.5V4.5C8.25 5.43188 8.25 5.89782 8.40224 6.26537C8.60523 6.75542 8.99458 7.14477 9.48463 7.34776C9.85218 7.5 10.3181 7.5 11.25 7.5Z" stroke="#4E5BA6" stroke-width="1.5" stroke-linecap="round"/>
</g>
</svg>