<svg width="12" height="12" viewBox="0 0 12 12" fill="none" xmlns="http://www.w3.org/2000/svg">
<g clip-path="url(#clip0_14205_42652)">
<path fill-rule="evenodd" clip-rule="evenodd" d="M4.88115 0.75C4.05725 0.75 3.38934 1.3967 3.38934 2.19444V3.19444H5.97131V3.47222H2.2418C1.4179 3.47222 0.75 4.11892 0.75 4.91666L0.75 7.08333C0.75 7.88107 1.4179 8.52777 2.2418 8.52777H3.10246V7.30555C3.10246 6.50781 3.77036 5.86111 4.59426 5.86111H7.34836C8.0455 5.86111 8.61065 5.3139 8.61065 4.63889V2.19444C8.61065 1.3967 7.94275 0.75 7.11885 0.75H4.88115ZM4.53688 2.52778C4.82208 2.52778 5.05328 2.30392 5.05328 2.02778C5.05328 1.75163 4.82208 1.52778 4.53688 1.52778C4.25169 1.52778 4.02049 1.75163 4.02049 2.02778C4.02049 2.30392 4.25169 2.52778 4.53688 2.52778Z" fill="url(#paint0_linear_14205_42652)"/>
<path fill-rule="evenodd" clip-rule="evenodd" d="M7.11867 11.2504C7.94257 11.2504 8.61047 10.6037 8.61047 9.80599V8.80599L6.0285 8.80599L6.0285 8.52821L9.75801 8.52821C10.5819 8.52821 11.2498 7.88151 11.2498 7.08377V4.9171C11.2498 4.11936 10.5819 3.47266 9.75801 3.47266L8.89735 3.47266V4.69488C8.89735 5.49262 8.22945 6.13932 7.40555 6.13932L4.65145 6.13932C3.95431 6.13932 3.38916 6.68653 3.38916 7.36154L3.38916 9.80599C3.38916 10.6037 4.05706 11.2504 4.88096 11.2504H7.11867ZM7.46293 9.47265C7.17773 9.47265 6.94654 9.69651 6.94654 9.97265C6.94654 10.2488 7.17773 10.4727 7.46293 10.4727C7.74812 10.4727 7.97932 10.2488 7.97932 9.97265C7.97932 9.69651 7.74812 9.47265 7.46293 9.47265Z" fill="url(#paint1_linear_14205_42652)"/>
</g>
<defs>
<linearGradient id="paint0_linear_14205_42652" x1="4.68033" y1="0.75" x2="4.68033" y2="8.52777" gradientUnits="userSpaceOnUse">
<stop stop-color="#327EBD"/>
<stop offset="1" stop-color="#1565A7"/>
</linearGradient>
<linearGradient id="paint1_linear_14205_42652" x1="7.31949" y1="3.47266" x2="7.31949" y2="11.2504" gradientUnits="userSpaceOnUse">
<stop stop-color="#FFDA4B"/>
<stop offset="1" stop-color="#F9C600"/>
</linearGradient>
<clipPath id="clip0_14205_42652">
<rect width="12" height="12" fill="white"/>
</clipPath>
</defs>
</svg>
