<svg xmlns="http://www.w3.org/2000/svg" width="16" height="16" viewBox="0 0 16 16" fill="none">
    <path opacity="0.12"
        d="M8 14.6668C11.3137 14.6668 14 13.7714 14 12.6668V3.3335C14 3.3335 13.6667 5.3335 8 5.3335C2.33333 5.3335 2 3.3335 2 3.3335V12.6668C2 13.7714 4.68629 14.6668 8 14.6668Z"
        fill="#A8ABB2" />
    <path
        d="M14 8.00016C14 9.10473 11.3137 10.0002 8 10.0002C4.68629 10.0002 2 9.10473 2 8.00016M14 3.3335C14 4.43807 11.3137 5.3335 8 5.3335C4.68629 5.3335 2 4.43807 2 3.3335M14 3.3335C14 2.22893 11.3137 1.3335 8 1.3335C4.68629 1.3335 2 2.22893 2 3.3335M14 3.3335V12.6668C14 13.7714 11.3137 14.6668 8 14.6668C4.68629 14.6668 2 13.7714 2 12.6668V3.3335"
        stroke="#A8ABB2" stroke-linecap="round" stroke-linejoin="round" />
</svg>