<svg width="24" height="24" viewBox="0 0 24 24" fill="none" xmlns="http://www.w3.org/2000/svg">
  <path d="M12.0344 2.97314L20.9997 7.89004V10.7548L12.0344 5.8379V2.97314Z" fill="#FF7C00"
    fill-opacity="0.75" />
  <path d="M20.9962 7.88867L11.998 12.8241V15.7073L20.9962 10.7719V7.88867Z" fill="#FF7C00" />
  <path d="M3 7.88867L11.999 12.8241V15.7073L3 10.7719V7.88867Z" fill="#FF7C00" fill-opacity="0.75" />
  <path d="M12.0347 2.95508L3.00195 7.89042V10.7736L12.0347 5.8383V2.95508Z" fill="#FF7C00" />
  <path d="M12.0344 7.94482L20.9997 12.8617V15.7264L12.0344 10.8096V7.94482Z" fill="#FF7C00"
    fill-opacity="0.75" />
  <path d="M20.9967 12.8618L11.9985 17.7972V20.6804L20.9967 15.7451V12.8618Z" fill="#FF7C00" />
  <path d="M3 12.8618L11.999 17.7972V20.6804L3 15.7451V12.8618Z" fill="#FF7C00" fill-opacity="0.75" />
  <path d="M12.0347 7.92578L3.00195 12.8611V15.7443L12.0347 10.809V7.92578Z" fill="#FF7C00" />
</svg>