<svg width="24" height="24" viewBox="0 0 24 24" fill="none" xmlns="http://www.w3.org/2000/svg">
  <path
      d="M4.3652 10.6875H2.25161C2.15149 10.6875 2.07363 10.6096 2.0625 10.4984V8.60709C2.0625 8.49583 2.15149 8.41797 2.25161 8.41797H4.3652C4.47644 8.41797 4.5543 8.50697 4.5543 8.60709V10.4984C4.5543 10.6096 4.4653 10.6875 4.3652 10.6875ZM7.27971 10.6875H5.16613C5.06601 10.6875 4.98815 10.6096 4.97702 10.4984V8.60709C4.97702 8.49583 5.06601 8.41797 5.16613 8.41797H7.27971C7.39095 8.41797 7.46883 8.50697 7.46883 8.60709V10.4984C7.46883 10.6096 7.37983 10.6875 7.27971 10.6875ZM10.2499 10.6875H8.13627C8.02503 10.6875 7.94717 10.6096 7.94717 10.4984V8.60709C7.94717 8.49583 8.03616 8.41797 8.13627 8.41797H10.2499C10.3611 8.41797 10.439 8.50697 10.439 8.60709V10.4984C10.439 10.6096 10.35 10.6875 10.2499 10.6875ZM13.1755 10.6875H11.0619C10.9618 10.6875 10.8728 10.6096 10.8728 10.4984V8.60709C10.8728 8.49583 10.9618 8.41797 11.0619 8.41797H13.1755C13.2867 8.41797 13.3646 8.50697 13.3646 8.60709V10.4984C13.3646 10.6096 13.2756 10.6875 13.1755 10.6875ZM7.27971 7.98408H5.16613C5.06601 7.98408 4.98815 7.89508 4.97702 7.79496V5.90367C4.97702 5.79243 5.06601 5.71455 5.16613 5.71455H7.27971C7.39095 5.71455 7.46883 5.80354 7.46883 5.90367V7.79496C7.46883 7.89508 7.37983 7.98408 7.27971 7.98408ZM10.2499 7.98408H8.13627C8.02503 7.98408 7.94717 7.89508 7.94717 7.79496V5.90367C7.94717 5.79243 8.03616 5.71455 8.13627 5.71455H10.2499C10.3611 5.71455 10.439 5.80354 10.439 5.90367V7.79496C10.439 7.89508 10.35 7.98408 10.2499 7.98408ZM13.1755 7.98408H11.0619C10.9618 7.98408 10.8728 7.89508 10.8728 7.79496V5.90367C10.8728 5.79242 10.9618 5.71455 11.0619 5.71455H13.1755C13.2756 5.71455 13.3646 5.80354 13.3646 5.90367V7.79496C13.3646 7.89508 13.2756 7.98408 13.1755 7.98408ZM13.1755 5.26953H11.0619C10.9618 5.26953 10.8728 5.18054 10.8728 5.08041V3.18913C10.8728 3.07788 10.9618 3 11.0619 3L13.1755 3C13.2756 3 13.3646 3.089 13.3646 3.18913V5.08041C13.3646 5.19166 13.2756 5.26953 13.1755 5.26953ZM16.1234 10.6875H14.0098C13.9097 10.6875 13.8318 10.6096 13.8207 10.4984V8.60709C13.8207 8.49583 13.9097 8.41797 14.0098 8.41797H16.1234C16.2347 8.41797 16.3125 8.50697 16.3125 8.60709V10.4984C16.3125 10.6096 16.2236 10.6875 16.1234 10.6875ZM21.8071 8.97658C23.0984 8.97658 23.6994 9.43512 23.7663 9.49104L24 9.6588L23.8998 9.94959C23.7328 10.3522 23.4991 10.7101 23.1875 11.0009C22.7199 11.4706 21.8739 12.0186 20.5049 12.0186H20.2822C19.7368 13.4278 18.991 15.0159 17.7332 16.4363C16.9875 17.2863 16.108 18.0132 15.1285 18.5837C13.9375 19.2659 12.6463 19.7355 11.2995 19.9817C10.3311 20.1606 9.35154 20.25 8.37201 20.25C6.20145 20.25 4.27578 19.8361 3.09588 19.1092C2.04957 18.4605 1.237 17.3981 0.691578 15.9666C0.212943 14.658 -0.0208092 13.2712 0.00145278 11.8844C0.00145274 11.4706 0.335385 11.1351 0.747232 11.1351H16.5534C16.7536 11.1239 17.7109 11.0456 18.3009 10.7101C17.8111 9.92721 17.6664 9.01014 17.9002 8.03714C18.0226 7.53385 18.2341 7.04176 18.5124 6.60558L18.735 6.28125L19.0802 6.48257C19.0837 6.48554 19.0935 6.49194 19.1084 6.50182C19.3182 6.64099 20.5656 7.46843 20.7942 9.06606C21.1283 9.01014 21.4732 8.97658 21.8071 8.97658Z"
      fill="#D0D5DD"/>
</svg>