<svg xmlns="http://www.w3.org/2000/svg" width="25" height="24" viewBox="0 0 25 24" fill="none">
  <path
    d="M5.5 18.5C5.5 18.9644 5.5 19.1966 5.52567 19.3916C5.7029 20.7378 6.76222 21.7971 8.10842 21.9743C8.30337 22 8.53558 22 9 22H16.7C18.3802 22 19.2202 22 19.862 21.673C20.4265 21.3854 20.8854 20.9265 21.173 20.362C21.5 19.7202 21.5 18.8802 21.5 17.2V9.98822C21.5 9.25445 21.5 8.88757 21.4171 8.5423C21.3436 8.2362 21.2224 7.94356 21.0579 7.67515C20.8724 7.3724 20.613 7.11296 20.0941 6.59411L16.9059 3.40589C16.387 2.88703 16.1276 2.6276 15.8249 2.44208C15.5564 2.27759 15.2638 2.15638 14.9577 2.08289C14.6124 2 14.2455 2 13.5118 2H9C8.53558 2 8.30337 2 8.10842 2.02567C6.76222 2.2029 5.7029 3.26222 5.52567 4.60842C5.5 4.80337 5.5 5.03558 5.5 5.5M9.5 14.5L12 12L9.5 9.5M5.5 9.5L3 12L5.5 14.5"
    stroke="white" stroke-width="2" stroke-linecap="round" stroke-linejoin="round" />
</svg>