<svg xmlns="http://www.w3.org/2000/svg" width="12" height="12" viewBox="0 0 12 12" fill="none">
  <g clip-path="url(#clip0_14580_10668)">
    <path d="M5.64133 1.72666C5.75657 1.49319 5.81419 1.37645 5.89241 1.33916C5.96047 1.30671 6.03954 1.30671 6.1076 1.33916C6.18583 1.37645 6.24345 1.49319 6.35869 1.72666L7.45203 3.94164C7.48605 4.01057 7.50306 4.04503 7.52792 4.07179C7.54994 4.09548 7.57633 4.11467 7.60566 4.12831C7.63878 4.14371 7.6768 4.14927 7.75286 4.16039L10.1985 4.51785C10.456 4.5555 10.5848 4.57432 10.6444 4.63722C10.6962 4.69195 10.7206 4.76715 10.7108 4.84189C10.6994 4.92779 10.6062 5.01859 10.4197 5.20019L8.65072 6.92321C8.59558 6.97692 8.56801 7.00378 8.55021 7.03573C8.53446 7.06402 8.52435 7.09511 8.52046 7.12725C8.51605 7.16356 8.52256 7.2015 8.53557 7.27737L8.95298 9.71106C8.997 9.96774 9.01902 10.0961 8.97765 10.1722C8.94166 10.2385 8.87768 10.285 8.80353 10.2987C8.71831 10.3145 8.60306 10.2539 8.37256 10.1327L6.18619 8.98292C6.11807 8.94709 6.08401 8.92918 6.04812 8.92214C6.01635 8.91591 5.98367 8.91591 5.9519 8.92214C5.91601 8.92918 5.88195 8.94709 5.81383 8.98292L3.62746 10.1327C3.39696 10.2539 3.28171 10.3145 3.19649 10.2987C3.12234 10.285 3.05836 10.2385 3.02237 10.1722C2.981 10.0961 3.00301 9.96774 3.04704 9.71106L3.46444 7.27737C3.47746 7.2015 3.48396 7.16356 3.47956 7.12725C3.47566 7.09511 3.46556 7.06402 3.4498 7.03573C3.43201 7.00378 3.40444 6.97692 3.34929 6.92321L1.58028 5.20019C1.39383 5.01859 1.30061 4.92779 1.28926 4.84189C1.27939 4.76715 1.30378 4.69195 1.35563 4.63722C1.41522 4.57432 1.54399 4.5555 1.80152 4.51785L4.24716 4.16039C4.32321 4.14927 4.36124 4.14371 4.39436 4.12831C4.42368 4.11467 4.45008 4.09548 4.47209 4.07179C4.49695 4.04503 4.51396 4.01057 4.54799 3.94164L5.64133 1.72666Z" stroke="#4E5BA6" stroke-width="1.5" stroke-linecap="round" stroke-linejoin="round"/>
  </g>
  <defs>
    <clipPath id="clip0_14580_10668">
      <rect width="12" height="12" fill="white"/>
    </clipPath>
  </defs>
</svg>