<svg
  xmlns="http://www.w3.org/2000/svg"
  width="284"
  height="245"
  viewBox="0 0 284 245"
  fill="none"
>
  <path
    d="M202.457 235.722C201.789 237.238 202.477 239.009 203.993 239.677C205.509 240.345 207.28 239.657 207.948 238.141L202.457 235.722ZM114.216 118.445L111.679 120.046L111.68 120.047L114.216 118.445ZM198.838 97.3764L195.875 96.9101L195.875 96.9105L198.838 97.3764ZM45.7884 41.7411C44.3586 42.5784 43.8783 44.4161 44.7156 45.8459C45.5528 47.2756 47.3906 47.7559 48.8204 46.9187L45.7884 41.7411ZM224.343 232.831C225.845 232.13 226.494 230.345 225.793 228.844C225.092 227.342 223.307 226.693 221.805 227.394L224.343 232.831ZM204.547 238.761L202.013 240.366C202.82 241.641 204.449 242.118 205.816 241.48L204.547 238.761ZM195.557 219.766C194.53 218.466 192.644 218.244 191.343 219.271C190.043 220.298 189.821 222.184 190.848 223.485L195.557 219.766ZM205.202 236.931C207.948 238.141 207.948 238.14 207.949 238.138C207.949 238.137 207.95 238.135 207.951 238.133C207.953 238.13 207.955 238.124 207.958 238.118C207.963 238.105 207.971 238.087 207.982 238.063C208.002 238.016 208.032 237.948 208.07 237.859C208.146 237.682 208.256 237.422 208.397 237.083C208.678 236.407 209.082 235.418 209.576 234.147C210.565 231.607 211.921 227.941 213.399 223.409C216.353 214.356 219.811 201.804 221.804 187.851C225.765 160.126 224.063 125.919 199.816 103.158L195.709 107.533C217.734 128.207 219.752 159.792 215.864 187.002C213.934 200.516 210.576 212.717 207.695 221.549C206.256 225.96 204.939 229.52 203.985 231.97C203.508 233.195 203.122 234.142 202.857 234.778C202.725 235.096 202.623 235.337 202.555 235.495C202.521 235.575 202.496 235.633 202.479 235.671C202.471 235.69 202.465 235.704 202.461 235.713C202.459 235.717 202.458 235.72 202.457 235.721C202.457 235.722 202.457 235.722 202.457 235.723C202.457 235.722 202.457 235.722 205.202 236.931ZM199.816 103.158C175.931 80.7374 150.296 77.9786 132.262 84.2273C123.313 87.3281 116.132 92.6964 112.149 99.091C108.114 105.571 107.361 113.204 111.679 120.046L116.753 116.844C113.88 112.292 114.191 107.162 117.242 102.263C120.347 97.2783 126.275 92.6518 134.226 89.8967C149.993 84.4336 173.323 86.5183 195.709 107.533L199.816 103.158ZM111.68 120.047C115.769 126.522 123.096 131.278 131.524 134.122C140 136.983 149.902 138.024 159.565 136.808C178.931 134.37 197.894 122.698 201.802 97.8423L195.875 96.9105C192.497 118.396 176.343 128.648 158.816 130.855C150.032 131.96 141.043 131.003 133.443 128.437C125.794 125.856 119.857 121.758 116.753 116.843L111.68 120.047ZM201.802 97.8427C203.804 85.1198 198.77 72.7939 189.552 62.262C180.337 51.7328 166.772 42.7703 151.066 36.545C119.696 24.1108 78.9842 22.3017 45.7884 41.7411L48.8204 46.9187C80.0391 28.637 118.74 30.186 148.855 42.1228C163.892 48.0829 176.588 56.5591 185.037 66.2135C193.484 75.8652 197.518 86.4678 195.875 96.9101L201.802 97.8427ZM221.805 227.394L203.278 236.043L205.816 241.48L224.343 232.831L221.805 227.394ZM204.547 238.761C207.082 237.156 207.082 237.156 207.082 237.156C207.081 237.156 207.081 237.156 207.081 237.155C207.081 237.155 207.08 237.154 207.08 237.153C207.079 237.151 207.077 237.149 207.075 237.145C207.071 237.139 207.064 237.128 207.056 237.115C207.039 237.088 207.013 237.048 206.98 236.996C206.914 236.892 206.818 236.74 206.694 236.545C206.446 236.155 206.089 235.594 205.653 234.912C204.782 233.548 203.593 231.696 202.326 229.743C199.836 225.909 196.91 221.481 195.557 219.766L190.848 223.485C191.986 224.926 194.733 229.066 197.293 233.01C198.55 234.947 199.731 236.787 200.597 238.143C201.03 238.821 201.384 239.377 201.63 239.764C201.753 239.957 201.849 240.108 201.914 240.211C201.946 240.262 201.971 240.301 201.988 240.327C201.996 240.34 202.002 240.35 202.007 240.357C202.009 240.36 202.01 240.362 202.011 240.364C202.012 240.365 202.012 240.365 202.012 240.366C202.012 240.366 202.013 240.366 202.013 240.366C202.013 240.366 202.013 240.366 204.547 238.761Z"
    fill="#4D6AD6"
  />
</svg>
