<svg width="12" height="12" viewBox="0 0 12 12" fill="none" xmlns="http://www.w3.org/2000/svg">
<g id="repeat">
<path id="Vector" d="M1.5 10H8.9C9.46005 10 9.74008 10 9.95399 9.89101C10.1422 9.79513 10.2951 9.64215 10.391 9.45399C10.5 9.24008 10.5 8.96005 10.5 8.4V7M1.5 10L3 8.5M1.5 10L3 11.5M10.5 2H3.1C2.53995 2 2.25992 2 2.04601 2.10899C1.85785 2.20487 1.70487 2.35785 1.60899 2.54601C1.5 2.75992 1.5 3.03995 1.5 3.6V5M10.5 2L9 0.5M10.5 2L9 3.5" stroke="#344054" stroke-linecap="round" stroke-linejoin="round"/>
</g>
</svg>
