<svg
  xmlns="http://www.w3.org/2000/svg"
  width="15"
  height="15"
  viewBox="0 0 15 15"
  fill="none"
  class="absolute bottom-0 right-0"
>
  <rect
    x="0.5"
    y="0.5"
    width="14"
    height="14"
    rx="7"
    fill="white"
  />
  <path
    d="M7.5 1C3.88208 1 1 3.88208 1 7.5C1 11.1179 3.88208 14 7.5 14C11.1179 14 14 11.1179 14 7.5C14 3.88208 11.1179 1 7.5 1ZM11.3019 11.3632H3.57547V10.5047H4.92453V7.00943H5.78302V10.5047H7.31604V5.66038H8.17453V7.62264H10.6274V8.48113H8.17453V10.5047H11.3019V11.3632ZM11.3632 7.00943C9.89151 6.21226 8.60377 5.23113 7.5 3.9434C6.51887 5.10849 5.23113 6.15094 3.63679 7.00943L3.14623 6.15094C4.74057 5.35377 6.08962 4.37264 7.1934 3.14623H7.86792C9.03302 4.43396 10.3821 5.41509 11.8538 6.15094L11.3632 7.00943Z"
    fill="#67C23A"
  />
  <rect
    x="0.5"
    y="0.5"
    width="14"
    height="14"
    rx="7"
    stroke="white"
  />
</svg>