<svg width="12" height="12" viewBox="0 0 12 12" fill="none" xmlns="http://www.w3.org/2000/svg">
<path d="M10 2.5V5M10.25 6.5C10.25 6.63807 10.1381 6.75 10 6.75C9.86193 6.75 9.75 6.63807 9.75 6.5M10.25 6.5C10.25 6.36193 10.1381 6.25 10 6.25C9.86193 6.25 9.75 6.36193 9.75 6.5M10.25 6.5H9.75M6.5 3C6.5 4.10457 5.60457 5 4.5 5C3.39543 5 2.5 4.10457 2.5 3C2.5 1.89543 3.39543 1 4.5 1C5.60457 1 6.5 1.89543 6.5 3ZM2.6 11H6.4C7.28365 11 8 10.2837 8 9.4V9.4C8 8.07452 6.92548 7 5.6 7H3.4C2.07452 7 1 8.07452 1 9.4V9.4C1 10.2837 1.71634 11 2.6 11Z" stroke="#344054" stroke-linecap="round" stroke-linejoin="round"/>
</svg>
