<svg width="12" height="12" viewBox="0 0 12 12" fill="none" xmlns="http://www.w3.org/2000/svg">
<path d="M4.5 9.50008V3.67907C4.5 3.22646 4.5 3.00015 4.57968 2.81268C4.64998 2.6473 4.76354 2.50391 4.90843 2.3976C5.07267 2.2771 5.29296 2.22527 5.73354 2.1216L8.53354 1.46278C9.20495 1.3048 9.54066 1.22581 9.80456 1.31019C10.0359 1.38416 10.2324 1.53981 10.3574 1.74806C10.5 1.98562 10.5 2.33049 10.5 3.02024V8.00008M4.5 9.50008C4.5 10.3285 3.82843 11.0001 3 11.0001C2.17157 11.0001 1.5 10.3285 1.5 9.50008C1.5 8.67165 2.17157 8.00008 3 8.00008C3.82843 8.00008 4.5 8.67165 4.5 9.50008ZM10.5 8.00008C10.5 8.82851 9.82843 9.50008 9 9.50008C8.17157 9.50008 7.5 8.82851 7.5 8.00008C7.5 7.17165 8.17157 6.50008 9 6.50008C9.82843 6.50008 10.5 7.17165 10.5 8.00008Z" stroke="#344054" stroke-linecap="round" stroke-linejoin="round"/>
</svg>
