<svg width="12" height="12" viewBox="0 0 12 12" fill="none" xmlns="http://www.w3.org/2000/svg">
<g clip-path="url(#clip0_17004_257855)">
<path d="M11 4V3.75C11 2.23122 9.76878 1 8.25 1H8M11 8V8.25C11 9.76878 9.76878 11 8.25 11H8M1 8V8.25C1 9.76878 2.23122 11 3.75 11H4M1 4V3.75C1 2.23122 2.23122 1 3.75 1H4M5.99996 4V6.00004C5.99996 6.27616 5.77612 6.5 5.5 6.5M4 4V4.75M8 4V4.75M8.00037 7.5C7.54426 8.10722 6.81809 8.5 6.00018 8.5C5.18227 8.5 4.4561 8.10722 4 7.5" stroke="#344054" stroke-linecap="round" stroke-linejoin="round"/>
</g>
<defs>
<clipPath id="clip0_17004_257855">
<rect width="12" height="12" fill="white"/>
</clipPath>
</defs>
</svg>
