<svg width="12" height="12" viewBox="0 0 12 12" fill="none" xmlns="http://www.w3.org/2000/svg">
<g clip-path="url(#clip0_17004_257853)">
<path d="M4.75 5C4.75 5.13807 4.63807 5.25 4.5 5.25C4.36193 5.25 4.25 5.13807 4.25 5M4.75 5C4.75 4.86193 4.63807 4.75 4.5 4.75C4.36193 4.75 4.25 4.86193 4.25 5M4.75 5H4.25M7.75 5C7.75 5.13807 7.63807 5.25 7.5 5.25C7.36193 5.25 7.25 5.13807 7.25 5M7.75 5C7.75 4.86193 7.63807 4.75 7.5 4.75C7.36193 4.75 7.25 4.86193 7.25 5M7.75 5H7.25M8.00012 7.5C7.54402 8.10722 6.81785 8.5 5.99994 8.5C5.18203 8.5 4.45586 8.10722 3.99976 7.5M6 11C8.76142 11 11 8.76142 11 6C11 3.23858 8.76142 1 6 1C3.23858 1 1 3.23858 1 6C1 8.76142 3.23858 11 6 11Z" stroke="#344054" stroke-linecap="round" stroke-linejoin="round"/>
</g>
<defs>
<clipPath id="clip0_17004_257853">
<rect width="12" height="12" fill="white"/>
</clipPath>
</defs>
</svg>
