<svg width="12" height="12" viewBox="0 0 12 12" fill="none" xmlns="http://www.w3.org/2000/svg">
<g clip-path="url(#clip0_17004_257868)">
<path d="M1 1L1.87868 1.87868M1.87868 1.87868C1.69408 2.06328 1.53357 2.27197 1.40192 2.5C1 3.19616 1 4.13077 1 6C1 7.86925 1 8.80385 1.40192 9.5C1.66523 9.95605 2.04394 10.3347 2.5 10.5981C3.19616 11 4.13077 11 6 11C7.86925 11 8.80385 11 9.5 10.5981C9.72805 10.4664 9.9367 10.3059 10.1213 10.1213M1.87868 1.87868L10.1213 10.1213M11 11L10.1213 10.1213M3.5 1.086C4.09828 1 4.88196 1 6 1C7.86925 1 8.80385 1 9.5 1.40192C9.95605 1.66523 10.3347 2.04394 10.5981 2.5C11 3.19616 11 4.13077 11 6C11 7.11805 11 7.9017 10.914 8.5M1.5 9L2.86863 7.63135C3.26464 7.23535 3.46265 7.03735 3.69098 6.96315C3.89182 6.8979 4.10817 6.8979 4.30901 6.96315C4.53734 7.03735 4.73536 7.23535 5.13135 7.63135L8.25 10.75M9 4C9 4.55229 8.5523 5 8 5C7.4477 5 7 4.55229 7 4C7 3.44771 7.4477 3 8 3C8.5523 3 9 3.44771 9 4Z" stroke="#344054" stroke-linecap="round" stroke-linejoin="round"/>
</g>
<defs>
<clipPath id="clip0_17004_257868">
<rect width="12" height="12" fill="white"/>
</clipPath>
</defs>
</svg>
