<svg width="12" height="12" viewBox="0 0 12 12" fill="none" xmlns="http://www.w3.org/2000/svg">
<path d="M6 1H5.75V1C4.117 1 3.3005 1 2.67313 1.30938C2.08084 1.60147 1.60147 2.08084 1.30938 2.67313C1 3.3005 1 4.117 1 5.75V6.2C1 7.88016 1 8.72024 1.32698 9.36197C1.6146 9.92646 2.07354 10.3854 2.63803 10.673C3.27976 11 4.11984 11 5.8 11H6.25C7.883 11 8.6995 11 9.32686 10.6906C9.91916 10.3985 10.3985 9.91916 10.6906 9.32686C11 8.6995 11 7.883 11 6.25V6.25V6M10.75 8.84375L10.0376 8.13137C9.64161 7.73535 9.4436 7.53734 9.21527 7.46316C9.01443 7.3979 8.79808 7.3979 8.59723 7.46316C8.36891 7.53734 8.1709 7.73535 7.77488 8.13137L7.24306 8.66319M1.25 9.25L3.38522 7.11478C3.77598 6.72401 3.97137 6.52863 4.19714 6.45417C4.39578 6.38865 4.60995 6.38707 4.80953 6.44964C5.03638 6.52077 5.23463 6.71324 5.63113 7.09819L7.24306 8.66319M7.24306 8.66319L9.25 10.6701M7 5L7.05999 4.70007C7.13061 4.34693 7.16593 4.17037 7.23051 4.00572C7.28783 3.85958 7.36216 3.72069 7.45196 3.59193C7.55313 3.44687 7.68045 3.31955 7.9351 3.0649L9 2C9.27614 1.72386 9.72386 1.72386 10 2V2C10.2761 2.27614 10.2761 2.72386 10 3L8.9351 4.0649C8.68045 4.31954 8.55313 4.44687 8.40807 4.54804C8.27931 4.63784 8.14042 4.71217 7.99428 4.76949C7.82963 4.83407 7.65307 4.86939 7.29993 4.94001L7 5Z" stroke="#344054" stroke-linecap="round" stroke-linejoin="round"/>
</svg>
