<svg width="12" height="12" viewBox="0 0 12 12" fill="none" xmlns="http://www.w3.org/2000/svg">
<g clip-path="url(#clip0_17004_257874)">
<path d="M3 5.11182C1.83481 5.52781 1 6.65028 1 7.96969C1 9.64329 2.34315 11 4 11C5.65686 11 7 9.64329 7 7.96969C7 7.63057 6.94485 7.30445 6.84312 7M6 10.3072C6.52831 10.74 7.20582 11 7.94457 11C9.63204 11 11 9.64331 11 7.96971C11 6.66404 10.1674 5.55123 9 5.12506M9 4C9 5.65685 7.65686 7 6 7C4.34315 7 3 5.65685 3 4C3 2.34314 4.34315 1 6 1C7.65685 0.999999 9 2.34314 9 4Z" stroke="#344054" stroke-linecap="round" stroke-linejoin="round"/>
</g>
<defs>
<clipPath id="clip0_17004_257874">
<rect width="12" height="12" fill="white"/>
</clipPath>
</defs>
</svg>
