<svg width="12" height="12" viewBox="0 0 12 12" fill="none" xmlns="http://www.w3.org/2000/svg">
<g clip-path="url(#clip0_17004_257878)">
<path d="M2.925 9.3L4.36022 7.8648C4.75098 7.474 4.94637 7.27865 5.17215 7.20415C5.3708 7.13865 5.58495 7.13705 5.78455 7.19965C6.0114 7.27075 6.20965 7.46325 6.60615 7.8482L7.8066 9.0137M7.8066 9.0137C7.8066 9.0137 7.92045 8.89985 8.0888 8.7315C8.4849 8.3354 8.68295 8.13735 8.9113 8.06315C9.11215 7.9979 9.3285 7.9979 9.52935 8.06315C9.75765 8.13735 9.95565 8.33535 10.3517 8.73135L10.7875 9.1672M7.8066 9.0137L9.5125 10.7196M8 1H5.8C4.11985 1 3.27977 1 2.63803 1.32698C2.07354 1.6146 1.6146 2.07354 1.32698 2.63803C1 3.27977 1 4.11985 1 5.8V8M9.3 5.05C9.3 5.51945 8.91945 5.9 8.45 5.9C7.98055 5.9 7.6 5.51945 7.6 5.05C7.6 4.58056 7.98055 4.2 8.45 4.2C8.91945 4.2 9.3 4.58056 9.3 5.05ZM5.7 11H7.8C8.9201 11 9.48015 11 9.908 10.782C10.2843 10.5902 10.5902 10.2843 10.782 9.908C11 9.48015 11 8.9201 11 7.8V5.7C11 4.57989 11 4.01984 10.782 3.59202C10.5902 3.2157 10.2843 2.90973 9.908 2.71798C9.48015 2.5 8.9201 2.5 7.8 2.5H5.7C4.57989 2.5 4.01984 2.5 3.59202 2.71798C3.2157 2.90973 2.90973 3.2157 2.71798 3.59202C2.5 4.01984 2.5 4.57989 2.5 5.7V7.8C2.5 8.9201 2.5 9.48015 2.71798 9.908C2.90973 10.2843 3.2157 10.5902 3.59202 10.782C4.01984 11 4.57989 11 5.7 11Z" stroke="#344054" stroke-linecap="round" stroke-linejoin="round"/>
</g>
<defs>
<clipPath id="clip0_17004_257878">
<rect width="12" height="12" fill="white"/>
</clipPath>
</defs>
</svg>
