<svg width="12" height="12" viewBox="0 0 12 12" fill="none" xmlns="http://www.w3.org/2000/svg">
<g clip-path="url(#clip0_17004_257864)">
<path d="M4.5 6L6.4055 7.85C6.87005 8.30105 7.40125 8.505 7.8591 8.04715C8.32175 7.5845 9.2813 7.37505 9.744 7.83775L10.75 8.84375M6 11H6.2C7.88015 11 8.72025 11 9.36195 10.673C9.92645 10.3854 10.3854 9.92645 10.673 9.36195C11 8.72025 11 7.88015 11 6.2V5.8C11 4.11985 11 3.27977 10.673 2.63803C10.3854 2.07354 9.92645 1.6146 9.36195 1.32698C8.72025 1 7.88015 1 6.2 1H5.8C4.11985 1 3.27977 1 2.63803 1.32698C2.07354 1.6146 1.6146 2.07354 1.32698 2.63803C1 3.27977 1 4.11985 1 5.8V6M2 10L4 8M4 8V9.5M4 8H2.5M9 4C9 4.55229 8.5523 5 8 5C7.4477 5 7 4.55229 7 4C7 3.44771 7.4477 3 8 3C8.5523 3 9 3.44771 9 4Z" stroke="#344054" stroke-width="0.75" stroke-linecap="round" stroke-linejoin="round"/>
</g>
<defs>
<clipPath id="clip0_17004_257864">
<rect width="12" height="12" fill="white"/>
</clipPath>
</defs>
</svg>
