<svg width="12" height="12" viewBox="0 0 12 12" fill="none" xmlns="http://www.w3.org/2000/svg">
<path d="M3 5.11179C1.83481 5.52778 1 6.65025 1 7.96966C1 9.64326 2.34315 11 4 11C5.65686 11 7 9.64326 7 7.96966C7 7.63054 6.94485 7.30442 6.84312 6.99997M6 10.3072C6.52831 10.74 7.20582 11 7.94457 11C9.63204 11 11 9.64328 11 7.96968C11 6.66401 10.1674 5.5512 9 5.12503M9 3.99997C9 5.65682 7.65686 6.99997 6 6.99997C4.34315 6.99997 3 5.65682 3 3.99997C3 2.34311 4.34315 0.999969 6 0.999969C7.65685 0.999968 9 2.34311 9 3.99997Z" stroke="#344054" stroke-linecap="round" stroke-linejoin="round"/>
</svg>
