<svg width="12" height="12" viewBox="0 0 12 12" fill="none" xmlns="http://www.w3.org/2000/svg">
<g clip-path="url(#clip0_17004_257887)">
<path d="M6 6.25023L10.5 3.50023M6 6.25023L1.5 3.50023M6 6.25023V11.2502M1 4.85909V7.14137C1 7.63689 1 7.88464 1.07109 8.10726C1.13401 8.30427 1.23698 8.48614 1.37354 8.64145C1.52786 8.81695 1.74031 8.94442 2.16521 9.19936L4.76521 10.7593C5.21416 11.0287 5.43863 11.1634 5.67827 11.216C5.89023 11.2626 6.10977 11.2626 6.32173 11.216C6.56136 11.1634 6.78584 11.0287 7.23479 10.7593L9.83479 9.19936C10.2597 8.94442 10.4721 8.81695 10.6265 8.64145C10.763 8.48614 10.866 8.30427 10.9289 8.10726C11 7.88464 11 7.63689 11 7.14137V4.85909C11 4.36357 11 4.11582 10.9289 3.89319C10.866 3.69619 10.763 3.51432 10.6265 3.35901C10.4721 3.18351 10.2597 3.05604 9.83479 2.8011L7.23479 1.2411C6.78584 0.97173 6.56136 0.837045 6.32173 0.784422C6.10977 0.737875 5.89023 0.737875 5.67827 0.784422C5.43863 0.837045 5.21416 0.97173 4.76521 1.2411L2.16521 2.8011C1.74031 3.05604 1.52786 3.18351 1.37354 3.35901C1.23698 3.51432 1.13401 3.69619 1.07109 3.89319C1 4.11582 1 4.36357 1 4.85909Z" stroke="#344054" stroke-linecap="round" stroke-linejoin="round"/>
</g>
<defs>
<clipPath id="clip0_17004_257887">
<rect width="12" height="12" fill="white"/>
</clipPath>
</defs>
</svg>
