<svg width="12" height="12" viewBox="0 0 12 12" fill="none" xmlns="http://www.w3.org/2000/svg">
<g clip-path="url(#clip0_17004_257891)">
<path d="M1.5 9L3.38522 7.11478C3.77598 6.72402 3.97137 6.52863 4.19714 6.45417C4.39578 6.38865 4.60995 6.38707 4.80954 6.44964C5.03638 6.52077 5.23463 6.71324 5.63113 7.09819L7.24306 8.66319M7.24306 8.66319C7.24306 8.66319 7.4724 8.43385 7.77463 8.13163C8.17081 7.73544 8.36891 7.53735 8.59724 7.46316C8.79808 7.3979 9.01443 7.3979 9.21527 7.46316C9.4436 7.53735 9.64161 7.73535 10.0376 8.13137L10.75 8.84375M7.24306 8.66319L9.25 10.6701M6 1H5.75C4.117 1 3.3005 1 2.67313 1.30938C2.08084 1.60147 1.60147 2.08084 1.30938 2.67313C1 3.3005 1 4.117 1 5.75V6.2C1 7.88016 1 8.72024 1.32698 9.36197C1.6146 9.92646 2.07354 10.3854 2.63803 10.673C3.27976 11 4.11984 11 5.8 11H6.25C7.883 11 8.6995 11 9.32687 10.6906C9.91916 10.3985 10.3985 9.91916 10.6906 9.32687C11 8.6995 11 7.883 11 6.25V6M7 5L8.43934 3.56066M8.43934 3.56066C8.71079 3.83211 9.08579 4 9.5 4C10.3284 4 11 3.32843 11 2.5C11 1.67157 10.3284 1 9.5 1C8.67157 1 8 1.67157 8 2.5C8 2.91421 8.16789 3.28921 8.43934 3.56066Z" stroke="#344054" stroke-linecap="round" stroke-linejoin="round"/>
</g>
<defs>
<clipPath id="clip0_17004_257891">
<rect width="12" height="12" fill="white"/>
</clipPath>
</defs>
</svg>
