<svg width="12" height="12" viewBox="0 0 12 12" fill="none" xmlns="http://www.w3.org/2000/svg">
<g clip-path="url(#clip0_17004_257897)">
<path d="M5.5 3.7V7.3M5.5 3.7H3.7M5.5 3.7H7.3M10 4C10 3.5355 10 3.30325 9.96922 3.10891C9.79979 2.03918 8.96082 1.20021 7.89109 1.03078C7.69675 1 7.4645 1 7 1H5C3.59987 1 2.8998 1 2.36502 1.27248C1.89462 1.51217 1.51217 1.89462 1.27248 2.36502C1 2.8998 1 3.59987 1 5V7C1 7.4645 1 7.69675 1.03078 7.89109C1.20021 8.96082 2.03918 9.79979 3.10891 9.96922C3.30325 10 3.5355 10 4 10" stroke="#344054" stroke-linecap="round" stroke-linejoin="round"/>
<path d="M8.66667 5.99992C8.66667 6.7363 9.26362 7.33325 10 7.33325M5 10.9999L5.14332 10.2833C5.21395 9.93019 5.24926 9.75362 5.31384 9.58898C5.37116 9.44283 5.44549 9.30395 5.5353 9.17519C5.63647 9.03012 5.76379 8.9028 6.01845 8.64815L9.10102 5.56561C9.29903 5.3676 9.39803 5.26859 9.5122 5.2315C9.61262 5.19887 9.7208 5.19887 9.82122 5.2315C9.93538 5.2686 10.0344 5.36761 10.2324 5.56562L10.4343 5.76757C10.6323 5.96558 10.7313 6.06458 10.7684 6.17874C10.8011 6.27917 10.8011 6.38734 10.7684 6.48776C10.7313 6.60192 10.6323 6.70092 10.4343 6.89893L7.35177 9.98148C7.09712 10.2361 6.9698 10.3634 6.82473 10.4646C6.69597 10.5544 6.55709 10.6287 6.41095 10.6861C6.2463 10.7506 6.06973 10.786 5.7166 10.8566L5 10.9999Z" stroke="#344054" stroke-linecap="round" stroke-linejoin="round"/>
</g>
<defs>
<clipPath id="clip0_17004_257897">
<rect width="12" height="12" fill="white"/>
</clipPath>
</defs>
</svg>
