<svg width="12" height="12" viewBox="0 0 12 12" fill="none" xmlns="http://www.w3.org/2000/svg">
<g clip-path="url(#clip0_17004_257900)">
<path d="M1 2.25C1 2.01767 1 1.90151 1.01921 1.80491C1.09812 1.40822 1.40822 1.09812 1.80491 1.01921C1.90151 1 2.01767 1 2.25 1H3.75C3.98233 1 4.09849 1 4.19509 1.01921C4.59178 1.09812 4.90188 1.40822 4.98079 1.80491C5 1.90151 5 2.01767 5 2.25C5 2.48233 5 2.59849 4.98079 2.69509C4.90188 3.09178 4.59178 3.40188 4.19509 3.48079C4.09849 3.5 3.98233 3.5 3.75 3.5H2.25C2.01767 3.5 1.90151 3.5 1.80491 3.48079C1.40822 3.40188 1.09812 3.09178 1.01921 2.69509C1 2.59849 1 2.48233 1 2.25Z" stroke="#344054" stroke-linecap="round" stroke-linejoin="round"/>
<path d="M1 9.75C1 9.51767 1 9.40151 1.01921 9.30491C1.09812 8.90822 1.40822 8.59812 1.80491 8.51921C1.90151 8.5 2.01767 8.5 2.25 8.5H3.75C3.98233 8.5 4.09849 8.5 4.19509 8.51921C4.59178 8.59812 4.90188 8.90822 4.98079 9.30491C5 9.40151 5 9.51767 5 9.75C5 9.98233 5 10.0985 4.98079 10.1951C4.90188 10.5918 4.59178 10.9019 4.19509 10.9808C4.09849 11 3.98233 11 3.75 11H2.25C2.01767 11 1.90151 11 1.80491 10.9808C1.40822 10.9019 1.09812 10.5918 1.01921 10.1951C1 10.0985 1 9.98233 1 9.75Z" stroke="#344054" stroke-linecap="round" stroke-linejoin="round"/>
<path d="M1 6C1 5.76767 1 5.65151 1.01921 5.55491C1.09812 5.15822 1.40822 4.84812 1.80491 4.76921C1.90151 4.75 2.01767 4.75 2.25 4.75H3.75C3.98233 4.75 4.09849 4.75 4.19509 4.76921C4.59178 4.84812 4.90188 5.15822 4.98079 5.55491C5 5.65151 5 5.76767 5 6C5 6.23233 5 6.34849 4.98079 6.44509C4.90188 6.84178 4.59178 7.15188 4.19509 7.23079C4.09849 7.25 3.98233 7.25 3.75 7.25H2.25C2.01767 7.25 1.90151 7.25 1.80491 7.23079C1.40822 7.15188 1.09812 6.84178 1.01921 6.44509C1 6.34849 1 6.23233 1 6Z" stroke="#344054" stroke-linecap="round" stroke-linejoin="round"/>
<path d="M7 3.5H9.4C9.96005 3.5 10.2401 3.5 10.454 3.60899C10.6422 3.70486 10.7951 3.85784 10.891 4.04601C11 4.25992 11 4.53994 11 5.1V8.40001C11 8.96007 11 9.24009 10.891 9.45401C10.7951 9.64217 10.6422 9.79515 10.454 9.89102C10.2401 10 9.96005 10 9.4 10H7M7 3.5L8.5 2M7 3.5L8.5 5" stroke="#344054" stroke-linecap="round" stroke-linejoin="round"/>
</g>
<defs>
<clipPath id="clip0_17004_257900">
<rect width="12" height="12" fill="white"/>
</clipPath>
</defs>
</svg>
