<svg width="12" height="12" viewBox="0 0 12 12" fill="none" xmlns="http://www.w3.org/2000/svg">
<g clip-path="url(#clip0_17004_257908)">
<path d="M6 2.5H3.25C2.2835 2.5 1.5 3.2835 1.5 4.25C1.5 5.2165 2.2835 6 3.25 6H8.25C9.2165 6 10 6.7835 10 7.75C10 8.7165 9.2165 9.5 8.25 9.5H6M4 9.5C4 10.3284 3.32843 11 2.5 11C1.67157 11 1 10.3284 1 9.5C1 8.67157 1.67157 8 2.5 8C3.32843 8 4 8.67157 4 9.5ZM11 2.5C11 2.03406 11 1.80109 10.9239 1.61732C10.8224 1.37229 10.6277 1.17761 10.3827 1.07612C10.1989 1 9.96594 1 9.5 1C9.03406 1 8.80109 1 8.61732 1.07612C8.37229 1.17761 8.17761 1.37229 8.07612 1.61732C8 1.80109 8 2.03406 8 2.5C8 2.96594 8 3.19891 8.07612 3.38268C8.17761 3.62771 8.37229 3.82239 8.61732 3.92388C8.80109 4 9.03406 4 9.5 4C9.96594 4 10.1989 4 10.3827 3.92388C10.6277 3.82239 10.8224 3.62771 10.9239 3.38268C11 3.19891 11 2.96594 11 2.5Z" stroke="#344054" stroke-linecap="round" stroke-linejoin="round"/>
</g>
<defs>
<clipPath id="clip0_17004_257908">
<rect width="12" height="12" fill="white"/>
</clipPath>
</defs>
</svg>
