<svg width="12" height="12" viewBox="0 0 12 12" fill="none" xmlns="http://www.w3.org/2000/svg">
<path d="M5.5 3.7V7.3M5.5 3.7H3.7M5.5 3.7H7.3M10 4V4C10 3.5355 10 3.30325 9.96922 3.10891C9.79979 2.03918 8.96082 1.20021 7.89109 1.03078C7.69675 1 7.4645 1 7 1H5C3.59987 1 2.8998 1 2.36502 1.27248C1.89462 1.51217 1.51217 1.89462 1.27248 2.36502C1 2.8998 1 3.59987 1 5V7C1 7.4645 1 7.69675 1.03078 7.89109C1.20021 8.96082 2.03918 9.79979 3.10891 9.96922C3.30325 10 3.5355 10 4 10V10" stroke="#344054" stroke-linecap="round" stroke-linejoin="round"/>
<path d="M8.66667 6C8.66667 6.73638 9.26362 7.33333 10 7.33333M5 11L5.14332 10.2834C5.21395 9.93027 5.24926 9.7537 5.31384 9.58906C5.37116 9.44291 5.44549 9.30403 5.5353 9.17527C5.63647 9.0302 5.76379 8.90288 6.01845 8.64823L9.10102 5.56569C9.29903 5.36768 9.39803 5.26867 9.5122 5.23158C9.61262 5.19895 9.7208 5.19895 9.82122 5.23158C9.93538 5.26868 10.0344 5.36769 10.2324 5.5657L10.4343 5.76765C10.6323 5.96566 10.7313 6.06466 10.7684 6.17882C10.8011 6.27925 10.8011 6.38742 10.7684 6.48784C10.7313 6.602 10.6323 6.701 10.4343 6.89901L7.35177 9.98156C7.09712 10.2362 6.9698 10.3635 6.82473 10.4647C6.69597 10.5545 6.55709 10.6288 6.41095 10.6862C6.2463 10.7507 6.06973 10.7861 5.7166 10.8567L5 11Z" stroke="#344054" stroke-width="0.75" stroke-linecap="round" stroke-linejoin="round"/>
</svg>
