<svg width="12" height="12" viewBox="0 0 12 12" fill="none" xmlns="http://www.w3.org/2000/svg">
<g clip-path="url(#clip0_17004_257916)">
<path d="M1 4.5H11M1 7.5H11M5 11H7C8.40013 11 9.1002 11 9.63498 10.7275C10.1054 10.4878 10.4878 10.1054 10.7275 9.63498C11 9.1002 11 8.40013 11 7V5C11 3.59987 11 2.8998 10.7275 2.36502C10.4878 1.89462 10.1054 1.51217 9.63498 1.27248C9.1002 1 8.40013 1 7 1H5C3.59987 1 2.8998 1 2.36502 1.27248C1.89462 1.51217 1.51217 1.89462 1.27248 2.36502C1 2.8998 1 3.59987 1 5V7C1 8.40013 1 9.1002 1.27248 9.63498C1.51217 10.1054 1.89462 10.4878 2.36502 10.7275C2.8998 11 3.59987 11 5 11Z" stroke="#344054" stroke-linecap="round" stroke-linejoin="round"/>
</g>
<defs>
<clipPath id="clip0_17004_257916">
<rect width="12" height="12" fill="white"/>
</clipPath>
</defs>
</svg>
