<svg width="12" height="12" viewBox="0 0 12 12" fill="none" xmlns="http://www.w3.org/2000/svg">
<path d="M8 1.75C8 1.88807 7.88805 2 7.75 2C7.61195 2 7.5 1.88807 7.5 1.75M8 1.75C8 1.61193 7.88805 1.5 7.75 1.5C7.61195 1.5 7.5 1.61193 7.5 1.75M8 1.75H7.5" stroke="#344054" stroke-width="0.75" stroke-linecap="round" stroke-linejoin="round"/>
<path d="M9.5 3.25C9.5 3.38807 9.38805 3.5 9.25 3.5C9.11195 3.5 9 3.38807 9 3.25M9.5 3.25C9.5 3.11193 9.38805 3 9.25 3C9.11195 3 9 3.11193 9 3.25M9.5 3.25H9" stroke="#344054" stroke-width="0.75" stroke-linecap="round" stroke-linejoin="round"/>
<path d="M7.5 3.75C7.5 3.88807 7.38805 4 7.25 4C7.11195 4 7 3.88807 7 3.75M7.5 3.75C7.5 3.61193 7.38805 3.5 7.25 3.5C7.11195 3.5 7 3.61193 7 3.75M7.5 3.75H7" stroke="#344054" stroke-width="0.75" stroke-linecap="round" stroke-linejoin="round"/>
<path d="M9 5.25C9 5.38805 8.88805 5.5 8.75 5.5C8.61195 5.5 8.5 5.38805 8.5 5.25M9 5.25C9 5.11195 8.88805 5 8.75 5C8.61195 5 8.5 5.11195 8.5 5.25M9 5.25H8.5" stroke="#344054" stroke-width="0.75" stroke-linecap="round" stroke-linejoin="round"/>
<path d="M2.5 8.75C2.5 8.88805 2.38807 9 2.25 9C2.11193 9 2 8.88805 2 8.75M2.5 8.75C2.5 8.61195 2.38807 8.5 2.25 8.5C2.11193 8.5 2 8.61195 2 8.75M2.5 8.75H2" stroke="#344054" stroke-width="0.75" stroke-linecap="round" stroke-linejoin="round"/>
<path d="M4.5 8.75C4.5 8.88805 4.38807 9 4.25 9C4.11193 9 4 8.88805 4 8.75M4.5 8.75C4.5 8.61195 4.38807 8.5 4.25 8.5C4.11193 8.5 4 8.61195 4 8.75M4.5 8.75H4" stroke="#344054" stroke-width="0.75" stroke-linecap="round" stroke-linejoin="round"/>
<path d="M3.5 3.25C3.5 3.38807 3.38807 3.5 3.25 3.5C3.11193 3.5 3 3.38807 3 3.25M3.5 3.25C3.5 3.11193 3.38807 3 3.25 3C3.11193 3 3 3.11193 3 3.25M3.5 3.25H3" stroke="#344054" stroke-width="0.75" stroke-linecap="round" stroke-linejoin="round"/>
<path d="M4 5.25C4 5.38805 3.88807 5.5 3.75 5.5C3.61193 5.5 3.5 5.38805 3.5 5.25M4 5.25C4 5.11195 3.88807 5 3.75 5C3.61193 5 3.5 5.11195 3.5 5.25M4 5.25H3.5" stroke="#344054" stroke-width="0.75" stroke-linecap="round" stroke-linejoin="round"/>
<path d="M2 4.75C2 4.88807 1.88807 5 1.75 5C1.61193 5 1.5 4.88807 1.5 4.75M2 4.75C2 4.61193 1.88807 4.5 1.75 4.5C1.61193 4.5 1.5 4.61193 1.5 4.75M2 4.75H1.5" stroke="#344054" stroke-width="0.75" stroke-linecap="round" stroke-linejoin="round"/>
<path d="M2 2.25C2 2.38807 1.88807 2.5 1.75 2.5C1.61193 2.5 1.5 2.38807 1.5 2.25M2 2.25C2 2.11193 1.88807 2 1.75 2C1.61193 2 1.5 2.11193 1.5 2.25M2 2.25H1.5" stroke="#344054" stroke-width="0.75" stroke-linecap="round" stroke-linejoin="round"/>
<path d="M8 8.75C8 8.88805 7.88805 9 7.75 9C7.61195 9 7.5 8.88805 7.5 8.75M8 8.75C8 8.61195 7.88805 8.5 7.75 8.5C7.61195 8.5 7.5 8.61195 7.5 8.75M8 8.75H7.5" stroke="#344054" stroke-width="0.75" stroke-linecap="round" stroke-linejoin="round"/>
<path d="M9.5 7.75C9.5 7.88805 9.38805 8 9.25 8C9.11195 8 9 7.88805 9 7.75M9.5 7.75C9.5 7.61195 9.38805 7.5 9.25 7.5C9.11195 7.5 9 7.61195 9 7.75M9.5 7.75H9" stroke="#344054" stroke-width="0.75" stroke-linecap="round" stroke-linejoin="round"/>
<path d="M9.5 10.25C9.5 10.3881 9.38805 10.5 9.25 10.5C9.11195 10.5 9 10.3881 9 10.25M9.5 10.25C9.5 10.1119 9.38805 10 9.25 10C9.11195 10 9 10.1119 9 10.25M9.5 10.25H9" stroke="#344054" stroke-width="0.75" stroke-linecap="round" stroke-linejoin="round"/>
<path d="M11 9.25C11 9.38805 10.8881 9.5 10.75 9.5C10.6119 9.5 10.5 9.38805 10.5 9.25M11 9.25C11 9.11195 10.8881 9 10.75 9C10.6119 9 10.5 9.11195 10.5 9.25M11 9.25H10.5" stroke="#344054" stroke-width="0.75" stroke-linecap="round" stroke-linejoin="round"/>
<path d="M4.5 10.75C4.5 10.8881 4.38807 11 4.25 11C4.11193 11 4 10.8881 4 10.75M4.5 10.75C4.5 10.6119 4.38807 10.5 4.25 10.5C4.11193 10.5 4 10.6119 4 10.75M4.5 10.75H4" stroke="#344054" stroke-width="0.75" stroke-linecap="round" stroke-linejoin="round"/>
<path d="M2.5 10.75C2.5 10.8881 2.38807 11 2.25 11C2.11193 11 2 10.8881 2 10.75M2.5 10.75C2.5 10.6119 2.38807 10.5 2.25 10.5C2.11193 10.5 2 10.6119 2 10.75M2.5 10.75H2" stroke="#344054" stroke-width="0.75" stroke-linecap="round" stroke-linejoin="round"/>
</svg>
