<svg width="12" height="12" viewBox="0 0 12 12" fill="none" xmlns="http://www.w3.org/2000/svg">
<g clip-path="url(#clip0_17004_257954)">
<path d="M5.5 3.7V7.3M5.5 3.7H3.7M5.5 3.7H7.3M10 4C10 3.5355 10 3.30325 9.9692 3.10892C9.7998 2.03919 8.9608 1.20021 7.8911 1.03078C7.69675 1 7.4645 1 7 1H5C3.59987 1 2.89981 1 2.36503 1.27249C1.89462 1.51217 1.51217 1.89462 1.27249 2.36503C1 2.89981 1 3.59987 1 5V7C1 7.4645 1 7.69675 1.03078 7.8911C1.20021 8.9608 2.03919 9.7998 3.10892 9.9692C3.30325 10 3.5355 10 4 10" stroke="#344054" stroke-linecap="round" stroke-linejoin="round"/>
<path d="M8.66665 5.99992C8.66665 6.73632 9.2636 7.33327 10 7.33327M5 10.9999L5.1433 10.2833C5.21395 9.93017 5.24925 9.75362 5.31385 9.58897C5.37115 9.44282 5.4455 9.30397 5.5353 9.17517C5.63645 9.03012 5.7638 8.90282 6.01845 8.64817L9.101 5.56562C9.29905 5.36762 9.39805 5.26857 9.5122 5.23152C9.6126 5.19887 9.7208 5.19887 9.8212 5.23152C9.9354 5.26862 10.0344 5.36762 10.2324 5.56562L10.4344 5.76757C10.6324 5.96557 10.7313 6.06457 10.7684 6.17872C10.801 6.27917 10.801 6.38732 10.7684 6.48777C10.7313 6.60192 10.6324 6.70092 10.4343 6.89892L7.35175 9.98147C7.0971 10.2361 6.9698 10.3635 6.82475 10.4646C6.69595 10.5544 6.5571 10.6288 6.41095 10.6861C6.2463 10.7507 6.06975 10.786 5.7166 10.8566L5 10.9999Z" stroke="#344054" stroke-linecap="round" stroke-linejoin="round"/>
</g>
<defs>
<clipPath id="clip0_17004_257954">
<rect width="12" height="12" fill="white"/>
</clipPath>
</defs>
</svg>
