<svg width="24" height="24" viewBox="0 0 24 24" fill="none" xmlns="http://www.w3.org/2000/svg">
<path d="M11 7.4V14.6M11 7.4H7.4M11 7.4H14.6M20 8V8C20 7.07099 20 6.60649 19.9384 6.21783C19.5996 4.07837 17.9216 2.40042 15.7822 2.06156C15.3935 2 14.929 2 14 2H10C7.19974 2 5.79961 2 4.73005 2.54497C3.78924 3.02433 3.02433 3.78924 2.54497 4.73005C2 5.79961 2 7.19974 2 10V14C2 14.929 2 15.3935 2.06156 15.7822C2.40042 17.9216 4.07837 19.5996 6.21783 19.9384C6.60649 20 7.07099 20 8 20V20" stroke="#2F384C" stroke-width="1.5" stroke-linecap="round" stroke-linejoin="round"/>
<path d="M17.3333 12C17.3333 13.4728 18.5272 14.6667 20 14.6667M10 22L10.2866 20.5668C10.4279 19.8605 10.4985 19.5074 10.6277 19.1781C10.7423 18.8858 10.891 18.6081 11.0706 18.3505C11.2729 18.0604 11.5276 17.8058 12.0369 17.2965L18.202 11.1314C18.5981 10.7354 18.7961 10.5373 19.0244 10.4632C19.2252 10.3979 19.4416 10.3979 19.6424 10.4632C19.8708 10.5374 20.0688 10.7354 20.4648 11.1314L20.8687 11.5353C21.2647 11.9313 21.4627 12.1293 21.5369 12.3576C21.6021 12.5585 21.6021 12.7748 21.5369 12.9757C21.4627 13.204 21.2647 13.402 20.8686 13.798L14.7035 19.9631C14.1942 20.4724 13.9396 20.7271 13.6495 20.9294C13.3919 21.109 13.1142 21.2577 12.8219 21.3723C12.4926 21.5015 12.1395 21.5721 11.4332 21.7134L10 22Z" stroke="#2F384C" stroke-width="1.5" stroke-linecap="round" stroke-linejoin="round"/>
</svg>
