<svg width="24" height="24" viewBox="0 0 24 24" fill="none" xmlns="http://www.w3.org/2000/svg">
<path d="M16 3.5C16 3.77614 15.7761 4 15.5 4C15.2239 4 15 3.77614 15 3.5M16 3.5C16 3.22386 15.7761 3 15.5 3C15.2239 3 15 3.22386 15 3.5M16 3.5H15" stroke="#2F384C" stroke-width="1.5" stroke-linecap="round" stroke-linejoin="round"/>
<path d="M19 6.5C19 6.77614 18.7761 7 18.5 7C18.2239 7 18 6.77614 18 6.5M19 6.5C19 6.22386 18.7761 6 18.5 6C18.2239 6 18 6.22386 18 6.5M19 6.5H18" stroke="#2F384C" stroke-width="1.5" stroke-linecap="round" stroke-linejoin="round"/>
<path d="M15 7.5C15 7.77614 14.7761 8 14.5 8C14.2239 8 14 7.77614 14 7.5M15 7.5C15 7.22386 14.7761 7 14.5 7C14.2239 7 14 7.22386 14 7.5M15 7.5H14" stroke="#2F384C" stroke-width="1.5" stroke-linecap="round" stroke-linejoin="round"/>
<path d="M18 10.5C18 10.7761 17.7761 11 17.5 11C17.2239 11 17 10.7761 17 10.5M18 10.5C18 10.2239 17.7761 10 17.5 10C17.2239 10 17 10.2239 17 10.5M18 10.5H17" stroke="#2F384C" stroke-width="1.5" stroke-linecap="round" stroke-linejoin="round"/>
<path d="M5 17.5C5 17.7761 4.77614 18 4.5 18C4.22386 18 4 17.7761 4 17.5M5 17.5C5 17.2239 4.77614 17 4.5 17C4.22386 17 4 17.2239 4 17.5M5 17.5H4" stroke="#2F384C" stroke-width="1.5" stroke-linecap="round" stroke-linejoin="round"/>
<path d="M9 17.5C9 17.7761 8.77614 18 8.5 18C8.22386 18 8 17.7761 8 17.5M9 17.5C9 17.2239 8.77614 17 8.5 17C8.22386 17 8 17.2239 8 17.5M9 17.5H8" stroke="#2F384C" stroke-width="1.5" stroke-linecap="round" stroke-linejoin="round"/>
<path d="M7 6.5C7 6.77614 6.77614 7 6.5 7C6.22386 7 6 6.77614 6 6.5M7 6.5C7 6.22386 6.77614 6 6.5 6C6.22386 6 6 6.22386 6 6.5M7 6.5H6" stroke="#2F384C" stroke-width="1.5" stroke-linecap="round" stroke-linejoin="round"/>
<path d="M8 10.5C8 10.7761 7.77614 11 7.5 11C7.22386 11 7 10.7761 7 10.5M8 10.5C8 10.2239 7.77614 10 7.5 10C7.22386 10 7 10.2239 7 10.5M8 10.5H7" stroke="#2F384C" stroke-width="1.5" stroke-linecap="round" stroke-linejoin="round"/>
<path d="M4 9.5C4 9.77614 3.77614 10 3.5 10C3.22386 10 3 9.77614 3 9.5M4 9.5C4 9.22386 3.77614 9 3.5 9C3.22386 9 3 9.22386 3 9.5M4 9.5H3" stroke="#2F384C" stroke-width="1.5" stroke-linecap="round" stroke-linejoin="round"/>
<path d="M4 4.5C4 4.77614 3.77614 5 3.5 5C3.22386 5 3 4.77614 3 4.5M4 4.5C4 4.22386 3.77614 4 3.5 4C3.22386 4 3 4.22386 3 4.5M4 4.5H3" stroke="#2F384C" stroke-width="1.5" stroke-linecap="round" stroke-linejoin="round"/>
<path d="M16 17.5C16 17.7761 15.7761 18 15.5 18C15.2239 18 15 17.7761 15 17.5M16 17.5C16 17.2239 15.7761 17 15.5 17C15.2239 17 15 17.2239 15 17.5M16 17.5H15" stroke="#2F384C" stroke-width="1.5" stroke-linecap="round" stroke-linejoin="round"/>
<path d="M19 15.5C19 15.7761 18.7761 16 18.5 16C18.2239 16 18 15.7761 18 15.5M19 15.5C19 15.2239 18.7761 15 18.5 15C18.2239 15 18 15.2239 18 15.5M19 15.5H18" stroke="#2F384C" stroke-width="1.5" stroke-linecap="round" stroke-linejoin="round"/>
<path d="M19 20.5C19 20.7761 18.7761 21 18.5 21C18.2239 21 18 20.7761 18 20.5M19 20.5C19 20.2239 18.7761 20 18.5 20C18.2239 20 18 20.2239 18 20.5M19 20.5H18" stroke="#2F384C" stroke-width="1.5" stroke-linecap="round" stroke-linejoin="round"/>
<path d="M22 18.5C22 18.7761 21.7761 19 21.5 19C21.2239 19 21 18.7761 21 18.5M22 18.5C22 18.2239 21.7761 18 21.5 18C21.2239 18 21 18.2239 21 18.5M22 18.5H21" stroke="#2F384C" stroke-width="1.5" stroke-linecap="round" stroke-linejoin="round"/>
<path d="M9 21.5C9 21.7761 8.77614 22 8.5 22C8.22386 22 8 21.7761 8 21.5M9 21.5C9 21.2239 8.77614 21 8.5 21C8.22386 21 8 21.2239 8 21.5M9 21.5H8" stroke="#2F384C" stroke-width="1.5" stroke-linecap="round" stroke-linejoin="round"/>
<path d="M5 21.5C5 21.7761 4.77614 22 4.5 22C4.22386 22 4 21.7761 4 21.5M5 21.5C5 21.2239 4.77614 21 4.5 21C4.22386 21 4 21.2239 4 21.5M5 21.5H4" stroke="#2F384C" stroke-width="1.5" stroke-linecap="round" stroke-linejoin="round"/>
</svg>
