<svg width="12" height="12" viewBox="0 0 12 12" fill="none" xmlns="http://www.w3.org/2000/svg">
<g clip-path="url(#clip0_17004_257957)">
<path d="M5 3.05V6.25M5 3.05H3.4M5 3.05H6.6M9 3.5C9 2.11929 7.88071 1 6.5 1H5C3.59987 1 2.8998 1 2.36502 1.27248C1.89462 1.51217 1.51217 1.89462 1.27248 2.36502C1 2.8998 1 3.59987 1 5C1 6.40013 1 7.1002 1.27248 7.63498C1.51217 8.10538 1.89462 8.48783 2.36502 8.72752C2.8998 9 3.59987 9 5 9" stroke="#344054" stroke-linecap="round" stroke-linejoin="round"/>
<path d="M9.5 6C9.5 5.44772 9.05228 5 8.5 5C7.94772 5 7.5 5.44772 7.5 6V7C7.5 7.55228 7.94772 8 8.5 8C9.05228 8 9.5 7.55228 9.5 7V6Z" stroke="#344054" stroke-linecap="round" stroke-linejoin="round"/>
<path d="M11 7C11 8.38071 9.88071 9.5 8.5 9.5M8.5 9.5C7.11929 9.5 6 8.38071 6 7M8.5 9.5V11" stroke="#344054" stroke-linecap="round" stroke-linejoin="round"/>
</g>
<defs>
<clipPath id="clip0_17004_257957">
<rect width="12" height="12" fill="white"/>
</clipPath>
</defs>
</svg>
