<svg width="12" height="12" viewBox="0 0 12 12" fill="none" xmlns="http://www.w3.org/2000/svg">
<g clip-path="url(#clip0_17004_257961)">
<path d="M8 4H11V1H8V4ZM8 4H6.5V5.5H8V4ZM4 9V6H1V9H4ZM4 9V11H6V9H4ZM6 2.25C6 2.38807 5.88807 2.5 5.75 2.5C5.61193 2.5 5.5 2.38807 5.5 2.25M6 2.25C6 2.11193 5.88807 2 5.75 2C5.61193 2 5.5 2.11193 5.5 2.25M6 2.25H5.5M11 6.25C11 6.38807 10.8881 6.5 10.75 6.5C10.6119 6.5 10.5 6.38807 10.5 6.25M11 6.25C11 6.11193 10.8881 6 10.75 6C10.6119 6 10.5 6.11193 10.5 6.25M11 6.25H10.5M7.5 7.75C7.5 7.88807 7.38807 8 7.25 8C7.11193 8 7 7.88807 7 7.75M7.5 7.75C7.5 7.61193 7.38807 7.5 7.25 7.5C7.11193 7.5 7 7.61193 7 7.75M7.5 7.75H7M9 9H11V11H9V9ZM1 1H3V3H1V1Z" stroke="#344054" stroke-linecap="round" stroke-linejoin="round"/>
</g>
<defs>
<clipPath id="clip0_17004_257961">
<rect width="12" height="12" fill="white"/>
</clipPath>
</defs>
</svg>
