<svg xmlns="http://www.w3.org/2000/svg" width="12" height="12" viewBox="0 0 12 12" fill="none">
  <path d="M7 4.25C7 4.38807 6.88807 4.5 6.75 4.5C6.61193 4.5 6.5 4.38807 6.5 4.25M7 4.25C7 4.11193 6.88807 4 6.75 4C6.61193 4 6.5 4.11193 6.5 4.25M7 4.25H6.5M0.5 6V5.5C0.5 4.09987 0.5 3.3998 0.772484 2.86502C1.01217 2.39462 1.39462 2.01217 1.86502 1.77248C2.3998 1.5 3.09987 1.5 4.5 1.5H5.5C6.90013 1.5 7.6002 1.5 8.13498 1.77248C8.60538 2.01217 8.98783 2.39462 9.22752 2.86502C9.5 3.3998 9.5 4.09987 9.5 5.5V6.5C9.5 7.90013 9.5 8.6002 9.22752 9.13498C8.98783 9.60538 8.60538 9.98783 8.13498 10.2275C7.6002 10.5 6.90013 10.5 5.5 10.5H5M9.5 7.50005L9.58 7.56005C10.198 8.02352 10.507 8.25526 10.7656 8.24988C10.9907 8.2452 11.2017 8.13967 11.3405 7.96242C11.5 7.75874 11.5 7.37251 11.5 6.60005V5.40004C11.5 4.62757 11.5 4.24133 11.3405 4.03765C11.2017 3.8604 10.9907 3.75487 10.7656 3.75019C10.5069 3.74481 10.198 3.97656 9.57999 4.44005L9.5 4.50005V7.50005Z" stroke="#344054" stroke-linecap="round" stroke-linejoin="round"/>
  <path d="M1 10L4 7M4 7H2M4 7V9" stroke="#2F384C" stroke-width="0.75" stroke-linecap="round" stroke-linejoin="round"/>
</svg>