<svg width="12" height="12" viewBox="0 0 12 12" fill="none" xmlns="http://www.w3.org/2000/svg">
<g clip-path="url(#clip0_17004_257965)">
<path d="M5 3V5.5M5 3H3.5M5 3H6.5M10 5.5V5C10 3.59987 10 2.89981 9.7275 2.36503C9.48785 1.89462 9.1054 1.51217 8.635 1.27249C8.1002 1 7.40015 1 6 1H5C3.59987 1 2.89981 1 2.36503 1.27249C1.89462 1.51217 1.51217 1.89462 1.27249 2.36503C1 2.89981 1 3.59987 1 5V7.25C1 7.48215 1 7.59825 1.0077 7.69615C1.10419 8.9221 2.07791 9.8958 3.30385 9.9923C3.40177 10 3.51785 10 3.75 10" stroke="#344054" stroke-linecap="round" stroke-linejoin="round"/>
<path d="M5 8.07049C5 7.51974 5 7.24434 5.1065 7.03244C5.20015 6.84604 5.34985 6.69359 5.5345 6.59644C5.7444 6.48604 6.0197 6.48094 6.57035 6.47074L7.87035 6.44669C8.43975 6.43614 8.72445 6.43084 8.9424 6.53834C9.13405 6.63289 9.2904 6.78639 9.38845 6.97624C9.5 7.19214 9.5 7.47689 9.5 8.04639V9.34584C9.5 9.89659 9.5 10.172 9.3935 10.3839C9.29985 10.5703 9.15015 10.7227 8.9655 10.8199C8.7556 10.9303 8.4803 10.9354 7.92965 10.9456L6.62965 10.9696C6.06025 10.9802 5.77555 10.9855 5.5576 10.8779C5.36595 10.7834 5.2096 10.6299 5.11155 10.4401C5 10.2241 5 9.93944 5 9.36994V8.07049Z" stroke="#344054" stroke-linecap="round" stroke-linejoin="round"/>
<path d="M11 10.1668V7.3335L9.5 8.0835V9.25015L11 10.1668Z" stroke="#344054" stroke-linecap="round" stroke-linejoin="round"/>
</g>
<defs>
<clipPath id="clip0_17004_257965">
<rect width="12" height="12" fill="white"/>
</clipPath>
</defs>
</svg>
