<svg width="24" height="24" viewBox="0 0 24 24" fill="none" xmlns="http://www.w3.org/2000/svg">
<path d="M14 8.5C14 8.77614 13.7761 9 13.5 9C13.2239 9 13 8.77614 13 8.5M14 8.5C14 8.22386 13.7761 8 13.5 8C13.2239 8 13 8.22386 13 8.5M14 8.5H13M19 15.0001L19.16 15.1201C20.3959 16.047 21.0139 16.5105 21.5312 16.4998C21.9813 16.4904 22.4035 16.2793 22.681 15.9248C23 15.5175 23 14.745 23 13.2001V10.8001C23 9.25514 23 8.48267 22.681 8.0753C22.4035 7.7208 21.9813 7.50973 21.5312 7.50038C21.0139 7.48963 20.3959 7.95312 19.16 8.88011L19 9.00009V15.0001ZM10 21H11C13.8003 21 15.2004 21 16.27 20.455C17.2108 19.9757 17.9757 19.2108 18.455 18.27C19 17.2004 19 15.8003 19 13V11C19 8.19974 19 6.79961 18.455 5.73005C17.9757 4.78924 17.2108 4.02433 16.27 3.54497C15.2004 3 13.8003 3 11 3H9C6.19974 3 4.79961 3 3.73005 3.54497C2.78924 4.02433 2.02433 4.78924 1.54497 5.73005C1 6.79961 1 8.19974 1 11V13C1 15.8003 1 17.2004 1.54497 18.27C2.02433 19.2108 2.78924 19.9757 3.73005 20.455C4.79961 21 6.19974 21 9 21H10Z" stroke="#2F384C" stroke-width="1.5" stroke-linecap="round" stroke-linejoin="round"/>
</svg>
