<svg width="12" height="12" viewBox="0 0 12 12" fill="none" xmlns="http://www.w3.org/2000/svg">
<path d="M7 4.25C7 4.38807 6.88805 4.5 6.75 4.5C6.61195 4.5 6.5 4.38807 6.5 4.25M7 4.25C7 4.11193 6.88805 4 6.75 4C6.61195 4 6.5 4.11193 6.5 4.25M7 4.25H6.5M9.5 7.50005L9.58 7.56005C10.1979 8.0235 10.507 8.25525 10.7656 8.2499C10.9907 8.2452 11.2017 8.13965 11.3405 7.9624C11.5 7.75875 11.5 7.3725 11.5 6.60005V5.40005C11.5 4.62757 11.5 4.24134 11.3405 4.03765C11.2017 3.8604 10.9907 3.75487 10.7656 3.75019C10.507 3.74482 10.1979 3.97656 9.58 4.44005L9.5 4.50004V7.50005ZM5 10.5H5.5C6.90015 10.5 7.6002 10.5 8.135 10.2275C8.6054 9.98785 8.98785 9.6054 9.2275 9.135C9.5 8.6002 9.5 7.90015 9.5 6.5V5.5C9.5 4.09987 9.5 3.39981 9.2275 2.86503C8.98785 2.39462 8.6054 2.01217 8.135 1.77249C7.6002 1.5 6.90015 1.5 5.5 1.5H4.5C3.09987 1.5 2.39981 1.5 1.86503 1.77249C1.39462 2.01217 1.01217 2.39462 0.772485 2.86503C0.5 3.39981 0.5 4.09987 0.5 5.5V6.5C0.5 7.90015 0.5 8.6002 0.772485 9.135C1.01217 9.6054 1.39462 9.98785 1.86503 10.2275C2.39981 10.5 3.09987 10.5 4.5 10.5H5Z" stroke="#344054" stroke-linecap="round" stroke-linejoin="round"/>
</svg>
