<svg width="12" height="12" viewBox="0 0 12 12" fill="none" xmlns="http://www.w3.org/2000/svg">
<path d="M9 7V7C9 8.10457 8.10457 9 7 9V9M9 5V5C9 3.59987 9 2.8998 8.72752 2.36502C8.48783 1.89462 8.10538 1.51217 7.63498 1.27248C7.1002 1 6.40013 1 5 1V1C3.59987 1 2.8998 1 2.36502 1.27248C1.89462 1.51217 1.51217 1.89462 1.27248 2.36502C1 2.8998 1 3.59987 1 5V5C1 6.40013 1 7.1002 1.27248 7.63498C1.51217 8.10538 1.89462 8.48783 2.36502 8.72752C2.8998 9 3.59987 9 5 9V9" stroke="#344054" stroke-linecap="round" stroke-linejoin="round"/>
<path d="M3 7V7C3 8.40013 3 9.1002 3.27248 9.63498C3.51217 10.1054 3.89462 10.4878 4.36502 10.7275C4.8998 11 5.59987 11 7 11V11C8.40013 11 9.1002 11 9.63498 10.7275C10.1054 10.4878 10.4878 10.1054 10.7275 9.63498C11 9.1002 11 8.40013 11 7V7C11 5.59987 11 4.8998 10.7275 4.36502C10.4878 3.89462 10.1054 3.51217 9.63498 3.27248C9.1002 3 8.40013 3 7 3V3M3 5V5C3 3.89543 3.89543 3 5 3V3" stroke="#344054" stroke-linecap="round" stroke-linejoin="round"/>
</svg>
