<svg width="12" height="12" viewBox="0 0 12 12" fill="none" xmlns="http://www.w3.org/2000/svg">
<path d="M1.5 4.25C1.5 2.73122 2.73122 1.5 4.25 1.5C5.76878 1.5 7 2.73122 7 4.25C7 5.18006 6.53829 6.00229 5.83158 6.49997C5.93957 6.72729 6 6.98159 6 7.25C6 8.2165 5.2165 9 4.25 9C3.2835 9 2.5 8.2165 2.5 7.25M10.5 7.5C10.5 9.15685 9.15685 10.5 7.5 10.5M8.5 7.5C8.5 8.05228 8.05228 8.5 7.5 8.5M5.5 4.25C5.5 3.55964 4.94036 3 4.25 3C3.55964 3 3 3.55964 3 4.25C3 4.66052 3.1979 5.02483 3.5035 5.25271C3.90462 5.55182 4.10518 5.70138 4.14773 5.75723C4.21172 5.84122 4.20158 5.82102 4.23066 5.92253C4.25 5.99002 4.25 6.09335 4.25 6.3V7" stroke="#344054" stroke-linecap="round" stroke-linejoin="round"/>
</svg>
