<svg width="12" height="12" viewBox="0 0 12 12" fill="none" xmlns="http://www.w3.org/2000/svg">
<path d="M6 11L6 0.999988M1 5.74999L11 5.74999M10.5 8.5C10.5 8.63807 10.3881 8.75 10.25 8.75C10.1119 8.75 10 8.63807 10 8.5M10.5 8.5C10.5 8.36193 10.3881 8.25 10.25 8.25C10.1119 8.25 10 8.36193 10 8.5M10.5 8.5L10 8.5M8.75 10.25C8.75 10.3881 8.63807 10.5 8.5 10.5C8.36193 10.5 8.25 10.3881 8.25 10.25M8.75 10.25C8.75 10.1119 8.63807 10 8.5 10C8.36193 10 8.25 10.1119 8.25 10.25M8.75 10.25L8.25 10.25M8.25 8C8.25 8.13807 8.13807 8.25 8 8.25C7.86193 8.25 7.75 8.13807 7.75 8M8.25 8C8.25 7.86193 8.13807 7.75 8 7.75C7.86193 7.75 7.75 7.86193 7.75 8M8.25 8L7.75 8M4.25 8C4.25 8.13807 4.13807 8.25 4 8.25C3.86193 8.25 3.75 8.13807 3.75 8M4.25 8C4.25 7.86193 4.13807 7.75 4 7.75C3.86193 7.75 3.75 7.86193 3.75 8M4.25 8L3.75 8M4.25 4C4.25 4.13807 4.13807 4.25 4 4.25C3.86193 4.25 3.75 4.13807 3.75 4M4.25 4C4.25 3.86193 4.13807 3.75 4 3.75C3.86193 3.75 3.75 3.86193 3.75 4M4.25 4L3.75 4M2.25 4C2.25 4.13807 2.13807 4.25 2 4.25C1.86193 4.25 1.75 4.13807 1.75 4M2.25 4C2.25 3.86193 2.13807 3.75 2 3.75C1.86193 3.75 1.75 3.86193 1.75 4M2.25 4L1.75 4M10.5 1.75C10.5 1.88807 10.3881 2 10.25 2C10.1119 2 10 1.88807 10 1.75M10.5 1.75C10.5 1.61193 10.3881 1.5 10.25 1.5C10.1119 1.5 10 1.61193 10 1.75M10.5 1.75L10 1.75M9 3.75C9 4.16421 8.66421 4.5 8.25 4.5C7.83579 4.5 7.5 4.16421 7.5 3.75C7.5 3.33579 7.83579 3 8.25 3C8.66421 3 9 3.33579 9 3.75ZM3 9.75C3 10.1642 2.66421 10.5 2.25 10.5C1.83579 10.5 1.5 10.1642 1.5 9.75C1.5 9.33579 1.83579 9 2.25 9C2.66421 9 3 9.33579 3 9.75ZM3.75 2C3.75 2.41421 3.41421 2.75 3 2.75C2.58579 2.75 2.25 2.41421 2.25 2C2.25 1.58579 2.58579 1.25 3 1.25C3.41421 1.25 3.75 1.58579 3.75 2Z" stroke="#344054" stroke-linecap="round" stroke-linejoin="round"/>
</svg>
