<svg width="12" height="12" viewBox="0 0 12 12" fill="none" xmlns="http://www.w3.org/2000/svg">
<g clip-path="url(#clip0_17004_257990)">
<path d="M6 11V1M1 5.75H11M10.5 8.50001C10.5 8.63808 10.3881 8.75001 10.25 8.75001C10.1119 8.75001 10 8.63808 10 8.50001M10.5 8.50001C10.5 8.36194 10.3881 8.25001 10.25 8.25001C10.1119 8.25001 10 8.36194 10 8.50001M10.5 8.50001H10M8.75 10.25C8.75 10.3881 8.63807 10.5 8.5 10.5C8.36193 10.5 8.25 10.3881 8.25 10.25M8.75 10.25C8.75 10.1119 8.63807 10 8.5 10C8.36193 10 8.25 10.1119 8.25 10.25M8.75 10.25H8.25M8.25 8.00001C8.25 8.13808 8.13807 8.25001 8 8.25001C7.86193 8.25001 7.75 8.13808 7.75 8.00001M8.25 8.00001C8.25 7.86194 8.13807 7.75001 8 7.75001C7.86193 7.75001 7.75 7.86194 7.75 8.00001M8.25 8.00001H7.75M4.25 8.00001C4.25 8.13808 4.13807 8.25001 4 8.25001C3.86193 8.25001 3.75 8.13808 3.75 8.00001M4.25 8.00001C4.25 7.86194 4.13807 7.75001 4 7.75001C3.86193 7.75001 3.75 7.86194 3.75 8.00001M4.25 8.00001H3.75M4.25 4.00001C4.25 4.13808 4.13807 4.25001 4 4.25001C3.86193 4.25001 3.75 4.13808 3.75 4.00001M4.25 4.00001C4.25 3.86194 4.13807 3.75001 4 3.75001C3.86193 3.75001 3.75 3.86194 3.75 4.00001M4.25 4.00001H3.75M2.25 4.00001C2.25 4.13808 2.13807 4.25001 2 4.25001C1.86193 4.25001 1.75 4.13808 1.75 4.00001M2.25 4.00001C2.25 3.86194 2.13807 3.75001 2 3.75001C1.86193 3.75001 1.75 3.86194 1.75 4.00001M2.25 4.00001H1.75M10.5 1.75001C10.5 1.88808 10.3881 2.00001 10.25 2.00001C10.1119 2.00001 10 1.88808 10 1.75001M10.5 1.75001C10.5 1.61194 10.3881 1.50001 10.25 1.50001C10.1119 1.50001 10 1.61194 10 1.75001M10.5 1.75001H10M9 3.75001C9 4.16422 8.66421 4.50001 8.25 4.50001C7.83579 4.50001 7.5 4.16422 7.5 3.75001C7.5 3.3358 7.83579 3.00001 8.25 3.00001C8.66421 3.00001 9 3.3358 9 3.75001ZM3 9.75001C3 10.1642 2.66421 10.5 2.25 10.5C1.83579 10.5 1.5 10.1642 1.5 9.75001C1.5 9.3358 1.83579 9.00001 2.25 9.00001C2.66421 9.00001 3 9.3358 3 9.75001ZM3.75 2.00001C3.75 2.41422 3.41421 2.75001 3 2.75001C2.58579 2.75001 2.25 2.41422 2.25 2.00001C2.25 1.5858 2.58579 1.25001 3 1.25001C3.41421 1.25001 3.75 1.5858 3.75 2.00001Z" stroke="#344054" stroke-linecap="round" stroke-linejoin="round"/>
</g>
<defs>
<clipPath id="clip0_17004_257990">
<rect width="12" height="12" fill="white"/>
</clipPath>
</defs>
</svg>
