<svg width="24" height="25" viewBox="0 0 24 25" fill="none" xmlns="http://www.w3.org/2000/svg">
<g id="book-open-01">
<path id="Icon" d="M12 21.9434L11.8999 21.7933C11.2053 20.7513 10.858 20.2303 10.3991 19.8532C9.99286 19.5193 9.52476 19.2688 9.02161 19.116C8.45325 18.9434 7.82711 18.9434 6.57482 18.9434H5.2C4.07989 18.9434 3.51984 18.9434 3.09202 18.7254C2.71569 18.5336 2.40973 18.2277 2.21799 17.8513C2 17.4235 2 16.8635 2 15.7434V7.14336C2 6.02325 2 5.4632 2.21799 5.03538C2.40973 4.65905 2.71569 4.35309 3.09202 4.16135C3.51984 3.94336 4.07989 3.94336 5.2 3.94336H5.6C7.84021 3.94336 8.96031 3.94336 9.81596 4.37933C10.5686 4.76283 11.1805 5.37475 11.564 6.1274C12 6.98304 12 8.10315 12 10.3434M12 21.9434V10.3434M12 21.9434L12.1001 21.7933C12.7947 20.7513 13.142 20.2303 13.6009 19.8532C14.0071 19.5193 14.4752 19.2688 14.9784 19.116C15.5467 18.9434 16.1729 18.9434 17.4252 18.9434H18.8C19.9201 18.9434 20.4802 18.9434 20.908 18.7254C21.2843 18.5336 21.5903 18.2277 21.782 17.8513C22 17.4235 22 16.8635 22 15.7434V7.14336C22 6.02325 22 5.4632 21.782 5.03538C21.5903 4.65905 21.2843 4.35309 20.908 4.16135C20.4802 3.94336 19.9201 3.94336 18.8 3.94336H18.4C16.1598 3.94336 15.0397 3.94336 14.184 4.37933C13.4314 4.76283 12.8195 5.37475 12.436 6.1274C12 6.98304 12 8.10315 12 10.3434" stroke="white" stroke-width="2" stroke-linecap="round" stroke-linejoin="round"/>
</g>
</svg>
