<svg width="24" height="25" viewBox="0 0 24 25" fill="none" xmlns="http://www.w3.org/2000/svg">
<g id="chart-breakout-square">
<path id="Icon" d="M11 3.94336H7.8C6.11984 3.94336 5.27976 3.94336 4.63803 4.27034C4.07354 4.55796 3.6146 5.0169 3.32698 5.58139C3 6.22312 3 7.0632 3 8.74336V17.1434C3 18.8235 3 19.6636 3.32698 20.3053C3.6146 20.8698 4.07354 21.3288 4.63803 21.6164C5.27976 21.9434 6.11984 21.9434 7.8 21.9434H16.2C17.8802 21.9434 18.7202 21.9434 19.362 21.6164C19.9265 21.3288 20.3854 20.8698 20.673 20.3053C21 19.6636 21 18.8235 21 17.1434V13.9434M12 8.94336H16V12.9434M15.5 4.44336V2.94336M19.4393 5.50402L20.5 4.44336M20.5103 9.44336H22.0103M3 14.2905C3.65194 14.3911 4.31987 14.4434 5 14.4434C9.38636 14.4434 13.2653 12.271 15.6197 8.94336" stroke="white" stroke-width="2" stroke-linecap="round" stroke-linejoin="round"/>
</g>
</svg>
