<svg width="24" height="25" viewBox="0 0 24 25" fill="none" xmlns="http://www.w3.org/2000/svg">
<g id="message-smile-square">
<path id="Icon" d="M8.5 13.4434C8.5 13.4434 9.8125 14.9434 12 14.9434C14.1875 14.9434 15.5 13.4434 15.5 13.4434M14.75 8.44336H14.76M9.25 8.44336H9.26M7 18.9434V21.2789C7 21.8117 7 22.0781 7.10923 22.215C7.20422 22.334 7.34827 22.4032 7.50054 22.403C7.67563 22.4029 7.88367 22.2364 8.29976 21.9036L10.6852 19.9952C11.1725 19.6053 11.4162 19.4104 11.6875 19.2718C11.9282 19.1488 12.1844 19.059 12.4492 19.0046C12.7477 18.9434 13.0597 18.9434 13.6837 18.9434H16.2C17.8802 18.9434 18.7202 18.9434 19.362 18.6164C19.9265 18.3288 20.3854 17.8698 20.673 17.3053C21 16.6636 21 15.8235 21 14.1434V8.74336C21 7.0632 21 6.22312 20.673 5.58139C20.3854 5.0169 19.9265 4.55796 19.362 4.27034C18.7202 3.94336 17.8802 3.94336 16.2 3.94336H7.8C6.11984 3.94336 5.27976 3.94336 4.63803 4.27034C4.07354 4.55796 3.6146 5.0169 3.32698 5.58139C3 6.22312 3 7.0632 3 8.74336V14.9434C3 15.8733 3 16.3383 3.10222 16.7198C3.37962 17.7551 4.18827 18.5637 5.22354 18.8411C5.60504 18.9434 6.07003 18.9434 7 18.9434ZM15.25 8.44336C15.25 8.7195 15.0261 8.94336 14.75 8.94336C14.4739 8.94336 14.25 8.7195 14.25 8.44336C14.25 8.16722 14.4739 7.94336 14.75 7.94336C15.0261 7.94336 15.25 8.16722 15.25 8.44336ZM9.75 8.44336C9.75 8.7195 9.52614 8.94336 9.25 8.94336C8.97386 8.94336 8.75 8.7195 8.75 8.44336C8.75 8.16722 8.97386 7.94336 9.25 7.94336C9.52614 7.94336 9.75 8.16722 9.75 8.44336Z" stroke="white" stroke-width="2" stroke-linecap="round" stroke-linejoin="round"/>
</g>
</svg>
