<svg width="24" height="25" viewBox="0 0 24 25" fill="none" xmlns="http://www.w3.org/2000/svg">
<g id="package">
<path id="Icon" d="M20.5 8.2207L12 12.9429M12 12.9429L3.49997 8.2207M12 12.9429L12 22.443M7.5 5.44287L16.5 10.4429M21 17.0015V8.8844C21 8.54176 21 8.37044 20.9495 8.21764C20.9049 8.08246 20.8318 7.95838 20.7354 7.85369C20.6263 7.73535 20.4766 7.65215 20.177 7.48575L12.777 3.37464C12.4934 3.21708 12.3516 3.1383 12.2015 3.10742C12.0685 3.08008 11.9315 3.08008 11.7986 3.10742C11.6484 3.1383 11.5066 3.21708 11.223 3.37464L3.82297 7.48575C3.52345 7.65215 3.37369 7.73535 3.26463 7.85369C3.16816 7.95838 3.09515 8.08246 3.05048 8.21764C3 8.37044 3 8.54176 3 8.8844V17.0015C3 17.3442 3 17.5155 3.05048 17.6683C3.09515 17.8034 3.16816 17.9275 3.26463 18.0322C3.37369 18.1506 3.52345 18.2338 3.82297 18.4002L11.223 22.5113C11.5066 22.6688 11.6484 22.7476 11.7986 22.7785C11.9315 22.8058 12.0685 22.8058 12.2015 22.7785C12.3516 22.7476 12.4934 22.6688 12.777 22.5113L20.177 18.4002C20.4766 18.2338 20.6263 18.1506 20.7354 18.0322C20.8318 17.9275 20.9049 17.8034 20.9495 17.6683C21 17.5155 21 17.3442 21 17.0015Z" stroke="white" stroke-width="2" stroke-linecap="round" stroke-linejoin="round"/>
</g>
</svg>
